<?xml version="1.0" standalone="no"?>
<!DOCTYPE svg PUBLIC "-//W3C//DTD SVG 1.1//EN" "http://www.w3.org/Graphics/SVG/1.1/DTD/svg11.dtd" >
<svg xmlns="http://www.w3.org/2000/svg">
<metadata></metadata>
<defs>
<font id="MatterhornBold" horiz-adv-x="1325" >
<font-face units-per-em="2048" ascent="1536" descent="-512" />
<missing-glyph horiz-adv-x="532" />
<glyph horiz-adv-x="0" />
<glyph horiz-adv-x="0" />
<glyph unicode="&#xd;" horiz-adv-x="532" />
<glyph unicode=" "  horiz-adv-x="532" />
<glyph unicode="&#x09;" horiz-adv-x="532" />
<glyph unicode="&#xa0;" horiz-adv-x="532" />
<glyph unicode="!" horiz-adv-x="606" d="M131 1434h344l-29 -916h-286zM102 172q0 44 15 81t42 63.5t64 41.5t80 15t80 -15t64 -41.5t42 -63.5t15 -81t-15 -81t-42 -63.5t-64 -41.5t-80 -15t-80 15t-64 41.5t-42 63.5t-15 81z" />
<glyph unicode="&#x22;" horiz-adv-x="1016" d="M102 1462h326l-33 -639h-284zM608 1462h326l-33 -639h-285z" />
<glyph unicode="#" horiz-adv-x="1444" d="M166 1085h227l45 349h250l-45 -349h252l45 349h250l-45 -349h196v-213h-223l-41 -311h201v-213h-227l-45 -348h-250l45 348h-252l-45 -348h-250l45 348h-197v213h224l41 311h-201v213zM575 561h252l41 311h-252z" />
<glyph unicode="$" horiz-adv-x="1135" d="M457 -27q-59 3 -111.5 12t-97.5 22.5t-82 29.5t-64 31v301q76 -53 169 -83t196 -30q118 0 174.5 40.5t56.5 102.5q0 42 -25.5 73t-66.5 58t-94 52t-108.5 53.5t-108.5 64t-94 83t-66.5 110t-25.5 145.5q0 82 25 149.5t72 119.5t113.5 87t149.5 52v190h246v-178 q88 -8 155.5 -30t110.5 -48v-290q-29 17 -64 34t-75.5 31t-86 22.5t-93.5 8.5q-100 0 -155.5 -36.5t-55.5 -96.5q0 -40 25.5 -70.5t67 -57t94.5 -52t108.5 -54.5t108.5 -64.5t94.5 -83t67 -109.5t25.5 -144t-25 -150t-70 -121.5t-107.5 -90.5t-137.5 -58v-240h-245v215z" />
<glyph unicode="%" horiz-adv-x="2079" d="M494 602q-86 0 -157.5 30t-124 85t-81.5 131.5t-29 169.5t29 169.5t81.5 131.5t124 85t157.5 30q85 0 157 -30t124 -85t81 -131.5t29 -169.5t-29 -169.5t-81 -131.5t-124 -85t-157 -30zM494 805q65 0 104 56.5t39 156.5t-39 156.5t-104 56.5t-104.5 -56.5t-39.5 -156.5 t39.5 -156.5t104.5 -56.5zM1264 1462h254l-703 -1491h-254zM1585 831q85 0 157 -30t124 -84.5t81 -131t29 -169.5t-29 -169.5t-81 -131.5t-124 -85t-157 -30t-157 30t-124 85t-81 131.5t-29 169.5t29 169.5t81 131t124 84.5t157 30zM1585 629q-65 0 -104 -56.5t-39 -156.5 t39 -156.5t104 -56.5t104.5 56.5t39.5 156.5t-39.5 156.5t-104.5 56.5z" />
<glyph unicode="&#x26;" horiz-adv-x="1427" d="M1087 0l-104 121q-80 -71 -184.5 -110.5t-235.5 -39.5q-107 0 -192 27.5t-145 77t-92 119t-32 153.5q0 77 25.5 141.5t67.5 119t97 101t114 87.5q-40 51 -66.5 97t-42.5 87.5t-22.5 78t-6.5 68.5q0 69 26.5 129.5t78 106t128 72t177.5 26.5q84 0 154 -19.5t121 -58 t79.5 -95t28.5 -130.5q0 -70 -24.5 -127t-66 -104.5t-94.5 -88t-110 -77.5l213 -240q17 40 29.5 83t23.5 91h244q-19 -99 -49.5 -191t-75.5 -175l295 -330h-359zM614 223q122 0 215 78l-276 322q-32 -25 -58.5 -50.5t-45.5 -54t-30 -59.5t-11 -66q0 -43 16.5 -75t44.5 -53 t65.5 -31.5t79.5 -10.5zM545 1120q0 -17 2.5 -36t10 -41.5t21.5 -49t37 -57.5q37 25 68.5 50.5t54.5 51.5t36 53.5t13 57.5q0 25 -9.5 46.5t-25.5 37.5t-38 24.5t-47 8.5q-24 0 -46 -8.5t-39.5 -26t-27.5 -45t-10 -66.5z" />
<glyph unicode="'" horiz-adv-x="510" d="M102 1462h326l-33 -639h-284z" />
<glyph unicode="(" horiz-adv-x="872" d="M143 659q0 157 28.5 295t77 257.5t112 221t133.5 185.5h317q-62 -72 -123 -169t-109 -217.5t-78 -264t-30 -308.5q0 -164 30 -306.5t78 -263t109 -217.5t123 -169h-315q-71 83 -135 184.5t-112.5 221t-77 257t-28.5 293.5z" />
<glyph unicode=")" horiz-adv-x="872" d="M729 659q0 -156 -28.5 -293.5t-77 -257t-112.5 -221t-134 -184.5h-316q62 72 123 169t109 217.5t78 263t30 306.5q0 165 -30 308.5t-78 264t-109 217.5t-123 169h318q70 -84 133.5 -185.5t111.5 -221t76.5 -257.5t28.5 -295z" />
<glyph unicode="*" horiz-adv-x="1130" d="M397 993l-295 74l72 238l289 -115l-23 305h246l-20 -305l288 115l74 -238l-297 -74l197 -235l-201 -146l-162 258l-162 -258l-200 146z" />
<glyph unicode="+" horiz-adv-x="1337" d="M807 1178v-447h428v-278h-428v-449h-279v449h-426v278h426v447h279z" />
<glyph unicode="," horiz-adv-x="541" d="M82 -276q30 24 58 53.5t50 62t36.5 66.5t17.5 67q-39 4 -71 21t-55 43.5t-35.5 61t-12.5 75.5q0 45 15 81.5t42 62.5t63.5 40.5t79.5 14.5q44 0 81 -15.5t63.5 -45.5t41.5 -74.5t15 -102.5q0 -60 -16.5 -125.5t-52 -131.5t-91.5 -131.5t-135 -125.5l-94 103v0z" />
<glyph unicode="-" horiz-adv-x="795" d="M102 743h590v-268h-590v268z" />
<glyph unicode="." horiz-adv-x="541" d="M70 172q0 44 15 81t42 63.5t63.5 41.5t79.5 15t80 -15t64 -41.5t42 -63.5t15 -81t-15 -81t-42 -63.5t-64 -41.5t-80 -15t-79.5 15t-63.5 41.5t-42 63.5t-15 81z" />
<glyph unicode="/" horiz-adv-x="801" d="M305 -152h-285l476 1737h284z" />
<glyph unicode="0" horiz-adv-x="1360" d="M680 -29q-133 0 -238 53.5t-178 151.5t-112 235.5t-39 305.5q0 167 39 304.5t112 235.5t178 151.5t238 53.5t238 -53.5t178 -151.5t112 -235.5t39 -304.5q0 -168 -39 -305.5t-112 -235.5t-178 -151.5t-238 -53.5zM680 240q55 0 97.5 34t71 96t43.5 150.5t15 196.5 t-15 196.5t-43.5 150.5t-71 96t-97.5 34q-56 0 -98 -34t-71 -96t-43.5 -150.5t-14.5 -196.5t14.5 -196.5t43.5 -150.5t71 -96t98 -34z" />
<glyph unicode="1" horiz-adv-x="795" d="M600 1434v-1434h-321v1176h-248v258h569z" />
<glyph unicode="2" horiz-adv-x="1143" d="M84 1339q84 57 186.5 90t223.5 33q113 0 205.5 -32t158.5 -89.5t102.5 -137.5t36.5 -175q0 -61 -18 -120t-52 -119.5t-83 -125.5t-111 -137l-229 -268h526v-258h-979v133l387 461q64 76 108.5 136t72.5 110.5t40.5 93t12.5 84.5q0 37 -14.5 69.5t-42 56.5t-68 38 t-92.5 14q-63 0 -118.5 -16.5t-102.5 -41t-84.5 -52.5t-65.5 -50v303z" />
<glyph unicode="3" horiz-adv-x="1130" d="M694 453q0 47 -19.5 87.5t-60 70t-102 46.5t-145.5 17q-17 0 -32 -1t-28 -2q-15 -2 -28 -3v147l288 361h-471v258h891v-134l-340 -426q77 -15 144.5 -50.5t118 -89t79.5 -124.5t29 -157q0 -97 -35 -184.5t-105 -153.5t-175.5 -105t-245.5 -39q-52 0 -104 6t-100 15.5 t-89.5 22t-71.5 24.5v272q31 -15 69.5 -29t80.5 -24t86.5 -16t87.5 -6q66 0 117.5 17.5t87.5 47t54.5 69t18.5 83.5z" />
<glyph unicode="4" horiz-adv-x="1210" d="M10 457l756 977h184v-924h189v-248h-189v-262h-311v262h-629v195zM639 510v416l-322 -416h322z" />
<glyph unicode="5" horiz-adv-x="1194" d="M207 1434h809v-258h-551l-19 -273q28 3 55.5 5.5t53.5 2.5q106 0 200.5 -29.5t165.5 -87.5t112.5 -145.5t41.5 -202.5q0 -101 -37.5 -187.5t-111.5 -150.5t-183.5 -100.5t-253.5 -36.5q-55 0 -108.5 6t-102.5 16t-91 23t-74 27v270q72 -34 161 -60t185 -26q62 0 115.5 14 t93 42t62 68.5t22.5 94.5t-22.5 95.5t-62 69.5t-93 42.5t-115.5 14.5q-82 0 -157.5 -16.5t-143.5 -41.5z" />
<glyph unicode="6" horiz-adv-x="1247" d="M72 449q0 46 8 89t24.5 85t41 85t57.5 91l440 635h385l-383 -510q7 0 16 1q8 0 17 0.5t20 0.5q95 0 180 -36t148.5 -100t101 -152t37.5 -192q0 -106 -39.5 -193.5t-111.5 -150t-173 -97t-223 -34.5t-222.5 34.5t-172.5 97.5t-111.5 151t-39.5 195zM395 451 q0 -52 17 -94.5t47 -72.5t71 -46.5t88 -16.5q48 0 89 16.5t71 46.5t47 72.5t17 94.5q0 51 -17 93.5t-47 73t-71 47.5t-89 17q-47 0 -88 -17t-71 -47.5t-47 -73t-17 -93.5z" />
<glyph unicode="7" horiz-adv-x="1071" d="M35 1434h1005v-134l-596 -1300h-342l547 1176h-614v258z" />
<glyph unicode="8" horiz-adv-x="1286" d="M639 -29q-121 0 -220 30t-169.5 83.5t-109 127.5t-38.5 163q0 86 32 149t79.5 108t101.5 73t99 43q-53 24 -100 54.5t-81.5 70t-54.5 91t-20 119.5q0 94 41.5 165.5t110.5 118.5t158.5 71t186.5 24q104 0 192.5 -25.5t153.5 -72t101.5 -112t36.5 -146.5q0 -74 -27 -131 t-67.5 -100t-87 -71.5t-85.5 -45.5q57 -26 113 -59t100 -78t71.5 -105t27.5 -139q0 -92 -41 -167t-113.5 -128t-172.5 -82t-218 -29zM860 375q0 55 -22.5 95t-58.5 70.5t-82 54t-93 46.5q-19 -10 -49.5 -30t-59 -51.5t-49 -76t-20.5 -104.5q0 -37 16 -68.5t45 -55t68.5 -37 t87.5 -13.5q46 0 85.5 12.5t69 35t46 54t16.5 68.5zM481 1094q0 -45 17 -78.5t45 -60t64.5 -48.5t76.5 -43q18 13 41 32.5t43 47.5t33.5 64.5t13.5 83.5q0 29 -11.5 54t-32 43.5t-49.5 29t-65 10.5q-35 0 -66.5 -9.5t-56 -27t-39 -42.5t-14.5 -56z" />
<glyph unicode="9" horiz-adv-x="1247" d="M1176 985q0 -47 -8 -89.5t-24.5 -84.5t-41.5 -85t-58 -91l-440 -635h-385l383 510q-7 -1 -16 -1q-8 -1 -17 -1h-20q-95 0 -180 36t-149 100t-101 151.5t-37 191.5q0 106 39.5 193.5t111.5 150t173 97t223 34.5t222.5 -34.5t172.5 -97t112 -150.5t40 -195zM852 983 q0 51 -17 93.5t-47 72.5t-70.5 46.5t-88.5 16.5t-88.5 -16.5t-70.5 -46.5t-47 -72.5t-17 -93.5t17 -93.5t47 -73t70.5 -47.5t88.5 -17t88.5 17t70.5 47.5t47 73t17 93.5z" />
<glyph unicode=":" horiz-adv-x="606" d="M102 172q0 44 15 81t42 63.5t64 41.5t80 15t80 -15t64 -41.5t42 -63.5t15 -81t-15 -81t-42 -63.5t-64 -41.5t-80 -15t-80 15t-64 41.5t-42 63.5t-15 81zM102 864q0 44 15 81t42 63.5t64 41.5t80 15t80 -15t64 -41.5t42 -63.5t15 -81t-15 -80.5t-42 -63t-64 -41.5t-80 -15 t-80 15t-64 41.5t-42 63t-15 80.5z" />
<glyph unicode=";" horiz-adv-x="606" d="M102 864q0 44 15 81t42 63.5t64 41.5t80 15t80 -15t64 -41.5t42 -63.5t15 -81t-15 -80.5t-42 -63t-64 -41.5t-80 -15t-80 15t-64 41.5t-42 63t-15 80.5zM102 174q0 45 15 81.5t42 62.5t64 40.5t80 14.5q44 0 81 -15.5t63.5 -45.5t41.5 -74.5t15 -102.5 q0 -60 -16.5 -125.5t-52 -131.5t-91.5 -131.5t-135 -125.5l-94 103q30 24 58 53.5t49.5 62t36 66.5t17.5 67q-38 4 -70 21t-55 43.5t-36 61t-13 75.5z" />
<glyph unicode="&#x3c;" horiz-adv-x="1245" d="M1102 307v-307l-1041 451v280l1041 451v-308l-699 -284z" />
<glyph unicode="=" horiz-adv-x="1501" d="M1317 707h-1133v278h1133v-278zM1317 197h-1133v278h1133v-278z" />
<glyph unicode="&#x3e;" horiz-adv-x="1245" d="M143 874v308l1041 -451v-280l-1041 -451v307l699 283z" />
<glyph unicode="?" horiz-adv-x="901" d="M225 518q-6 43 -6 78q0 67 21 121t52 99t67.5 82t67.5 71t52 65.5t21 65.5q0 48 -34.5 76t-107.5 28q-63 0 -132 -20t-134 -56v261q85 42 165.5 57.5t150.5 15.5q97 0 175 -23.5t133 -67t85 -105t30 -138.5q0 -75 -25.5 -131.5t-63.5 -101.5t-82 -83t-82 -77t-63.5 -82.5 t-25.5 -99.5q0 -9 0.5 -17.5t2.5 -17.5h-267zM158 172q0 44 15 81t42 63.5t63.5 41.5t79.5 15t80 -15t64 -41.5t42 -63.5t15 -81t-15 -81t-42 -63.5t-64 -41.5t-80 -15t-79.5 15t-63.5 41.5t-42 63.5t-15 81z" />
<glyph unicode="@" horiz-adv-x="1862" d="M1759 739q0 -132 -35 -235.5t-95 -175t-140.5 -109t-171.5 -37.5q-65 0 -109.5 19t-72.5 42q-33 27 -52 62q-18 -14 -41.5 -31t-55 -32t-71.5 -25t-90 -10q-75 0 -132.5 25t-97 72t-59.5 113.5t-20 149.5q0 102 28.5 190t78.5 153.5t118.5 103t149.5 37.5q65 0 111.5 -23 t87.5 -65l8 79h221l-53 -559q-5 -56 17 -80t54 -24q37 0 71 20t60.5 63t42 109.5t15.5 159.5q0 119 -39.5 216.5t-111 167t-171 107.5t-219.5 38q-145 0 -264.5 -55t-205 -150t-132.5 -222.5t-47 -273.5q0 -137 41.5 -241.5t116 -174.5t178 -105.5t227.5 -35.5q204 0 356 96 l103 -178q-102 -60 -220.5 -93.5t-258.5 -33.5q-169 0 -311.5 50t-246 146.5t-161.5 237t-58 320.5q0 126 29 243t83.5 218.5t132.5 185t176 143t214.5 92.5t247.5 33q111 0 211.5 -24t186.5 -69t155.5 -109t118.5 -144.5t75.5 -175.5t26.5 -201zM942 842q-47 0 -81 -21 t-56 -55.5t-32.5 -77.5t-10.5 -88q0 -33 6.5 -65t22 -57t41.5 -40.5t65 -15.5q24 0 46 5.5t40.5 13t32.5 16t22 14.5l33 320q-7 7 -19 15.5t-28.5 16.5t-37 13.5t-44.5 5.5z" />
<glyph unicode="A" horiz-adv-x="1409" d="M1407 0h-346l-84 236h-545l-84 -236h-346l559 1434h287zM514 469h379l-188 535z" />
<glyph unicode="B" horiz-adv-x="1370" d="M965 756q75 -14 135 -46t101.5 -77.5t64 -103.5t22.5 -123q0 -89 -36 -163.5t-109.5 -128.5t-184.5 -84t-262 -30h-522v1434h508q139 0 239.5 -28t165 -76.5t95 -114.5t30.5 -142q0 -52 -15 -101.5t-45.5 -91t-77 -73t-109.5 -47.5v-4zM664 254q77 0 131 13.5t87.5 38 t48.5 59t15 77.5t-15.5 78t-49.5 59.5t-87.5 38t-129.5 13.5h-162v-377h162zM502 1180v-303h153q63 0 104 14.5t64.5 36.5t33 49t9.5 51q0 28 -9.5 55t-33 48.5t-64.5 35t-104 13.5h-153z" />
<glyph unicode="C" horiz-adv-x="1317" d="M92 717q0 165 54.5 302t151.5 235.5t229.5 153t287.5 54.5q69 0 131 -9.5t113.5 -24t91 -31t63.5 -31.5v-326q-32 27 -69.5 52t-82 44.5t-96.5 31.5t-112 12q-99 0 -176.5 -34t-131.5 -95t-82 -146t-28 -188t28 -188.5t82 -146.5t131.5 -94.5t176.5 -33.5q60 0 112 11.5 t96.5 31t82 44.5t69.5 52v-325q-24 -15 -63.5 -32t-91 -31.5t-113.5 -24t-131 -9.5q-155 0 -287.5 54.5t-229.5 153t-151.5 236t-54.5 302.5z" />
<glyph unicode="D" horiz-adv-x="1487" d="M174 1434h373q220 0 380 -54.5t264 -150.5t154 -227.5t50 -284.5q0 -154 -50 -285t-154 -227t-264 -150.5t-380 -54.5h-373v1434zM1051 717q0 217 -124.5 333.5t-379.5 116.5h-45v-901h45q255 0 379.5 117t124.5 334z" />
<glyph unicode="E" horiz-adv-x="1219" d="M502 266h594v-266h-922v1434h922v-267h-594v-297h491v-266h-491v-338z" />
<glyph unicode="F" horiz-adv-x="1137" d="M502 0h-328v1434h881v-267h-553v-338h471v-266h-471v-563z" />
<glyph unicode="G" horiz-adv-x="1460" d="M92 717q0 165 56.5 302t156 235.5t235.5 153t296 54.5q76 0 144 -9.5t124.5 -24t100 -31t71.5 -31.5v-305q-35 23 -76.5 44.5t-91 38t-108 26.5t-126.5 10q-104 0 -185 -34t-137.5 -95t-86 -146t-29.5 -188t28 -188.5t82 -146.5t131.5 -94.5t176.5 -33.5q73 0 135 12v258 h-172v238h500v-694q-32 -15 -81.5 -32t-113.5 -31.5t-141.5 -24t-165.5 -9.5q-155 0 -287.5 54.5t-229.5 153t-151.5 236t-54.5 302.5z" />
<glyph unicode="H" horiz-adv-x="1581" d="M1079 614h-577v-614h-328v1434h328v-553h577v553h328v-1434h-328v614z" />
<glyph unicode="I" horiz-adv-x="676" d="M174 1434h328v-1434h-328v1434z" />
<glyph unicode="J" horiz-adv-x="911" d="M0 303q53 -26 113 -39.5t114 -13.5q88 0 140.5 49t52.5 143v992h328v-985q0 -125 -35 -215.5t-97 -149t-147.5 -86t-185.5 -27.5q-39 0 -80.5 3.5t-80 10t-70.5 14.5t-52 17v287z" />
<glyph unicode="K" horiz-adv-x="1409" d="M174 1434h328v-619l471 619h413l-512 -629l553 -805h-395l-358 555l-172 -149v-406h-328v1434z" />
<glyph unicode="L" horiz-adv-x="1096" d="M174 1434h328v-1168h594v-266h-922v1434z" />
<glyph unicode="M" horiz-adv-x="1896" d="M897 342l-395 555v-897h-328v1434h287l487 -684l488 684h286v-1434h-327v897l-396 -555h-102z" />
<glyph unicode="N" horiz-adv-x="1655" d="M1194 0l-692 895v-895h-328v1434h287l692 -895v895h328v-1434h-287z" />
<glyph unicode="O" horiz-adv-x="1667" d="M436 717q0 -107 28.5 -193t81 -146.5t126 -93t162.5 -32.5t162 32.5t125.5 93t81 146.5t28.5 193q0 106 -28.5 192t-81 146t-125.5 92.5t-162 32.5t-162.5 -32.5t-126 -92.5t-81 -146t-28.5 -192zM92 717q0 164 54 301t151.5 235.5t234.5 153.5t302 55t301.5 -55 t234 -153.5t151.5 -235.5t54 -301t-54 -301t-151.5 -236t-234 -154t-301.5 -55t-302 55t-234.5 154t-151.5 236t-54 301z" />
<glyph unicode="P" horiz-adv-x="1296" d="M174 1434h510q136 0 238 -40t170.5 -108.5t102.5 -159t34 -190.5q0 -101 -34 -191t-102.5 -158.5t-170.5 -108.5t-238 -40h-182v-438h-328v1434zM885 936q0 63 -18 107t-50 71.5t-76 40t-96 12.5h-143v-462h143q55 0 99 12.5t75.5 40.5t48.5 72t17 106z" />
<glyph unicode="Q" horiz-adv-x="1667" d="M92 717q0 164 54 301t151.5 235.5t234.5 153.5t302 55t301.5 -55t234 -153.5t151.5 -235.5t54 -301q0 -153 -46.5 -282t-131.5 -226l258 -295h-334l-121 141q-80 -42 -171.5 -63t-194.5 -21q-165 0 -302 55t-234.5 154t-151.5 236t-54 301zM997 668l179 -207 q26 54 40.5 117.5t14.5 138.5q0 106 -28.5 192t-81 146t-125.5 92.5t-162 32.5t-162.5 -32.5t-126 -92.5t-81 -146t-28.5 -192q0 -107 28.5 -193t81 -146.5t126 -93t162.5 -32.5t167 35l-194 227z" />
<glyph unicode="R" horiz-adv-x="1354" d="M174 1434h522q130 0 230 -38.5t167 -104t101.5 -152t34.5 -183.5q0 -62 -14.5 -120t-42.5 -110t-70 -95.5t-96 -75.5l366 -555h-379l-299 479h-192v-479h-328v1434zM885 956q0 58 -18 98t-51 65t-78.5 36.5t-100.5 11.5h-135v-422h135q54 0 99.5 11.5t78.5 37t51.5 65.5 t18.5 97z" />
<glyph unicode="S" horiz-adv-x="1135" d="M698 399q0 42 -25.5 73t-66.5 58t-94 52t-108.5 53.5t-108.5 64t-94 83t-66.5 110t-25.5 145.5q0 102 37.5 181t106.5 133t165.5 82t214.5 28q117 0 206 -25t142 -57v-290q-29 17 -64 34t-75.5 31t-86 22.5t-93.5 8.5q-100 0 -155.5 -36.5t-55.5 -96.5q0 -40 25.5 -70.5 t67 -57t94.5 -52t108.5 -54.5t108.5 -64.5t94.5 -83t67 -109.5t25.5 -144q0 -108 -42.5 -191.5t-116 -140.5t-172.5 -86t-213 -29q-65 0 -124 9t-110 23t-92 31t-70 34v301q76 -53 169 -83t196 -30q118 0 174.5 40.5t56.5 102.5z" />
<glyph unicode="T" horiz-adv-x="1176" d="M752 0h-328v1167h-422v267h1172v-267h-422v-1167z" />
<glyph unicode="U" horiz-adv-x="1556" d="M164 1434h328v-854q0 -92 20 -155t57.5 -102t90.5 -56t118 -17t118 17t90.5 56t58 102t20.5 155v854h328v-852q0 -157 -45 -272t-126 -190.5t-194 -112t-250 -36.5t-250 35t-194 109t-125.5 190t-44.5 277v852z" />
<glyph unicode="V" horiz-adv-x="1368" d="M827 0h-286l-539 1434h346l336 -1010l336 1010h346z" />
<glyph unicode="W" horiz-adv-x="1970" d="M2 1434h328l245 -914l267 914h286l267 -914l245 914h328l-412 -1434h-286l-285 975l-285 -975h-286z" />
<glyph unicode="X" horiz-adv-x="1376" d="M874 741l478 -741h-387l-277 477l-276 -477h-387l477 741l-447 693h387l246 -430l246 430h387z" />
<glyph unicode="Y" horiz-adv-x="1286" d="M807 526v-526h-328v526l-489 908h362l291 -594l291 594h362z" />
<glyph unicode="Z" horiz-adv-x="1204" d="M1104 1434v-226l-625 -942h656v-266h-1065v225l624 942h-604v267h1014z" />
<glyph unicode="[" horiz-adv-x="944" d="M553 -31h268v-266h-596v1915h596v-266h-268v-1383z" />
<glyph unicode="\" horiz-adv-x="801" d="M20 1585h285l475 -1737h-284z" />
<glyph unicode="]" horiz-adv-x="944" d="M391 1352h-268v266h596v-1915h-596v266h268v1383z" />
<glyph unicode="^" horiz-adv-x="1206" d="M791 735l-189 479l-186 -479h-314l336 727h330l336 -727h-313z" />
<glyph unicode="_" horiz-adv-x="1180" d="M-41 -287h1262v-225h-1262v225z" />
<glyph unicode="`" horiz-adv-x="819" d="M479 1556l238 -301h-285l-350 301h397z" />
<glyph unicode="a" horiz-adv-x="1153" d="M150 1024q44 19 101 35q49 13 118 24t157 11q111 0 197.5 -23.5t146.5 -70t91.5 -115.5t31.5 -160v-403q0 -59 22.5 -83t59.5 -24q21 0 34 5q7 2 13 5v-205q-21 -9 -48 -16q-23 -6 -58 -11t-80 -5q-51 0 -88 11.5t-62.5 30.5t-41.5 42.5t-25 46.5h-2q-22 -29 -51 -55.5 t-66.5 -47t-85 -33t-106.5 -12.5q-69 0 -130.5 20.5t-107 62.5t-72 105.5t-26.5 149.5q0 69 27 131t81 109t134.5 74.5t187.5 27.5q49 0 93.5 -5.5t86.5 -14.5v63q0 34 -10.5 63.5t-35 51t-64 33.5t-97.5 12q-74 0 -133.5 -13.5t-102.5 -30.5q-50 -19 -89 -44v258zM522 203 q50 0 89.5 20t70.5 49v177q-25 5 -51.5 7.5t-55.5 2.5q-51 0 -87.5 -11t-60 -29t-34 -41.5t-10.5 -49.5t9.5 -49t27 -40t43.5 -26.5t59 -9.5z" />
<glyph unicode="b" horiz-adv-x="1337" d="M764 -29q-58 0 -109.5 13t-95 34t-78.5 48.5t-59 56.5q-3 -23 -7 -45t-8 -39q-4 -20 -8 -39h-260q3 34 7 76q3 36 5.5 85t2.5 109v1225h311v-506q24 20 54.5 39t68 33.5t81.5 23.5t93 9q105 0 195 -43t156.5 -118t104 -178t37.5 -223t-38 -222.5t-104 -177.5t-156 -118 t-193 -43zM940 532q0 84 -23.5 145t-63 100t-90.5 58t-106 19q-66 0 -115 -21t-77 -42v-498q16 -12 39 -23t49.5 -19.5t56 -14t58.5 -5.5q57 0 106.5 18t86 54.5t58 93.5t21.5 135z" />
<glyph unicode="c" horiz-adv-x="1055" d="M82 532q0 133 41 237.5t115 176.5t175.5 110t223.5 38q52 0 101 -6.5t91 -17t76.5 -23.5t57.5 -25v-270q-18 15 -44 32.5t-60.5 32.5t-77 25t-93.5 10q-140 0 -215.5 -83.5t-75.5 -236.5q0 -152 75.5 -235.5t215.5 -83.5q51 0 93.5 10t77 25t60.5 32.5t44 32.5v-270 q-23 -12 -57.5 -25t-76.5 -23.5t-91 -17t-101 -6.5q-122 0 -223.5 38t-175.5 110t-115 176t-41 237z" />
<glyph unicode="d" horiz-adv-x="1337" d="M938 0q-4 19 -8 39q-4 17 -8 39t-7 45q-25 -29 -60.5 -56.5t-79 -48.5t-94.5 -34t-108 -13q-104 0 -193.5 43t-155.5 118t-104 177.5t-38 222.5t37.5 223t104 178t156.5 118t195 43q49 0 93 -9t81.5 -23.5t68 -33.5t54.5 -39v506h312v-1225q0 -60 2 -109t5 -85 q3 -42 7 -76h-260zM680 854q-54 0 -105 -19t-90.5 -58t-63.5 -100t-24 -145q0 -78 21.5 -135t58 -93.5t86.5 -54.5t107 -18q29 0 58.5 5.5t56 14t49 19.5t38.5 23v498q-27 21 -76.5 42t-115.5 21z" />
<glyph unicode="e" horiz-adv-x="1194" d="M621 1094q106 0 196 -34.5t155.5 -98.5t102.5 -154.5t37 -202.5q0 -26 -1 -51.5t-3 -46.5q-2 -25 -4 -47h-696q14 -124 91.5 -187t221.5 -63q39 0 82 6.5t87 20t87 34t82 47.5v-235q-35 -25 -80 -45.5t-97.5 -35t-110 -22.5t-116.5 -8q-130 0 -235.5 40.5t-180.5 114.5 t-116 178t-41 231q0 123 40 225.5t111.5 176.5t170.5 115.5t217 41.5zM621 872q-51 0 -90 -18t-66 -48.5t-41.5 -70.5t-15.5 -84h395q2 46 -9.5 86.5t-35 70.5t-58.5 47t-79 17z" />
<glyph unicode="f" horiz-adv-x="795" d="M41 1065h172v82q0 89 25 154.5t70.5 108.5t108.5 64t138 21q34 0 67.5 -2.5t62.5 -7t52.5 -10t36.5 -11.5v-245q-21 8 -46 15q-21 5 -48 10t-55 5q-51 0 -78 -23.5t-27 -70.5v-90h242v-244h-242v-821h-307v821h-172v244z" />
<glyph unicode="g" horiz-adv-x="1339" d="M573 -270q66 0 121 15.5t95 48.5t62.5 84t22.5 122v68q-50 -32 -112.5 -54t-153.5 -22q-118 0 -215 40.5t-166 114t-107 175.5t-38 225q0 120 36 220t99.5 173t150.5 113.5t189 40.5q64 0 118.5 -13t99.5 -34t80.5 -48.5t62.5 -56.5q3 23 6.5 45.5t7.5 39.5q4 20 8 38 h260q-4 -34 -7 -76q-3 -36 -5 -85.5t-2 -108.5v-775q0 -131 -45 -230t-123 -166.5t-184.5 -101.5t-229.5 -34q-86 0 -161 15t-134.5 36t-101 43t-60.5 37v279q23 -22 64 -51t96.5 -55t122.5 -44t143 -18zM397 541q0 -72 18.5 -129t53 -96.5t82.5 -61t108 -21.5q39 0 73.5 8 t63 19t48.5 23.5t30 21.5v453q-13 10 -34.5 23t-50.5 25t-64 20t-74 8q-53 0 -99 -17.5t-80.5 -54t-54.5 -91.5t-20 -130z" />
<glyph unicode="h" d="M868 0v633q0 57 -14 97t-39.5 65t-61 36t-79.5 11q-35 0 -67.5 -10t-59.5 -25t-48 -33t-34 -35v-739h-311v1495h311v-590q15 23 41.5 55.5t67.5 62t97.5 50.5t131.5 21q108 0 180.5 -36t116 -93.5t62 -129t18.5 -141.5v-694h-312z" />
<glyph unicode="i" horiz-adv-x="618" d="M154 1065h311v-1065h-311v1065zM133 1378q0 39 13 68.5t36.5 49.5t56 30t70.5 10q39 0 71 -10t55.5 -30t36.5 -49.5t13 -68.5q0 -38 -13 -67.5t-36.5 -49.5t-55.5 -30t-71 -10q-38 0 -70.5 10t-56 30t-36.5 49.5t-13 67.5z" />
<glyph unicode="j" horiz-adv-x="618" d="M465 -94q0 -111 -22 -190.5t-68 -130.5t-115.5 -75t-163.5 -24q-39 0 -74.5 4t-62.5 9q-32 6 -59 14v237q14 -5 32 -9q15 -4 35 -6.5t45 -2.5q68 0 105 34.5t37 114.5v1184h311v-1159zM133 1378q0 39 13 68.5t36.5 49.5t56 30t70.5 10q39 0 71 -10t55.5 -30t36.5 -49.5 t13 -68.5q0 -38 -13 -67.5t-36.5 -49.5t-55.5 -30t-71 -10q-38 0 -70.5 10t-56 30t-36.5 49.5t-13 67.5z" />
<glyph unicode="k" horiz-adv-x="1204" d="M154 1495h311v-864l352 434h357l-386 -453l426 -612h-354l-256 412l-139 -105v-307h-311v1495z" />
<glyph unicode="l" horiz-adv-x="735" d="M154 1495h311v-1108q0 -80 36.5 -114.5t104.5 -34.5q25 0 45.5 2.5t35.5 6.5q18 4 32 9v-258q-27 -8 -59 -14q-27 -5 -63 -9t-75 -4q-95 0 -164 24t-114.5 75t-67.5 130.5t-22 190.5v1104z" />
<glyph unicode="m" horiz-adv-x="1942" d="M465 0h-311v795q0 59 -2.5 108.5t-5.5 85.5q-4 42 -7 76h291l8 -48q4 -23 8 -54.5t9 -69.5q16 25 42 60t65 66t92 53t124 22q67 0 119.5 -16.5t92 -45.5t66.5 -67.5t44 -81.5q23 31 55 68t74.5 69t96 53t118.5 21q102 0 169.5 -36t108 -93.5t57.5 -129t17 -141.5v-694 h-311v633q0 57 -12 97t-34 65t-53.5 36t-70.5 11q-31 0 -59 -9.5t-52 -24.5t-43.5 -34t-32.5 -37q2 -11 2 -21.5v-21.5v-694h-311v633q0 57 -12 97t-34 65t-53.5 36t-70.5 11q-32 0 -60 -10t-52 -25t-42 -33t-30 -35v-739z" />
<glyph unicode="n" d="M465 0h-311v795q0 59 -2.5 108.5t-5.5 85.5q-4 42 -7 76h291l8 -48q4 -23 8 -54.5t9 -69.5q17 25 45 60t70.5 66t100 53t132.5 22q108 0 180.5 -36t116 -93.5t62 -129t18.5 -141.5v-694h-312v633q0 57 -14 97t-39.5 65t-61 36t-79.5 11q-35 0 -67.5 -10t-59.5 -25 t-48 -33t-34 -35v-739z" />
<glyph unicode="o" horiz-adv-x="1294" d="M401 532q0 -77 18 -136.5t50.5 -100t78 -61.5t99.5 -21q55 0 100 21t77.5 61.5t50.5 100t18 136.5q0 78 -18 137.5t-50.5 100t-77.5 61.5t-100 21q-54 0 -99.5 -21t-78 -61.5t-50.5 -100t-18 -137.5zM82 532q0 124 41.5 227t116 177.5t178.5 116t229 41.5t229 -41.5 t178.5 -116t116 -177.5t41.5 -227q0 -123 -41.5 -226.5t-116 -177.5t-178.5 -115.5t-229 -41.5t-229 41.5t-178.5 115.5t-116 177.5t-41.5 226.5z" />
<glyph unicode="p" horiz-adv-x="1337" d="M764 1094q103 0 193 -43t156 -118t104 -178t38 -223t-37.5 -222.5t-104 -177.5t-156.5 -118t-195 -43q-49 0 -93 9t-81.5 23.5t-68 33.5t-54.5 39v-588h-311v1307q0 59 -2.5 108.5t-5.5 85.5q-4 42 -7 76h260q4 -19 8 -39q4 -17 8 -39.5t7 -44.5q24 29 59 56.5t78.5 48.5 t95 34t109.5 13zM940 532q0 78 -21.5 135t-58 94t-86 55t-106.5 18q-29 0 -58.5 -5.5t-56 -14t-49.5 -19.5t-39 -23v-498q28 -21 77 -42t115 -21q55 0 106 19t90.5 58t63 99.5t23.5 144.5z" />
<glyph unicode="q" horiz-adv-x="1337" d="M573 1094q57 0 108 -13t94.5 -34t79 -48.5t60.5 -56.5q3 22 7 44.5t8 39.5q4 20 8 39h260q-4 -34 -7 -76q-3 -36 -5 -85.5t-2 -108.5v-1307h-312v588q-24 -20 -54.5 -39t-68 -33.5t-81.5 -23.5t-93 -9q-105 0 -195 43t-156.5 118t-104 177.5t-37.5 222.5t38 223t104 178 t155.5 118t193.5 43zM680 211q66 0 115.5 21t76.5 42v498q-16 12 -38.5 23t-49 19.5t-56 14t-58.5 5.5q-57 0 -107 -18t-86.5 -55t-58 -94t-21.5 -135q0 -84 24 -144.5t63.5 -99.5t90.5 -58t105 -19z" />
<glyph unicode="r" horiz-adv-x="889" d="M154 795q0 59 -2.5 108.5t-5.5 85.5q-4 42 -7 76h291q6 -29 10 -62q4 -28 7.5 -62t3.5 -69h4q13 27 37.5 65t62.5 73t89.5 59.5t117.5 24.5q23 0 44.5 -3t37.5 -7q18 -4 35 -9v-284q-17 5 -41 9q-20 3 -49.5 6t-67.5 3q-63 0 -110.5 -13.5t-79.5 -29.5q-38 -19 -66 -43 v-723h-311v795z" />
<glyph unicode="s" horiz-adv-x="1010" d="M610 297q0 30 -21.5 51.5t-56.5 39t-80 34t-91.5 36.5t-91.5 45.5t-80 62t-56.5 86.5t-21.5 118q0 78 32 138t89.5 101.5t136.5 63t174 21.5q53 0 101.5 -6t89.5 -16t74 -21.5t54 -22.5v-254q-29 18 -67 32.5t-79.5 25t-82 16.5t-74.5 6q-68 0 -104.5 -22t-36.5 -54 q0 -26 21.5 -45t56.5 -36t80 -33.5t92 -36.5t92 -47t80 -64t56.5 -87.5t21.5 -117.5q0 -78 -33 -141t-93 -107.5t-143.5 -68t-183.5 -23.5q-58 0 -113 7.5t-103 19t-86 25.5t-61 28v258q39 -22 83.5 -40t90.5 -31t91 -20t84 -7q81 0 120 26t39 60z" />
<glyph unicode="t" horiz-adv-x="840" d="M213 1065v246l311 61v-307h250v-244h-250v-434q0 -80 36.5 -114.5t105.5 -34.5q24 0 44.5 2.5t35.5 6.5q18 4 32 9v-258q-27 -8 -59 -14q-27 -5 -62.5 -9t-74.5 -4q-95 0 -164 24t-115 75t-68 130.5t-22 190.5v430h-172v244h172z" />
<glyph unicode="u" d="M860 1065h311v-795q0 -60 2 -109t5 -85q4 -42 8 -76h-291l-8 48q-4 23 -8.5 54.5t-8.5 69.5q-17 -26 -45 -60.5t-70.5 -65.5t-100 -53t-132.5 -22q-108 0 -180.5 36t-116 93.5t-62 129t-18.5 141.5v694h312v-633q0 -57 14 -97t39.5 -65t61 -36t79.5 -11q35 0 67.5 10 t59.5 25t48 33t34 35v739z" />
<glyph unicode="v" horiz-adv-x="1135" d="M680 0h-225l-453 1065h315l250 -653l250 653h316z" />
<glyph unicode="w" horiz-adv-x="1696" d="M608 0h-225l-381 1065h307l205 -600l221 600h226l221 -600l204 600h308l-381 -1065h-226l-239 674z" />
<glyph unicode="x" horiz-adv-x="1147" d="M731 551l408 -551h-359l-207 315l-206 -315h-359l406 551l-379 514h358l180 -279l181 279h358z" />
<glyph unicode="y" horiz-adv-x="1104" d="M2 -211q17 -7 39 -11q19 -5 44.5 -8t55.5 -3q27 0 62.5 9t72 34.5t71 70t59.5 115.5l12 37l-412 1032h324l233 -645l209 645h322l-379 -1065q-55 -154 -115.5 -253t-129.5 -156.5t-146.5 -80t-165.5 -22.5q-38 0 -66.5 4.5t-48.5 9.5q-24 6 -41 15v272v0z" />
<glyph unicode="z" horiz-adv-x="993" d="M516 831h-453v234h859v-172l-476 -660h496v-233h-901v172z" />
<glyph unicode="{" horiz-adv-x="829" d="M102 772q83 0 128.5 37.5t45.5 126.5q0 37 -11 83.5t-23.5 96t-23.5 100t-11 97.5q0 82 29.5 140t90.5 94.5t155.5 53.5t224.5 17v-215q-95 0 -133.5 -28t-38.5 -85q0 -45 9.5 -90t21 -91t21 -91t9.5 -90q0 -56 -17 -101.5t-48 -78.5t-73 -53.5t-93 -26.5v-15 q51 -6 93 -26.5t73 -53.5t48 -78.5t17 -101.5q0 -45 -9.5 -90t-21 -91t-21 -91t-9.5 -90q0 -57 38.5 -85t133.5 -28v-215q-130 0 -224.5 17t-155.5 53.5t-90.5 94.5t-29.5 140q0 47 11 97.5t23.5 100t23.5 95.5t11 84q0 89 -45.5 126.5t-128.5 37.5v223z" />
<glyph unicode="|" horiz-adv-x="778" d="M225 1659h328v-2007h-328v2007z" />
<glyph unicode="}" horiz-adv-x="829" d="M727 549q-83 0 -128.5 -37.5t-45.5 -126.5q0 -38 11 -84t24 -95.5t24 -100t11 -97.5q0 -82 -29.5 -140t-91 -94.5t-155.5 -53.5t-224 -17v215q95 0 133.5 28t38.5 85q0 45 -9.5 90t-21.5 91t-21.5 91t-9.5 90q0 56 17.5 101.5t48 78.5t73 53.5t93.5 26.5v15 q-51 6 -93.5 26.5t-73 53.5t-48 78.5t-17.5 101.5q0 45 9.5 90t21.5 91t21.5 91t9.5 90q0 57 -38.5 85t-133.5 28v215q130 0 224 -17t155.5 -53.5t91 -94.5t29.5 -140q0 -47 -11 -97.5t-24 -100t-24 -96t-11 -83.5q0 -89 45.5 -126.5t128.5 -37.5v-223z" />
<glyph unicode="~" horiz-adv-x="1513" d="M1012 416q-78 0 -144.5 22.5t-125.5 50t-112.5 50t-105.5 22.5q-34 0 -58.5 -11t-40 -31t-23 -47.5t-7.5 -59.5h-252q0 96 22.5 176t67 138t111.5 90t156 32q53 0 100 -11t89.5 -27t82 -35t76 -35t71.5 -27t70 -11q68 0 98.5 42t30.5 108h252q0 -96 -23 -176t-68 -138 t-112 -90t-155 -32z" />
<glyph unicode="&#xa1;" horiz-adv-x="606" d="M475 -369h-344l29 916h286zM504 893q0 -44 -15 -81t-42 -63.5t-64 -41.5t-80 -15t-80 15t-64 41.5t-42 63.5t-15 81t15 81t42 63.5t64 41.5t80 15t80 -15t64 -41.5t42 -63.5t15 -81z" />
<glyph unicode="&#xa2;" horiz-adv-x="1065" d="M92 532q0 127 37.5 227.5t105 172t161 112.5t206.5 48l43 227h232l-50 -246q47 -11 84 -25t62 -26v-270q-18 15 -44 32.5t-60.5 32.5t-77 25t-93.5 10q-140 0 -215 -83.5t-75 -236.5q0 -152 75 -235.5t215 -83.5q51 0 93.5 10t77 25t60.5 32.5t44 32.5v-270 q-23 -12 -57.5 -25t-76.5 -23.5t-91 -17t-101 -6.5h-10.5t-9.5 1q-5 0 -9 1l-36 -198h-232l45 245q-69 30 -125 78t-95.5 113t-61 145.5t-21.5 175.5z" />
<glyph unicode="&#xa3;" horiz-adv-x="1141" d="M111 803h106q-12 52 -20.5 111.5t-8.5 132.5q0 102 38.5 179.5t105 130t156.5 79t194 26.5q63 0 114 -10.5t89 -23.5q43 -15 78 -33v-256q-35 19 -79 34q-38 13 -89 24t-113 11q-35 0 -66 -10t-54 -31t-36.5 -54t-13.5 -79q0 -71 7 -126.5t18 -104.5h315v-185h-272 q5 -32 8.5 -66.5t3.5 -74.5q0 -64 -15.5 -106t-34.5 -68q-22 -30 -50 -47l4 -8q9 2 21 5q11 2 26 3.5t35 1.5q30 0 59 -3.5t59 -7.5t60.5 -7.5t62.5 -3.5q54 0 94.5 9.5t68.5 20.5q33 13 56 31v-254q-20 -20 -48 -36q-24 -14 -61 -25t-87 -11q-73 0 -126 13t-98.5 28 t-91.5 28t-104 13q-46 0 -86 -13t-71 -29q-36 -18 -66 -42l-97 156q55 29 98 72q18 18 36 41t32 51t22.5 60.5t8.5 70.5q0 54 -9 102t-22 96h-157v185z" />
<glyph unicode="&#xa4;" horiz-adv-x="1331" d="M178 680q0 69 17 131.5t49 118.5l-142 143l170 170l144 -143q54 32 117 49.5t133 17.5q68 0 130.5 -17.5t116.5 -49.5l146 143l170 -170l-144 -143q32 -56 50 -118.5t18 -131.5t-18 -132.5t-50 -117.5l144 -143l-170 -170l-144 143q-55 -32 -117.5 -49.5t-131.5 -17.5 q-70 0 -133 17t-117 48l-144 -141l-170 170l142 143q-31 54 -48.5 117.5t-17.5 132.5zM424 680q0 -57 18 -105.5t50 -83.5t76.5 -55t97.5 -20t97 20t76 55t50 83.5t18 105.5t-18 105t-50 83.5t-76 55.5t-97 20t-97.5 -20t-76.5 -55.5t-50 -83.5t-18 -105z" />
<glyph unicode="&#xa5;" horiz-adv-x="1311" d="M915 705h226v-179h-322v-120h322v-179h-322v-227h-327v227h-318v179h318v120h-318v179h221l-393 729h363l290 -594l291 594h363z" />
<glyph unicode="&#xa6;" horiz-adv-x="778" d="M225 551h328v-899h-328v899zM225 1659h328v-899h-328v899z" />
<glyph unicode="&#xa7;" horiz-adv-x="1227" d="M1083 506q0 -84 -37 -150t-102 -114q30 -23 55.5 -50t44 -58.5t29 -69t10.5 -80.5q0 -100 -42.5 -177.5t-116.5 -130t-173 -79.5t-212 -27q-65 0 -124 8t-110 21t-92 29t-70 32v281q76 -50 163 -77.5t190 -27.5q115 0 173 35.5t58 101.5q0 37 -25 63t-65.5 48t-92 42.5 t-106 45t-106 55.5t-92 74.5t-65.5 102.5t-25 139q0 83 35 148.5t100 113.5q-60 45 -97.5 107.5t-37.5 152.5q0 94 38 168t106.5 125t164 77.5t211.5 26.5q121 0 210 -22.5t142 -53.5v-274q-29 16 -63.5 32.5t-75 29.5t-85.5 21.5t-93 8.5q-100 0 -154.5 -33.5t-54.5 -95.5 q0 -36 25 -62t66.5 -47.5t94 -42t108 -45t108 -56t94 -75.5t66.5 -103t25 -138zM768 496q0 29 -17.5 52.5t-47.5 43.5t-70.5 38.5t-85.5 37.5q-45 -17 -68.5 -49t-23.5 -66q0 -29 18 -53t49 -44.5t72.5 -39t87.5 -37.5q42 18 64 50.5t22 66.5z" />
<glyph unicode="&#xa8;" horiz-adv-x="981" d="M102 1403q0 33 11.5 61t32.5 48.5t50 32t64 11.5q32 0 60 -11.5t48.5 -32t32 -48.5t11.5 -61t-11.5 -61.5t-32 -49.5t-48.5 -33t-60 -12q-35 0 -64 12t-50 33t-32.5 49.5t-11.5 61.5zM569 1403q0 33 11.5 61t32.5 48.5t50 32t64 11.5q32 0 60 -11.5t48.5 -32t32 -48.5 t11.5 -61t-11.5 -61.5t-32 -49.5t-48.5 -33t-60 -12q-35 0 -64 12t-50 33t-32.5 49.5t-11.5 61.5z" />
<glyph unicode="&#xa9;" horiz-adv-x="1737" d="M123 717q0 103 26.5 198t75 178t116.5 151t151 116.5t178 75t198 26.5t198.5 -26.5t178 -75t151 -116.5t117 -151t75 -178t26.5 -198t-26.5 -198.5t-75 -178t-117 -151t-151 -117t-178 -75t-198.5 -26.5t-198 26.5t-178 75t-151 117t-116.5 151t-75 178t-26.5 198.5z M324 717q0 -126 42 -231t115 -181t172.5 -118t214.5 -42t215 42t173 118t115 181t42 231t-42 231t-115 180.5t-173 117.5t-215 42t-214.5 -42t-172.5 -117.5t-115 -180.5t-42 -231zM498 717q0 90 30 165.5t83.5 129.5t126 84t157.5 30q38 0 72 -5t62.5 -13t50.5 -17t36 -18 v-188q-35 34 -83 60t-115 26q-55 0 -97.5 -18.5t-72 -52t-45 -80t-15.5 -103.5t15.5 -104t45 -80t72 -51.5t97.5 -18.5q67 0 115 26t83 60v-189q-14 -8 -36 -17.5t-50.5 -17.5t-62.5 -13t-72 -5q-85 0 -157.5 30t-126 84t-83.5 129.5t-30 166.5z" />
<glyph unicode="&#xaa;" horiz-adv-x="950" d="M827 758q-16 -7 -34 -12q-16 -5 -38.5 -8t-49.5 -3q-33 0 -56.5 7t-40.5 18.5t-28 25.5t-17 29q-15 -17 -34.5 -33t-45 -29t-56.5 -20.5t-69 -7.5q-48 0 -90 14t-74 41.5t-50.5 69.5t-18.5 98q0 48 18.5 91t55.5 75.5t92.5 52t128.5 19.5q63 0 119 -12v24q0 47 -30 74.5 t-106 27.5q-52 0 -93.5 -11t-71.5 -24q-35 -15 -62 -34v172q29 16 69 29q34 11 82 20.5t109 9.5q147 0 227 -61.5t80 -179.5v-267q0 -38 14.5 -52.5t39.5 -14.5q12 0 22 2l8 2v-133zM434 874q32 0 58.5 13.5t46.5 32.5v129q-35 6 -70 6q-38 0 -64.5 -8t-43.5 -22t-25 -32 t-8 -37q0 -35 27.5 -58.5t78.5 -23.5zM123 430v148h704v-148h-704z" />
<glyph unicode="&#xab;" horiz-adv-x="1233" d="M559 272v-272l-487 410v280l487 410v-273l-266 -278zM1049 272v-272l-488 410v280l488 410v-273l-267 -278z" />
<glyph unicode="&#xac;" horiz-adv-x="1450" d="M1307 254h-269v381h-936v268h1205v-649z" />
<glyph unicode="&#xae;" horiz-adv-x="1737" d="M123 717q0 103 26.5 198t75 178t116.5 151t151 116.5t178 75t198 26.5t198.5 -26.5t178 -75t151 -116.5t117 -151t75 -178t26.5 -198t-26.5 -198.5t-75 -178t-117 -151t-151 -117t-178 -75t-198.5 -26.5t-198 26.5t-178 75t-151 117t-116.5 151t-75 178t-26.5 198.5z M322 717q0 -124 42.5 -228.5t116.5 -181t173.5 -119.5t213.5 -43t213 43t173 119.5t116.5 181t42.5 228.5t-42.5 228.5t-116.5 180.5t-173 119t-213 43t-213.5 -43t-173.5 -119t-116.5 -180.5t-42.5 -228.5zM592 322v788h287q71 0 125.5 -21t91.5 -56.5t56 -83t19 -101.5 q0 -69 -31 -127.5t-91 -93.5l200 -305h-215l-153 264h-109v-264h-180zM981 848q0 32 -9.5 54.5t-27 36.5t-42.5 20t-56 6h-74v-232h74q60 0 97.5 26.5t37.5 88.5z" />
<glyph unicode="&#xaf;" horiz-adv-x="868" d="M766 1317h-664v227h664v-227z" />
<glyph unicode="&#xb0;" horiz-adv-x="858" d="M61 1094q0 76 28.5 143.5t78 117t116.5 78.5t144 29t144 -29t117 -78.5t79 -117t29 -143.5q0 -77 -29 -144t-79 -116.5t-117 -78t-144 -28.5t-144 28.5t-116.5 78t-78 116.5t-28.5 144zM281 1094q0 -32 11 -60t30.5 -49t46.5 -33t59 -12q33 0 60.5 12t47.5 33t31 49 t11 60q0 33 -11 61.5t-31 49t-47.5 32.5t-60.5 12q-32 0 -59 -12t-46.5 -32.5t-30.5 -49t-11 -61.5z" />
<glyph unicode="&#xb1;" horiz-adv-x="1501" d="M879 1182v-269h438v-258h-438v-288h-258v288h-437v258h437v269h258zM1317 0h-1133v258h1133v-258z" />
<glyph unicode="&#xb2;" horiz-adv-x="733" d="M117 1376q49 34 106.5 53t120.5 19q61 0 110.5 -17.5t85 -49t55 -75.5t19.5 -96q0 -63 -34 -124.5t-97 -133.5l-71 -82h219v-182h-529v105l193 229q57 69 80.5 110.5t23.5 73.5q0 23 -19 39.5t-54 16.5q-26 0 -55 -9.5t-56.5 -24t-53 -30.5t-44.5 -29v207z" />
<glyph unicode="&#xb3;" horiz-adv-x="709" d="M391 930q0 38 -49 59t-152 21v82l125 159h-211v183h486v-103l-141 -180q71 -25 114 -81.5t43 -139.5q0 -52 -19.5 -98.5t-57.5 -81.5t-95.5 -55.5t-132.5 -20.5q-53 0 -107 10t-92 23v186q48 -14 100.5 -22.5t92.5 -8.5q46 0 71 21t25 47z" />
<glyph unicode="&#xb4;" horiz-adv-x="840" d="M737 1556l-350 -301h-285l238 301h397z" />
<glyph unicode="&#xb5;" horiz-adv-x="1423" d="M1180 1065v-700q0 -70 31 -99.5t89 -29.5q20 0 37 2.5t30 6.5q14 4 26 9v-256q-24 -9 -52 -15q-24 -5 -56 -9.5t-68 -4.5q-131 0 -210.5 49t-113.5 154h-4q-18 -29 -48.5 -64t-75 -65.5t-103 -51t-132.5 -20.5q-18 0 -34 1t-31 3v-342h-311v1432h311v-633q0 -57 14 -97 t39.5 -65t61 -36t79.5 -11q36 0 68 10t59 25t48 33t34 35v739h312z" />
<glyph unicode="&#xb6;" horiz-adv-x="1669" d="M1485 -512h-303v1679h-228v-1679h-303v934h-10q-130 0 -230.5 36.5t-169 103t-104 159.5t-35.5 207t35.5 207t104 159.5t169 103t230.5 36.5h844v-1946z" />
<glyph unicode="&#xb7;" horiz-adv-x="688" d="M143 705q0 43 15 80t42 63.5t64 41.5t80 15t80 -15t64 -41.5t42 -63.5t15 -80q0 -44 -15 -81t-42 -63.5t-64 -41.5t-80 -15t-80 15t-64 41.5t-42 63.5t-15 81z" />
<glyph unicode="&#xb8;" horiz-adv-x="680" d="M102 -367q21 -9 47 -16q21 -6 49 -11t58 -5q42 0 65 21.5t23 60.5q0 24 -16.5 43.5t-46 33.5t-69 21.5t-85.5 7.5l119 211h221l-74 -119q42 -10 77 -27.5t60.5 -43t39.5 -57.5t14 -70q0 -56 -26 -98.5t-68 -71t-96 -42.5t-111 -14q-37 0 -69.5 3.5t-57.5 8.5 q-29 5 -54 13v151z" />
<glyph unicode="&#xb9;" horiz-adv-x="537" d="M434 1434v-746h-213v563h-119v183h332z" />
<glyph unicode="&#xba;" horiz-adv-x="987" d="M123 1094q0 81 27 148.5t76 116t117 76t151 27.5q82 0 150 -27.5t117 -76t76 -116t27 -148.5t-27 -148.5t-76 -116.5t-117 -76.5t-150 -27.5q-83 0 -151 27.5t-117 76.5t-76 116.5t-27 148.5zM332 1094q0 -104 44.5 -156.5t117.5 -52.5q72 0 116.5 52.5t44.5 156.5 q0 103 -44.5 156t-116.5 53q-73 0 -117.5 -53t-44.5 -156zM123 422v156h741v-156h-741z" />
<glyph unicode="&#xbb;" horiz-adv-x="1233" d="M184 827v273l488 -410v-280l-488 -410v272l267 277zM674 827v273l487 -410v-280l-487 -410v272l266 277z" />
<glyph unicode="&#xbc;" horiz-adv-x="1575" d="M434 1434v-746h-213v563h-119v183h332zM977 1462h254l-703 -1491h-254zM874 256l377 489h131v-444h91v-176h-91v-125h-208v125h-300v131zM1174 301v158l-123 -158h123z" />
<glyph unicode="&#xbd;" horiz-adv-x="1638" d="M434 1434v-746h-213v563h-119v183h332zM977 1462h254l-703 -1491h-254zM1022 688q49 34 106.5 53t120.5 19q61 0 111 -17.5t85.5 -49t55 -75.5t19.5 -96q0 -63 -34 -125t-97 -133l-72 -82h219v-182h-528v104l192 230q57 69 81 110.5t24 73.5q0 23 -19.5 39t-54.5 16 q-26 0 -55 -9.5t-56.5 -23.5t-53 -30t-44.5 -29v207z" />
<glyph unicode="&#xbe;" horiz-adv-x="1688" d="M391 930q0 38 -49 59t-152 21v82l125 159h-211v183h486v-103l-141 -180q71 -25 114 -81.5t43 -139.5q0 -52 -19.5 -98.5t-57.5 -81.5t-95.5 -55.5t-132.5 -20.5q-53 0 -107 10t-92 23v186q48 -14 100.5 -22.5t92.5 -8.5q46 0 71 21t25 47zM1090 1462h253l-702 -1491h-254 zM987 256l377 489h131v-444h90v-176h-90v-125h-209v125h-299v131zM1286 301v158l-123 -158h123z" />
<glyph unicode="&#xbf;" horiz-adv-x="944" d="M709 547q3 -22 4.5 -40.5t1.5 -37.5q0 -67 -21 -121t-52 -99t-67.5 -82t-67.5 -71t-52 -65.5t-21 -65.5q0 -48 34.5 -76t106.5 -28q63 0 132.5 20t134.5 56v-261q-85 -42 -166 -57.5t-150 -15.5q-97 0 -175 23.5t-133.5 67t-85.5 105t-30 138.5q0 75 25.5 131.5 t63.5 101.5t82 83t82 77t63.5 82.5t25.5 99.5v17.5t-2 17.5h267zM776 893q0 -44 -15 -81t-42 -63.5t-64 -41.5t-80 -15t-79.5 15t-63.5 41.5t-42 63.5t-15 81t15 81t42 63.5t63.5 41.5t79.5 15t80 -15t64 -41.5t42 -63.5t15 -81z" />
<glyph unicode="&#xc0;" horiz-adv-x="1409" d="M2 0zM1407 0h-346l-84 236h-545l-84 -236h-346l559 1434h287zM514 469h379l-188 535zM702 1925l238 -301h-285l-350 301h397z" />
<glyph unicode="&#xc1;" horiz-adv-x="1409" d="M2 0zM1407 0h-346l-84 236h-545l-84 -236h-346l559 1434h287zM514 469h379l-188 535zM1104 1925l-350 -301h-285l238 301h397z" />
<glyph unicode="&#xc2;" horiz-adv-x="1409" d="M2 0zM1407 0h-346l-84 236h-545l-84 -236h-346l559 1434h287zM514 469h379l-188 535zM863 1946l250 -322h-265l-143 156l-143 -156h-265l250 322h316z" />
<glyph unicode="&#xc3;" horiz-adv-x="1409" d="M2 0zM1407 0h-346l-84 236h-545l-84 -236h-346l559 1434h287zM514 469h379l-188 535zM1143 2009q0 -66 -14.5 -131t-46.5 -116t-83.5 -83t-125.5 -32q-45 0 -80 10.5t-63 27t-51 35t-44.5 35t-43 27t-46.5 10.5q-42 0 -65 -35t-23 -106h-191q0 64 14.5 129t46 117 t82.5 84.5t124 32.5q43 0 77.5 -11t63 -27t52 -35t45.5 -35t43 -27t44 -11q48 0 71 38t23 103h191z" />
<glyph unicode="&#xc4;" horiz-adv-x="1409" d="M2 0zM1407 0h-346l-84 236h-545l-84 -236h-346l559 1434h287zM514 469h379l-188 535zM317 1772q0 33 11.5 61t32.5 48.5t50 32t64 11.5q32 0 60 -11.5t48.5 -32t32 -48.5t11.5 -61t-11.5 -61.5t-32 -49.5t-48.5 -33t-60 -12q-35 0 -64 12t-50 33t-32.5 49.5t-11.5 61.5z M784 1772q0 33 11.5 61t32.5 48.5t50 32t64 11.5q32 0 60 -11.5t48.5 -32t32 -48.5t11.5 -61t-11.5 -61.5t-32 -49.5t-48.5 -33t-60 -12q-35 0 -64 12t-50 33t-32.5 49.5t-11.5 61.5z" />
<glyph unicode="&#xc5;" horiz-adv-x="1409" d="M2 0zM1407 0h-346l-84 236h-545l-84 -236h-346l559 1434h287zM514 469h379l-188 535zM592 1613q0 -57 30.5 -92t81.5 -35t82 35t31 92q0 54 -31 88.5t-82 34.5t-81.5 -34.5t-30.5 -88.5zM407 1613q0 64 22 118t62 92t94 59.5t119 21.5q64 0 118.5 -21.5t94.5 -59.5 t62 -92t22 -118q0 -65 -22 -119.5t-62 -93.5t-94.5 -60.5t-118.5 -21.5q-65 0 -119 21.5t-94 60.5t-62 93.5t-22 119.5z" />
<glyph unicode="&#xc6;" horiz-adv-x="2056" d="M1339 266h594v-266h-921v236h-500l-141 -236h-369l877 1434h1054v-267h-594v-297h492v-266h-492v-338zM1012 469v594l-359 -594h359z" />
<glyph unicode="&#xc7;" horiz-adv-x="1317" d="M92 0zM92 717q0 165 54.5 302t151.5 235.5t229.5 153t287.5 54.5q69 0 131 -9.5t113.5 -24t91 -31t63.5 -31.5v-326q-32 27 -69.5 52t-82 44.5t-96.5 31.5t-112 12q-99 0 -176.5 -34t-131.5 -95t-82 -146t-28 -188t28 -188.5t82 -146.5t131.5 -94.5t176.5 -33.5 q60 0 112 11.5t96.5 31t82 44.5t69.5 52v-325q-24 -15 -63.5 -32t-91 -31.5t-113.5 -24t-131 -9.5q-155 0 -287.5 54.5t-229.5 153t-151.5 236t-54.5 302.5zM540 -367q21 -9 47 -16q21 -6 49 -11t58 -5q42 0 65 21.5t23 60.5q0 24 -16.5 43.5t-46 33.5t-69 21.5t-85.5 7.5 l119 211h221l-74 -119q42 -10 77 -27.5t60.5 -43t39.5 -57.5t14 -70q0 -56 -26 -98.5t-68 -71t-96 -42.5t-111 -14q-37 0 -69.5 3.5t-57.5 8.5q-29 5 -54 13v151z" />
<glyph unicode="&#xc8;" horiz-adv-x="1219" d="M174 0zM502 266h594v-266h-922v1434h922v-267h-594v-297h491v-266h-491v-338zM596 1925l238 -301h-285l-350 301h397z" />
<glyph unicode="&#xc9;" horiz-adv-x="1219" d="M174 0zM502 266h594v-266h-922v1434h922v-267h-594v-297h491v-266h-491v-338zM1018 1925l-350 -301h-285l238 301h397z" />
<glyph unicode="&#xca;" horiz-adv-x="1219" d="M174 0zM502 266h594v-266h-922v1434h922v-267h-594v-297h491v-266h-491v-338zM777 1946l250 -322h-265l-143 156l-143 -156h-265l250 322h316z" />
<glyph unicode="&#xcb;" horiz-adv-x="1219" d="M174 0zM502 266h594v-266h-922v1434h922v-267h-594v-297h491v-266h-491v-338zM252 1772q0 33 11.5 61t32.5 48.5t50 32t64 11.5q32 0 60 -11.5t48.5 -32t32 -48.5t11.5 -61t-11.5 -61.5t-32 -49.5t-48.5 -33t-60 -12q-35 0 -64 12t-50 33t-32.5 49.5t-11.5 61.5z M719 1772q0 33 11.5 61t32.5 48.5t50 32t64 11.5q32 0 60 -11.5t48.5 -32t32 -48.5t11.5 -61t-11.5 -61.5t-32 -49.5t-48.5 -33t-60 -12q-35 0 -64 12t-50 33t-32.5 49.5t-11.5 61.5z" />
<glyph unicode="&#xcc;" horiz-adv-x="676" d="M0 0zM174 1434h328v-1434h-328v1434zM337 1925l238 -301h-285l-350 301h397z" />
<glyph unicode="&#xcd;" horiz-adv-x="676" d="M83 0zM174 1434h328v-1434h-328v1434zM718 1925l-350 -301h-285l238 301h397z" />
<glyph unicode="&#xce;" horiz-adv-x="676" d="M0 0zM174 1434h328v-1434h-328v1434zM497 1946l250 -322h-265l-143 156l-143 -156h-265l250 322h316z" />
<glyph unicode="&#xcf;" horiz-adv-x="676" d="M0 0zM174 1434h328v-1434h-328v1434zM-49 1772q0 33 11.5 61t32.5 48.5t50 32t64 11.5q32 0 60 -11.5t48.5 -32t32 -48.5t11.5 -61t-11.5 -61.5t-32 -49.5t-48.5 -33t-60 -12q-35 0 -64 12t-50 33t-32.5 49.5t-11.5 61.5zM418 1772q0 33 11.5 61t32.5 48.5t50 32t64 11.5 q32 0 60 -11.5t48.5 -32t32 -48.5t11.5 -61t-11.5 -61.5t-32 -49.5t-48.5 -33t-60 -12q-35 0 -64 12t-50 33t-32.5 49.5t-11.5 61.5z" />
<glyph unicode="&#xd0;" horiz-adv-x="1491" d="M178 563h-158v199h158v672h373q220 0 380 -54.5t264 -150.5t154 -227.5t50 -284.5q0 -154 -50 -285t-154 -227t-264 -150.5t-380 -54.5h-373v563zM551 266q255 0 379.5 117t124.5 334t-124.5 333.5t-379.5 116.5h-45v-405h233v-199h-233v-297h45z" />
<glyph unicode="&#xd1;" horiz-adv-x="1655" d="M174 0zM1194 0l-692 895v-895h-328v1434h287l692 -895v895h328v-1434h-287zM1245 2009q0 -66 -14.5 -131t-46.5 -116t-83.5 -83t-125.5 -32q-45 0 -80 10.5t-63 27t-51 35t-44.5 35t-43 27t-46.5 10.5q-42 0 -65 -35t-23 -106h-191q0 64 14.5 129t46 117t82.5 84.5 t124 32.5q43 0 77.5 -11t63 -27t52 -35t45.5 -35t43 -27t44 -11q48 0 71 38t23 103h191z" />
<glyph unicode="&#xd2;" horiz-adv-x="1667" d="M92 0zM436 717q0 -107 28.5 -193t81 -146.5t126 -93t162.5 -32.5t162 32.5t125.5 93t81 146.5t28.5 193q0 106 -28.5 192t-81 146t-125.5 92.5t-162 32.5t-162.5 -32.5t-126 -92.5t-81 -146t-28.5 -192zM92 717q0 164 54 301t151.5 235.5t234.5 153.5t302 55t301.5 -55 t234 -153.5t151.5 -235.5t54 -301t-54 -301t-151.5 -236t-234 -154t-301.5 -55t-302 55t-234.5 154t-151.5 236t-54 301zM770 1925l238 -301h-285l-350 301h397z" />
<glyph unicode="&#xd3;" horiz-adv-x="1667" d="M92 0zM436 717q0 -107 28.5 -193t81 -146.5t126 -93t162.5 -32.5t162 32.5t125.5 93t81 146.5t28.5 193q0 106 -28.5 192t-81 146t-125.5 92.5t-162 32.5t-162.5 -32.5t-126 -92.5t-81 -146t-28.5 -192zM92 717q0 164 54 301t151.5 235.5t234.5 153.5t302 55t301.5 -55 t234 -153.5t151.5 -235.5t54 -301t-54 -301t-151.5 -236t-234 -154t-301.5 -55t-302 55t-234.5 154t-151.5 236t-54 301zM1253 1925l-350 -301h-285l238 301h397z" />
<glyph unicode="&#xd4;" horiz-adv-x="1667" d="M92 0zM436 717q0 -107 28.5 -193t81 -146.5t126 -93t162.5 -32.5t162 32.5t125.5 93t81 146.5t28.5 193q0 106 -28.5 192t-81 146t-125.5 92.5t-162 32.5t-162.5 -32.5t-126 -92.5t-81 -146t-28.5 -192zM92 717q0 164 54 301t151.5 235.5t234.5 153.5t302 55t301.5 -55 t234 -153.5t151.5 -235.5t54 -301t-54 -301t-151.5 -236t-234 -154t-301.5 -55t-302 55t-234.5 154t-151.5 236t-54 301zM990 1946l250 -322h-265l-143 156l-143 -156h-265l250 322h316z" />
<glyph unicode="&#xd5;" horiz-adv-x="1667" d="M92 0zM436 717q0 -107 28.5 -193t81 -146.5t126 -93t162.5 -32.5t162 32.5t125.5 93t81 146.5t28.5 193q0 106 -28.5 192t-81 146t-125.5 92.5t-162 32.5t-162.5 -32.5t-126 -92.5t-81 -146t-28.5 -192zM92 717q0 164 54 301t151.5 235.5t234.5 153.5t302 55t301.5 -55 t234 -153.5t151.5 -235.5t54 -301t-54 -301t-151.5 -236t-234 -154t-301.5 -55t-302 55t-234.5 154t-151.5 236t-54 301zM1268 2009q0 -66 -14.5 -131t-46.5 -116t-83.5 -83t-125.5 -32q-45 0 -80 10.5t-63 27t-51 35t-44.5 35t-43 27t-46.5 10.5q-42 0 -65 -35t-23 -106 h-191q0 64 14.5 129t46 117t82.5 84.5t124 32.5q43 0 77.5 -11t63 -27t52 -35t45.5 -35t43 -27t44 -11q48 0 71 38t23 103h191z" />
<glyph unicode="&#xd6;" horiz-adv-x="1667" d="M92 0zM436 717q0 -107 28.5 -193t81 -146.5t126 -93t162.5 -32.5t162 32.5t125.5 93t81 146.5t28.5 193q0 106 -28.5 192t-81 146t-125.5 92.5t-162 32.5t-162.5 -32.5t-126 -92.5t-81 -146t-28.5 -192zM92 717q0 164 54 301t151.5 235.5t234.5 153.5t302 55t301.5 -55 t234 -153.5t151.5 -235.5t54 -301t-54 -301t-151.5 -236t-234 -154t-301.5 -55t-302 55t-234.5 154t-151.5 236t-54 301zM464 1772q0 33 11.5 61t32.5 48.5t50 32t64 11.5q32 0 60 -11.5t48.5 -32t32 -48.5t11.5 -61t-11.5 -61.5t-32 -49.5t-48.5 -33t-60 -12q-35 0 -64 12 t-50 33t-32.5 49.5t-11.5 61.5zM931 1772q0 33 11.5 61t32.5 48.5t50 32t64 11.5q32 0 60 -11.5t48.5 -32t32 -48.5t11.5 -61t-11.5 -61.5t-32 -49.5t-48.5 -33t-60 -12q-35 0 -64 12t-50 33t-32.5 49.5t-11.5 61.5z" />
<glyph unicode="&#xd7;" horiz-adv-x="1376" d="M299 1178l389 -392l389 390l197 -197l-389 -389l389 -387l-197 -197l-389 387l-389 -389l-197 197l390 389l-390 391z" />
<glyph unicode="&#xd8;" horiz-adv-x="1647" d="M82 717q0 164 54 301t151.5 235.5t234 153.5t301.5 55q113 0 211.5 -26t182.5 -74l81 100h267l-187 -229q90 -97 138.5 -228.5t48.5 -287.5q0 -164 -54 -301t-151.5 -236t-234.5 -154t-302 -55q-112 0 -211.5 25.5t-183.5 73.5l-80 -99h-266l186 228q-89 99 -137.5 229.5 t-48.5 288.5zM426 717q0 -153 55 -256l543 665q-43 26 -93.5 40t-107.5 14q-89 0 -162 -32.5t-125.5 -92.5t-81 -146t-28.5 -192zM1221 717q0 74 -15 138t-41 118l-544 -668q86 -53 202 -53q89 0 162.5 32.5t126 93t81 146.5t28.5 193z" />
<glyph unicode="&#xd9;" horiz-adv-x="1556" d="M164 0zM164 1434h328v-854q0 -92 20 -155t57.5 -102t90.5 -56t118 -17t118 17t90.5 56t58 102t20.5 155v854h328v-852q0 -157 -45 -272t-126 -190.5t-194 -112t-250 -36.5t-250 35t-194 109t-125.5 190t-44.5 277v852zM755 1925l238 -301h-285l-350 301h397z" />
<glyph unicode="&#xda;" horiz-adv-x="1556" d="M164 0zM164 1434h328v-854q0 -92 20 -155t57.5 -102t90.5 -56t118 -17t118 17t90.5 56t58 102t20.5 155v854h328v-852q0 -157 -45 -272t-126 -190.5t-194 -112t-250 -36.5t-250 35t-194 109t-125.5 190t-44.5 277v852zM1177 1925l-350 -301h-285l238 301h397z" />
<glyph unicode="&#xdb;" horiz-adv-x="1556" d="M164 0zM164 1434h328v-854q0 -92 20 -155t57.5 -102t90.5 -56t118 -17t118 17t90.5 56t58 102t20.5 155v854h328v-852q0 -157 -45 -272t-126 -190.5t-194 -112t-250 -36.5t-250 35t-194 109t-125.5 190t-44.5 277v852zM936 1946l250 -322h-265l-143 156l-143 -156h-265 l250 322h316z" />
<glyph unicode="&#xdc;" horiz-adv-x="1577" d="M174 0zM174 1434h328v-854q0 -92 20 -155t57.5 -102t90.5 -56t118 -17t118 17t90.5 56t58 102t20.5 155v854h328v-852q0 -157 -45 -272t-126 -190.5t-194 -112t-250 -36.5t-250 35t-194 109t-125.5 190t-44.5 277v852zM399 1772q0 33 11.5 61t32.5 48.5t50 32t64 11.5 q32 0 60 -11.5t48.5 -32t32 -48.5t11.5 -61t-11.5 -61.5t-32 -49.5t-48.5 -33t-60 -12q-35 0 -64 12t-50 33t-32.5 49.5t-11.5 61.5zM866 1772q0 33 11.5 61t32.5 48.5t50 32t64 11.5q32 0 60 -11.5t48.5 -32t32 -48.5t11.5 -61t-11.5 -61.5t-32 -49.5t-48.5 -33t-60 -12 q-35 0 -64 12t-50 33t-32.5 49.5t-11.5 61.5z" />
<glyph unicode="&#xdd;" horiz-adv-x="1286" d="M0 0zM807 526v-526h-328v526l-489 908h362l291 -594l291 594h362zM1104 1925l-350 -301h-285l238 301h397z" />
<glyph unicode="&#xde;" horiz-adv-x="1309" d="M184 1434h328v-207h182q136 0 238 -38.5t170.5 -103.5t102.5 -151.5t34 -183.5t-34 -183.5t-102.5 -152t-170.5 -104t-238 -38.5h-182v-272h-328v1434zM895 750q0 57 -18 97.5t-49.5 65.5t-76 36.5t-96.5 11.5h-143v-422h143q55 0 99 11.5t75.5 37t48.5 65.5t17 97z" />
<glyph unicode="&#xdf;" horiz-adv-x="1423" d="M915 795q0 -24 19.5 -43t52 -37t73.5 -36t83.5 -40t83.5 -49.5t73.5 -64t52 -84.5t19.5 -111q0 -82 -34 -148.5t-95.5 -113t-146.5 -72t-187 -25.5q-52 0 -99.5 8t-88 20t-71.5 26t-50 26v234q25 -17 62 -34t78.5 -30.5t83.5 -22t77 -8.5q45 0 76.5 12t51 31.5t28 43.5 t8.5 47q0 46 -34 77t-85 56t-110.5 49.5t-110.5 58t-85 81.5t-34 120q0 56 16.5 94.5t41.5 66.5t54.5 49.5t54.5 44t41.5 50t16.5 68.5q0 38 -16.5 64.5t-41 43t-54 24t-55.5 7.5q-34 0 -69 -11t-63.5 -34t-46.5 -58t-18 -83v-1092h-303v1090q0 90 35.5 165t101 128 t158 82.5t207.5 29.5q114 0 205.5 -23t155.5 -65t98 -100.5t34 -128.5q0 -61 -18 -105t-45 -77.5t-59 -59t-59 -48t-45 -44.5t-18 -49z" />
<glyph unicode="&#xe0;" horiz-adv-x="1153" d="M72 0zM150 1024q44 19 101 35q49 13 118 24t157 11q111 0 197.5 -23.5t146.5 -70t91.5 -115.5t31.5 -160v-403q0 -59 22.5 -83t59.5 -24q21 0 34 5q7 2 13 5v-205q-21 -9 -48 -16q-23 -6 -58 -11t-80 -5q-51 0 -88 11.5t-62.5 30.5t-41.5 42.5t-25 46.5h-2 q-22 -29 -51 -55.5t-66.5 -47t-85 -33t-106.5 -12.5q-69 0 -130.5 20.5t-107 62.5t-72 105.5t-26.5 149.5q0 69 27 131t81 109t134.5 74.5t187.5 27.5q49 0 93.5 -5.5t86.5 -14.5v63q0 34 -10.5 63.5t-35 51t-64 33.5t-97.5 12q-74 0 -133.5 -13.5t-102.5 -30.5 q-50 -19 -89 -44v258zM522 203q50 0 89.5 20t70.5 49v177q-25 5 -51.5 7.5t-55.5 2.5q-51 0 -87.5 -11t-60 -29t-34 -41.5t-10.5 -49.5t9.5 -49t27 -40t43.5 -26.5t59 -9.5zM542 1556l238 -301h-285l-350 301h397z" />
<glyph unicode="&#xe1;" horiz-adv-x="1153" d="M72 0zM150 1024q44 19 101 35q49 13 118 24t157 11q111 0 197.5 -23.5t146.5 -70t91.5 -115.5t31.5 -160v-403q0 -59 22.5 -83t59.5 -24q21 0 34 5q7 2 13 5v-205q-21 -9 -48 -16q-23 -6 -58 -11t-80 -5q-51 0 -88 11.5t-62.5 30.5t-41.5 42.5t-25 46.5h-2 q-22 -29 -51 -55.5t-66.5 -47t-85 -33t-106.5 -12.5q-69 0 -130.5 20.5t-107 62.5t-72 105.5t-26.5 149.5q0 69 27 131t81 109t134.5 74.5t187.5 27.5q49 0 93.5 -5.5t86.5 -14.5v63q0 34 -10.5 63.5t-35 51t-64 33.5t-97.5 12q-74 0 -133.5 -13.5t-102.5 -30.5 q-50 -19 -89 -44v258zM522 203q50 0 89.5 20t70.5 49v177q-25 5 -51.5 7.5t-55.5 2.5q-51 0 -87.5 -11t-60 -29t-34 -41.5t-10.5 -49.5t9.5 -49t27 -40t43.5 -26.5t59 -9.5zM923 1556l-350 -301h-285l238 301h397z" />
<glyph unicode="&#xe2;" horiz-adv-x="1153" d="M72 0zM150 1024q44 19 101 35q49 13 118 24t157 11q111 0 197.5 -23.5t146.5 -70t91.5 -115.5t31.5 -160v-403q0 -59 22.5 -83t59.5 -24q21 0 34 5q7 2 13 5v-205q-21 -9 -48 -16q-23 -6 -58 -11t-80 -5q-51 0 -88 11.5t-62.5 30.5t-41.5 42.5t-25 46.5h-2 q-22 -29 -51 -55.5t-66.5 -47t-85 -33t-106.5 -12.5q-69 0 -130.5 20.5t-107 62.5t-72 105.5t-26.5 149.5q0 69 27 131t81 109t134.5 74.5t187.5 27.5q49 0 93.5 -5.5t86.5 -14.5v63q0 34 -10.5 63.5t-35 51t-64 33.5t-97.5 12q-74 0 -133.5 -13.5t-102.5 -30.5 q-50 -19 -89 -44v258zM522 203q50 0 89.5 20t70.5 49v177q-25 5 -51.5 7.5t-55.5 2.5q-51 0 -87.5 -11t-60 -29t-34 -41.5t-10.5 -49.5t9.5 -49t27 -40t43.5 -26.5t59 -9.5zM713 1577l250 -322h-265l-143 156l-143 -156h-265l250 322h316z" />
<glyph unicode="&#xe3;" horiz-adv-x="1153" d="M72 0zM150 1024q44 19 101 35q49 13 118 24t157 11q111 0 197.5 -23.5t146.5 -70t91.5 -115.5t31.5 -160v-403q0 -59 22.5 -83t59.5 -24q21 0 34 5q7 2 13 5v-205q-21 -9 -48 -16q-23 -6 -58 -11t-80 -5q-51 0 -88 11.5t-62.5 30.5t-41.5 42.5t-25 46.5h-2 q-22 -29 -51 -55.5t-66.5 -47t-85 -33t-106.5 -12.5q-69 0 -130.5 20.5t-107 62.5t-72 105.5t-26.5 149.5q0 69 27 131t81 109t134.5 74.5t187.5 27.5q49 0 93.5 -5.5t86.5 -14.5v63q0 34 -10.5 63.5t-35 51t-64 33.5t-97.5 12q-74 0 -133.5 -13.5t-102.5 -30.5 q-50 -19 -89 -44v258zM522 203q50 0 89.5 20t70.5 49v177q-25 5 -51.5 7.5t-55.5 2.5q-51 0 -87.5 -11t-60 -29t-34 -41.5t-10.5 -49.5t9.5 -49t27 -40t43.5 -26.5t59 -9.5zM974 1640q0 -66 -14.5 -131t-46.5 -116t-83.5 -83t-125.5 -32q-45 0 -80 10.5t-63 27t-51 35 t-44.5 35t-43 27t-46.5 10.5q-42 0 -65 -35t-23 -106h-191q0 64 14.5 129t46 117t82.5 84.5t124 32.5q43 0 77.5 -11t63 -27t52 -35t45.5 -35t43 -27t44 -11q48 0 71 38t23 103h191z" />
<glyph unicode="&#xe4;" horiz-adv-x="1153" d="M72 0zM150 1024q44 19 101 35q49 13 118 24t157 11q111 0 197.5 -23.5t146.5 -70t91.5 -115.5t31.5 -160v-403q0 -59 22.5 -83t59.5 -24q21 0 34 5q7 2 13 5v-205q-21 -9 -48 -16q-23 -6 -58 -11t-80 -5q-51 0 -88 11.5t-62.5 30.5t-41.5 42.5t-25 46.5h-2 q-22 -29 -51 -55.5t-66.5 -47t-85 -33t-106.5 -12.5q-69 0 -130.5 20.5t-107 62.5t-72 105.5t-26.5 149.5q0 69 27 131t81 109t134.5 74.5t187.5 27.5q49 0 93.5 -5.5t86.5 -14.5v63q0 34 -10.5 63.5t-35 51t-64 33.5t-97.5 12q-74 0 -133.5 -13.5t-102.5 -30.5 q-50 -19 -89 -44v258zM522 203q50 0 89.5 20t70.5 49v177q-25 5 -51.5 7.5t-55.5 2.5q-51 0 -87.5 -11t-60 -29t-34 -41.5t-10.5 -49.5t9.5 -49t27 -40t43.5 -26.5t59 -9.5zM157 1403q0 33 11.5 61t32.5 48.5t50 32t64 11.5q32 0 60 -11.5t48.5 -32t32 -48.5t11.5 -61 t-11.5 -61.5t-32 -49.5t-48.5 -33t-60 -12q-35 0 -64 12t-50 33t-32.5 49.5t-11.5 61.5zM624 1403q0 33 11.5 61t32.5 48.5t50 32t64 11.5q32 0 60 -11.5t48.5 -32t32 -48.5t11.5 -61t-11.5 -61.5t-32 -49.5t-48.5 -33t-60 -12q-35 0 -64 12t-50 33t-32.5 49.5t-11.5 61.5z " />
<glyph unicode="&#xe5;" horiz-adv-x="1153" d="M72 0zM150 1024q44 19 101 35q49 13 118 24t157 11q111 0 197.5 -23.5t146.5 -70t91.5 -115.5t31.5 -160v-403q0 -59 22.5 -83t59.5 -24q21 0 34 5q7 2 13 5v-205q-21 -9 -48 -16q-23 -6 -58 -11t-80 -5q-51 0 -88 11.5t-62.5 30.5t-41.5 42.5t-25 46.5h-2 q-22 -29 -51 -55.5t-66.5 -47t-85 -33t-106.5 -12.5q-69 0 -130.5 20.5t-107 62.5t-72 105.5t-26.5 149.5q0 69 27 131t81 109t134.5 74.5t187.5 27.5q49 0 93.5 -5.5t86.5 -14.5v63q0 34 -10.5 63.5t-35 51t-64 33.5t-97.5 12q-74 0 -133.5 -13.5t-102.5 -30.5 q-50 -19 -89 -44v258zM522 203q50 0 89.5 20t70.5 49v177q-25 5 -51.5 7.5t-55.5 2.5q-51 0 -87.5 -11t-60 -29t-34 -41.5t-10.5 -49.5t9.5 -49t27 -40t43.5 -26.5t59 -9.5zM432 1509q0 -57 30.5 -92t81.5 -35t82 35t31 92q0 54 -31 88.5t-82 34.5t-81.5 -34.5t-30.5 -88.5z M247 1509q0 64 22 118t62 92t94 59.5t119 21.5q64 0 118.5 -21.5t94.5 -59.5t62 -92t22 -118q0 -65 -22 -119.5t-62 -93.5t-94.5 -60.5t-118.5 -21.5q-65 0 -119 21.5t-94 60.5t-62 93.5t-22 119.5z" />
<glyph unicode="&#xe6;" horiz-adv-x="1815" d="M1241 1094q106 0 196 -34.5t156 -98.5t103 -154.5t37 -202.5q0 -26 -1.5 -51.5t-3.5 -46.5q-2 -25 -4 -47h-696q14 -124 92 -187t221 -63q39 0 82.5 6.5t87.5 20t87 34t81 47.5v-235q-35 -25 -80 -45.5t-97 -35t-109.5 -22.5t-116.5 -8q-131 0 -237 40t-181 114 q-45 -38 -89.5 -66.5t-93.5 -48t-104.5 -29.5t-121.5 -10q-84 0 -153.5 21t-119 63t-77 106t-27.5 150q0 72 28.5 137.5t84.5 115t140.5 79t196.5 29.5q50 0 94 -5.5t86 -15.5v39q0 34 -10.5 63.5t-35 51t-64 33.5t-96.5 12q-79 0 -142.5 -17.5t-108.5 -37.5 q-53 -24 -95 -54v263q46 25 107 45q52 17 125 31t165 14q121 0 210 -28.5t148 -82.5q68 53 152.5 82t183.5 29zM543 197q49 0 89 20t70 49v197q-24 5 -50.5 7.5t-55.5 2.5q-57 0 -97.5 -12t-66 -32.5t-37.5 -47.5t-12 -57q0 -26 11 -49.5t31.5 -40.5t50 -27t67.5 -10z M1241 872q-51 0 -90 -18t-66 -48.5t-41.5 -70.5t-15.5 -84h395q3 46 -8.5 86.5t-35 70.5t-58.5 47t-80 17z" />
<glyph unicode="&#xe7;" horiz-adv-x="1055" d="M82 0zM82 532q0 133 41 237.5t115 176.5t175.5 110t223.5 38q52 0 101 -6.5t91 -17t76.5 -23.5t57.5 -25v-270q-18 15 -44 32.5t-60.5 32.5t-77 25t-93.5 10q-140 0 -215.5 -83.5t-75.5 -236.5q0 -152 75.5 -235.5t215.5 -83.5q51 0 93.5 10t77 25t60.5 32.5t44 32.5 v-270q-23 -12 -57.5 -25t-76.5 -23.5t-91 -17t-101 -6.5q-122 0 -223.5 38t-175.5 110t-115 176t-41 237zM383 -367q21 -9 47 -16q21 -6 49 -11t58 -5q42 0 65 21.5t23 60.5q0 24 -16.5 43.5t-46 33.5t-69 21.5t-85.5 7.5l119 211h221l-74 -119q42 -10 77 -27.5t60.5 -43 t39.5 -57.5t14 -70q0 -56 -26 -98.5t-68 -71t-96 -42.5t-111 -14q-37 0 -69.5 3.5t-57.5 8.5q-29 5 -54 13v151z" />
<glyph unicode="&#xe8;" horiz-adv-x="1194" d="M82 0zM621 1094q106 0 196 -34.5t155.5 -98.5t102.5 -154.5t37 -202.5q0 -26 -1 -51.5t-3 -46.5q-2 -25 -4 -47h-696q14 -124 91.5 -187t221.5 -63q39 0 82 6.5t87 20t87 34t82 47.5v-235q-35 -25 -80 -45.5t-97.5 -35t-110 -22.5t-116.5 -8q-130 0 -235.5 40.5 t-180.5 114.5t-116 178t-41 231q0 123 40 225.5t111.5 176.5t170.5 115.5t217 41.5zM621 872q-51 0 -90 -18t-66 -48.5t-41.5 -70.5t-15.5 -84h395q2 46 -9.5 86.5t-35 70.5t-58.5 47t-79 17zM614 1556l238 -301h-285l-350 301h397z" />
<glyph unicode="&#xe9;" horiz-adv-x="1194" d="M82 0zM621 1094q106 0 196 -34.5t155.5 -98.5t102.5 -154.5t37 -202.5q0 -26 -1 -51.5t-3 -46.5q-2 -25 -4 -47h-696q14 -124 91.5 -187t221.5 -63q39 0 82 6.5t87 20t87 34t82 47.5v-235q-35 -25 -80 -45.5t-97.5 -35t-110 -22.5t-116.5 -8q-130 0 -235.5 40.5 t-180.5 114.5t-116 178t-41 231q0 123 40 225.5t111.5 176.5t170.5 115.5t217 41.5zM621 872q-51 0 -90 -18t-66 -48.5t-41.5 -70.5t-15.5 -84h395q2 46 -9.5 86.5t-35 70.5t-58.5 47t-79 17zM975 1556l-350 -301h-285l238 301h397z" />
<glyph unicode="&#xea;" horiz-adv-x="1194" d="M82 0zM621 1094q106 0 196 -34.5t155.5 -98.5t102.5 -154.5t37 -202.5q0 -26 -1 -51.5t-3 -46.5q-2 -25 -4 -47h-696q14 -124 91.5 -187t221.5 -63q39 0 82 6.5t87 20t87 34t82 47.5v-235q-35 -25 -80 -45.5t-97.5 -35t-110 -22.5t-116.5 -8q-130 0 -235.5 40.5 t-180.5 114.5t-116 178t-41 231q0 123 40 225.5t111.5 176.5t170.5 115.5t217 41.5zM621 872q-51 0 -90 -18t-66 -48.5t-41.5 -70.5t-15.5 -84h395q2 46 -9.5 86.5t-35 70.5t-58.5 47t-79 17zM774 1577l250 -322h-265l-143 156l-143 -156h-265l250 322h316z" />
<glyph unicode="&#xeb;" horiz-adv-x="1194" d="M82 0zM621 1094q106 0 196 -34.5t155.5 -98.5t102.5 -154.5t37 -202.5q0 -26 -1 -51.5t-3 -46.5q-2 -25 -4 -47h-696q14 -124 91.5 -187t221.5 -63q39 0 82 6.5t87 20t87 34t82 47.5v-235q-35 -25 -80 -45.5t-97.5 -35t-110 -22.5t-116.5 -8q-130 0 -235.5 40.5 t-180.5 114.5t-116 178t-41 231q0 123 40 225.5t111.5 176.5t170.5 115.5t217 41.5zM621 872q-51 0 -90 -18t-66 -48.5t-41.5 -70.5t-15.5 -84h395q2 46 -9.5 86.5t-35 70.5t-58.5 47t-79 17zM229 1403q0 33 11.5 61t32.5 48.5t50 32t64 11.5q32 0 60 -11.5t48.5 -32 t32 -48.5t11.5 -61t-11.5 -61.5t-32 -49.5t-48.5 -33t-60 -12q-35 0 -64 12t-50 33t-32.5 49.5t-11.5 61.5zM696 1403q0 33 11.5 61t32.5 48.5t50 32t64 11.5q32 0 60 -11.5t48.5 -32t32 -48.5t11.5 -61t-11.5 -61.5t-32 -49.5t-48.5 -33t-60 -12q-35 0 -64 12t-50 33 t-32.5 49.5t-11.5 61.5z" />
<glyph unicode="&#xec;" horiz-adv-x="618" d="M0 0zM154 1065h311v-1065h-311v1065zM328 1556l238 -301h-285l-350 301h397z" />
<glyph unicode="&#xed;" horiz-adv-x="618" d="M74 0zM154 1065h311v-1065h-311v1065zM709 1556l-350 -301h-285l238 301h397z" />
<glyph unicode="&#xee;" horiz-adv-x="618" d="M0 0zM154 1065h311v-1065h-311v1065zM468 1577l250 -322h-265l-143 156l-143 -156h-265l250 322h316z" />
<glyph unicode="&#xef;" horiz-adv-x="618" d="M0 0zM154 1065h311v-1065h-311v1065zM-77 1403q0 33 11.5 61t32.5 48.5t50 32t64 11.5q32 0 60 -11.5t48.5 -32t32 -48.5t11.5 -61t-11.5 -61.5t-32 -49.5t-48.5 -33t-60 -12q-35 0 -64 12t-50 33t-32.5 49.5t-11.5 61.5zM390 1403q0 33 11.5 61t32.5 48.5t50 32t64 11.5 q32 0 60 -11.5t48.5 -32t32 -48.5t11.5 -61t-11.5 -61.5t-32 -49.5t-48.5 -33t-60 -12q-35 0 -64 12t-50 33t-32.5 49.5t-11.5 61.5z" />
<glyph unicode="&#xf0;" horiz-adv-x="1253" d="M1057 1323l-164 -76q64 -77 115.5 -161.5t87.5 -173.5t55.5 -182t19.5 -187q0 -124 -39.5 -228.5t-111.5 -181t-173.5 -119.5t-225.5 -43q-117 0 -216 38.5t-170.5 107.5t-112 164.5t-40.5 210.5q0 106 35.5 199t97.5 161t147.5 107.5t186.5 39.5q94 0 160.5 -27 t111.5 -61q-23 60 -57.5 121.5t-77.5 120.5l-223 -102l-45 98l196 88q-60 63 -120 104l122 154q54 -37 104.5 -78t96.5 -88l195 90zM401 492q0 -68 16.5 -120t46.5 -87.5t71.5 -53.5t91.5 -18t91.5 18t71 53.5t46 87.5t16.5 120t-16.5 120t-46 87t-71 53t-91.5 18t-91.5 -18 t-71.5 -53.5t-46.5 -87.5t-16.5 -119z" />
<glyph unicode="&#xf1;" d="M139 0zM465 0h-311v795q0 59 -2.5 108.5t-5.5 85.5q-4 42 -7 76h291l8 -48q4 -23 8 -54.5t9 -69.5q17 25 45 60t70.5 66t100 53t132.5 22q108 0 180.5 -36t116 -93.5t62 -129t18.5 -141.5v-694h-312v633q0 57 -14 97t-39.5 65t-61 36t-79.5 11q-35 0 -67.5 -10t-59.5 -25 t-48 -33t-34 -35v-739zM1102 1640q0 -66 -14.5 -131t-46.5 -116t-83.5 -83t-125.5 -32q-45 0 -80 10.5t-63 27t-51 35t-44.5 35t-43 27t-46.5 10.5q-42 0 -65 -35t-23 -106h-191q0 64 14.5 129t46 117t82.5 84.5t124 32.5q43 0 77.5 -11t63 -27t52 -35t45.5 -35t43 -27 t44 -11q48 0 71 38t23 103h191z" />
<glyph unicode="&#xf2;" horiz-adv-x="1294" d="M82 0zM401 532q0 -77 18 -136.5t50.5 -100t78 -61.5t99.5 -21q55 0 100 21t77.5 61.5t50.5 100t18 136.5q0 78 -18 137.5t-50.5 100t-77.5 61.5t-100 21q-54 0 -99.5 -21t-78 -61.5t-50.5 -100t-18 -137.5zM82 532q0 124 41.5 227t116 177.5t178.5 116t229 41.5 t229 -41.5t178.5 -116t116 -177.5t41.5 -227q0 -123 -41.5 -226.5t-116 -177.5t-178.5 -115.5t-229 -41.5t-229 41.5t-178.5 115.5t-116 177.5t-41.5 226.5zM604 1556l238 -301h-285l-350 301h397z" />
<glyph unicode="&#xf3;" horiz-adv-x="1294" d="M82 0zM401 532q0 -77 18 -136.5t50.5 -100t78 -61.5t99.5 -21q55 0 100 21t77.5 61.5t50.5 100t18 136.5q0 78 -18 137.5t-50.5 100t-77.5 61.5t-100 21q-54 0 -99.5 -21t-78 -61.5t-50.5 -100t-18 -137.5zM82 532q0 124 41.5 227t116 177.5t178.5 116t229 41.5 t229 -41.5t178.5 -116t116 -177.5t41.5 -227q0 -123 -41.5 -226.5t-116 -177.5t-178.5 -115.5t-229 -41.5t-229 41.5t-178.5 115.5t-116 177.5t-41.5 226.5zM1005 1556l-350 -301h-285l238 301h397z" />
<glyph unicode="&#xf4;" horiz-adv-x="1294" d="M82 0zM401 532q0 -77 18 -136.5t50.5 -100t78 -61.5t99.5 -21q55 0 100 21t77.5 61.5t50.5 100t18 136.5q0 78 -18 137.5t-50.5 100t-77.5 61.5t-100 21q-54 0 -99.5 -21t-78 -61.5t-50.5 -100t-18 -137.5zM82 532q0 124 41.5 227t116 177.5t178.5 116t229 41.5 t229 -41.5t178.5 -116t116 -177.5t41.5 -227q0 -123 -41.5 -226.5t-116 -177.5t-178.5 -115.5t-229 -41.5t-229 41.5t-178.5 115.5t-116 177.5t-41.5 226.5zM803 1577l250 -322h-265l-143 156l-143 -156h-265l250 322h316z" />
<glyph unicode="&#xf5;" horiz-adv-x="1294" d="M82 0zM401 532q0 -77 18 -136.5t50.5 -100t78 -61.5t99.5 -21q55 0 100 21t77.5 61.5t50.5 100t18 136.5q0 78 -18 137.5t-50.5 100t-77.5 61.5t-100 21q-54 0 -99.5 -21t-78 -61.5t-50.5 -100t-18 -137.5zM82 532q0 124 41.5 227t116 177.5t178.5 116t229 41.5 t229 -41.5t178.5 -116t116 -177.5t41.5 -227q0 -123 -41.5 -226.5t-116 -177.5t-178.5 -115.5t-229 -41.5t-229 41.5t-178.5 115.5t-116 177.5t-41.5 226.5zM1085 1640q0 -66 -14.5 -131t-46.5 -116t-83.5 -83t-125.5 -32q-45 0 -80 10.5t-63 27t-51 35t-44.5 35t-43 27 t-46.5 10.5q-42 0 -65 -35t-23 -106h-191q0 64 14.5 129t46 117t82.5 84.5t124 32.5q43 0 77.5 -11t63 -27t52 -35t45.5 -35t43 -27t44 -11q48 0 71 38t23 103h191z" />
<glyph unicode="&#xf6;" horiz-adv-x="1294" d="M82 0zM401 532q0 -77 18 -136.5t50.5 -100t78 -61.5t99.5 -21q55 0 100 21t77.5 61.5t50.5 100t18 136.5q0 78 -18 137.5t-50.5 100t-77.5 61.5t-100 21q-54 0 -99.5 -21t-78 -61.5t-50.5 -100t-18 -137.5zM82 532q0 124 41.5 227t116 177.5t178.5 116t229 41.5 t229 -41.5t178.5 -116t116 -177.5t41.5 -227q0 -123 -41.5 -226.5t-116 -177.5t-178.5 -115.5t-229 -41.5t-229 41.5t-178.5 115.5t-116 177.5t-41.5 226.5zM258 1403q0 33 11.5 61t32.5 48.5t50 32t64 11.5q32 0 60 -11.5t48.5 -32t32 -48.5t11.5 -61t-11.5 -61.5 t-32 -49.5t-48.5 -33t-60 -12q-35 0 -64 12t-50 33t-32.5 49.5t-11.5 61.5zM725 1403q0 33 11.5 61t32.5 48.5t50 32t64 11.5q32 0 60 -11.5t48.5 -32t32 -48.5t11.5 -61t-11.5 -61.5t-32 -49.5t-48.5 -33t-60 -12q-35 0 -64 12t-50 33t-32.5 49.5t-11.5 61.5z" />
<glyph unicode="&#xf7;" horiz-adv-x="1278" d="M438 1012q0 39 15 72t42 57t64 37.5t80 13.5t80 -13.5t64 -37.5t42 -57t15 -72t-15 -72.5t-42 -57.5t-64 -37.5t-80 -13.5t-80 13.5t-64 37.5t-42 57.5t-15 72.5zM1176 725v-266h-1074v266h1074zM438 172q0 39 15 72t42 57t64 37.5t80 13.5t80 -13.5t64 -37.5t42 -57 t15 -72t-15 -72t-42 -57t-64 -37.5t-80 -13.5t-80 13.5t-64 37.5t-42 57t-15 72z" />
<glyph unicode="&#xf8;" horiz-adv-x="1294" d="M82 532q0 124 41.5 227t116 177.5t178.5 116t229 41.5q84 0 157 -19t136 -53l59 72h213l-141 -174q68 -75 104.5 -172.5t36.5 -215.5q0 -123 -41.5 -226.5t-116 -177.5t-178.5 -115.5t-229 -41.5q-83 0 -157.5 19t-137.5 53l-57 -72h-213l141 172q-68 75 -104.5 173.5 t-36.5 215.5zM401 532q0 -84 21 -145l350 430q-53 35 -125 35q-54 0 -99.5 -21t-78 -61.5t-50.5 -100t-18 -137.5zM893 532q0 42 -5.5 78t-15.5 68l-352 -430q28 -19 60 -27t67 -8q55 0 100 21t77.5 61.5t50.5 100t18 136.5z" />
<glyph unicode="&#xf9;" d="M145 0zM860 1065h311v-795q0 -60 2 -109t5 -85q4 -42 8 -76h-291l-8 48q-4 23 -8.5 54.5t-8.5 69.5q-17 -26 -45 -60.5t-70.5 -65.5t-100 -53t-132.5 -22q-108 0 -180.5 36t-116 93.5t-62 129t-18.5 141.5v694h312v-633q0 -57 14 -97t39.5 -65t61 -36t79.5 -11 q35 0 67.5 10t59.5 25t48 33t34 35v739zM600 1556l238 -301h-285l-350 301h397z" />
<glyph unicode="&#xfa;" d="M145 0zM860 1065h311v-795q0 -60 2 -109t5 -85q4 -42 8 -76h-291l-8 48q-4 23 -8.5 54.5t-8.5 69.5q-17 -26 -45 -60.5t-70.5 -65.5t-100 -53t-132.5 -22q-108 0 -180.5 36t-116 93.5t-62 129t-18.5 141.5v694h312v-633q0 -57 14 -97t39.5 -65t61 -36t79.5 -11 q35 0 67.5 10t59.5 25t48 33t34 35v739zM1063 1556l-350 -301h-285l238 301h397z" />
<glyph unicode="&#xfb;" d="M145 0zM860 1065h311v-795q0 -60 2 -109t5 -85q4 -42 8 -76h-291l-8 48q-4 23 -8.5 54.5t-8.5 69.5q-17 -26 -45 -60.5t-70.5 -65.5t-100 -53t-132.5 -22q-108 0 -180.5 36t-116 93.5t-62 129t-18.5 141.5v694h312v-633q0 -57 14 -97t39.5 -65t61 -36t79.5 -11 q35 0 67.5 10t59.5 25t48 33t34 35v739zM822 1577l250 -322h-265l-143 156l-143 -156h-265l250 322h316z" />
<glyph unicode="&#xfc;" d="M145 0zM860 1065h311v-795q0 -60 2 -109t5 -85q4 -42 8 -76h-291l-8 48q-4 23 -8.5 54.5t-8.5 69.5q-17 -26 -45 -60.5t-70.5 -65.5t-100 -53t-132.5 -22q-108 0 -180.5 36t-116 93.5t-62 129t-18.5 141.5v694h312v-633q0 -57 14 -97t39.5 -65t61 -36t79.5 -11 q35 0 67.5 10t59.5 25t48 33t34 35v739zM276 1403q0 33 11.5 61t32.5 48.5t50 32t64 11.5q32 0 60 -11.5t48.5 -32t32 -48.5t11.5 -61t-11.5 -61.5t-32 -49.5t-48.5 -33t-60 -12q-35 0 -64 12t-50 33t-32.5 49.5t-11.5 61.5zM743 1403q0 33 11.5 61t32.5 48.5t50 32t64 11.5 q32 0 60 -11.5t48.5 -32t32 -48.5t11.5 -61t-11.5 -61.5t-32 -49.5t-48.5 -33t-60 -12q-35 0 -64 12t-50 33t-32.5 49.5t-11.5 61.5z" />
<glyph unicode="&#xfd;" horiz-adv-x="1104" d="M2 0zM2 -211q17 -7 39 -11q19 -5 44.5 -8t55.5 -3q27 0 62.5 9t72 34.5t71 70t59.5 115.5l12 37l-412 1032h324l233 -645l209 645h322l-379 -1065q-55 -154 -115.5 -253t-129.5 -156.5t-146.5 -80t-165.5 -22.5q-38 0 -66.5 4.5t-48.5 9.5q-24 6 -41 15v272v0zM991 1556 l-350 -301h-285l238 301h397z" />
<glyph unicode="&#xfe;" horiz-adv-x="1358" d="M1266 532q0 -120 -37.5 -222.5t-104 -177.5t-157 -118t-195.5 -43q-49 0 -92.5 9t-81 23.5t-68.5 33t-55 37.5v-586h-311v1946h311v-459q24 23 55 44.5t68.5 38t81 26.5t92.5 10q105 0 195.5 -43t157 -118t104 -178t37.5 -223zM668 211q54 0 105 19t90.5 58t63 99.5 t23.5 144.5q0 78 -21.5 135t-58 94t-86 55t-106.5 18q-29 0 -58.5 -5.5t-56 -14t-49.5 -19.5t-39 -23v-498q28 -21 77.5 -42t115.5 -21z" />
<glyph unicode="&#xff;" horiz-adv-x="1104" d="M2 0zM2 -211q17 -7 39 -11q19 -5 44.5 -8t55.5 -3q27 0 62.5 9t72 34.5t71 70t59.5 115.5l12 37l-412 1032h324l233 -645l209 645h322l-379 -1065q-55 -154 -115.5 -253t-129.5 -156.5t-146.5 -80t-165.5 -22.5q-38 0 -66.5 4.5t-48.5 9.5q-24 6 -41 15v272v0zM176 1403 q0 33 11.5 61t32.5 48.5t50 32t64 11.5q32 0 60 -11.5t48.5 -32t32 -48.5t11.5 -61t-11.5 -61.5t-32 -49.5t-48.5 -33t-60 -12q-35 0 -64 12t-50 33t-32.5 49.5t-11.5 61.5zM643 1403q0 33 11.5 61t32.5 48.5t50 32t64 11.5q32 0 60 -11.5t48.5 -32t32 -48.5t11.5 -61 t-11.5 -61.5t-32 -49.5t-48.5 -33t-60 -12q-35 0 -64 12t-50 33t-32.5 49.5t-11.5 61.5z" />
<glyph unicode="&#x100;" horiz-adv-x="1409" d="M2 0zM1407 0h-346l-84 236h-545l-84 -236h-346l559 1434h287zM514 469h379l-188 535zM1036 1686h-664v227h664v-227z" />
<glyph unicode="&#x101;" horiz-adv-x="1153" d="M72 0zM150 1024q44 19 101 35q49 13 118 24t157 11q111 0 197.5 -23.5t146.5 -70t91.5 -115.5t31.5 -160v-403q0 -59 22.5 -83t59.5 -24q21 0 34 5q7 2 13 5v-205q-21 -9 -48 -16q-23 -6 -58 -11t-80 -5q-51 0 -88 11.5t-62.5 30.5t-41.5 42.5t-25 46.5h-2 q-22 -29 -51 -55.5t-66.5 -47t-85 -33t-106.5 -12.5q-69 0 -130.5 20.5t-107 62.5t-72 105.5t-26.5 149.5q0 69 27 131t81 109t134.5 74.5t187.5 27.5q49 0 93.5 -5.5t86.5 -14.5v63q0 34 -10.5 63.5t-35 51t-64 33.5t-97.5 12q-74 0 -133.5 -13.5t-102.5 -30.5 q-50 -19 -89 -44v258zM522 203q50 0 89.5 20t70.5 49v177q-25 5 -51.5 7.5t-55.5 2.5q-51 0 -87.5 -11t-60 -29t-34 -41.5t-10.5 -49.5t9.5 -49t27 -40t43.5 -26.5t59 -9.5zM877 1317h-664v227h664v-227z" />
<glyph unicode="&#x102;" horiz-adv-x="1409" d="M2 0zM1407 0h-346l-84 236h-545l-84 -236h-346l559 1434h287zM514 469h379l-188 535zM705 1839q79 0 118.5 49t53.5 138h217q-4 -84 -30.5 -157.5t-75 -128t-119.5 -85.5t-164 -31q-94 0 -165 31t-119.5 85.5t-75 128t-30.5 157.5h217q14 -89 53.5 -138t119.5 -49z" />
<glyph unicode="&#x103;" horiz-adv-x="1153" d="M72 0zM150 1024q44 19 101 35q49 13 118 24t157 11q111 0 197.5 -23.5t146.5 -70t91.5 -115.5t31.5 -160v-403q0 -59 22.5 -83t59.5 -24q21 0 34 5q7 2 13 5v-205q-21 -9 -48 -16q-23 -6 -58 -11t-80 -5q-51 0 -88 11.5t-62.5 30.5t-41.5 42.5t-25 46.5h-2 q-22 -29 -51 -55.5t-66.5 -47t-85 -33t-106.5 -12.5q-69 0 -130.5 20.5t-107 62.5t-72 105.5t-26.5 149.5q0 69 27 131t81 109t134.5 74.5t187.5 27.5q49 0 93.5 -5.5t86.5 -14.5v63q0 34 -10.5 63.5t-35 51t-64 33.5t-97.5 12q-74 0 -133.5 -13.5t-102.5 -30.5 q-50 -19 -89 -44v258zM522 203q50 0 89.5 20t70.5 49v177q-25 5 -51.5 7.5t-55.5 2.5q-51 0 -87.5 -11t-60 -29t-34 -41.5t-10.5 -49.5t9.5 -49t27 -40t43.5 -26.5t59 -9.5zM551 1470q79 0 118.5 49t53.5 138h217q-4 -84 -30.5 -157.5t-75 -128t-119.5 -85.5t-164 -31 q-94 0 -165 31t-119.5 85.5t-75 128t-30.5 157.5h217q14 -89 53.5 -138t119.5 -49z" />
<glyph unicode="&#x104;" horiz-adv-x="1409" d="M2 0zM1407 0h-346l-84 236h-545l-84 -236h-346l559 1434h287zM514 469h379l-188 535zM1407 0q-32 -41 -58 -85q-22 -38 -40 -84t-18 -91q0 -34 12 -56t30 -34.5t39 -17.5t40 -5q26 0 50.5 4.5t42.5 10.5q21 7 40 16v-166q-21 -12 -52 -22q-26 -8 -67 -14.5t-96 -6.5 q-62 0 -114 14t-90 43t-59.5 74t-21.5 107q0 34 7 65.5t19 60t27 53.5t31 46q37 48 84 88h194z" />
<glyph unicode="&#x105;" horiz-adv-x="1153" d="M72 0zM150 1024q44 19 101 35q49 13 118 24t157 11q111 0 197.5 -23.5t146.5 -70t91.5 -115.5t31.5 -160v-403q0 -59 22.5 -83t59.5 -24q21 0 34 5q7 2 13 5v-205q-21 -9 -48 -16q-23 -6 -58 -11t-80 -5q-51 0 -88 11.5t-62.5 30.5t-41.5 42.5t-25 46.5h-2 q-22 -29 -51 -55.5t-66.5 -47t-85 -33t-106.5 -12.5q-69 0 -130.5 20.5t-107 62.5t-72 105.5t-26.5 149.5q0 69 27 131t81 109t134.5 74.5t187.5 27.5q49 0 93.5 -5.5t86.5 -14.5v63q0 34 -10.5 63.5t-35 51t-64 33.5t-97.5 12q-74 0 -133.5 -13.5t-102.5 -30.5 q-50 -19 -89 -44v258zM522 203q50 0 89.5 20t70.5 49v177q-25 5 -51.5 7.5t-55.5 2.5q-51 0 -87.5 -11t-60 -29t-34 -41.5t-10.5 -49.5t9.5 -49t27 -40t43.5 -26.5t59 -9.5zM1122 20q-32 -41 -58 -85q-22 -38 -40 -84t-18 -91q0 -34 12 -56t30 -34.5t39 -17.5t40 -5 q26 0 50.5 4.5t42.5 10.5q21 7 40 16v-166q-21 -12 -52 -22q-26 -8 -67 -14.5t-96 -6.5q-62 0 -114 14t-90 43t-59.5 74t-21.5 107q0 34 7 65.5t19 60t27 53.5t31 46q37 48 84 88h194z" />
<glyph unicode="&#x106;" horiz-adv-x="1317" d="M92 0zM92 717q0 165 54.5 302t151.5 235.5t229.5 153t287.5 54.5q69 0 131 -9.5t113.5 -24t91 -31t63.5 -31.5v-326q-32 27 -69.5 52t-82 44.5t-96.5 31.5t-112 12q-99 0 -176.5 -34t-131.5 -95t-82 -146t-28 -188t28 -188.5t82 -146.5t131.5 -94.5t176.5 -33.5 q60 0 112 11.5t96.5 31t82 44.5t69.5 52v-325q-24 -15 -63.5 -32t-91 -31.5t-113.5 -24t-131 -9.5q-155 0 -287.5 54.5t-229.5 153t-151.5 236t-54.5 302.5zM1138 1925l-350 -301h-285l238 301h397z" />
<glyph unicode="&#x107;" horiz-adv-x="1065" d="M82 0zM82 532q0 133 41 237.5t115 176.5t175.5 110t223.5 38q52 0 101 -6.5t91 -17t76.5 -23.5t57.5 -25v-270q-18 15 -44 32.5t-60.5 32.5t-77 25t-93.5 10q-140 0 -215.5 -83.5t-75.5 -236.5q0 -152 75.5 -235.5t215.5 -83.5q51 0 93.5 10t77 25t60.5 32.5t44 32.5 v-270q-23 -12 -57.5 -25t-76.5 -23.5t-91 -17t-101 -6.5q-122 0 -223.5 38t-175.5 110t-115 176t-41 237zM966 1556l-350 -301h-285l238 301h397z" />
<glyph unicode="&#x10c;" horiz-adv-x="1317" d="M92 0zM92 717q0 165 54.5 302t151.5 235.5t229.5 153t287.5 54.5q69 0 131 -9.5t113.5 -24t91 -31t63.5 -31.5v-326q-32 27 -69.5 52t-82 44.5t-96.5 31.5t-112 12q-99 0 -176.5 -34t-131.5 -95t-82 -146t-28 -188t28 -188.5t82 -146.5t131.5 -94.5t176.5 -33.5 q60 0 112 11.5t96.5 31t82 44.5t69.5 52v-325q-24 -15 -63.5 -32t-91 -31.5t-113.5 -24t-131 -9.5q-155 0 -287.5 54.5t-229.5 153t-151.5 236t-54.5 302.5zM581 1624l-250 322h265l143 -156l143 156h265l-250 -322h-316z" />
<glyph unicode="&#x10d;" horiz-adv-x="1065" d="M82 0zM82 532q0 133 41 237.5t115 176.5t175.5 110t223.5 38q52 0 101 -6.5t91 -17t76.5 -23.5t57.5 -25v-270q-18 15 -44 32.5t-60.5 32.5t-77 25t-93.5 10q-140 0 -215.5 -83.5t-75.5 -236.5q0 -152 75.5 -235.5t215.5 -83.5q51 0 93.5 10t77 25t60.5 32.5t44 32.5 v-270q-23 -12 -57.5 -25t-76.5 -23.5t-91 -17t-101 -6.5q-122 0 -223.5 38t-175.5 110t-115 176t-41 237zM409 1255l-250 322h265l143 -156l143 156h265l-250 -322h-316z" />
<glyph unicode="&#x10e;" horiz-adv-x="1487" d="M174 0zM174 1434h373q220 0 380 -54.5t264 -150.5t154 -227.5t50 -284.5q0 -154 -50 -285t-154 -227t-264 -150.5t-380 -54.5h-373v1434zM1051 717q0 217 -124.5 333.5t-379.5 116.5h-45v-901h45q255 0 379.5 117t124.5 334zM549 1624l-250 322h265l143 -156l143 156h265 l-250 -322h-316z" />
<glyph unicode="&#x10f;" horiz-adv-x="1769" d="M82 0zM938 0q-4 19 -8 39q-4 17 -8 39t-7 45q-25 -29 -60.5 -56.5t-79 -48.5t-94.5 -34t-108 -13q-104 0 -193.5 43t-155.5 118t-104 177.5t-38 222.5t37.5 223t104 178t156.5 118t195 43q49 0 93 -9t81.5 -23.5t68 -33.5t54.5 -39v506h312v-1225q0 -60 2 -109t5 -85 q3 -42 7 -76h-260zM680 854q-54 0 -105 -19t-90.5 -58t-63.5 -100t-24 -145q0 -78 21.5 -135t58 -93.5t86.5 -54.5t107 -18q29 0 58.5 5.5t56 14t49 19.5t38.5 23v498q-27 21 -76.5 42t-115.5 21zM1401 813q30 24 58 53.5t49.5 62.5t36 67t17.5 67q-38 4 -70 20.5t-55 43 t-36 61.5t-13 76q0 44 15 80.5t42 62.5t64 40.5t80 14.5q44 0 81 -15.5t63.5 -45.5t41.5 -74.5t15 -101.5q0 -60 -16.5 -125.5t-52 -132t-91.5 -131.5t-135 -125l-94 102v0z" />
<glyph unicode="&#x110;" horiz-adv-x="1491" d="M178 563h-158v199h158v672h373q220 0 380 -54.5t264 -150.5t154 -227.5t50 -284.5q0 -154 -50 -285t-154 -227t-264 -150.5t-380 -54.5h-373v563zM739 563h-233v-297h45q255 0 379.5 117t124.5 334t-124.5 333.5t-379.5 116.5h-45v-405h233v-199z" />
<glyph unicode="&#x111;" horiz-adv-x="1348" d="M82 532q0 120 37.5 223t104 178t156.5 118t195 43q49 0 93 -9t81.5 -23.5t68 -33.5t54.5 -39v172h-288v199h288v135h312v-135h119v-199h-119v-891q0 -60 2 -109t5 -85q3 -42 7 -76h-260q-4 19 -8 39q-4 17 -8 39t-7 45q-25 -29 -60.5 -56.5t-79 -48.5t-94.5 -34t-108 -13 q-104 0 -193.5 43t-155.5 118t-104 177.5t-38 222.5zM397 532q0 -78 21.5 -135t58 -93.5t86.5 -54.5t107 -18q29 0 58.5 5.5t56 14t49 19.5t38.5 23v498q-27 21 -76.5 42t-115.5 21q-54 0 -105 -19t-90.5 -58t-63.5 -100t-24 -145z" />
<glyph unicode="&#x112;" horiz-adv-x="1219" d="M174 0zM502 266h594v-266h-922v1434h922v-267h-594v-297h491v-266h-491v-338zM961 1686h-664v227h664v-227z" />
<glyph unicode="&#x113;" horiz-adv-x="1194" d="M82 0zM621 1094q106 0 196 -34.5t155.5 -98.5t102.5 -154.5t37 -202.5q0 -26 -1 -51.5t-3 -46.5q-2 -25 -4 -47h-696q14 -124 91.5 -187t221.5 -63q39 0 82 6.5t87 20t87 34t82 47.5v-235q-35 -25 -80 -45.5t-97.5 -35t-110 -22.5t-116.5 -8q-130 0 -235.5 40.5 t-180.5 114.5t-116 178t-41 231q0 123 40 225.5t111.5 176.5t170.5 115.5t217 41.5zM621 872q-51 0 -90 -18t-66 -48.5t-41.5 -70.5t-15.5 -84h395q2 46 -9.5 86.5t-35 70.5t-58.5 47t-79 17zM938 1317h-664v227h664v-227z" />
<glyph unicode="&#x116;" horiz-adv-x="1219" d="M174 0zM502 266h594v-266h-922v1434h922v-267h-594v-297h491v-266h-491v-338zM444 1815q0 38 13 70t36.5 55t55 36t69.5 13q37 0 69 -13t55.5 -36t37 -55t13.5 -70t-13.5 -69.5t-37 -55t-55.5 -36.5t-69 -13q-38 0 -69.5 13t-55 36.5t-36.5 55t-13 69.5z" />
<glyph unicode="&#x117;" horiz-adv-x="1194" d="M82 0zM621 1094q106 0 196 -34.5t155.5 -98.5t102.5 -154.5t37 -202.5q0 -26 -1 -51.5t-3 -46.5q-2 -25 -4 -47h-696q14 -124 91.5 -187t221.5 -63q39 0 82 6.5t87 20t87 34t82 47.5v-235q-35 -25 -80 -45.5t-97.5 -35t-110 -22.5t-116.5 -8q-130 0 -235.5 40.5 t-180.5 114.5t-116 178t-41 231q0 123 40 225.5t111.5 176.5t170.5 115.5t217 41.5zM621 872q-51 0 -90 -18t-66 -48.5t-41.5 -70.5t-15.5 -84h395q2 46 -9.5 86.5t-35 70.5t-58.5 47t-79 17zM438 1446q0 38 13 70t36.5 55t55 36t69.5 13q37 0 69 -13t55.5 -36t37 -55 t13.5 -70t-13.5 -69.5t-37 -55t-55.5 -36.5t-69 -13q-38 0 -69.5 13t-55 36.5t-36.5 55t-13 69.5z" />
<glyph unicode="&#x118;" horiz-adv-x="1219" d="M174 0zM502 266h594v-266h-922v1434h922v-267h-594v-297h491v-266h-491v-338zM1085 0q-32 -41 -58 -85q-22 -38 -40 -84t-18 -91q0 -34 12 -56t30 -34.5t39 -17.5t40 -5q26 0 50.5 4.5t42.5 10.5q21 7 40 16v-166q-21 -12 -52 -22q-26 -8 -67 -14.5t-96 -6.5 q-62 0 -114 14t-90 43t-59.5 74t-21.5 107q0 34 7 65.5t19 60t27 53.5t31 46q37 48 84 88h194z" />
<glyph unicode="&#x119;" horiz-adv-x="1204" d="M82 0zM621 1094q106 0 196 -34.5t155.5 -98.5t102.5 -154.5t37 -202.5q0 -26 -1 -51.5t-3 -46.5q-2 -25 -4 -47h-696q14 -124 91.5 -187t221.5 -63q39 0 82 6.5t87 20t87 34t82 47.5v-235q-35 -25 -80 -45.5t-97.5 -35t-110 -22.5t-116.5 -8q-130 0 -235.5 40.5 t-180.5 114.5t-116 178t-41 231q0 123 40 225.5t111.5 176.5t170.5 115.5t217 41.5zM621 872q-51 0 -90 -18t-66 -48.5t-41.5 -70.5t-15.5 -84h395q2 46 -9.5 86.5t-35 70.5t-58.5 47t-79 17zM874 0q-32 -41 -58 -85q-22 -38 -40 -84t-18 -91q0 -34 12 -56t30 -34.5 t39 -17.5t40 -5q26 0 50.5 4.5t42.5 10.5q21 7 40 16v-166q-21 -12 -52 -22q-26 -8 -67 -14.5t-96 -6.5q-62 0 -114 14t-90 43t-59.5 74t-21.5 107q0 34 7 65.5t19 60t27 53.5t31 46q37 48 84 88h194z" />
<glyph unicode="&#x11a;" horiz-adv-x="1219" d="M174 0zM502 266h594v-266h-922v1434h922v-267h-594v-297h491v-266h-491v-338zM461 1624l-250 322h265l143 -156l143 156h265l-250 -322h-316z" />
<glyph unicode="&#x11b;" horiz-adv-x="1194" d="M82 0zM621 1094q106 0 196 -34.5t155.5 -98.5t102.5 -154.5t37 -202.5q0 -26 -1 -51.5t-3 -46.5q-2 -25 -4 -47h-696q14 -124 91.5 -187t221.5 -63q39 0 82 6.5t87 20t87 34t82 47.5v-235q-35 -25 -80 -45.5t-97.5 -35t-110 -22.5t-116.5 -8q-130 0 -235.5 40.5 t-180.5 114.5t-116 178t-41 231q0 123 40 225.5t111.5 176.5t170.5 115.5t217 41.5zM621 872q-51 0 -90 -18t-66 -48.5t-41.5 -70.5t-15.5 -84h395q2 46 -9.5 86.5t-35 70.5t-58.5 47t-79 17zM428 1255l-250 322h265l143 -156l143 156h265l-250 -322h-316z" />
<glyph unicode="&#x11e;" horiz-adv-x="1460" d="M92 0zM92 717q0 165 56.5 302t156 235.5t235.5 153t296 54.5q76 0 144 -9.5t124.5 -24t100 -31t71.5 -31.5v-305q-35 23 -76.5 44.5t-91 38t-108 26.5t-126.5 10q-104 0 -185 -34t-137.5 -95t-86 -146t-29.5 -188t28 -188.5t82 -146.5t131.5 -94.5t176.5 -33.5 q73 0 135 12v258h-172v238h500v-694q-32 -15 -81.5 -32t-113.5 -31.5t-141.5 -24t-165.5 -9.5q-155 0 -287.5 54.5t-229.5 153t-151.5 236t-54.5 302.5zM766 1839q79 0 118.5 49t53.5 138h217q-4 -84 -30.5 -157.5t-75 -128t-119.5 -85.5t-164 -31q-94 0 -165 31 t-119.5 85.5t-75 128t-30.5 157.5h217q14 -89 53.5 -138t119.5 -49z" />
<glyph unicode="&#x11f;" horiz-adv-x="1339" d="M82 0zM573 -270q66 0 121 15.5t95 48.5t62.5 84t22.5 122v68q-50 -32 -112.5 -54t-153.5 -22q-118 0 -215 40.5t-166 114t-107 175.5t-38 225q0 120 36 220t99.5 173t150.5 113.5t189 40.5q64 0 118.5 -13t99.5 -34t80.5 -48.5t62.5 -56.5q3 23 6.5 45.5t7.5 39.5 q4 20 8 38h260q-4 -34 -7 -76q-3 -36 -5 -85.5t-2 -108.5v-775q0 -131 -45 -230t-123 -166.5t-184.5 -101.5t-229.5 -34q-86 0 -161 15t-134.5 36t-101 43t-60.5 37v279q23 -22 64 -51t96.5 -55t122.5 -44t143 -18zM397 541q0 -72 18.5 -129t53 -96.5t82.5 -61t108 -21.5 q39 0 73.5 8t63 19t48.5 23.5t30 21.5v453q-13 10 -34.5 23t-50.5 25t-64 20t-74 8q-53 0 -99 -17.5t-80.5 -54t-54.5 -91.5t-20 -130zM682 1470q79 0 118.5 49t53.5 138h217q-4 -84 -30.5 -157.5t-75 -128t-119.5 -85.5t-164 -31q-94 0 -165 31t-119.5 85.5t-75 128 t-30.5 157.5h217q14 -89 53.5 -138t119.5 -49z" />
<glyph unicode="&#x122;" horiz-adv-x="1460" d="M92 0zM92 717q0 165 56.5 302t156 235.5t235.5 153t296 54.5q76 0 144 -9.5t124.5 -24t100 -31t71.5 -31.5v-305q-35 23 -76.5 44.5t-91 38t-108 26.5t-126.5 10q-104 0 -185 -34t-137.5 -95t-86 -146t-29.5 -188t28 -188.5t82 -146.5t131.5 -94.5t176.5 -33.5 q73 0 135 12v258h-172v238h500v-694q-32 -15 -81.5 -32t-113.5 -31.5t-141.5 -24t-165.5 -9.5q-155 0 -287.5 54.5t-229.5 153t-151.5 236t-54.5 302.5zM639 -403q0 44 15 80.5t42 62.5t64 40.5t80 14.5q44 0 81 -15.5t63.5 -45.5t41.5 -74.5t15 -101.5q0 -60 -16.5 -125.5 t-52 -132t-91.5 -131.5t-135 -125l-94 102q30 24 58 53.5t49.5 62t36 67t17.5 67.5q-38 4 -70 20.5t-55 43t-36 61.5t-13 76z" />
<glyph unicode="&#x123;" horiz-adv-x="1339" d="M82 0zM573 -270q66 0 121 15.5t95 48.5t62.5 84t22.5 122v68q-50 -32 -112.5 -54t-153.5 -22q-118 0 -215 40.5t-166 114t-107 175.5t-38 225q0 120 36 220t99.5 173t150.5 113.5t189 40.5q64 0 118.5 -13t99.5 -34t80.5 -48.5t62.5 -56.5q3 23 6.5 45.5t7.5 39.5 q4 20 8 38h260q-4 -34 -7 -76q-3 -36 -5 -85.5t-2 -108.5v-775q0 -131 -45 -230t-123 -166.5t-184.5 -101.5t-229.5 -34q-86 0 -161 15t-134.5 36t-101 43t-60.5 37v279q23 -22 64 -51t96.5 -55t122.5 -44t143 -18zM397 541q0 -72 18.5 -129t53 -96.5t82.5 -61t108 -21.5 q39 0 73.5 8t63 19t48.5 23.5t30 21.5v453q-13 10 -34.5 23t-50.5 25t-64 20t-74 8q-53 0 -99 -17.5t-80.5 -54t-54.5 -91.5t-20 -130zM790 1462q0 -44 -15 -80.5t-42 -62.5t-64 -40.5t-80 -14.5q-44 0 -80.5 15.5t-63 45.5t-41.5 74.5t-15 101.5q0 60 16.5 125.5t52 132 t91.5 131.5t135 125l94 -102q-30 -24 -58 -53.5t-50 -62.5t-36.5 -67t-17.5 -67q38 -4 70 -20.5t55 -43t36 -61.5t13 -76z" />
<glyph unicode="&#x12a;" horiz-adv-x="676" d="M7 0zM174 1434h328v-1434h-328v1434zM671 1686h-664v227h664v-227z" />
<glyph unicode="&#x12b;" horiz-adv-x="618" d="M0 0zM154 1065h311v-1065h-311v1065zM642 1317h-664v227h664v-227z" />
<glyph unicode="&#x12e;" horiz-adv-x="676" d="M139 0zM174 1434h328v-1434h-328v1434zM501 0q-32 -41 -58 -85q-22 -38 -40 -84t-18 -91q0 -34 12 -56t30 -34.5t39 -17.5t40 -5q26 0 50.5 4.5t42.5 10.5q21 7 40 16v-166q-21 -12 -52 -22q-26 -8 -67 -14.5t-96 -6.5q-62 0 -114 14t-90 43t-59.5 74t-21.5 107 q0 34 7 65.5t19 60t27 53.5t31 46q37 48 84 88h194z" />
<glyph unicode="&#x12f;" horiz-adv-x="618" d="M102 0zM154 1065h311v-1065h-311v1065zM133 1378q0 39 13 68.5t36.5 49.5t56 30t70.5 10q39 0 71 -10t55.5 -30t36.5 -49.5t13 -68.5q0 -38 -13 -67.5t-36.5 -49.5t-55.5 -30t-71 -10q-38 0 -70.5 10t-56 30t-36.5 49.5t-13 67.5zM464 0q-32 -41 -58 -85q-22 -38 -40 -84 t-18 -91q0 -34 12 -56t30 -34.5t39 -17.5t40 -5q26 0 50.5 4.5t42.5 10.5q21 7 40 16v-166q-21 -12 -52 -22q-26 -8 -67 -14.5t-96 -6.5q-62 0 -114 14t-90 43t-59.5 74t-21.5 107q0 34 7 65.5t19 60t27 53.5t31 46q37 48 84 88h194z" />
<glyph unicode="&#x130;" horiz-adv-x="676" d="M163 0zM174 1434h328v-1434h-328v1434zM163 1815q0 38 13 70t36.5 55t55 36t69.5 13q37 0 69 -13t55.5 -36t37 -55t13.5 -70t-13.5 -69.5t-37 -55t-55.5 -36.5t-69 -13q-38 0 -69.5 13t-55 36.5t-36.5 55t-13 69.5z" />
<glyph unicode="&#x131;" horiz-adv-x="618" d="M154 1065h311v-1065h-311v1065z" />
<glyph unicode="&#x136;" horiz-adv-x="1409" d="M174 0zM174 1434h328v-619l471 619h413l-512 -629l553 -805h-395l-358 555l-172 -149v-406h-328v1434zM514 -362q0 44 15 80.5t42 62.5t64 40.5t80 14.5q44 0 81 -15.5t63.5 -45.5t41.5 -74.5t15 -101.5q0 -60 -16.5 -125.5t-52 -132t-91.5 -131.5t-135 -125l-94 102 q30 24 58 53.5t49.5 62t36 67t17.5 67.5q-38 4 -70 20.5t-55 43t-36 61.5t-13 76z" />
<glyph unicode="&#x137;" horiz-adv-x="1204" d="M154 0zM154 1495h311v-864l352 434h357l-386 -453l426 -612h-354l-256 412l-139 -105v-307h-311v1495zM440 -383q0 44 15 80.5t42 62.5t64 40.5t80 14.5q44 0 81 -15.5t63.5 -45.5t41.5 -74.5t15 -101.5q0 -60 -16.5 -125.5t-52 -132t-91.5 -131.5t-135 -125l-94 102 q30 24 58 53.5t49.5 62t36 67t17.5 67.5q-38 4 -70 20.5t-55 43t-36 61.5t-13 76z" />
<glyph unicode="&#x139;" horiz-adv-x="1096" d="M174 0zM174 1434h328v-1168h594v-266h-922v1434zM870 1925l-350 -301h-285l238 301h397z" />
<glyph unicode="&#x13a;" horiz-adv-x="735" d="M154 0zM154 1495h311v-1108q0 -80 36.5 -114.5t104.5 -34.5q25 0 45.5 2.5t35.5 6.5q18 4 32 9v-258q-27 -8 -59 -14q-27 -5 -63 -9t-75 -4q-95 0 -164 24t-114.5 75t-67.5 130.5t-22 190.5v1104zM829 1966l-350 -301h-285l238 301h397z" />
<glyph unicode="&#x13b;" horiz-adv-x="1096" d="M174 0zM174 1434h328v-1168h594v-266h-922v1434zM424 -403q0 44 15 80.5t42 62.5t64 40.5t80 14.5q44 0 81 -15.5t63.5 -45.5t41.5 -74.5t15 -101.5q0 -60 -16.5 -125.5t-52 -132t-91.5 -131.5t-135 -125l-94 102q30 24 58 53.5t49.5 62t36 67t17.5 67.5q-38 4 -70 20.5 t-55 43t-36 61.5t-13 76z" />
<glyph unicode="&#x13c;" horiz-adv-x="745" d="M164 0zM164 1495h311v-1108q0 -80 36.5 -114.5t104.5 -34.5q25 0 45.5 2.5t35.5 6.5q18 4 32 9v-258q-27 -8 -59 -14q-27 -5 -63 -9t-75 -4q-95 0 -164 24t-114.5 75t-67.5 130.5t-22 190.5v1104zM233 -403q0 44 15 80.5t42 62.5t64 40.5t80 14.5q44 0 81 -15.5 t63.5 -45.5t41.5 -74.5t15 -101.5q0 -60 -16.5 -125.5t-52 -132t-91.5 -131.5t-135 -125l-94 102q30 24 58 53.5t49.5 62t36 67t17.5 67.5q-38 4 -70 20.5t-55 43t-36 61.5t-13 76z" />
<glyph unicode="&#x13d;" horiz-adv-x="1100" d="M174 0zM174 1434h328v-1168h594v-266h-922v1434zM711 813q30 24 58 53.5t49.5 62.5t36 67t17.5 67q-38 4 -70 20.5t-55 43t-36 61.5t-13 76q0 44 15 80.5t42 62.5t64 40.5t80 14.5q44 0 81 -15.5t63.5 -45.5t41.5 -74.5t15 -101.5q0 -60 -16.5 -125.5t-52 -132 t-91.5 -131.5t-135 -125l-94 102v0z" />
<glyph unicode="&#x13e;" horiz-adv-x="1079" d="M154 0zM154 1495h311v-1108q0 -80 36.5 -114.5t104.5 -34.5q25 0 45.5 2.5t35.5 6.5q18 4 32 9v-258q-27 -8 -59 -14q-27 -5 -63 -9t-75 -4q-95 0 -164 24t-114.5 75t-67.5 130.5t-22 190.5v1104zM711 813q30 24 58 53.5t49.5 62.5t36 67t17.5 67q-38 4 -70 20.5t-55 43 t-36 61.5t-13 76q0 44 15 80.5t42 62.5t64 40.5t80 14.5q44 0 81 -15.5t63.5 -45.5t41.5 -74.5t15 -101.5q0 -60 -16.5 -125.5t-52 -132t-91.5 -131.5t-135 -125l-94 102v0z" />
<glyph unicode="&#x141;" horiz-adv-x="1100" d="M20 629l158 71v734h328v-584l274 127v-229l-274 -127v-355h594v-266h-922v471l-158 -72v230z" />
<glyph unicode="&#x142;" horiz-adv-x="739" d="M0 629l158 76v790h311v-639l250 121v-229l-250 -121v-240q0 -80 36.5 -114.5t104.5 -34.5q25 0 45.5 2.5t35.5 6.5q18 4 32 9v-258q-27 -8 -59 -14q-27 -5 -63 -9t-75 -4q-95 0 -164 24t-114.5 75t-67.5 130.5t-22 190.5v84l-158 -76v230z" />
<glyph unicode="&#x143;" horiz-adv-x="1655" d="M174 0zM1194 0l-692 895v-895h-328v1434h287l692 -895v895h328v-1434h-287zM1247 1925l-350 -301h-285l238 301h397z" />
<glyph unicode="&#x144;" d="M139 0zM465 0h-311v795q0 59 -2.5 108.5t-5.5 85.5q-4 42 -7 76h291l8 -48q4 -23 8 -54.5t9 -69.5q17 25 45 60t70.5 66t100 53t132.5 22q108 0 180.5 -36t116 -93.5t62 -129t18.5 -141.5v-694h-312v633q0 57 -14 97t-39.5 65t-61 36t-79.5 11q-35 0 -67.5 -10t-59.5 -25 t-48 -33t-34 -35v-739zM1042 1556l-350 -301h-285l238 301h397z" />
<glyph unicode="&#x145;" horiz-adv-x="1655" d="M174 0zM1194 0l-692 895v-895h-328v1434h287l692 -895v895h328v-1434h-287zM643 -383q0 44 15 80.5t42 62.5t64 40.5t80 14.5q44 0 81 -15.5t63.5 -45.5t41.5 -74.5t15 -101.5q0 -60 -16.5 -125.5t-52 -132t-91.5 -131.5t-135 -125l-94 102q30 24 58 53.5t49.5 62t36 67 t17.5 67.5q-38 4 -70 20.5t-55 43t-36 61.5t-13 76z" />
<glyph unicode="&#x146;" d="M139 0zM465 0h-311v795q0 59 -2.5 108.5t-5.5 85.5q-4 42 -7 76h291l8 -48q4 -23 8 -54.5t9 -69.5q17 25 45 60t70.5 66t100 53t132.5 22q108 0 180.5 -36t116 -93.5t62 -129t18.5 -141.5v-694h-312v633q0 57 -14 97t-39.5 65t-61 36t-79.5 11q-35 0 -67.5 -10t-59.5 -25 t-48 -33t-34 -35v-739zM454 -383q0 44 15 80.5t42 62.5t64 40.5t80 14.5q44 0 81 -15.5t63.5 -45.5t41.5 -74.5t15 -101.5q0 -60 -16.5 -125.5t-52 -132t-91.5 -131.5t-135 -125l-94 102q30 24 58 53.5t49.5 62t36 67t17.5 67.5q-38 4 -70 20.5t-55 43t-36 61.5t-13 76z" />
<glyph unicode="&#x147;" horiz-adv-x="1655" d="M174 0zM1194 0l-692 895v-895h-328v1434h287l692 -895v895h328v-1434h-287zM669 1624l-250 322h265l143 -156l143 156h265l-250 -322h-316z" />
<glyph unicode="&#x148;" d="M139 0zM465 0h-311v795q0 59 -2.5 108.5t-5.5 85.5q-4 42 -7 76h291l8 -48q4 -23 8 -54.5t9 -69.5q17 25 45 60t70.5 66t100 53t132.5 22q108 0 180.5 -36t116 -93.5t62 -129t18.5 -141.5v-694h-312v633q0 57 -14 97t-39.5 65t-61 36t-79.5 11q-35 0 -67.5 -10t-59.5 -25 t-48 -33t-34 -35v-739zM506 1255l-250 322h265l143 -156l143 156h265l-250 -322h-316z" />
<glyph unicode="&#x14c;" horiz-adv-x="1667" d="M92 0zM436 717q0 -107 28.5 -193t81 -146.5t126 -93t162.5 -32.5t162 32.5t125.5 93t81 146.5t28.5 193q0 106 -28.5 192t-81 146t-125.5 92.5t-162 32.5t-162.5 -32.5t-126 -92.5t-81 -146t-28.5 -192zM92 717q0 164 54 301t151.5 235.5t234.5 153.5t302 55t301.5 -55 t234 -153.5t151.5 -235.5t54 -301t-54 -301t-151.5 -236t-234 -154t-301.5 -55t-302 55t-234.5 154t-151.5 236t-54 301zM1165 1686h-664v227h664v-227z" />
<glyph unicode="&#x14d;" horiz-adv-x="1294" d="M82 0zM401 532q0 -77 18 -136.5t50.5 -100t78 -61.5t99.5 -21q55 0 100 21t77.5 61.5t50.5 100t18 136.5q0 78 -18 137.5t-50.5 100t-77.5 61.5t-100 21q-54 0 -99.5 -21t-78 -61.5t-50.5 -100t-18 -137.5zM82 532q0 124 41.5 227t116 177.5t178.5 116t229 41.5 t229 -41.5t178.5 -116t116 -177.5t41.5 -227q0 -123 -41.5 -226.5t-116 -177.5t-178.5 -115.5t-229 -41.5t-229 41.5t-178.5 115.5t-116 177.5t-41.5 226.5zM979 1317h-664v227h664v-227z" />
<glyph unicode="&#x150;" horiz-adv-x="1667" d="M92 0zM436 717q0 -107 28.5 -193t81 -146.5t126 -93t162.5 -32.5t162 32.5t125.5 93t81 146.5t28.5 193q0 106 -28.5 192t-81 146t-125.5 92.5t-162 32.5t-162.5 -32.5t-126 -92.5t-81 -146t-28.5 -192zM92 717q0 164 54 301t151.5 235.5t234.5 153.5t302 55t301.5 -55 t234 -153.5t151.5 -235.5t54 -301t-54 -301t-151.5 -236t-234 -154t-301.5 -55t-302 55t-234.5 154t-151.5 236t-54 301zM985 1925l-350 -301h-285l238 301h397zM1481 1925l-350 -301h-285l238 301h397z" />
<glyph unicode="&#x151;" horiz-adv-x="1294" d="M82 0zM401 532q0 -77 18 -136.5t50.5 -100t78 -61.5t99.5 -21q55 0 100 21t77.5 61.5t50.5 100t18 136.5q0 78 -18 137.5t-50.5 100t-77.5 61.5t-100 21q-54 0 -99.5 -21t-78 -61.5t-50.5 -100t-18 -137.5zM82 532q0 124 41.5 227t116 177.5t178.5 116t229 41.5 t229 -41.5t178.5 -116t116 -177.5t41.5 -227q0 -123 -41.5 -226.5t-116 -177.5t-178.5 -115.5t-229 -41.5t-229 41.5t-178.5 115.5t-116 177.5t-41.5 226.5zM798 1556l-350 -301h-285l238 301h397zM1294 1556l-350 -301h-285l238 301h397z" />
<glyph unicode="&#x152;" horiz-adv-x="2085" d="M1368 266h594v-266h-922q-48 -12 -105 -20.5t-120 -8.5q-155 0 -287.5 54.5t-229.5 153t-151.5 236t-54.5 302.5t54.5 302t151.5 235.5t229.5 153t287.5 54.5q63 0 119.5 -8t105.5 -20h922v-267h-594v-297h492v-266h-492v-338zM854 254q53 0 99.5 10t86.5 27v852 q-40 17 -86.5 27t-99.5 10q-99 0 -176.5 -34t-131.5 -95t-82 -146t-28 -188t28 -188.5t82 -146.5t131.5 -94.5t176.5 -33.5z" />
<glyph unicode="&#x153;" horiz-adv-x="2003" d="M1430 1094q106 0 196 -34.5t155.5 -98.5t102.5 -154.5t37 -202.5q0 -26 -1 -51.5t-3 -46.5q-2 -25 -4 -47h-696q14 -124 91.5 -187t221.5 -63q39 0 82 6.5t87 20t87 34t82 47.5v-235q-35 -25 -80 -45.5t-97.5 -35t-110 -22.5t-116.5 -8q-131 0 -235 40t-178 114 q-75 -72 -177 -113t-227 -41t-229 41.5t-178.5 115.5t-116 177.5t-41.5 226.5q0 124 41.5 227t116 177.5t178.5 116t229 41.5q124 0 225.5 -41t176.5 -113q71 72 167 113t214 41zM401 532q0 -77 18 -136.5t50.5 -100t78 -61.5t99.5 -21q55 0 100 21t77.5 61.5t50.5 100 t18 136.5q0 78 -18 137.5t-50.5 100t-77.5 61.5t-100 21q-54 0 -99.5 -21t-78 -61.5t-50.5 -100t-18 -137.5zM1430 872q-51 0 -90 -18t-66 -48.5t-41.5 -70.5t-15.5 -84h395q2 46 -9.5 86.5t-35 70.5t-58.5 47t-79 17z" />
<glyph unicode="&#x154;" horiz-adv-x="1354" d="M174 0zM174 1434h522q130 0 230 -38.5t167 -104t101.5 -152t34.5 -183.5q0 -62 -14.5 -120t-42.5 -110t-70 -95.5t-96 -75.5l366 -555h-379l-299 479h-192v-479h-328v1434zM885 956q0 58 -18 98t-51 65t-78.5 36.5t-100.5 11.5h-135v-422h135q54 0 99.5 11.5t78.5 37 t51.5 65.5t18.5 97zM1009 1925l-350 -301h-285l238 301h397z" />
<glyph unicode="&#x155;" horiz-adv-x="889" d="M139 0zM154 795q0 59 -2.5 108.5t-5.5 85.5q-4 42 -7 76h291q6 -29 10 -62q4 -28 7.5 -62t3.5 -69h4q13 27 37.5 65t62.5 73t89.5 59.5t117.5 24.5q23 0 44.5 -3t37.5 -7q18 -4 35 -9v-284q-17 5 -41 9q-20 3 -49.5 6t-67.5 3q-63 0 -110.5 -13.5t-79.5 -29.5 q-38 -19 -66 -43v-723h-311v795zM874 1556l-350 -301h-285l238 301h397z" />
<glyph unicode="&#x156;" horiz-adv-x="1354" d="M174 0zM174 1434h522q130 0 230 -38.5t167 -104t101.5 -152t34.5 -183.5q0 -62 -14.5 -120t-42.5 -110t-70 -95.5t-96 -75.5l366 -555h-379l-299 479h-192v-479h-328v1434zM885 956q0 58 -18 98t-51 65t-78.5 36.5t-100.5 11.5h-135v-422h135q54 0 99.5 11.5t78.5 37 t51.5 65.5t18.5 97zM481 -383q0 44 15 80.5t42 62.5t64 40.5t80 14.5q44 0 81 -15.5t63.5 -45.5t41.5 -74.5t15 -101.5q0 -60 -16.5 -125.5t-52 -132t-91.5 -131.5t-135 -125l-94 102q30 24 58 53.5t49.5 62t36 67t17.5 67.5q-38 4 -70 20.5t-55 43t-36 61.5t-13 76z" />
<glyph unicode="&#x157;" horiz-adv-x="889" d="M139 0zM154 795q0 59 -2.5 108.5t-5.5 85.5q-4 42 -7 76h291q6 -29 10 -62q4 -28 7.5 -62t3.5 -69h4q13 27 37.5 65t62.5 73t89.5 59.5t117.5 24.5q23 0 44.5 -3t37.5 -7q18 -4 35 -9v-284q-17 5 -41 9q-20 3 -49.5 6t-67.5 3q-63 0 -110.5 -13.5t-79.5 -29.5 q-38 -19 -66 -43v-723h-311v795zM256 -403q0 44 15 80.5t42 62.5t64 40.5t80 14.5q44 0 81 -15.5t63.5 -45.5t41.5 -74.5t15 -101.5q0 -60 -16.5 -125.5t-52 -132t-91.5 -131.5t-135 -125l-94 102q30 24 58 53.5t49.5 62t36 67t17.5 67.5q-38 4 -70 20.5t-55 43t-36 61.5 t-13 76z" />
<glyph unicode="&#x158;" horiz-adv-x="1354" d="M174 0zM174 1434h522q130 0 230 -38.5t167 -104t101.5 -152t34.5 -183.5q0 -62 -14.5 -120t-42.5 -110t-70 -95.5t-96 -75.5l366 -555h-379l-299 479h-192v-479h-328v1434zM885 956q0 58 -18 98t-51 65t-78.5 36.5t-100.5 11.5h-135v-422h135q54 0 99.5 11.5t78.5 37 t51.5 65.5t18.5 97zM493 1624l-250 322h265l143 -156l143 156h265l-250 -322h-316z" />
<glyph unicode="&#x159;" horiz-adv-x="889" d="M70 0zM154 795q0 59 -2.5 108.5t-5.5 85.5q-4 42 -7 76h291q6 -29 10 -62q4 -28 7.5 -62t3.5 -69h4q13 27 37.5 65t62.5 73t89.5 59.5t117.5 24.5q23 0 44.5 -3t37.5 -7q18 -4 35 -9v-284q-17 5 -41 9q-20 3 -49.5 6t-67.5 3q-63 0 -110.5 -13.5t-79.5 -29.5 q-38 -19 -66 -43v-723h-311v795zM320 1255l-250 322h265l143 -156l143 156h265l-250 -322h-316z" />
<glyph unicode="&#x15a;" horiz-adv-x="1135" d="M102 0zM698 399q0 42 -25.5 73t-66.5 58t-94 52t-108.5 53.5t-108.5 64t-94 83t-66.5 110t-25.5 145.5q0 102 37.5 181t106.5 133t165.5 82t214.5 28q117 0 206 -25t142 -57v-290q-29 17 -64 34t-75.5 31t-86 22.5t-93.5 8.5q-100 0 -155.5 -36.5t-55.5 -96.5 q0 -40 25.5 -70.5t67 -57t94.5 -52t108.5 -54.5t108.5 -64.5t94.5 -83t67 -109.5t25.5 -144q0 -108 -42.5 -191.5t-116 -140.5t-172.5 -86t-213 -29q-65 0 -124 9t-110 23t-92 31t-70 34v301q76 -53 169 -83t196 -30q118 0 174.5 40.5t56.5 102.5zM987 1925l-350 -301h-285 l238 301h397z" />
<glyph unicode="&#x15b;" horiz-adv-x="1010" d="M102 0zM610 297q0 30 -21.5 51.5t-56.5 39t-80 34t-91.5 36.5t-91.5 45.5t-80 62t-56.5 86.5t-21.5 118q0 78 32 138t89.5 101.5t136.5 63t174 21.5q53 0 101.5 -6t89.5 -16t74 -21.5t54 -22.5v-254q-29 18 -67 32.5t-79.5 25t-82 16.5t-74.5 6q-68 0 -104.5 -22 t-36.5 -54q0 -26 21.5 -45t56.5 -36t80 -33.5t92 -36.5t92 -47t80 -64t56.5 -87.5t21.5 -117.5q0 -78 -33 -141t-93 -107.5t-143.5 -68t-183.5 -23.5q-58 0 -113 7.5t-103 19t-86 25.5t-61 28v258q39 -22 83.5 -40t90.5 -31t91 -20t84 -7q81 0 120 26t39 60zM923 1556 l-350 -301h-285l238 301h397z" />
<glyph unicode="&#x15e;" horiz-adv-x="1135" d="M102 0zM698 399q0 42 -25.5 73t-66.5 58t-94 52t-108.5 53.5t-108.5 64t-94 83t-66.5 110t-25.5 145.5q0 102 37.5 181t106.5 133t165.5 82t214.5 28q117 0 206 -25t142 -57v-290q-29 17 -64 34t-75.5 31t-86 22.5t-93.5 8.5q-100 0 -155.5 -36.5t-55.5 -96.5 q0 -40 25.5 -70.5t67 -57t94.5 -52t108.5 -54.5t108.5 -64.5t94.5 -83t67 -109.5t25.5 -144q0 -108 -42.5 -191.5t-116 -140.5t-172.5 -86t-213 -29q-65 0 -124 9t-110 23t-92 31t-70 34v301q76 -53 169 -83t196 -30q118 0 174.5 40.5t56.5 102.5zM346 -367q21 -9 47 -16 q21 -6 49 -11t58 -5q42 0 65 21.5t23 60.5q0 24 -16.5 43.5t-46 33.5t-69 21.5t-85.5 7.5l119 211h221l-74 -119q42 -10 77 -27.5t60.5 -43t39.5 -57.5t14 -70q0 -56 -26 -98.5t-68 -71t-96 -42.5t-111 -14q-37 0 -69.5 3.5t-57.5 8.5q-29 5 -54 13v151z" />
<glyph unicode="&#x15f;" horiz-adv-x="1010" d="M102 0zM610 297q0 30 -21.5 51.5t-56.5 39t-80 34t-91.5 36.5t-91.5 45.5t-80 62t-56.5 86.5t-21.5 118q0 78 32 138t89.5 101.5t136.5 63t174 21.5q53 0 101.5 -6t89.5 -16t74 -21.5t54 -22.5v-254q-29 18 -67 32.5t-79.5 25t-82 16.5t-74.5 6q-68 0 -104.5 -22 t-36.5 -54q0 -26 21.5 -45t56.5 -36t80 -33.5t92 -36.5t92 -47t80 -64t56.5 -87.5t21.5 -117.5q0 -78 -33 -141t-93 -107.5t-143.5 -68t-183.5 -23.5q-58 0 -113 7.5t-103 19t-86 25.5t-61 28v258q39 -22 83.5 -40t90.5 -31t91 -20t84 -7q81 0 120 26t39 60zM284 -367 q21 -9 47 -16q21 -6 49 -11t58 -5q42 0 65 21.5t23 60.5q0 24 -16.5 43.5t-46 33.5t-69 21.5t-85.5 7.5l119 211h221l-74 -119q42 -10 77 -27.5t60.5 -43t39.5 -57.5t14 -70q0 -56 -26 -98.5t-68 -71t-96 -42.5t-111 -14q-37 0 -69.5 3.5t-57.5 8.5q-29 5 -54 13v151z" />
<glyph unicode="&#x160;" horiz-adv-x="1135" d="M102 0zM698 399q0 42 -25.5 73t-66.5 58t-94 52t-108.5 53.5t-108.5 64t-94 83t-66.5 110t-25.5 145.5q0 102 37.5 181t106.5 133t165.5 82t214.5 28q117 0 206 -25t142 -57v-290q-29 17 -64 34t-75.5 31t-86 22.5t-93.5 8.5q-100 0 -155.5 -36.5t-55.5 -96.5 q0 -40 25.5 -70.5t67 -57t94.5 -52t108.5 -54.5t108.5 -64.5t94.5 -83t67 -109.5t25.5 -144q0 -108 -42.5 -191.5t-116 -140.5t-172.5 -86t-213 -29q-65 0 -124 9t-110 23t-92 31t-70 34v301q76 -53 169 -83t196 -30q118 0 174.5 40.5t56.5 102.5zM389 1624l-250 322h265 l143 -156l143 156h265l-250 -322h-316z" />
<glyph unicode="&#x161;" horiz-adv-x="1010" d="M76 0zM610 297q0 30 -21.5 51.5t-56.5 39t-80 34t-91.5 36.5t-91.5 45.5t-80 62t-56.5 86.5t-21.5 118q0 78 32 138t89.5 101.5t136.5 63t174 21.5q53 0 101.5 -6t89.5 -16t74 -21.5t54 -22.5v-254q-29 18 -67 32.5t-79.5 25t-82 16.5t-74.5 6q-68 0 -104.5 -22 t-36.5 -54q0 -26 21.5 -45t56.5 -36t80 -33.5t92 -36.5t92 -47t80 -64t56.5 -87.5t21.5 -117.5q0 -78 -33 -141t-93 -107.5t-143.5 -68t-183.5 -23.5q-58 0 -113 7.5t-103 19t-86 25.5t-61 28v258q39 -22 83.5 -40t90.5 -31t91 -20t84 -7q81 0 120 26t39 60zM326 1255 l-250 322h265l143 -156l143 156h265l-250 -322h-316z" />
<glyph unicode="&#x162;" horiz-adv-x="1176" d="M2 0zM752 0h-328v1167h-422v267h1172v-267h-422v-1167zM387 -367q21 -9 47 -16q21 -6 49 -11t58 -5q42 0 65 21.5t23 60.5q0 24 -16.5 43.5t-46 33.5t-69 21.5t-85.5 7.5l119 211h221l-74 -119q42 -10 77 -27.5t60.5 -43t39.5 -57.5t14 -70q0 -56 -26 -98.5t-68 -71 t-96 -42.5t-111 -14q-37 0 -69.5 3.5t-57.5 8.5q-29 5 -54 13v151z" />
<glyph unicode="&#x163;" horiz-adv-x="840" d="M41 0zM213 1065v246l311 61v-307h250v-244h-250v-434q0 -80 36.5 -114.5t105.5 -34.5q24 0 44.5 2.5t35.5 6.5q18 4 32 9v-258q-27 -8 -59 -14q-27 -5 -62.5 -9t-74.5 -4q-95 0 -164 24t-115 75t-68 130.5t-22 190.5v430h-172v244h172zM413 -368q21 -9 47 -16 q21 -6 49 -11t58 -5q42 0 65 21.5t23 60.5q0 24 -16.5 43.5t-46 33.5t-69 21.5t-85.5 7.5l119 211h221l-74 -119q42 -10 77 -27.5t60.5 -43t39.5 -57.5t14 -70q0 -56 -26 -98.5t-68 -71t-96 -42.5t-111 -14q-37 0 -69.5 3.5t-57.5 8.5q-29 5 -54 13v151z" />
<glyph unicode="&#x164;" horiz-adv-x="1176" d="M2 0zM752 0h-328v1167h-422v267h1172v-267h-422v-1167zM430 1624l-250 322h265l143 -156l143 156h265l-250 -322h-316z" />
<glyph unicode="&#x165;" horiz-adv-x="870" d="M41 0zM213 1065v246l311 61v-307h250v-244h-250v-434q0 -80 36.5 -114.5t105.5 -34.5q24 0 44.5 2.5t35.5 6.5q18 4 32 9v-258q-27 -8 -59 -14q-27 -5 -62.5 -9t-74.5 -4q-95 0 -164 24t-115 75t-68 130.5t-22 190.5v430h-172v244h172zM721 1339q30 24 58 53.5t49.5 62.5 t36 67t17.5 67q-38 4 -70 20.5t-55 43t-36 61.5t-13 76q0 44 15 80.5t42 62.5t64 40.5t80 14.5q44 0 81 -15.5t63.5 -45.5t41.5 -74.5t15 -101.5q0 -60 -16.5 -125.5t-52 -132t-91.5 -131.5t-135 -125l-94 102v0z" />
<glyph unicode="&#x16a;" horiz-adv-x="1556" d="M164 0zM164 1434h328v-854q0 -92 20 -155t57.5 -102t90.5 -56t118 -17t118 17t90.5 56t58 102t20.5 155v854h328v-852q0 -157 -45 -272t-126 -190.5t-194 -112t-250 -36.5t-250 35t-194 109t-125.5 190t-44.5 277v852zM1110 1686h-664v227h664v-227z" />
<glyph unicode="&#x16b;" d="M145 0zM860 1065h311v-795q0 -60 2 -109t5 -85q4 -42 8 -76h-291l-8 48q-4 23 -8.5 54.5t-8.5 69.5q-17 -26 -45 -60.5t-70.5 -65.5t-100 -53t-132.5 -22q-108 0 -180.5 36t-116 93.5t-62 129t-18.5 141.5v694h312v-633q0 -57 14 -97t39.5 -65t61 -36t79.5 -11 q35 0 67.5 10t59.5 25t48 33t34 35v739zM995 1317h-664v227h664v-227z" />
<glyph unicode="&#x16e;" horiz-adv-x="1556" d="M164 0zM164 1434h328v-854q0 -92 20 -155t57.5 -102t90.5 -56t118 -17t118 17t90.5 56t58 102t20.5 155v854h328v-852q0 -157 -45 -272t-126 -190.5t-194 -112t-250 -36.5t-250 35t-194 109t-125.5 190t-44.5 277v852zM666 1878q0 -57 30.5 -92t81.5 -35t82 35t31 92 q0 54 -31 88.5t-82 34.5t-81.5 -34.5t-30.5 -88.5zM481 1878q0 64 22 118t62 92t94 59.5t119 21.5q64 0 118.5 -21.5t94.5 -59.5t62 -92t22 -118q0 -65 -22 -119.5t-62 -93.5t-94.5 -60.5t-118.5 -21.5q-65 0 -119 21.5t-94 60.5t-62 93.5t-22 119.5z" />
<glyph unicode="&#x16f;" d="M145 0zM860 1065h311v-795q0 -60 2 -109t5 -85q4 -42 8 -76h-291l-8 48q-4 23 -8.5 54.5t-8.5 69.5q-17 -26 -45 -60.5t-70.5 -65.5t-100 -53t-132.5 -22q-108 0 -180.5 36t-116 93.5t-62 129t-18.5 141.5v694h312v-633q0 -57 14 -97t39.5 -65t61 -36t79.5 -11 q35 0 67.5 10t59.5 25t48 33t34 35v739zM553 1509q0 -57 30.5 -92t81.5 -35t82 35t31 92q0 54 -31 88.5t-82 34.5t-81.5 -34.5t-30.5 -88.5zM368 1509q0 64 22 118t62 92t94 59.5t119 21.5q64 0 118.5 -21.5t94.5 -59.5t62 -92t22 -118q0 -65 -22 -119.5t-62 -93.5 t-94.5 -60.5t-118.5 -21.5q-65 0 -119 21.5t-94 60.5t-62 93.5t-22 119.5z" />
<glyph unicode="&#x170;" horiz-adv-x="1556" d="M164 0zM164 1434h328v-854q0 -92 20 -155t57.5 -102t90.5 -56t118 -17t118 17t90.5 56t58 102t20.5 155v854h328v-852q0 -157 -45 -272t-126 -190.5t-194 -112t-250 -36.5t-250 35t-194 109t-125.5 190t-44.5 277v852zM930 1925l-350 -301h-285l238 301h397zM1426 1925 l-350 -301h-285l238 301h397z" />
<glyph unicode="&#x171;" d="M145 0zM860 1065h311v-795q0 -60 2 -109t5 -85q4 -42 8 -76h-291l-8 48q-4 23 -8.5 54.5t-8.5 69.5q-17 -26 -45 -60.5t-70.5 -65.5t-100 -53t-132.5 -22q-108 0 -180.5 36t-116 93.5t-62 129t-18.5 141.5v694h312v-633q0 -57 14 -97t39.5 -65t61 -36t79.5 -11 q35 0 67.5 10t59.5 25t48 33t34 35v739zM835 1556l-350 -301h-285l238 301h397zM1331 1556l-350 -301h-285l238 301h397z" />
<glyph unicode="&#x172;" horiz-adv-x="1556" d="M164 0zM164 1434h328v-854q0 -92 20 -155t57.5 -102t90.5 -56t118 -17t118 17t90.5 56t58 102t20.5 155v854h328v-852q0 -157 -45 -272t-126 -190.5t-194 -112t-250 -36.5t-250 35t-194 109t-125.5 190t-44.5 277v852zM981 0q-32 -41 -58 -85q-22 -38 -40 -84t-18 -91 q0 -34 12 -56t30 -34.5t39 -17.5t40 -5q26 0 50.5 4.5t42.5 10.5q21 7 40 16v-166q-21 -12 -52 -22q-26 -8 -67 -14.5t-96 -6.5q-62 0 -114 14t-90 43t-59.5 74t-21.5 107q0 34 7 65.5t19 60t27 53.5t31 46q37 48 84 88h194z" />
<glyph unicode="&#x173;" d="M145 0zM860 1065h311v-795q0 -60 2 -109t5 -85q4 -42 8 -76h-291l-8 48q-4 23 -8.5 54.5t-8.5 69.5q-17 -26 -45 -60.5t-70.5 -65.5t-100 -53t-132.5 -22q-108 0 -180.5 36t-116 93.5t-62 129t-18.5 141.5v694h312v-633q0 -57 14 -97t39.5 -65t61 -36t79.5 -11 q35 0 67.5 10t59.5 25t48 33t34 35v739zM1185 0q-32 -41 -58 -85q-22 -38 -40 -84t-18 -91q0 -34 12 -56t30 -34.5t39 -17.5t40 -5q26 0 50.5 4.5t42.5 10.5q21 7 40 16v-166q-21 -12 -52 -22q-26 -8 -67 -14.5t-96 -6.5q-62 0 -114 14t-90 43t-59.5 74t-21.5 107 q0 34 7 65.5t19 60t27 53.5t31 46q37 48 84 88h194z" />
<glyph unicode="&#x178;" horiz-adv-x="1311" d="M2 0zM819 526v-526h-328v526l-489 908h362l291 -594l291 594h362zM268 1772q0 33 11.5 61t32.5 48.5t50 32t64 11.5q32 0 60 -11.5t48.5 -32t32 -48.5t11.5 -61t-11.5 -61.5t-32 -49.5t-48.5 -33t-60 -12q-35 0 -64 12t-50 33t-32.5 49.5t-11.5 61.5zM735 1772 q0 33 11.5 61t32.5 48.5t50 32t64 11.5q32 0 60 -11.5t48.5 -32t32 -48.5t11.5 -61t-11.5 -61.5t-32 -49.5t-48.5 -33t-60 -12q-35 0 -64 12t-50 33t-32.5 49.5t-11.5 61.5z" />
<glyph unicode="&#x179;" horiz-adv-x="1204" d="M70 0zM1104 1434v-226l-625 -942h656v-266h-1065v225l624 942h-604v267h1014zM1020 1925l-350 -301h-285l238 301h397z" />
<glyph unicode="&#x17a;" horiz-adv-x="993" d="M41 0zM516 831h-453v234h859v-172l-476 -660h496v-233h-901v172zM915 1556l-350 -301h-285l238 301h397z" />
<glyph unicode="&#x17b;" horiz-adv-x="1204" d="M70 0zM1104 1434v-226l-625 -942h656v-266h-1065v225l624 942h-604v267h1014zM446 1815q0 38 13 70t36.5 55t55 36t69.5 13q37 0 69 -13t55.5 -36t37 -55t13.5 -70t-13.5 -69.5t-37 -55t-55.5 -36.5t-69 -13q-38 0 -69.5 13t-55 36.5t-36.5 55t-13 69.5z" />
<glyph unicode="&#x17c;" horiz-adv-x="993" d="M41 0zM516 831h-453v234h859v-172l-476 -660h496v-233h-901v172zM321 1446q0 38 13 70t36.5 55t55 36t69.5 13q37 0 69 -13t55.5 -36t37 -55t13.5 -70t-13.5 -69.5t-37 -55t-55.5 -36.5t-69 -13q-38 0 -69.5 13t-55 36.5t-36.5 55t-13 69.5z" />
<glyph unicode="&#x17d;" horiz-adv-x="1204" d="M70 0zM1104 1434v-226l-625 -942h656v-266h-1065v225l624 942h-604v267h1014zM446 1624l-250 322h265l143 -156l143 156h265l-250 -322h-316z" />
<glyph unicode="&#x17e;" horiz-adv-x="993" d="M41 0zM516 831h-453v234h859v-172l-476 -660h496v-233h-901v172zM328 1255l-250 322h265l143 -156l143 156h265l-250 -322h-316z" />
<glyph unicode="&#x192;" horiz-adv-x="1090" d="M246 942h207l28 205q13 89 47.5 154.5t86 108.5t117 64t140.5 21q34 0 67.5 -2.5t62 -7t51 -10t34.5 -11.5l-34 -245q-21 8 -44 15q-20 5 -45.5 10t-54.5 5q-51 0 -81.5 -23.5t-36.5 -70.5l-31 -213h207l-33 -244h-207l-121 -862q-13 -89 -47.5 -154.5t-85.5 -108.5 t-117 -64t-141 -21q-33 0 -66 2.5t-61.5 7t-51 10t-34.5 11.5l35 245q20 -9 43 -15q20 -6 45 -10.5t53 -4.5q51 0 82 24t37 70l121 870h-205z" />
<glyph unicode="&#x218;" horiz-adv-x="1135" d="M102 0zM698 399q0 42 -25.5 73t-66.5 58t-94 52t-108.5 53.5t-108.5 64t-94 83t-66.5 110t-25.5 145.5q0 102 37.5 181t106.5 133t165.5 82t214.5 28q117 0 206 -25t142 -57v-290q-29 17 -64 34t-75.5 31t-86 22.5t-93.5 8.5q-100 0 -155.5 -36.5t-55.5 -96.5 q0 -40 25.5 -70.5t67 -57t94.5 -52t108.5 -54.5t108.5 -64.5t94.5 -83t67 -109.5t25.5 -144q0 -108 -42.5 -191.5t-116 -140.5t-172.5 -86t-213 -29q-65 0 -124 9t-110 23t-92 31t-70 34v301q76 -53 169 -83t196 -30q118 0 174.5 40.5t56.5 102.5zM360 -403q0 44 15 80.5 t42 62.5t64 40.5t80 14.5q44 0 81 -15.5t63.5 -45.5t41.5 -74.5t15 -101.5q0 -60 -16.5 -125.5t-52 -132t-91.5 -131.5t-135 -125l-94 102q30 24 58 53.5t49.5 62t36 67t17.5 67.5q-38 4 -70 20.5t-55 43t-36 61.5t-13 76z" />
<glyph unicode="&#x219;" horiz-adv-x="1010" d="M102 0zM610 297q0 30 -21.5 51.5t-56.5 39t-80 34t-91.5 36.5t-91.5 45.5t-80 62t-56.5 86.5t-21.5 118q0 78 32 138t89.5 101.5t136.5 63t174 21.5q53 0 101.5 -6t89.5 -16t74 -21.5t54 -22.5v-254q-29 18 -67 32.5t-79.5 25t-82 16.5t-74.5 6q-68 0 -104.5 -22 t-36.5 -54q0 -26 21.5 -45t56.5 -36t80 -33.5t92 -36.5t92 -47t80 -64t56.5 -87.5t21.5 -117.5q0 -78 -33 -141t-93 -107.5t-143.5 -68t-183.5 -23.5q-58 0 -113 7.5t-103 19t-86 25.5t-61 28v258q39 -22 83.5 -40t90.5 -31t91 -20t84 -7q81 0 120 26t39 60zM313 -403 q0 44 15 80.5t42 62.5t64 40.5t80 14.5q44 0 81 -15.5t63.5 -45.5t41.5 -74.5t15 -101.5q0 -60 -16.5 -125.5t-52 -132t-91.5 -131.5t-135 -125l-94 102q30 24 58 53.5t49.5 62t36 67t17.5 67.5q-38 4 -70 20.5t-55 43t-36 61.5t-13 76z" />
<glyph unicode="&#x21a;" horiz-adv-x="1176" d="M2 0zM752 0h-328v1167h-422v267h1172v-267h-422v-1167zM393 -403q0 44 15 80.5t42 62.5t64 40.5t80 14.5q44 0 81 -15.5t63.5 -45.5t41.5 -74.5t15 -101.5q0 -60 -16.5 -125.5t-52 -132t-91.5 -131.5t-135 -125l-94 102q30 24 58 53.5t49.5 62t36 67t17.5 67.5 q-38 4 -70 20.5t-55 43t-36 61.5t-13 76z" />
<glyph unicode="&#x21b;" horiz-adv-x="840" d="M41 0zM213 1065v246l311 61v-307h250v-244h-250v-434q0 -80 36.5 -114.5t105.5 -34.5q24 0 44.5 2.5t35.5 6.5q18 4 32 9v-258q-27 -8 -59 -14q-27 -5 -62.5 -9t-74.5 -4q-95 0 -164 24t-115 75t-68 130.5t-22 190.5v430h-172v244h172zM278 -403q0 44 15 80.5t42 62.5 t64 40.5t80 14.5q44 0 81 -15.5t63.5 -45.5t41.5 -74.5t15 -101.5q0 -60 -16.5 -125.5t-52 -132t-91.5 -131.5t-135 -125l-94 102q30 24 58 53.5t49.5 62t36 67t17.5 67.5q-38 4 -70 20.5t-55 43t-36 61.5t-13 76z" />
<glyph unicode="&#x2c6;" horiz-adv-x="1020" d="M668 1577l250 -322h-265l-143 156l-143 -156h-265l250 322h316z" />
<glyph unicode="&#x2c7;" horiz-adv-x="1020" d="M352 1255l-250 322h265l143 -156l143 156h265l-250 -322h-316z" />
<glyph unicode="&#x2d8;" horiz-adv-x="983" d="M492 1470q79 0 118.5 49t53.5 138h217q-4 -84 -30.5 -157.5t-75 -128t-119.5 -85.5t-164 -31q-94 0 -165 31t-119.5 85.5t-75 128t-30.5 157.5h217q14 -89 53.5 -138t119.5 -49z" />
<glyph unicode="&#x2d9;" horiz-adv-x="553" d="M102 1446q0 38 13 70t36.5 55t55 36t69.5 13q37 0 69 -13t55.5 -36t37 -55t13.5 -70t-13.5 -69.5t-37 -55t-55.5 -36.5t-69 -13q-38 0 -69.5 13t-55 36.5t-36.5 55t-13 69.5z" />
<glyph unicode="&#x2da;" horiz-adv-x="799" d="M287 1509q0 -57 30.5 -92t81.5 -35t82 35t31 92q0 54 -31 88.5t-82 34.5t-81.5 -34.5t-30.5 -88.5zM102 1509q0 64 22 118t62 92t94 59.5t119 21.5q64 0 118.5 -21.5t94.5 -59.5t62 -92t22 -118q0 -65 -22 -119.5t-62 -93.5t-94.5 -60.5t-118.5 -21.5q-65 0 -119 21.5 t-94 60.5t-62 93.5t-22 119.5z" />
<glyph unicode="&#x2db;" horiz-adv-x="664" d="M444 0q-32 -41 -58 -85q-22 -38 -40 -84t-18 -91q0 -34 12 -56t30 -34.5t39 -17.5t40 -5q26 0 50.5 4.5t42.5 10.5q21 7 40 16v-166q-21 -12 -52 -22q-26 -8 -67 -14.5t-96 -6.5q-62 0 -114 14t-90 43t-59.5 74t-21.5 107q0 34 7 65.5t19 60t27 53.5t31 46q37 48 84 88 h194z" />
<glyph unicode="&#x2dc;" horiz-adv-x="1081" d="M979 1640q0 -66 -14.5 -131t-46.5 -116t-83.5 -83t-125.5 -32q-45 0 -80 10.5t-63 27t-51 35t-44.5 35t-43 27t-46.5 10.5q-42 0 -65 -35t-23 -106h-191q0 64 14.5 129t46 117t82.5 84.5t124 32.5q43 0 77.5 -11t63 -27t52 -35t45.5 -35t43 -27t44 -11q48 0 71 38t23 103 h191z" />
<glyph unicode="&#x2dd;" horiz-adv-x="1335" d="M737 1556l-350 -301h-285l238 301h397zM1233 1556l-350 -301h-285l238 301h397z" />
<glyph unicode="&#x3c0;" horiz-adv-x="1681" d="M973 821h-264v-821h-312v821h-254v244h1395v-244h-254v-424q0 -80 36.5 -114.5t104.5 -34.5q25 0 45.5 2.5t35.5 6.5q18 4 32 9v-258q-27 -8 -59 -13q-27 -5 -63 -9t-75 -4q-94 0 -163.5 23.5t-115 74.5t-67.5 130.5t-22 190.5v420z" />
<glyph unicode="&#x2013;" horiz-adv-x="1286" d="M102 743h1082v-268h-1082v268z" />
<glyph unicode="&#x2014;" horiz-adv-x="2263" d="M102 743h2059v-268h-2059v268z" />
<glyph unicode="&#x2018;" horiz-adv-x="573" d="M471 909q0 -44 -15 -80.5t-42 -62.5t-64 -40.5t-80 -14.5q-44 0 -80.5 15.5t-63 45.5t-41.5 74.5t-15 101.5q0 60 16.5 125.5t52 132t91.5 131.5t135 125l94 -102q-30 -24 -58 -53.5t-50 -62.5t-36.5 -67t-17.5 -67q38 -4 70 -20.5t55 -43t36 -61.5t13 -76z" />
<glyph unicode="&#x2019;" horiz-adv-x="573" d="M115 813q30 24 58 53.5t49.5 62.5t36 67t17.5 67q-38 4 -70 20.5t-55 43t-36 61.5t-13 76q0 44 15 80.5t42 62.5t64 40.5t80 14.5q44 0 81 -15.5t63.5 -45.5t41.5 -74.5t15 -101.5q0 -60 -16.5 -125.5t-52 -132t-91.5 -131.5t-135 -125l-94 102v0z" />
<glyph unicode="&#x201a;" horiz-adv-x="541" d="M70 174q0 45 15 81.5t42 62.5t63.5 40.5t79.5 14.5q44 0 81 -15.5t63.5 -45.5t41.5 -74.5t15 -102.5q0 -60 -16.5 -125.5t-52 -131.5t-91.5 -131.5t-135 -125.5l-94 103q30 24 58 53.5t50 62t36.5 66.5t17.5 67q-39 4 -71 21t-55 43.5t-35.5 61t-12.5 75.5z" />
<glyph unicode="&#x201c;" horiz-adv-x="1055" d="M952 909q0 -44 -15 -80.5t-42 -62.5t-63.5 -40.5t-79.5 -14.5q-44 0 -81 15.5t-63.5 45.5t-41.5 74.5t-15 101.5q0 60 16.5 125.5t52 132t91.5 131.5t135 125l94 -102q-30 -24 -58 -53.5t-50 -62.5t-36.5 -67t-17.5 -67q39 -4 71 -20.5t55 -43t35.5 -61.5t12.5 -76z M471 909q0 -44 -15 -80.5t-42 -62.5t-64 -40.5t-80 -14.5q-44 0 -80.5 15.5t-63 45.5t-41.5 74.5t-15 101.5q0 60 16.5 125.5t52 132t91.5 131.5t135 125l94 -102q-30 -24 -58 -53.5t-50 -62.5t-36.5 -67t-17.5 -67q38 -4 70 -20.5t55 -43t36 -61.5t13 -76z" />
<glyph unicode="&#x201d;" horiz-adv-x="1055" d="M115 813q30 24 58 53.5t49.5 62.5t36 67t17.5 67q-38 4 -70 20.5t-55 43t-36 61.5t-13 76q0 44 15 80.5t42 62.5t64 40.5t80 14.5q44 0 81 -15.5t63.5 -45.5t41.5 -74.5t15 -101.5q0 -60 -16.5 -125.5t-52 -132t-91.5 -131.5t-135 -125zM596 813q30 24 58 53.5t50 62.5 t36.5 67t17.5 67q-39 4 -71 20.5t-55 43t-35.5 61.5t-12.5 76q0 44 15 80.5t42 62.5t63.5 40.5t79.5 14.5q44 0 81 -15.5t63.5 -45.5t41.5 -74.5t15 -101.5q0 -60 -16.5 -125.5t-52 -132t-91.5 -131.5t-135 -125z" />
<glyph unicode="&#x201e;" horiz-adv-x="1022" d="M82 -276q30 24 58 53.5t50 62t36.5 66.5t17.5 67q-39 4 -71 21t-55 43.5t-35.5 61t-12.5 75.5q0 45 15 81.5t42 62.5t63.5 40.5t79.5 14.5q44 0 81 -15.5t63.5 -45.5t41.5 -74.5t15 -102.5q0 -60 -16.5 -125.5t-52 -131.5t-91.5 -131.5t-135 -125.5zM563 -276 q30 24 58 53.5t50 62t36.5 66.5t17.5 67q-38 4 -70 21t-55 43.5t-36 61t-13 75.5q0 45 15 81.5t42 62.5t64 40.5t80 14.5t80 -15.5t63.5 -45.5t41.5 -74.5t15 -102.5q0 -60 -16.5 -125.5t-52 -131.5t-91.5 -131.5t-135 -125.5z" />
<glyph unicode="&#x2020;" horiz-adv-x="1192" d="M754 -309h-316l15 1114l-351 -12v245l351 -18l-15 442h316l-15 -442l351 18v-245l-351 12z" />
<glyph unicode="&#x2021;" horiz-adv-x="1274" d="M1130 360v-245l-350 18l15 -442h-316l15 442l-351 -18v245l351 -12l-9 234l9 223l-351 -12v245l351 -18l-15 442h316l-15 -442l350 18v-245l-350 12l8 -223l-8 -234z" />
<glyph unicode="&#x2022;" horiz-adv-x="899" d="M143 676q0 64 23 120.5t64 97.5t97 65t122 24q64 0 120.5 -24t97.5 -65t65 -97.5t24 -120.5q0 -65 -24 -121t-65 -97t-97.5 -64t-120.5 -23q-66 0 -122 23t-97 64t-64 97t-23 121z" />
<glyph unicode="&#x2026;" horiz-adv-x="1696" d="M70 172q0 44 15 81t42 63.5t63.5 41.5t79.5 15t80 -15t64 -41.5t42 -63.5t15 -81t-15 -81t-42 -63.5t-64 -41.5t-80 -15t-79.5 15t-63.5 41.5t-42 63.5t-15 81zM647 172q0 44 15 81t42 63.5t64 41.5t80 15t80 -15t64 -41.5t42 -63.5t15 -81t-15 -81t-42 -63.5t-64 -41.5 t-80 -15t-80 15t-64 41.5t-42 63.5t-15 81zM1225 172q0 44 15 81t42 63.5t63.5 41.5t79.5 15t80 -15t64 -41.5t42 -63.5t15 -81t-15 -81t-42 -63.5t-64 -41.5t-80 -15t-79.5 15t-63.5 41.5t-42 63.5t-15 81z" />
<glyph unicode="&#x2030;" horiz-adv-x="2963" d="M494 1434q85 0 157 -30t124 -85t81 -131.5t29 -169.5t-29 -169.5t-81 -131.5t-124 -85t-157 -30q-86 0 -157.5 30t-124 85t-81.5 131.5t-29 169.5t29 169.5t81.5 131.5t124 85t157.5 30zM494 1231q-65 0 -104.5 -56.5t-39.5 -156.5t39.5 -156.5t104.5 -56.5t104 56.5 t39 156.5t-39 156.5t-104 56.5zM815 -29h-254l703 1491h254zM1585 831q85 0 157 -30t124 -84.5t81 -131t29 -169.5t-29 -169.5t-81 -131.5t-124 -85t-157 -30t-157 30t-124 85t-81 131.5t-29 169.5t29 169.5t81 131t124 84.5t157 30zM1585 629q-65 0 -104 -56.5t-39 -156.5 t39 -156.5t104 -56.5t104.5 56.5t39.5 156.5t-39.5 156.5t-104.5 56.5zM2470 831q85 0 157 -30t124 -84.5t81 -131t29 -169.5t-29 -169.5t-81 -131.5t-124 -85t-157 -30t-157 30t-124 85t-81 131.5t-29 169.5t29 169.5t81 131t124 84.5t157 30zM2470 629q-65 0 -104 -56.5 t-39 -156.5t39 -156.5t104 -56.5t104 56.5t39 156.5t-39 156.5t-104 56.5z" />
<glyph unicode="&#x2039;" horiz-adv-x="743" d="M559 272v-272l-487 410v280l487 410v-273l-266 -278z" />
<glyph unicode="&#x203a;" horiz-adv-x="743" d="M184 827v273l488 -410v-280l-488 -410v272l267 277z" />
<glyph unicode="&#x2044;" horiz-adv-x="997" d="M274 -29h-254l703 1491h254z" />
<glyph unicode="&#x20ac;" horiz-adv-x="1505" d="M1274 1094q-54 38 -122 62t-155 24q-131 0 -224 -57.5t-142 -157.5h577l-96 -185h-530q-1 -8 -2 -18q-1 -8 -1.5 -20t-0.5 -25q0 -14 0.5 -25t1.5 -19q1 -10 2 -18h465l-97 -184h-319q49 -102 142 -159.5t224 -57.5q87 0 155 24t122 62l129 -246q-26 -17 -67 -38.5 t-97 -40t-126.5 -31.5t-154.5 -13q-124 0 -234 35t-199.5 100.5t-155 158t-99.5 206.5h-168v184h136q-1 9 -1 19q-1 8 -1 19v24v23.5t1 20.5q0 11 1 19h-136v185h168q34 114 99.5 205.5t155 156.5t199.5 100t234 35q82 0 152 -12t126 -30.5t98 -40t69 -40.5z" />
<glyph unicode="&#x2113;" horiz-adv-x="979" d="M606 1495q62 0 112 -16t85.5 -43.5t54.5 -65t19 -80.5q0 -71 -20 -143t-54 -142t-79.5 -136t-96.5 -124.5t-104.5 -107.5t-104.5 -86q-3 -32 -5.5 -68.5t-2.5 -76.5q0 -60 7.5 -119.5t28 -107.5t57 -77.5t95.5 -29.5q43 0 81 15t67 33q33 21 61 48l33 -39 q-32 -26 -76 -54t-98.5 -51t-119.5 -38t-140 -15q-62 0 -109 19t-81 52t-56 77.5t-35 95.5t-18 106t-5 109q0 121 16.5 247t48 244.5t76 223t100.5 182.5t122.5 123t140.5 45zM424 643q61 54 121.5 126t108 154t77 169t29.5 170q0 35 -13.5 60.5t-39.5 25.5 q-35 0 -67.5 -35.5t-61.5 -93.5t-54 -132.5t-45 -153t-34 -154.5t-21 -136z" />
<glyph unicode="&#x2117;" horiz-adv-x="1737" d="M123 717q0 103 26.5 198t75 178t116.5 151t151 116.5t178 75t198 26.5t198.5 -26.5t178 -75t151 -116.5t117 -151t75 -178t26.5 -198t-26.5 -198.5t-75 -178t-117 -151t-151 -117t-178 -75t-198.5 -26.5t-198 26.5t-178 75t-151 117t-116.5 151t-75 178t-26.5 198.5z M322 717q0 -124 42.5 -228.5t116.5 -181t173.5 -119.5t213.5 -43t213 43t173 119.5t116.5 181t42.5 228.5t-42.5 228.5t-116.5 180.5t-173 119t-213 43t-213.5 -43t-173.5 -119t-116.5 -180.5t-42.5 -228.5zM1022 848q0 32 -9.5 54.5t-27 36.5t-42.5 20t-56 6h-74v-232h74 q60 0 97.5 26.5t37.5 88.5zM813 586v-264h-180v788h287q71 0 125.5 -21t91.5 -56.5t56 -83t19 -101.5t-19 -101.5t-56 -83t-91.5 -56.5t-125.5 -21h-107z" />
<glyph unicode="&#x2120;" horiz-adv-x="1860" d="M416 848q0 25 -23.5 44t-59.5 38.5t-77 41t-77 52t-59.5 72t-23.5 100.5q0 58 22 104.5t61.5 78t94.5 48.5t121 17t118 -15t83 -36v-191q-18 12 -40.5 23.5t-46.5 21t-49.5 15.5t-49.5 6q-47 0 -73 -18t-26 -46q0 -25 24 -43.5t59.5 -37t77.5 -40t77.5 -51.5t59.5 -72 t24 -102q0 -62 -24.5 -110.5t-66.5 -81.5t-99 -50.5t-121 -17.5q-72 0 -131.5 19.5t-96.5 39.5v195q48 -34 102.5 -54t108.5 -20q57 0 84 21t27 49zM1178 776l-232 320v-488h-217v826h193l286 -394l287 394h191v-826h-216v488l-233 -320h-59z" />
<glyph unicode="&#x2122;" horiz-adv-x="1999" d="M61 1434h715v-172h-250v-654h-217v654h-248v172zM1317 776l-232 320v-488h-217v826h193l287 -394l286 394h191v-826h-215v488l-234 -320h-59z" />
<glyph unicode="&#x2126;" horiz-adv-x="1815" d="M907 1194q-96 0 -177 -33.5t-140 -94t-92 -144.5t-33 -185q0 -95 27 -174.5t73 -140.5t108 -102.5t132 -61.5v-258h-682v258h231q-106 85 -168.5 205t-62.5 274q0 157 60.5 289.5t166 229.5t248.5 151.5t309 54.5t309.5 -54.5t249 -151.5t166 -229.5t60.5 -289.5 q0 -77 -16.5 -145.5t-47.5 -128.5t-74 -111.5t-96 -93.5h234v-258h-682v258q70 20 131.5 61.5t108 102.5t73.5 140.5t27 174.5q0 101 -35 185t-95 144.5t-141 94t-172 33.5z" />
<glyph unicode="&#x212e;" horiz-adv-x="1368" d="M1266 512h-848v-330q54 -40 121.5 -61t144.5 -21q103 0 188.5 39.5t145.5 110.5h178q-41 -69 -96 -121t-121 -87.5t-140.5 -53t-154.5 -17.5q-126 0 -232.5 42t-184.5 117t-121.5 178t-43.5 224t43.5 224t121.5 178t184.5 117.5t232.5 42.5t232.5 -42.5t184.5 -117.5 t121.5 -178t43.5 -224v-20zM684 965q-77 0 -144.5 -22t-121.5 -60v-248h532v248q-55 38 -122 60t-144 22z" />
<glyph unicode="&#x2202;" horiz-adv-x="1403" d="M676 920q54 0 100 -10.5t83.5 -29t67.5 -44t54 -54.5q2 22 3 42.5t1 41.5q0 184 -55 279.5t-148 95.5q-75 0 -136 -42t-109 -124h-308q47 91 108 162.5t134 121.5t157.5 76.5t178.5 26.5q116 0 207.5 -39.5t155 -115t97 -186t33.5 -251.5q0 -129 -26.5 -246t-74 -217 t-113.5 -180.5t-145.5 -137.5t-170 -87.5t-186.5 -30.5q-108 0 -197 33.5t-152.5 90.5t-98 133t-34.5 161q0 111 47.5 207.5t127 168.5t183 113.5t216.5 41.5zM594 207q51 0 100 23.5t93 67t81 105t64 136.5q-23 27 -51.5 51.5t-61.5 43t-70.5 29.5t-80.5 11 q-48 0 -96.5 -17t-86.5 -50.5t-62 -83t-24 -113.5q0 -46 15 -83.5t41 -64t61.5 -41t77.5 -14.5z" />
<glyph unicode="&#x2206;" horiz-adv-x="1540" d="M717 1450h106l715 -1450h-1536zM465 266h608l-303 639z" />
<glyph unicode="&#x220f;" horiz-adv-x="1733" d="M1395 0h-322v1176h-420v-1176h-321v1176h-230v258h1528v-258h-235v-1176z" />
<glyph unicode="&#x2211;" horiz-adv-x="1442" d="M1014 666l-436 -408h720v-258h-1155v233l514 484l-514 483v234h1155v-258h-718l434 -408v-102z" />
<glyph unicode="&#x2212;" horiz-adv-x="1276" d="M1174 731v-278h-1072v278h1072z" />
<glyph unicode="&#x221a;" horiz-adv-x="1513" d="M92 854h428l144 -369l450 1147h307l-667 -1648h-181l-254 614h-227v256z" />
<glyph unicode="&#x221e;" horiz-adv-x="1757" d="M1282 281q-51 0 -100.5 14t-99 41t-100.5 65.5t-105 87.5q-56 -50 -106.5 -88.5t-99 -65t-97.5 -40.5t-101 -14q-77 0 -144.5 29.5t-118 80.5t-79.5 118.5t-29 143.5q0 77 29 145t79 118.5t117.5 80t145.5 29.5q102 0 203 -54t201 -151q43 41 89 78t96 65.5t105 45 t115 16.5q77 0 145 -29t118.5 -79t80 -118.5t29.5 -146.5q0 -77 -29.5 -144.5t-80.5 -118t-119 -80t-144 -29.5zM338 653q0 -28 10 -53t28 -43.5t43 -29.5t54 -11q28 0 57 11t59 30t60 44.5t62 53.5q-62 59 -121.5 97.5t-116.5 38.5q-29 0 -54 -10.5t-43 -28.5t-28 -43.5 t-10 -55.5zM1047 655q30 -29 59.5 -54.5t59 -44t58.5 -29.5t58 -11t54 11t43.5 29.5t29 43.5t10.5 53q0 30 -10.5 55.5t-29 43.5t-43.5 28.5t-54 10.5t-58 -10.5t-59 -29t-59.5 -43.5t-58.5 -53z" />
<glyph unicode="&#x222b;" horiz-adv-x="1090" d="M481 1147q13 89 47.5 154.5t86 108.5t117 64t140.5 21q34 0 67.5 -2.5t62 -7t51 -10t34.5 -11.5l-34 -245q-21 8 -44 15q-20 5 -45.5 10t-54.5 5q-51 0 -81.5 -23.5t-36.5 -70.5l-185 -1319q-12 -89 -46.5 -154.5t-86 -108.5t-117.5 -64t-141 -21q-33 0 -66 2.5t-61.5 7 t-51 10t-34.5 11.5l35 245q20 -9 43 -15q20 -6 45 -10.5t53 -4.5q51 0 82 24t37 70z" />
<glyph unicode="&#x2248;" horiz-adv-x="1522" d="M989 616q-48 0 -90.5 13.5t-81 34t-74.5 44t-71.5 44t-71 34t-72.5 13.5q-71 0 -113 -44t-42 -118h-189q0 93 24 170.5t69 133.5t108.5 87t142.5 31q51 0 94.5 -13.5t82.5 -33.5t74.5 -44t70 -44t69.5 -33.5t74 -13.5q71 0 113.5 43.5t42.5 117.5h188q0 -92 -24.5 -169.5 t-70 -133.5t-110 -87.5t-143.5 -31.5zM989 131q-48 0 -90.5 13.5t-81 33.5t-74.5 44t-71.5 44t-71 33.5t-72.5 13.5q-71 0 -113 -43.5t-42 -117.5h-189q0 93 24 170t69 133t108.5 87t142.5 31q51 0 94.5 -13.5t82.5 -33.5t74.5 -44t70 -44t69.5 -33.5t74 -13.5 q71 0 113.5 44t42.5 118h188q0 -92 -24.5 -169.5t-70 -133.5t-110 -87.5t-143.5 -31.5z" />
<glyph unicode="&#x2260;" horiz-adv-x="1501" d="M1171 985h146v-278h-352l-172 -232h524v-278h-729l-146 -197h-258l146 197h-146v278h351l172 232h-523v278h729l146 197h258z" />
<glyph unicode="&#x2264;" horiz-adv-x="1409" d="M1225 569v-266l-1041 299v281l1041 299v-267l-711 -174zM184 258h1039v-258h-1039v258z" />
<glyph unicode="&#x2265;" horiz-adv-x="1409" d="M184 915v267l1041 -299v-281l-1041 -299v266l711 172zM186 258h1039v-258h-1039v258z" />
<glyph unicode="&#x250c;" horiz-adv-x="1450" d="M1475 831v-294h-664v-1162h-295v1456h959z" />
<glyph unicode="&#x2510;" horiz-adv-x="1450" d="M639 537h-662v294h957v-1456h-295v1162z" />
<glyph unicode="&#x2514;" horiz-adv-x="1450" d="M516 412v1456h295v-1161h664v-295h-959z" />
<glyph unicode="&#x2518;" horiz-adv-x="1450" d="M934 412h-957v295h662v1161h295v-1456z" />
<glyph unicode="&#x2588;" horiz-adv-x="1450" d="M-23 -621v2485h1496v-2485h-1496z" />
<glyph unicode="&#x25ca;" horiz-adv-x="1409" d="M1307 717l-512 -733h-181l-512 733l512 733h181zM985 717l-280 401l-281 -401l281 -402z" />
<glyph unicode="&#x266a;" horiz-adv-x="1094" d="M1049 895h-140v66q0 47 -19 87t-53.5 69t-83 45t-106.5 16h-6v-930q0 -62 -24 -112.5t-65.5 -87.5t-98 -57t-121.5 -20q-60 0 -112.5 20t-91 54t-61 80t-22.5 98q0 54 22.5 100.5t61 81t91 54.5t112.5 20q46 0 89.5 -10t80.5 -29v994h112q93 0 172.5 -27t138 -74.5 t91.5 -112.5t33 -141v-184z" />
<glyph unicode="&#x266b;" horiz-adv-x="1540" d="M641 1020v-870q0 -62 -24 -112.5t-65.5 -86.5t-98 -56t-121.5 -20q-61 0 -113.5 19.5t-91 53.5t-60.5 79.5t-22 97.5q0 54 22 101t60.5 82t91 55t113.5 20q46 0 89.5 -10.5t80.5 -30.5v928l833 260v-1182q0 -62 -24 -112.5t-65 -86.5t-97.5 -55.5t-120.5 -19.5 q-61 0 -113.5 19.5t-91 53t-60.5 79t-22 98.5q0 54 22 101t60.5 82t91 55t113.5 20q47 0 89 -10.5t79 -30.5v655z" />
<glyph unicode="&#xe000;" horiz-adv-x="1065" d="M0 1065h1065v-1065h-1065v1065z" />
<glyph unicode="&#xf6c3;" horiz-adv-x="606" d="M102 -403q0 44 15 80.5t42 62.5t64 40.5t80 14.5q44 0 81 -15.5t63.5 -45.5t41.5 -74.5t15 -101.5q0 -60 -16.5 -125.5t-52 -132t-91.5 -131.5t-135 -125l-94 102q30 24 58 53.5t49.5 62t36 67t17.5 67.5q-38 4 -70 20.5t-55 43t-36 61.5t-13 76z" />
<glyph unicode="&#xfb01;" horiz-adv-x="1442" d="M32 0zM32 1065h172v82q0 89 25 154.5t70.5 108.5t108.5 64t138 21q34 0 67.5 -2.5t62.5 -7t52.5 -10t36.5 -11.5v-245q-21 8 -46 15q-21 5 -48 10t-55 5q-51 0 -78 -23.5t-27 -70.5v-90h242v-244h-242v-821h-307v821h-172v244zM967 1065h311v-1065h-311v1065zM946 1378 q0 39 13 68.5t36.5 49.5t56 30t70.5 10q39 0 71 -10t55.5 -30t36.5 -49.5t13 -68.5q0 -38 -13 -67.5t-36.5 -49.5t-55.5 -30t-71 -10q-38 0 -70.5 10t-56 30t-36.5 49.5t-13 67.5z" />
<glyph unicode="&#xfb02;" horiz-adv-x="1556" d="M32 0zM32 1065h172v82q0 89 25 154.5t70.5 108.5t108.5 64t138 21q34 0 67.5 -2.5t62.5 -7t52.5 -10t36.5 -11.5v-245q-21 8 -46 15q-21 5 -48 10t-55 5q-51 0 -78 -23.5t-27 -70.5v-90h242v-244h-242v-821h-307v821h-172v244zM967 1495h311v-1108q0 -80 36.5 -114.5 t104.5 -34.5q25 0 45.5 2.5t35.5 6.5q18 4 32 9v-258q-27 -8 -59 -14q-27 -5 -63 -9t-75 -4q-95 0 -164 24t-114.5 75t-67.5 130.5t-22 190.5v1104z" />
<glyph horiz-adv-x="1556" d="M0 0z" />
</font>
</defs>
</svg>
