<?xml version="1.0" standalone="no"?>
<!DOCTYPE svg PUBLIC "-//W3C//DTD SVG 1.1//EN" "http://www.w3.org/Graphics/SVG/1.1/DTD/svg11.dtd" >
<svg xmlns="http://www.w3.org/2000/svg">
<metadata></metadata>
<defs>
<font id="MatterhornRegular" horiz-adv-x="1247" >
<font-face units-per-em="2048" ascent="1536" descent="-512" />
<missing-glyph horiz-adv-x="573" />
<glyph horiz-adv-x="0" />
<glyph horiz-adv-x="0" />
<glyph unicode="&#xd;" horiz-adv-x="573" />
<glyph unicode=" "  horiz-adv-x="573" />
<glyph unicode="&#x09;" horiz-adv-x="573" />
<glyph unicode="&#xa0;" horiz-adv-x="573" />
<glyph unicode="!" horiz-adv-x="539" d="M166 1434h209l-21 -957h-168zM123 119q0 31 11 58t31 46t46.5 30t58.5 11q31 0 58 -11t46.5 -30t30.5 -46t11 -58q0 -32 -11 -59t-30.5 -46.5t-46.5 -31t-58 -11.5q-32 0 -58.5 11.5t-46.5 31t-31 46.5t-11 59z" />
<glyph unicode="&#x22;" horiz-adv-x="766" d="M123 1462h182l-33 -536h-141zM481 1462h183l-33 -536h-142z" />
<glyph unicode="#" horiz-adv-x="1350" d="M190 1032h228l53 402h154l-54 -402h291l53 402h154l-53 -402h211v-147h-232l-45 -336h209v-148h-227l-53 -401h-154l53 401h-291l-53 -401h-153l53 401h-211v148h229l45 336h-207v147zM506 549h291l45 336h-291z" />
<glyph unicode="$" horiz-adv-x="1067" d="M461 -29q-56 1 -108 11t-96 23.5t-78.5 29t-55.5 28.5v213q25 -24 62.5 -47.5t83 -42.5t97 -31t105.5 -12q61 0 113 17.5t89 48.5t58 74.5t21 95.5q0 58 -26.5 100.5t-70 77t-99 64t-114 60.5t-114 66.5t-99 82t-70 108t-26.5 143.5q0 78 25 142t70 111.5t107.5 77.5 t137.5 42v182h168v-178q82 -9 147.5 -31.5t102.5 -44.5v-217q-23 21 -56.5 43t-75.5 40.5t-90 30t-100 11.5q-55 0 -98.5 -14.5t-73.5 -40.5t-45.5 -61.5t-15.5 -77.5q0 -54 26.5 -95t70 -75t99 -63.5t113.5 -62t113.5 -69.5t99 -86t70 -112.5t26.5 -147.5q0 -76 -24 -140.5 t-67 -115t-103 -86t-131 -53.5v-232h-168v213z" />
<glyph unicode="%" horiz-adv-x="1872" d="M457 635q-75 0 -136.5 28.5t-105.5 81t-68 126t-24 163.5q0 91 24 164.5t68 126t105.5 81t136.5 28.5q74 0 135.5 -28.5t105.5 -81t68.5 -126t24.5 -164.5q0 -90 -24.5 -163.5t-68.5 -126t-105.5 -81t-135.5 -28.5zM457 776q41 0 74.5 18.5t57.5 52.5t37 81.5t13 105.5 t-13 106t-37 81.5t-57.5 52t-74.5 18.5q-42 0 -75.5 -18.5t-57.5 -52t-37 -81.5t-13 -106t13 -105.5t37 -81.5t57.5 -52.5t75.5 -18.5zM1219 1462h141l-707 -1491h-141zM1415 799q75 0 136.5 -29t105.5 -81.5t68 -126t24 -163.5t-24 -164t-68 -126t-105.5 -80.5 t-136.5 -28.5q-74 0 -135.5 28.5t-105.5 80.5t-68.5 126t-24.5 164t24.5 163.5t68.5 126t105.5 81.5t135.5 29zM1415 657q-41 0 -74.5 -18.5t-57.5 -52t-37 -81.5t-13 -106t13 -105.5t37 -81.5t57.5 -52.5t74.5 -18.5q42 0 75.5 18.5t57 52.5t36.5 81.5t13 105.5t-13 106 t-36.5 81.5t-57 52t-75.5 18.5z" />
<glyph unicode="&#x26;" horiz-adv-x="1356" d="M1118 0l-149 172q-82 -94 -190 -147.5t-242 -53.5q-95 0 -171.5 27t-130.5 76.5t-83 118t-29 151.5q0 81 27 146t71.5 118t102 96.5t118.5 81.5q-72 93 -107.5 178.5t-35.5 163.5q0 61 22.5 121t66.5 107.5t110.5 76.5t154.5 29q70 0 131.5 -19.5t107 -57.5t71.5 -93 t26 -127q0 -73 -27 -131t-72 -106t-103 -88.5t-119 -77.5l284 -316q22 53 40 115.5t30 134.5h162q-14 -105 -42 -200t-73 -179l285 -317h-236zM565 139q82 0 158 37.5t139 118.5l-327 383q-45 -31 -85 -63.5t-70 -70t-47.5 -81t-17.5 -94.5q0 -53 18.5 -95.5t51.5 -72.5 t79 -46t101 -16zM473 1124q0 -58 25 -122t77 -134q49 31 93 62.5t77 66t52.5 74t19.5 86.5q0 37 -12 67t-33.5 51t-52 32.5t-66.5 11.5q-41 0 -74 -14.5t-56.5 -40.5t-36.5 -62t-13 -78z" />
<glyph unicode="'" horiz-adv-x="408" d="M123 1462h182l-33 -536h-141z" />
<glyph unicode="(" horiz-adv-x="811" d="M164 659q0 157 28.5 295t76.5 257.5t111.5 221t133.5 185.5h215q-70 -72 -138 -169t-122 -217.5t-87.5 -264t-33.5 -308.5q0 -164 33.5 -306.5t87.5 -263t122 -217.5t138 -169h-213q-71 83 -134.5 184.5t-112 221t-77 257t-28.5 293.5z" />
<glyph unicode=")" horiz-adv-x="811" d="M647 659q0 -156 -28.5 -293.5t-77 -257t-112.5 -221t-134 -184.5h-213q70 72 138 169t122 217.5t87.5 263t33.5 306.5q0 165 -33.5 308.5t-87.5 264t-122 217.5t-138 169h215q70 -84 133.5 -185.5t111.5 -221t76.5 -257.5t28.5 -295z" />
<glyph unicode="*" horiz-adv-x="1122" d="M455 1028l-332 84l53 166l318 -125l-21 342h174l-20 -342l319 125l53 -166l-331 -86l219 -264l-142 -103l-184 289l-182 -289l-141 103z" />
<glyph unicode="+" horiz-adv-x="1296" d="M725 1157v-487h449v-156h-449v-489h-156v489h-446v156h446v487h156z" />
<glyph unicode="," horiz-adv-x="485" d="M92 -256q66 60 104.5 121t45.5 106q-32 1 -59.5 12.5t-48 31t-32.5 46t-12 58.5q0 31 11.5 58t31 46t46.5 30t59 11t60.5 -12t50 -35.5t34 -58.5t12.5 -80q0 -53 -17.5 -107.5t-49 -107.5t-75 -101.5t-95.5 -89.5l-66 72v0z" />
<glyph unicode="-" horiz-adv-x="733" d="M123 694h487v-151h-487v151z" />
<glyph unicode="." horiz-adv-x="473" d="M90 119q0 31 11.5 58t31 46t46.5 30t59 11q31 0 58 -11t46 -30t30 -46t11 -58q0 -32 -11 -59t-30 -46.5t-46 -31t-58 -11.5q-32 0 -59 11.5t-46.5 31t-31 46.5t-11.5 59z" />
<glyph unicode="/" horiz-adv-x="754" d="M217 -152h-176l496 1737h176z" />
<glyph unicode="0" horiz-adv-x="1315" d="M657 -29q-117 0 -213.5 53.5t-165.5 151.5t-107 235.5t-38 305.5q0 167 38 304.5t107 235.5t165.5 151.5t213.5 53.5q118 0 214.5 -53.5t165.5 -151.5t107 -235.5t38 -304.5q0 -168 -38 -305.5t-107 -235.5t-165.5 -151.5t-214.5 -53.5zM657 137q72 0 132 41.5t103 117.5 t67 183t24 238t-24 238t-67 182.5t-103 117t-132 41.5t-132 -41.5t-102.5 -117t-66.5 -182.5t-24 -238t24 -238t66.5 -183t102.5 -117.5t132 -41.5z" />
<glyph unicode="1" horiz-adv-x="721" d="M506 1434v-1434h-187v1276h-268v158h455z" />
<glyph unicode="2" horiz-adv-x="1122" d="M121 1358q78 51 173.5 77.5t192.5 26.5q103 0 186.5 -30t142 -84.5t90.5 -130.5t32 -168q0 -61 -15 -120t-46.5 -122t-80.5 -132t-116 -149l-307 -362h616v-164h-917v61l405 488q61 73 110 138t82.5 125t51.5 116.5t18 113.5q0 61 -20 108.5t-56.5 80t-88 49t-113.5 16.5 q-53 0 -100.5 -11t-89.5 -30t-79.5 -43t-70.5 -49v195z" />
<glyph unicode="3" horiz-adv-x="1112" d="M780 430q0 64 -24 119t-74 95.5t-126 63.5t-179 23q-6 0 -12.5 -0.5t-11.5 -0.5q-6 -1 -13 -1v86l319 461h-542v158h827v-62l-360 -512q86 -15 158.5 -51.5t125 -92t82 -128t29.5 -158.5q0 -97 -36 -180.5t-104 -145.5t-167 -97.5t-226 -35.5q-48 0 -95.5 6t-90.5 16 t-80.5 23t-66.5 27v178q32 -18 70.5 -33t80 -26.5t85 -18t85.5 -6.5q80 0 144 22t109 61t69 92.5t24 117.5z" />
<glyph unicode="4" horiz-adv-x="1214" d="M31 369l825 1093h62v-997h204v-158h-204v-307h-187v307h-700v62zM731 465v594l-450 -594h450z" />
<glyph unicode="5" horiz-adv-x="1133" d="M223 1434h727v-158h-555l-26 -395q16 3 34 6q16 2 36.5 4t43.5 2q114 0 208 -35.5t161 -97.5t104 -145t37 -177q0 -95 -36.5 -179.5t-104.5 -148.5t-166 -101.5t-221 -37.5q-99 0 -186 22t-146 50v178q65 -35 148 -59.5t170 -24.5q78 0 142.5 21t110.5 60.5t71.5 95 t25.5 124.5t-25.5 124t-71.5 93.5t-110.5 59t-142.5 20.5q-63 0 -113 -9.5t-85 -20.5q-41 -13 -73 -29z" />
<glyph unicode="6" horiz-adv-x="1174" d="M92 451q0 85 24.5 156.5t67.5 133.5l486 693h225l-367 -508q6 1 15 2q8 1 17.5 1.5t21.5 0.5q105 0 194.5 -35.5t155 -99t102.5 -151.5t37 -193t-37 -193.5t-102.5 -152t-155 -99t-194.5 -35.5t-195 35.5t-155.5 99t-102.5 152t-37 193.5zM291 451q0 -70 22.5 -128 t61.5 -99t92 -64t115 -23q61 0 114 23t92 64t61.5 99t22.5 128t-22.5 127.5t-61.5 98.5t-92 64t-114 23q-62 0 -115 -23t-92 -64t-61.5 -98.5t-22.5 -127.5z" />
<glyph unicode="7" horiz-adv-x="1053" d="M55 1434h946v-62l-632 -1372h-205l590 1276h-699v158z" />
<glyph unicode="8" horiz-adv-x="1221" d="M606 -29q-107 0 -195.5 30t-152.5 83.5t-99.5 127.5t-35.5 163q0 86 31 149t77 108t97.5 73t93.5 43q-49 24 -93.5 54.5t-78 70t-53 91t-19.5 119.5q0 94 37.5 165.5t99.5 118.5t142 71t166 24q90 0 168 -25.5t135.5 -72t91 -112t33.5 -146.5q0 -74 -26 -131t-64.5 -100 t-82.5 -71.5t-79 -45.5q53 -26 106.5 -59t96 -78t69.5 -105t27 -139q0 -92 -37.5 -167t-103.5 -128t-156 -82t-195 -29zM901 375q0 64 -28 110.5t-74.5 81.5t-106 62t-121.5 53q-28 -12 -70.5 -34.5t-82 -59.5t-68 -88.5t-28.5 -120.5q0 -56 20 -102.5t57.5 -81t91 -53.5 t119.5 -19q64 0 118 18.5t92 52t59.5 79.5t21.5 102zM375 1094q0 -53 22 -92.5t60 -71.5t88 -57.5t106 -49.5q31 15 68 38t69 56t54 76t22 99q0 48 -17 88t-48.5 69t-75.5 45.5t-98 16.5q-52 0 -97.5 -15.5t-79.5 -44t-53.5 -68.5t-19.5 -89z" />
<glyph unicode="9" horiz-adv-x="1174" d="M1081 983q0 -85 -24 -157t-68 -134l-485 -692h-225l366 508q-7 -1 -15 -2q-7 -1 -17 -1.5t-21 -0.5q-105 0 -195 35.5t-155.5 99t-102.5 151.5t-37 193t37 193t102.5 151.5t155.5 99t195 35.5t194.5 -35.5t155 -99t102.5 -151.5t37 -193zM883 983q0 70 -22.5 127.5 t-61.5 98.5t-92.5 64t-114.5 23q-62 0 -115 -23t-92 -64t-61.5 -98.5t-22.5 -127.5t22.5 -127.5t61.5 -99t92 -64t115 -22.5q61 0 114.5 22.5t92.5 64t61.5 99t22.5 127.5z" />
<glyph unicode=":" horiz-adv-x="539" d="M123 119q0 31 11 58t31 46t46.5 30t58.5 11q31 0 58 -11t46.5 -30t30.5 -46t11 -58q0 -32 -11 -59t-30.5 -46.5t-46.5 -31t-58 -11.5q-32 0 -58.5 11.5t-46.5 31t-31 46.5t-11 59zM123 846q0 31 11 58t31 46t46.5 30t58.5 11q31 0 58 -11t46.5 -30t30.5 -46t11 -58 q0 -32 -11 -59t-30.5 -46.5t-46.5 -31t-58 -11.5q-32 0 -58.5 11.5t-46.5 31t-31 46.5t-11 59z" />
<glyph unicode=";" horiz-adv-x="551" d="M123 846q0 31 11 58t31 46t46.5 30t58.5 11q31 0 58 -11t46.5 -30t30.5 -46t11 -58q0 -32 -11 -59t-30.5 -46.5t-46.5 -31t-58 -11.5q-32 0 -58.5 11.5t-46.5 31t-31 46.5t-11 59zM123 119q0 31 11 58t31 46t46.5 30t58.5 11t61 -12t50.5 -35.5t34 -58.5t12.5 -80 q0 -53 -17.5 -107.5t-49 -107.5t-75.5 -101.5t-96 -89.5l-65 72q66 60 104.5 121t44.5 106q-32 1 -59.5 12.5t-47.5 31t-32 46t-12 58.5z" />
<glyph unicode="&#x3c;" horiz-adv-x="1286" d="M1122 184v-184l-1040 512v158l1040 512v-185l-864 -405z" />
<glyph unicode="=" horiz-adv-x="1542" d="M1337 748h-1132v155h1132v-155zM1337 279h-1132v155h1132v-155z" />
<glyph unicode="&#x3e;" horiz-adv-x="1286" d="M164 997v185l1040 -512v-158l-1040 -512v184l864 408z" />
<glyph unicode="?" horiz-adv-x="856" d="M262 477q-6 43 -6 78q0 73 22.5 128.5t56.5 101t73.5 84t73.5 77t56.5 80t22.5 92.5q0 84 -62 129t-165 45q-68 0 -125 -16.5t-107 -38.5v172q72 28 136 40.5t127 12.5q87 0 161 -23.5t127 -66.5t83 -104.5t30 -137.5q0 -75 -26 -129t-65.5 -97.5t-85.5 -82.5 t-85.5 -82.5t-65.5 -97.5t-26 -129v-17.5t2 -17.5h-152zM190 119q0 31 11.5 58t31 46t46.5 30t59 11q31 0 58 -11t46 -30t30 -46t11 -58q0 -32 -11 -59t-30 -46.5t-46 -31t-58 -11.5q-32 0 -59 11.5t-46.5 31t-31 46.5t-11.5 59z" />
<glyph unicode="@" horiz-adv-x="1890" d="M1767 737q0 -123 -30.5 -225.5t-85 -175.5t-129 -113.5t-162.5 -40.5q-65 0 -109.5 19t-72.5 42q-33 27 -52 62q-18 -14 -41.5 -31t-55 -32t-71.5 -25t-90 -10q-75 0 -132.5 25t-97 72t-59.5 113.5t-20 149.5q0 102 28.5 190t78.5 153.5t118.5 103t149.5 37.5 q65 0 111.5 -23t87.5 -65l8 79h159l-55 -575q-6 -63 26.5 -104t100.5 -41q51 0 93 29.5t72.5 83t47.5 129.5t17 169q0 135 -43.5 244t-122.5 185.5t-188.5 117.5t-241.5 41q-160 0 -291.5 -59.5t-225.5 -164.5t-146 -248.5t-52 -311.5q0 -144 46 -255.5t128.5 -188 t196.5 -116.5t251 -40q113 0 209.5 26.5t180.5 79.5l75 -123q-102 -60 -221 -93.5t-256 -33.5q-170 0 -312.5 51t-246 146t-161.5 231.5t-58 306.5q0 134 29 255.5t83.5 225.5t133 187.5t177.5 142.5t217 91t251 32q163 0 301 -53t238.5 -149t157 -229.5t56.5 -293.5z M958 893q-58 0 -100.5 -26.5t-70 -69.5t-41 -97t-13.5 -108q0 -42 8 -83t27.5 -73t52.5 -51.5t82 -19.5q29 0 56.5 6.5t51 16.5t41 20t27.5 18l41 403q-8 9 -23 20t-36 20.5t-47 16.5t-56 7z" />
<glyph unicode="A" horiz-adv-x="1303" d="M1300 0h-204l-125 305h-641l-123 -305h-205l612 1450h74zM397 469h506l-252 621z" />
<glyph unicode="B" horiz-adv-x="1286" d="M877 784q70 -15 127 -51.5t97 -86.5t61.5 -110t21.5 -124q0 -89 -36.5 -164.5t-104 -130.5t-162 -86t-211.5 -31h-465v1434h450q105 0 188.5 -25.5t141.5 -71.5t88.5 -110t30.5 -140q0 -51 -14 -97.5t-42 -85.5t-71 -69t-100 -47v-4zM676 164q76 0 134 21t97 57.5 t58.5 85.5t19.5 104t-19.5 104t-58.5 85.5t-97 57.5t-134 21h-279v-536h279zM397 1270v-406h265q63 0 108.5 16t75.5 43.5t44.5 64.5t14.5 79t-14.5 79t-44.5 64.5t-75.5 43.5t-108.5 16h-265z" />
<glyph unicode="C" horiz-adv-x="1319" d="M113 717q0 164 50 301t141.5 235.5t218.5 153.5t282 55q108 0 207.5 -24.5t183.5 -67.5v-205q-35 24 -77 46.5t-91 40t-104 28t-115 10.5q-111 0 -202 -40.5t-155.5 -115t-99.5 -180.5t-35 -237t35 -237t99.5 -181t155.5 -115.5t202 -40.5q60 0 115 10.5t104 28t91 40 t77 46.5v-205q-84 -43 -183.5 -67.5t-207.5 -24.5q-155 0 -282 55t-218.5 154t-141.5 236t-50 301z" />
<glyph unicode="D" horiz-adv-x="1448" d="M205 1434h340q203 0 352 -51.5t246.5 -145.5t144.5 -226.5t47 -293.5t-47 -293.5t-144.5 -226.5t-246.5 -145.5t-352 -51.5h-340v1434zM1130 717q0 131 -35.5 234t-108 174t-182.5 108t-259 37h-148v-1106h148q149 0 259 37t182.5 108t108 174t35.5 234z" />
<glyph unicode="E" horiz-adv-x="1147" d="M397 164h607v-164h-799v1434h799v-164h-607v-420h545v-164h-545v-522z" />
<glyph unicode="F" horiz-adv-x="1085" d="M397 0h-192v1434h778v-164h-586v-457h545v-164h-545v-649z" />
<glyph unicode="G" horiz-adv-x="1454" d="M113 717q0 164 51.5 301t145.5 235.5t225 153.5t290 55q121 0 230.5 -24.5t201.5 -67.5v-205q-38 24 -84.5 46.5t-100.5 40t-115.5 28t-127.5 10.5q-117 0 -211.5 -40.5t-161 -115t-103 -180.5t-36.5 -237t38 -237t108.5 -181t170 -115.5t222.5 -40.5q65 0 125.5 10 t116.5 27v338h-273v164h465v-619q-93 -43 -205 -67.5t-233 -24.5q-164 0 -299.5 55t-233.5 154t-152 236t-54 301z" />
<glyph unicode="H" horiz-adv-x="1495" d="M1098 686h-701v-686h-192v1434h192v-584h701v584h192v-1434h-192v686z" />
<glyph unicode="I" horiz-adv-x="602" d="M205 1434h192v-1434h-192v1434z" />
<glyph unicode="J" horiz-adv-x="868" d="M20 195q53 -26 116.5 -39t113.5 -13q67 0 111.5 21.5t71 56t37.5 78t11 86.5v1049h193v-1049q0 -101 -32 -178t-87.5 -129.5t-130.5 -79.5t-162 -27q-32 0 -67.5 3.5t-68.5 9t-61 12.5t-45 14v185z" />
<glyph unicode="K" horiz-adv-x="1280" d="M205 1434h192v-754l607 754h245l-538 -654l567 -780h-248l-438 637l-195 -176v-461h-192v1434z" />
<glyph unicode="L" horiz-adv-x="1024" d="M205 1434h192v-1270h607v-164h-799v1434z" />
<glyph unicode="M" horiz-adv-x="1851" d="M895 309l-498 664v-973h-192v1450h61l660 -887l659 887h62v-1450h-193v973l-498 -664h-61z" />
<glyph unicode="N" horiz-adv-x="1610" d="M1343 -16l-946 1048v-1032h-192v1450h61l946 -1051v1035h193v-1450h-62z" />
<glyph unicode="O" horiz-adv-x="1642" d="M317 717q0 -130 36.5 -236t103 -181t159.5 -116t205 -41t205 41t159.5 116t103 181t36.5 236t-36.5 235.5t-103 180.5t-159.5 116t-205 41t-205 -41t-159.5 -116t-103 -180.5t-36.5 -235.5zM113 717q0 164 52.5 301t146 235.5t223.5 153.5t286 55t286.5 -55t224 -153.5 t146 -235.5t52.5 -301t-52.5 -301t-146 -236t-224 -154t-286.5 -55t-286 55t-223.5 154t-146 236t-52.5 301z" />
<glyph unicode="P" horiz-adv-x="1198" d="M205 1434h387q130 0 230 -33t168.5 -93t104 -144t35.5 -185t-35.5 -185t-104 -144t-168.5 -93t-230 -33h-195v-524h-192v1434zM926 979q0 140 -83.5 215.5t-250.5 75.5h-195v-582h195q167 0 250.5 75.5t83.5 215.5z" />
<glyph unicode="Q" horiz-adv-x="1642" d="M113 717q0 164 52.5 301t146 235.5t223.5 153.5t286 55t286.5 -55t224 -153.5t146 -235.5t52.5 -301q0 -161 -49.5 -294t-139.5 -233l250 -276h-227l-152 168q-81 -54 -179.5 -82.5t-211.5 -28.5q-156 0 -286 55t-223.5 154t-146 236t-52.5 301zM997 575l215 -241 q54 74 83.5 170.5t29.5 212.5q0 130 -36.5 235.5t-103 180.5t-159.5 116t-205 41t-205 -41t-159.5 -116t-103 -180.5t-36.5 -235.5t36.5 -236t103 -181t159.5 -116t205 -41q78 0 146 19.5t125 56.5l-226 252z" />
<glyph unicode="R" horiz-adv-x="1276" d="M205 1434h381q123 0 220.5 -31t165 -87.5t103 -135.5t35.5 -176q0 -141 -73 -242.5t-208 -149.5l445 -612h-240l-395 575h-242v-575h-192v1434zM905 1004q0 133 -80.5 199.5t-238.5 66.5h-189v-533h189q158 0 238.5 66.5t80.5 200.5z" />
<glyph unicode="S" horiz-adv-x="1067" d="M754 379q0 58 -26.5 101.5t-70.5 78.5t-99.5 65t-114 61.5t-114 67t-99.5 82t-70.5 106.5t-26.5 140q0 91 32.5 161.5t90.5 119.5t137.5 74.5t173.5 25.5q53 0 102 -7.5t91 -19.5t75 -26t56 -27v-215q-23 21 -56.5 43t-75.5 40.5t-90 30t-100 11.5q-55 0 -98.5 -15 t-74 -41t-46.5 -62t-16 -78q0 -55 26.5 -96.5t70 -76t99.5 -65t114 -63t114 -70t99.5 -85.5t70 -110.5t26.5 -144.5q0 -95 -37 -171.5t-102 -130.5t-152.5 -83t-187.5 -29q-57 0 -111.5 9.5t-100.5 23.5t-82.5 30t-57.5 29v211q25 -24 62.5 -47.5t83 -42.5t97 -31t105.5 -12 q61 0 113 17.5t90 49t59 75.5t21 96z" />
<glyph unicode="T" horiz-adv-x="1094" d="M643 0h-192v1270h-443v164h1077v-164h-442v-1270z" />
<glyph unicode="U" horiz-adv-x="1495" d="M195 1434h192v-936q0 -97 25 -165t71.5 -111t113.5 -63t151 -20t150.5 20t113 63t71.5 111t25 165v936h192v-934q0 -135 -40.5 -235t-113 -165t-174 -97t-224.5 -32t-225 32t-174.5 97t-113 165t-40.5 235v934z" />
<glyph unicode="V" horiz-adv-x="1262" d="M668 -16h-74l-592 1450h205l424 -1084l424 1084h205z" />
<glyph unicode="W" horiz-adv-x="1942" d="M20 1434h199l316 -1022l405 1038h61l406 -1038l315 1022h199l-457 -1450h-73l-420 1079l-420 -1079h-74z" />
<glyph unicode="X" horiz-adv-x="1257" d="M733 741l479 -741h-225l-358 588l-359 -588h-225l479 741l-448 693h225l328 -541l327 541h226z" />
<glyph unicode="Y" horiz-adv-x="1094" d="M643 588v-588h-192v588l-449 846h213l332 -656l332 656h213z" />
<glyph unicode="Z" horiz-adv-x="1143" d="M1022 1434v-62l-666 -1208h697v-164h-963v61l664 1209h-643v164h911z" />
<glyph unicode="[" horiz-adv-x="866" d="M434 -137h289v-160h-477v1915h477v-160h-289v-1595z" />
<glyph unicode="\" horiz-adv-x="754" d="M41 1585h176l496 -1737h-176z" />
<glyph unicode="]" horiz-adv-x="866" d="M432 1458h-289v160h478v-1915h-478v160h289v1595z" />
<glyph unicode="^" horiz-adv-x="1042" d="M750 776l-230 520l-227 -520h-170l315 686h166l316 -686h-170z" />
<glyph unicode="_" horiz-adv-x="1221" d="M-20 -369h1261v-143h-1261v143z" />
<glyph unicode="`" horiz-adv-x="750" d="M377 1556l250 -301h-162l-363 301h275z" />
<glyph unicode="a" horiz-adv-x="1096" d="M170 1024q77 32 160.5 51t183.5 19q190 0 288.5 -90.5t98.5 -258.5v-487q0 -68 24.5 -95.5t75.5 -27.5q16 0 29 5q7 2 14 5v-133q-24 -12 -54.5 -17t-65.5 -5q-41 0 -74.5 12.5t-58 33.5t-40.5 49t-22 60h-4q-15 -26 -41 -56.5t-64 -56.5t-88 -43.5t-112 -17.5 q-77 0 -138 23.5t-103 66.5t-64.5 103t-22.5 133q0 75 30.5 137.5t87 108t137 71t181.5 25.5q33 0 63.5 -3t56 -7t44.5 -8t29 -7v91q0 54 -12.5 97t-41.5 72t-76 44.5t-116 15.5q-41 0 -83 -7t-81.5 -19t-75.5 -27t-65 -31v174zM471 137q46 0 85.5 12.5t71.5 34t55.5 51 t37.5 64.5v178q-20 8 -67 20.5t-109 12.5q-53 0 -101 -14t-84 -40.5t-57.5 -64.5t-21.5 -86q0 -37 11.5 -67.5t35 -53t59.5 -35t84 -12.5z" />
<glyph unicode="b" horiz-adv-x="1294" d="M700 -29q-63 0 -118.5 13.5t-102 34.5t-83 46t-62.5 48q-3 -22 -7.5 -42t-8.5 -36q-4 -18 -9 -35h-139q3 34 7 76q2 36 4.5 85t2.5 109v1225h181v-520q26 21 59.5 42t75.5 38t92 28t108 11q111 0 200 -42t151.5 -117t96.5 -178t34 -225t-34 -225t-96.5 -177.5 t-151.5 -116.5t-200 -42zM989 532q0 92 -22.5 166.5t-64.5 127t-102 80.5t-136 28q-59 0 -107.5 -15.5t-86.5 -37t-64.5 -45t-40.5 -39.5v-531q13 -15 39 -38t64 -44.5t87 -37t109 -15.5q76 0 136 28t102 80.5t64.5 126.5t22.5 166z" />
<glyph unicode="c" horiz-adv-x="1044" d="M113 532q0 124 41 227t115 177.5t176.5 116t226.5 41.5q69 0 136 -14t124 -40v-172q-51 26 -118 46t-142 20q-84 0 -151.5 -28t-115.5 -80.5t-74 -127t-26 -166.5t26 -166t74 -126.5t115.5 -80.5t151.5 -28q75 0 142 20t118 46v-172q-57 -26 -124 -40t-136 -14 q-124 0 -226.5 41.5t-176.5 115.5t-115 177.5t-41 226.5z" />
<glyph unicode="d" horiz-adv-x="1294" d="M985 0q-5 17 -9 35l-9 36t-9 42q-26 -23 -62.5 -48t-83 -46t-101.5 -34.5t-117 -13.5q-111 0 -200 42t-151.5 116.5t-96 177.5t-33.5 225t33.5 225t96 178t151.5 117t200 42q58 0 108 -11t92 -28t76 -38t60 -42v520h180v-1225q0 -60 2 -109t5 -85q3 -42 7 -76h-139z M631 934q-76 0 -136.5 -28t-102.5 -80.5t-64.5 -127t-22.5 -166.5t22.5 -166t64.5 -126.5t102.5 -80.5t136.5 -28q58 0 106.5 15t86 36.5t64.5 44.5t42 39v531q-14 15 -40 38.5t-63.5 45.5t-86.5 37.5t-109 15.5z" />
<glyph unicode="e" horiz-adv-x="1198" d="M621 1094q104 0 189.5 -34t146.5 -97.5t94.5 -154t33.5 -202.5q0 -19 -0.5 -37.5t-1.5 -33.5q-1 -18 -2 -35h-776q3 -86 27 -154.5t69 -116t111.5 -73t155.5 -25.5q54 0 105 9t97.5 24.5t88 35t77.5 40.5v-172q-35 -20 -78 -38t-91.5 -31t-101.5 -20.5t-108 -7.5 q-124 0 -224.5 40.5t-171.5 114t-109.5 176.5t-38.5 228q0 124 38 228t105.5 178.5t160.5 116t204 41.5zM618 934q-60 0 -109.5 -19.5t-88.5 -56t-65.5 -89t-39.5 -118.5h574q0 75 -22 129t-59 88t-86 50t-104 16z" />
<glyph unicode="f" horiz-adv-x="702" d="M51 1065h174v121q0 144 72 226.5t213 82.5q32 0 60.5 -3t51.5 -7q26 -4 50 -10v-156q-19 6 -41 10q-19 4 -43 7t-49 3q-65 0 -99 -33.5t-34 -117.5v-123h256v-152h-256v-913h-181v913h-174v152z" />
<glyph unicode="g" horiz-adv-x="1294" d="M584 -352q86 0 150.5 25t108 70.5t65.5 110.5t22 146v109q-26 -21 -60.5 -42t-76.5 -37.5t-91.5 -27t-107.5 -10.5q-111 0 -200.5 41t-151.5 114t-95.5 174t-33.5 222t33.5 222.5t96 174.5t151.5 113.5t200 40.5q70 0 128 -15.5t103.5 -38t79.5 -47.5t56 -43q3 23 7 44 t8 37q4 18 9 34h139q-4 -34 -7 -76q-3 -36 -5 -85.5t-2 -108.5v-795q0 -117 -36 -211.5t-103.5 -161t-164.5 -103t-218 -36.5q-70 0 -130.5 11.5t-109.5 28t-86 36t-61 35.5v174q20 -14 56 -35t85.5 -41t111 -34.5t130.5 -14.5zM305 543q0 -92 22.5 -165t64.5 -123 t102 -76.5t135 -26.5q59 0 107.5 15t86.5 36.5t65 44.5t42 39v512q-15 15 -41 38t-63.5 44.5t-86.5 37t-110 15.5q-75 0 -135 -26.5t-102 -77t-64.5 -123t-22.5 -164.5z" />
<glyph unicode="h" d="M891 0v684q0 58 -17 104.5t-48 79t-75 49.5t-98 17q-49 0 -94.5 -17t-83.5 -40.5t-66.5 -48.5t-43.5 -40v-788h-181v1495h181v-551q23 22 56.5 48.5t77 49t96 37.5t114.5 15q104 0 173.5 -36t111.5 -93.5t59.5 -129t17.5 -141.5v-694h-180z" />
<glyph unicode="i" horiz-adv-x="549" d="M184 1065h181v-1065h-181v1065zM164 1352q0 48 31 79t79 31q24 0 44.5 -8.5t35 -23t23 -34.5t8.5 -44q0 -48 -31.5 -79.5t-79.5 -31.5q-24 0 -44 8.5t-34.5 23t-23 35t-8.5 44.5z" />
<glyph unicode="j" horiz-adv-x="549" d="M365 -215q0 -74 -14.5 -129.5t-47 -93t-84 -56t-125.5 -18.5q-37 0 -65 5q-15 2 -27 5v156q8 -2 19 -3q18 -3 49 -3q27 0 48.5 5.5t36 21.5t22 44.5t7.5 73.5v1272h181v-1280zM164 1352q0 48 31 79t79 31q24 0 44.5 -8.5t35 -23t23 -34.5t8.5 -44q0 -48 -31.5 -79.5 t-79.5 -31.5q-24 0 -44 8.5t-34.5 23t-23 35t-8.5 44.5z" />
<glyph unicode="k" horiz-adv-x="1096" d="M184 1495h181v-987l450 557h232l-385 -449l423 -616h-217l-315 492l-188 -181v-311h-181v1495z" />
<glyph unicode="l" horiz-adv-x="653" d="M184 1495h181v-1219q0 -44 9 -72.5t26 -44.5t42.5 -22t57.5 -6q24 0 44 2.5t34 6.5q17 4 30 10v-156q-20 -7 -45 -12q-21 -5 -48.5 -8t-59.5 -3q-74 0 -125.5 20t-84 60t-47 99.5t-14.5 138.5v1206z" />
<glyph unicode="m" horiz-adv-x="1872" d="M365 0h-181v795q0 59 -2.5 108.5t-4.5 85.5q-4 42 -7 76h160q4 -16 8 -35q4 -17 8 -40t8 -52q22 22 54 49t74 51t93.5 40t112.5 16t109.5 -15t85.5 -40.5t63.5 -60.5t44.5 -75q13 17 43 49t76 63.5t107.5 55t136.5 23.5q98 0 164 -36t105.5 -93.5t56 -129t16.5 -141.5 v-694h-180v684q0 58 -15.5 104.5t-44 79t-69 49.5t-89.5 17q-48 0 -92.5 -19t-81.5 -44t-63.5 -50.5t-38.5 -38.5q3 -21 5.5 -43.5t2.5 -44.5v-694h-180v684q0 58 -15.5 104.5t-44 79t-68.5 49.5t-89 17q-46 0 -88.5 -16.5t-77.5 -40t-61.5 -47.5t-40.5 -39v-791z" />
<glyph unicode="n" d="M365 0h-181v795q0 59 -2.5 108.5t-4.5 85.5q-4 42 -7 76h160q4 -16 8 -36q4 -17 8 -41.5t8 -53.5q22 23 56.5 51t79 52t99.5 40.5t120 16.5q104 0 173.5 -36t111.5 -93.5t59.5 -129t17.5 -141.5v-694h-180v684q0 58 -17 104.5t-48 79t-75 49.5t-98 17q-51 0 -96.5 -16.5 t-83 -40t-65.5 -47.5t-43 -39v-791z" />
<glyph unicode="o" horiz-adv-x="1262" d="M305 532q0 -92 23 -166t65.5 -126.5t102.5 -80.5t135 -28q74 0 134 28t102.5 80.5t65.5 126.5t23 166t-23 166.5t-65.5 127t-102.5 80.5t-134 28q-75 0 -135 -28t-102.5 -80.5t-65.5 -127t-23 -166.5zM113 532q0 124 38 227t106.5 177.5t164 116t209.5 41.5t209.5 -41.5 t164 -116t106.5 -177.5t38 -227q0 -123 -38 -226.5t-106.5 -177.5t-164 -115.5t-209.5 -41.5t-209.5 41.5t-164 115.5t-106.5 177.5t-38 226.5z" />
<glyph unicode="p" horiz-adv-x="1294" d="M700 1094q111 0 200 -42t151.5 -117t96.5 -178t34 -225t-34 -225t-96.5 -177.5t-151.5 -116.5t-200 -42q-58 0 -108 11t-92 28t-75.5 38t-59.5 42v-602h-181v1307q0 59 -2.5 108.5t-4.5 85.5q-4 42 -7 76h139q5 -17 9 -35q4 -16 8.5 -36t7.5 -42q26 22 62.5 47t83 46 t102 35t118.5 14zM989 532q0 92 -22.5 166.5t-64.5 127t-102 80.5t-136 28q-59 0 -107.5 -15.5t-86.5 -37t-64.5 -45t-40.5 -39.5v-531q13 -15 39 -38t64 -44.5t87 -37t109 -15.5q76 0 136 28t102 80.5t64.5 126.5t22.5 166z" />
<glyph unicode="q" horiz-adv-x="1294" d="M594 1094q62 0 117 -14t101.5 -35t83 -46t62.5 -47q4 22 9 42l9 36q4 18 9 35h139q-4 -34 -7 -76q-3 -36 -5 -85.5t-2 -108.5v-1307h-180v602q-26 -21 -60 -42t-76 -38t-92 -28t-108 -11q-111 0 -200 42t-151.5 116.5t-96 177.5t-33.5 225t33.5 225t96 178t151.5 117 t200 42zM631 131q58 0 106.5 15t86 36.5t64.5 44.5t42 39v531q-14 15 -40 38.5t-63.5 45.5t-86.5 37.5t-109 15.5q-76 0 -136.5 -28t-102.5 -80.5t-64.5 -127t-22.5 -166.5t22.5 -166t64.5 -126.5t102.5 -80.5t136.5 -28z" />
<glyph unicode="r" horiz-adv-x="797" d="M184 795q0 59 -2.5 108.5t-4.5 85.5q-4 42 -7 76h158q5 -18 10 -39q5 -19 9.5 -44t8.5 -56h4q31 47 67 79t74 52t77.5 28.5t78.5 8.5q28 0 49.5 -4t37.5 -9q18 -5 32 -12v-184q-20 8 -44 14q-21 5 -49 9.5t-60 4.5q-61 0 -109 -20t-81 -44q-39 -28 -68 -63v-786h-181v795 z" />
<glyph unicode="s" horiz-adv-x="926" d="M631 285q0 41 -21.5 70.5t-56 53t-79.5 43t-91.5 40.5t-91 46t-79 59t-56 79.5t-21.5 107.5q0 69 26 126.5t72.5 98t111.5 63t142 22.5q47 0 89 -7t77 -18t63 -24.5t46 -26.5v-184q-53 43 -124 71.5t-146 30.5q-45 1 -77.5 -10t-54.5 -30t-32.5 -43t-10.5 -50 q0 -38 21.5 -66t56 -50.5t79 -42.5t91 -42t91.5 -49t79.5 -63.5t56 -85.5t21.5 -115q0 -73 -28 -132t-79 -100t-121.5 -63.5t-154.5 -22.5q-51 0 -98.5 9t-87.5 22.5t-71 30t-50 30.5v179q30 -26 67 -46.5t77 -35.5t82 -23t83 -8q46 0 83 12t62.5 33t39.5 49.5t14 61.5z" />
<glyph unicode="t" horiz-adv-x="743" d="M225 1065v235l181 41v-276h256v-152h-256v-634q0 -85 34 -118.5t99 -33.5q25 0 49 3t43 7q22 4 41 10v-155q-24 -7 -50 -11q-23 -4 -51.5 -7t-60.5 -3q-141 0 -213 82.5t-72 227.5v632h-174v152h174z" />
<glyph unicode="u" d="M883 1065h180v-795q0 -60 2 -109t5 -85q3 -42 7 -76h-159q-6 15 -10 35q-9 34 -17 94q-23 -22 -56.5 -49.5t-77.5 -51.5t-99 -40.5t-119 -16.5q-105 0 -174.5 36t-111.5 93.5t-59.5 129t-17.5 141.5v694h180v-684q0 -59 17 -105t48.5 -78.5t75 -49.5t97.5 -17 q50 0 95.5 16.5t83.5 39t66.5 47t43.5 40.5v791z" />
<glyph unicode="v" horiz-adv-x="1040" d="M549 -16h-57l-472 1081h193l307 -750l307 750h193z" />
<glyph unicode="w" horiz-adv-x="1634" d="M487 -16h-57l-410 1081h189l260 -725l317 741h62l317 -741l260 725h189l-410 -1081h-57l-330 770z" />
<glyph unicode="x" horiz-adv-x="1057" d="M627 553l401 -553h-217l-283 414l-282 -414h-217l401 553l-373 512h217l254 -375l254 375h217z" />
<glyph unicode="y" horiz-adv-x="1012" d="M10 -319q12 -6 25 -10q11 -4 26.5 -6.5t32.5 -2.5q46 0 89 16.5t83 56.5t77 107.5t71 169.5l14 43l-418 1010h201l305 -797l268 797h197l-379 -1053q-41 -116 -89.5 -212.5t-107 -165.5t-129 -107.5t-157.5 -38.5q-21 0 -41 3t-35 8q-18 5 -33 12v170v0z" />
<glyph unicode="z" horiz-adv-x="942" d="M594 913h-512v152h768v-61l-533 -852h553v-152h-809v61z" />
<glyph unicode="{" horiz-adv-x="842" d="M123 731q76 0 122.5 12.5t71.5 35t33 54.5t8 70q0 57 -11 115t-23.5 116t-23.5 115t-11 113q0 51 14.5 97.5t58.5 82t124.5 56t211.5 20.5v-154q-53 0 -94 -4.5t-68.5 -19.5t-42 -42.5t-14.5 -72.5q0 -42 9.5 -94t21.5 -107.5t21.5 -111t9.5 -103.5q0 -57 -15.5 -100 t-43.5 -72t-67 -46t-85 -23v-15q100 -17 155.5 -74.5t55.5 -166.5q0 -48 -9.5 -103.5t-21.5 -110.5t-21.5 -106.5t-9.5 -93.5q0 -46 14.5 -73.5t42.5 -42t69 -19t93 -4.5v-156q-131 0 -211.5 21t-124.5 56.5t-58.5 82.5t-14.5 98q0 55 11 112t23.5 115t23.5 115.5t11 114.5 q0 38 -8 70t-33 55t-71.5 36t-122.5 13v139z" />
<glyph unicode="|" horiz-adv-x="684" d="M246 1659h192v-2007h-192v2007z" />
<glyph unicode="}" horiz-adv-x="842" d="M719 592q-76 0 -122.5 -13t-71.5 -36t-33.5 -55t-8.5 -70q0 -57 11 -114.5t24 -115.5t24 -115t11 -112q0 -51 -14.5 -98t-58.5 -82.5t-124.5 -56.5t-212.5 -21v156q52 0 93 4.5t69 19t42.5 42t14.5 73.5q0 42 -9.5 93.5t-21 106.5t-21 110.5t-9.5 103.5q0 109 55.5 166.5 t155.5 74.5v15q-46 6 -85 23t-67 46t-43.5 72t-15.5 100q0 48 9.5 103.5t21 111t21 107.5t9.5 94q0 45 -14.5 72.5t-42 42.5t-68.5 19.5t-94 4.5v154q132 0 212.5 -20.5t124.5 -56t58.5 -82t14.5 -97.5q0 -56 -11 -113t-24 -115t-24 -116t-11 -115q0 -38 8.5 -70t33.5 -54.5 t71.5 -35t122.5 -12.5v-139z" />
<glyph unicode="~" horiz-adv-x="1399" d="M928 444q-48 0 -90.5 14.5t-81.5 35.5t-75 46.5t-71 46.5t-70.5 35.5t-72.5 14.5q-71 0 -113.5 -52.5t-42.5 -140.5h-147q0 78 21 144t60.5 114t95.5 74.5t126 26.5q51 0 94.5 -14.5t82.5 -35.5t74 -46.5t69.5 -46.5t70 -35.5t74.5 -14.5q71 0 113 52.5t42 140.5h148 q0 -78 -22 -144t-62 -114t-96.5 -74.5t-126.5 -26.5z" />
<glyph unicode="&#xa1;" horiz-adv-x="539" d="M373 -369h-209l20 957h168zM416 946q0 -32 -11.5 -58.5t-31 -45.5t-47 -30t-58.5 -11q-32 0 -58.5 11t-45.5 30t-30 45.5t-11 58.5q0 31 11 58.5t30 47t45.5 31t58.5 11.5q31 0 58.5 -11.5t47 -31t31 -47t11.5 -58.5z" />
<glyph unicode="&#xa2;" horiz-adv-x="1044" d="M113 532q0 120 38.5 220.5t108 174t167 116.5t214.5 49l43 227h147l-43 -236q39 -8 74.5 -17.5t69.5 -25.5v-172q-51 26 -118 46t-142 20q-84 0 -151.5 -28t-115.5 -80.5t-74 -127t-26 -166.5t26 -166t74 -126.5t115.5 -80.5t151.5 -28q75 0 142 20t118 46v-172 q-57 -26 -124 -40t-136 -14q-50 0 -92 6l-37 -202h-148l45 239q-75 31 -135.5 81t-103 116.5t-65.5 147.5t-23 173z" />
<glyph unicode="&#xa3;" horiz-adv-x="1153" d="M123 782h172q-14 56 -23.5 120t-9.5 145q0 102 34 179.5t92.5 130t137 79t168.5 26.5q58 0 105.5 -10.5t82.5 -23.5q40 -15 72 -33v-176q-34 20 -75 37q-35 14 -83.5 26t-105.5 12q-50 0 -91.5 -17t-71.5 -50t-47 -80.5t-17 -108.5q0 -80 8 -141t21 -115h372v-143h-338 q8 -38 12.5 -80.5t4.5 -91.5q0 -72 -21 -123.5t-46 -85.5q-29 -40 -66 -65l4 -9q12 3 27 6q13 2 30.5 4.5t40.5 2.5q42 0 77.5 -6t70.5 -12.5t72 -12.5t81 -6q53 0 93 12t68 27q33 17 56 39v-175q-20 -23 -48 -41q-24 -15 -61 -27.5t-87 -12.5q-69 0 -119.5 12.5t-94.5 28 t-87.5 28t-98.5 12.5q-46 0 -86 -13t-71 -29q-36 -18 -66 -41l-68 110q64 39 115 89q21 21 42 47t37 56.5t26 65t10 72.5q0 60 -11 112.5t-26 106.5h-213v143z" />
<glyph unicode="&#xa4;" horiz-adv-x="1286" d="M201 680q0 142 75 252l-153 155l113 113l153 -156q54 38 118 58t136 20q71 0 134.5 -20t117.5 -58l156 156l112 -113l-155 -155q37 -54 57 -117.5t20 -134.5t-20 -135t-55 -117l153 -156l-112 -112l-156 153q-110 -75 -252 -75q-72 0 -136 20t-118 55l-153 -153l-113 112 l153 154q-75 110 -75 254zM375 680q0 -63 19.5 -116.5t55 -93t85 -61.5t108.5 -22t108.5 22t85 61.5t55 93t19.5 116.5t-19.5 116.5t-55 93t-85 61.5t-108.5 22t-108.5 -22t-85 -61.5t-55 -93t-19.5 -116.5z" />
<glyph unicode="&#xa5;" horiz-adv-x="1094" d="M700 698h289v-137h-346v-151h346v-138h-346v-272h-192v272h-347v138h347v151h-347v137h287l-389 736h213l332 -658l332 658h213z" />
<glyph unicode="&#xa6;" horiz-adv-x="684" d="M246 535h192v-883h-192v883zM246 1659h192v-883h-192v883z" />
<glyph unicode="&#xa7;" horiz-adv-x="1159" d="M995 492q0 -88 -38.5 -157.5t-104.5 -117.5q31 -24 57 -52.5t45 -62t30 -73t11 -86.5q0 -86 -37 -154.5t-102 -117.5t-152.5 -75t-187.5 -26q-58 0 -112 9t-100.5 21.5t-82.5 27t-57 26.5v190q25 -21 62.5 -42t83 -38t97 -27.5t105.5 -10.5q61 0 113 15.5t89 43t58 66.5 t21 86q0 52 -26.5 90.5t-70 69.5t-99 57.5t-114 54.5t-114 60t-99 74t-70 97t-26.5 129q0 93 41.5 161.5t114.5 113.5q-34 23 -62.5 50.5t-49.5 61t-32.5 74t-11.5 88.5q0 81 32.5 145t90.5 108.5t137.5 67.5t173.5 23q53 0 102 -7t91 -17.5t75 -23.5t56 -25v-195 q-23 18 -56.5 38t-75.5 36.5t-90 27.5t-100 11q-55 0 -98.5 -13t-73.5 -36.5t-45.5 -56t-15.5 -71.5q0 -48 26.5 -85t70 -67t99 -57t113.5 -55.5t113.5 -62.5t99 -77.5t70 -100.5t26.5 -133zM793 485q0 53 -28 92.5t-73.5 71t-103.5 59t-117 56.5q-46 -29 -70 -76.5 t-24 -105.5q0 -52 29.5 -90t77.5 -69.5t108 -60t121 -59.5q37 32 58.5 78.5t21.5 103.5z" />
<glyph unicode="&#xa8;" horiz-adv-x="858" d="M123 1352q0 48 31 79t79 31q24 0 44.5 -8.5t35 -23t23 -34.5t8.5 -44q0 -48 -31.5 -79.5t-79.5 -31.5q-24 0 -44 8.5t-34.5 23t-23 35t-8.5 44.5zM514 1352q0 24 8.5 44t23 34.5t35 23t44.5 8.5q48 0 79 -31t31 -79q0 -24 -8.5 -44.5t-23 -35t-34.5 -23t-44 -8.5 q-48 0 -79.5 31.5t-31.5 79.5z" />
<glyph unicode="&#xa9;" horiz-adv-x="1778" d="M143 717q0 103 26.5 198t75 178t117 151t151 116.5t178 75t198.5 26.5t198 -26.5t178 -75t151 -116.5t116.5 -151t75 -178t26.5 -198t-26.5 -198.5t-75 -178t-116.5 -151t-151 -117t-178 -75t-198 -26.5q-155 0 -290.5 58.5t-237 160t-160 237t-58.5 290.5zM301 717 q0 -126 46.5 -236t126 -192t186.5 -129t229 -47q121 0 228 47t187 129t126.5 192t46.5 236t-46.5 236t-126.5 192t-187 129t-228 47q-122 0 -229 -47t-186.5 -129t-126 -192t-46.5 -236zM520 717q0 93 28.5 170t80 132t123.5 85.5t159 30.5q60 0 118.5 -15t109.5 -43v-159 q-24 16 -51 31.5t-56 27.5t-59 19.5t-60 7.5q-55 0 -100 -20t-76.5 -57.5t-49 -90.5t-17.5 -119t17.5 -119t49 -90.5t76.5 -57.5t100 -20q29 0 59 7t59 19t56.5 28t51.5 34v-162q-51 -28 -109.5 -42.5t-118.5 -14.5q-87 0 -159 30.5t-123.5 85.5t-80 132t-28.5 170z" />
<glyph unicode="&#xaa;" horiz-adv-x="930" d="M782 758q-24 -11 -46.5 -16t-47.5 -5q-46 0 -79 22.5t-50 53.5q-13 -16 -31 -32t-41.5 -28.5t-53 -20t-64.5 -7.5q-53 0 -95 15.5t-71 44t-44.5 68.5t-15.5 89q0 50 21 92.5t59 73.5t92.5 48.5t122.5 17.5q32 0 59.5 -3t47.5 -8v41q0 63 -31.5 97t-110.5 34 q-51 0 -107 -19.5t-101 -41.5v139q54 23 110.5 36t122.5 13q128 0 195 -60.5t67 -172.5v-309q0 -39 12.5 -53.5t36.5 -14.5q16 0 29 5q7 2 14 5v-104zM401 854q54 0 90.5 26t53.5 64v109q-16 6 -41 10t-55 4q-31 0 -58.5 -8t-48.5 -23.5t-33 -37.5t-12 -50q0 -40 25 -67 t79 -27zM143 463v115h643v-115h-643z" />
<glyph unicode="&#xab;" horiz-adv-x="1217" d="M559 215v-174l-467 410v157l467 410v-174l-291 -314zM1012 215v-174l-467 410v157l467 410v-174l-291 -314z" />
<glyph unicode="&#xac;" horiz-adv-x="1419" d="M1255 309h-176v400h-956v176h1132v-576z" />
<glyph unicode="&#xae;" horiz-adv-x="1778" d="M143 717q0 103 26.5 198t75 178t117 151t151 116.5t178 75t198.5 26.5t198 -26.5t178 -75t151 -116.5t116.5 -151t75 -178t26.5 -198t-26.5 -198.5t-75 -178t-116.5 -151t-151 -117t-178 -75t-198 -26.5q-155 0 -290.5 58.5t-237 160t-160 237t-58.5 290.5zM301 717 q0 -126 46.5 -236t126 -192t186.5 -129t229 -47q121 0 228 47t187 129t126.5 192t46.5 236t-46.5 236t-126.5 192t-187 129t-228 47q-122 0 -229 -47t-186.5 -129t-126 -192t-46.5 -236zM643 309v799h223q69 0 124.5 -17.5t93.5 -50t58.5 -78t20.5 -100.5q0 -72 -37 -129 t-102 -86l246 -338h-176l-209 305h-101v-305h-141zM1016 862q0 59 -38.5 90t-111.5 31h-82v-244h82q73 0 111.5 31.5t38.5 91.5z" />
<glyph unicode="&#xaf;" horiz-adv-x="827" d="M705 1296h-582v146h582v-146z" />
<glyph unicode="&#xb0;" horiz-adv-x="797" d="M82 1145q0 66 24.5 124t67 100.5t100 67.5t123.5 25t124 -25t101 -67.5t68 -100.5t25 -124t-25 -123.5t-68 -100.5t-101 -67.5t-124 -24.5t-123.5 24.5t-100 67.5t-67 100.5t-24.5 123.5zM231 1145q0 -36 12.5 -67.5t34.5 -54.5t52.5 -36.5t66.5 -13.5q37 0 68 13.5 t53 36.5t34.5 54.5t12.5 67.5q0 37 -12.5 68.5t-34.5 55t-53 37t-68 13.5q-36 0 -66.5 -13.5t-52.5 -37t-34.5 -55t-12.5 -68.5z" />
<glyph unicode="&#xb1;" horiz-adv-x="1460" d="M807 1180v-365h448v-156h-448v-366h-156v366h-446v156h446v365h156zM1255 0h-1050v156h1050v-156z" />
<glyph unicode="&#xb2;" horiz-adv-x="752" d="M147 1384q48 31 102.5 47.5t106.5 16.5q55 0 100 -17t77.5 -47t50.5 -72t18 -93q0 -63 -32 -129.5t-101 -147.5l-119 -139h279v-131h-506v65l207 246q59 69 92 126t33 108q0 49 -31.5 74.5t-79.5 25.5q-27 0 -52.5 -8t-50.5 -20.5t-48.5 -29t-45.5 -34.5v159z" />
<glyph unicode="&#xb3;" horiz-adv-x="725" d="M455 909q0 57 -57 92t-162 35v64l145 207h-256v127h461v-64l-160 -227q38 -12 70.5 -34t56 -52t36.5 -67.5t13 -80.5q0 -53 -18.5 -99t-54.5 -80t-87.5 -53.5t-117.5 -19.5q-27 0 -55 4t-54 10.5t-50 14.5t-42 16v144q46 -23 98.5 -39t95.5 -16q31 0 56.5 9t43.5 25 t28 37.5t10 46.5z" />
<glyph unicode="&#xb4;" horiz-adv-x="770" d="M647 1556l-362 -301h-162l250 301h274z" />
<glyph unicode="&#xb5;" horiz-adv-x="1286" d="M1071 1065v-807q0 -68 24.5 -95.5t75.5 -27.5q16 0 29 5q7 2 14 5v-133q-24 -12 -54.5 -17t-65.5 -5q-82 0 -132.5 41t-62.5 104h-4q-19 -24 -51.5 -53t-77 -53.5t-100 -41t-119.5 -16.5q-56 0 -101.5 10.5t-80.5 28.5v-377h-181v1432h181v-684q0 -59 17 -105t48 -78.5 t74.5 -49.5t97.5 -17q50 0 95.5 16.5t83.5 39t66.5 47t43.5 40.5v791h180z" />
<glyph unicode="&#xb6;" horiz-adv-x="1382" d="M1178 -512h-160v1802h-207v-1802h-160v1036h-10q-125 0 -221.5 33t-162.5 93t-100 144t-34 185t34 185t100 144t162.5 93t221.5 33h537v-1946z" />
<glyph unicode="&#xb7;" horiz-adv-x="621" d="M164 692q0 31 11 58t31 46.5t46.5 30.5t58.5 11q31 0 58 -11t46.5 -30.5t30.5 -46.5t11 -58q0 -32 -11 -58.5t-30.5 -46.5t-46.5 -31t-58 -11q-32 0 -58.5 11t-46.5 31t-31 46.5t-11 58.5z" />
<glyph unicode="&#xb8;" horiz-adv-x="639" d="M123 -367q18 -10 40 -17q18 -7 42.5 -12t50.5 -5q51 0 80 22.5t29 61.5q0 48 -47.5 77t-149.5 29l119 211h139l-84 -133q38 -8 71 -23.5t57 -38.5t38 -53.5t14 -68.5q0 -50 -22 -87.5t-58.5 -62.5t-83.5 -38t-96 -13q-29 0 -54 3.5t-44 8.5q-22 5 -41 12v127z" />
<glyph unicode="&#xb9;" horiz-adv-x="520" d="M397 1434v-762h-139v633h-135v129h274z" />
<glyph unicode="&#xba;" horiz-adv-x="977" d="M145 1094q0 81 25.5 149t71 116.5t108.5 75.5t139 27q77 0 140.5 -27t109 -75.5t70.5 -116.5t25 -149q0 -83 -25 -150.5t-70.5 -116.5t-109 -75.5t-140.5 -26.5q-76 0 -139 26.5t-108.5 75.5t-71 116.5t-25.5 150.5zM299 1094q0 -56 13.5 -101t38.5 -76.5t60 -48 t78 -16.5q44 0 79.5 16.5t60 48t38 76.5t13.5 101q0 55 -13.5 99.5t-38 76t-60 48.5t-79.5 17q-43 0 -78 -17t-60 -48.5t-38.5 -76t-13.5 -99.5zM143 463v115h691v-115h-691z" />
<glyph unicode="&#xbb;" horiz-adv-x="1217" d="M205 844v174l467 -410v-157l-467 -410v174l291 315zM657 844v174l467 -410v-157l-467 -410v174l291 315z" />
<glyph unicode="&#xbc;" horiz-adv-x="1518" d="M397 1434v-762h-139v633h-135v129h274zM999 1462h142l-707 -1491h-141zM803 215l424 561h65v-495h103v-121h-103v-160h-141v160h-348v55zM1151 281v231l-178 -231h178z" />
<glyph unicode="&#xbd;" horiz-adv-x="1616" d="M397 1434v-762h-139v633h-135v129h274zM999 1462h142l-707 -1491h-141zM1012 713q48 31 102.5 47t108.5 16t98.5 -17t76.5 -47.5t50 -73t18 -93.5q0 -62 -32.5 -127.5t-100.5 -147.5l-116 -139h276v-131h-506v66l207 245q59 69 92 125.5t33 106.5q0 51 -30.5 76.5 t-80.5 25.5q-54 0 -102.5 -28.5t-93.5 -65.5v162z" />
<glyph unicode="&#xbe;" horiz-adv-x="1665" d="M455 909q0 57 -57 92t-162 35v64l145 207h-256v127h461v-64l-160 -227q38 -12 70.5 -34t56 -52t36.5 -67.5t13 -80.5q0 -53 -18.5 -99t-54.5 -80t-87.5 -53.5t-117.5 -19.5q-27 0 -55 4t-54 10.5t-50 14.5t-42 16v144q46 -23 98.5 -39t95.5 -16q31 0 56.5 9t43.5 25 t28 37.5t10 46.5zM1147 1462h141l-706 -1491h-142zM950 215l424 561h66v-495h102v-121h-102v-160h-142v160h-348v55zM1298 281v231l-178 -231h178z" />
<glyph unicode="&#xbf;" horiz-adv-x="909" d="M627 588q3 -22 4.5 -40.5t1.5 -37.5q0 -73 -22.5 -128.5t-56.5 -101t-73.5 -84t-73.5 -77t-56.5 -80t-22.5 -92.5q0 -84 62 -129t165 -45q68 0 125 16.5t106 38.5v-172q-71 -28 -135 -40.5t-127 -12.5q-87 0 -161 23.5t-127 66.5t-83 104t-30 137q0 75 26 129t65.5 98 t85.5 82.5t85.5 82.5t65.5 98t26 129v17t-2 18h152zM698 946q0 -32 -11 -58.5t-31 -45.5t-47 -30t-58 -11q-32 0 -58.5 11t-45.5 30t-30 45.5t-11 58.5q0 31 11 58.5t30 47t45.5 31t58.5 11.5q31 0 58 -11.5t47 -31t31 -47t11 -58.5z" />
<glyph unicode="&#xc0;" horiz-adv-x="1303" d="M2 0zM1300 0h-204l-125 305h-641l-123 -305h-205l612 1450h74zM397 469h506l-252 621zM623 1914l250 -301h-162l-363 301h275z" />
<glyph unicode="&#xc1;" horiz-adv-x="1303" d="M2 0zM1300 0h-204l-125 305h-641l-123 -305h-205l612 1450h74zM397 469h506l-252 621zM954 1914l-362 -301h-162l250 301h274z" />
<glyph unicode="&#xc2;" horiz-adv-x="1303" d="M2 0zM1300 0h-204l-125 305h-641l-123 -305h-205l612 1450h74zM397 469h506l-252 621zM747 1914l250 -301h-182l-164 197l-164 -197h-182l250 301h192z" />
<glyph unicode="&#xc3;" horiz-adv-x="1303" d="M2 0zM1300 0h-204l-125 305h-641l-123 -305h-205l612 1450h74zM397 469h506l-252 621zM1026 1903q0 -55 -13 -107t-41 -92.5t-72.5 -65t-106.5 -24.5q-41 0 -71 11t-54 28t-43.5 36t-38.5 36t-40.5 28t-49.5 11q-30 0 -48 -14.5t-27.5 -36.5t-13.5 -48.5t-5 -50.5h-125 q0 53 13 104.5t40.5 92.5t71 66.5t104.5 25.5q39 0 69.5 -11t54.5 -28t44 -36t40 -36t41 -28t48 -11q30 0 48.5 16.5t29 39.5t15 49t6.5 45h124z" />
<glyph unicode="&#xc4;" horiz-adv-x="1303" d="M2 0zM1300 0h-204l-125 305h-641l-123 -305h-205l612 1450h74zM397 469h506l-252 621zM344 1725q0 48 31 79t79 31q24 0 44.5 -8.5t35 -23t23 -34.5t8.5 -44q0 -48 -31.5 -79.5t-79.5 -31.5q-24 0 -44 8.5t-34.5 23t-23 35t-8.5 44.5zM735 1725q0 24 8.5 44t23 34.5 t35 23t44.5 8.5q48 0 79 -31t31 -79q0 -24 -8.5 -44.5t-23 -35t-34.5 -23t-44 -8.5q-48 0 -79.5 31.5t-31.5 79.5z" />
<glyph unicode="&#xc5;" horiz-adv-x="1303" d="M2 0zM1300 0h-204l-125 305h-641l-123 -305h-205l612 1450h74zM397 469h506l-252 621zM539 1616q0 -57 30.5 -90t81.5 -33t82 33t31 90q0 55 -31 87.5t-82 32.5t-81.5 -32.5t-30.5 -87.5zM416 1616q0 52 17 95.5t48 74.5t74.5 48t95.5 17t95.5 -17t75 -48t48.5 -74.5 t17 -95.5q0 -53 -17 -97t-48.5 -75.5t-75 -48.5t-95.5 -17t-95.5 17t-74.5 48.5t-48 75.5t-17 97z" />
<glyph unicode="&#xc6;" horiz-adv-x="1827" d="M1108 164h606v-164h-799v305h-505l-181 -305h-227l875 1434h837v-164h-606v-420h545v-164h-545v-522zM915 469v682l-407 -682h407z" />
<glyph unicode="&#xc7;" horiz-adv-x="1319" d="M113 0zM113 717q0 164 50 301t141.5 235.5t218.5 153.5t282 55q108 0 207.5 -24.5t183.5 -67.5v-205q-35 24 -77 46.5t-91 40t-104 28t-115 10.5q-111 0 -202 -40.5t-155.5 -115t-99.5 -180.5t-35 -237t35 -237t99.5 -181t155.5 -115.5t202 -40.5q60 0 115 10.5t104 28 t91 40t77 46.5v-205q-84 -43 -183.5 -67.5t-207.5 -24.5q-155 0 -282 55t-218.5 154t-141.5 236t-50 301zM541 -367q18 -10 40 -17q18 -7 42.5 -12t50.5 -5q51 0 80 22.5t29 61.5q0 48 -47.5 77t-149.5 29l119 211h139l-84 -133q38 -8 71 -23.5t57 -38.5t38 -53.5t14 -68.5 q0 -50 -22 -87.5t-58.5 -62.5t-83.5 -38t-96 -13q-29 0 -54 3.5t-44 8.5q-22 5 -41 12v127z" />
<glyph unicode="&#xc8;" horiz-adv-x="1147" d="M205 0zM397 164h607v-164h-799v1434h799v-164h-607v-420h545v-164h-545v-522zM549 1898l250 -301h-162l-363 301h275z" />
<glyph unicode="&#xc9;" horiz-adv-x="1147" d="M205 0zM397 164h607v-164h-799v1434h799v-164h-607v-420h545v-164h-545v-522zM921 1898l-362 -301h-162l250 301h274z" />
<glyph unicode="&#xca;" horiz-adv-x="1147" d="M205 0zM397 164h607v-164h-799v1434h799v-164h-607v-420h545v-164h-545v-522zM694 1898l250 -301h-182l-164 197l-164 -197h-182l250 301h192z" />
<glyph unicode="&#xcb;" horiz-adv-x="1147" d="M205 0zM397 164h607v-164h-799v1434h799v-164h-607v-420h545v-164h-545v-522zM293 1708q0 48 31 79t79 31q24 0 44.5 -8.5t35 -23t23 -34.5t8.5 -44q0 -48 -31.5 -79.5t-79.5 -31.5q-24 0 -44 8.5t-34.5 23t-23 35t-8.5 44.5zM684 1708q0 24 8.5 44t23 34.5t35 23 t44.5 8.5q48 0 79 -31t31 -79q0 -24 -8.5 -44.5t-23 -35t-34.5 -23t-44 -8.5q-48 0 -79.5 31.5t-31.5 79.5z" />
<glyph unicode="&#xcc;" horiz-adv-x="602" d="M0 0zM205 1434h192v-1434h-192v1434zM253 1898l250 -301h-162l-363 301h275z" />
<glyph unicode="&#xcd;" horiz-adv-x="602" d="M101 0zM205 1434h192v-1434h-192v1434zM625 1898l-362 -301h-162l250 301h274z" />
<glyph unicode="&#xce;" horiz-adv-x="602" d="M0 0zM205 1434h192v-1434h-192v1434zM398 1898l250 -301h-182l-164 197l-164 -197h-182l250 301h192z" />
<glyph unicode="&#xcf;" horiz-adv-x="602" d="M0 0zM205 1434h192v-1434h-192v1434zM-3 1708q0 48 31 79t79 31q24 0 44.5 -8.5t35 -23t23 -34.5t8.5 -44q0 -48 -31.5 -79.5t-79.5 -31.5q-24 0 -44 8.5t-34.5 23t-23 35t-8.5 44.5zM388 1708q0 24 8.5 44t23 34.5t35 23t44.5 8.5q48 0 79 -31t31 -79q0 -24 -8.5 -44.5 t-23 -35t-34.5 -23t-44 -8.5q-48 0 -79.5 31.5t-31.5 79.5z" />
<glyph unicode="&#xd0;" horiz-adv-x="1468" d="M225 561h-184v150h184v723h340q204 0 353 -51.5t246.5 -145.5t144.5 -226.5t47 -293.5t-47 -293.5t-144.5 -226.5t-246.5 -145.5t-353 -51.5h-340v561zM565 164q149 0 259.5 37t183 108t108 174t35.5 234t-35.5 234t-108 174t-183 108t-259.5 37h-147v-559h295v-150h-295 v-397h147z" />
<glyph unicode="&#xd1;" horiz-adv-x="1610" d="M205 0zM1343 -16l-946 1048v-1032h-192v1450h61l946 -1051v1035h193v-1450h-62zM1179 1878q0 -55 -13 -107t-41 -92.5t-72.5 -65t-106.5 -24.5q-41 0 -71 11t-54 28t-43.5 36t-38.5 36t-40.5 28t-49.5 11q-30 0 -48 -14.5t-27.5 -36.5t-13.5 -48.5t-5 -50.5h-125 q0 53 13 104.5t40.5 92.5t71 66.5t104.5 25.5q39 0 69.5 -11t54.5 -28t44 -36t40 -36t41 -28t48 -11q30 0 48.5 16.5t29 39.5t15 49t6.5 45h124z" />
<glyph unicode="&#xd2;" horiz-adv-x="1642" d="M113 0zM317 717q0 -130 36.5 -236t103 -181t159.5 -116t205 -41t205 41t159.5 116t103 181t36.5 236t-36.5 235.5t-103 180.5t-159.5 116t-205 41t-205 -41t-159.5 -116t-103 -180.5t-36.5 -235.5zM113 717q0 164 52.5 301t146 235.5t223.5 153.5t286 55t286.5 -55 t224 -153.5t146 -235.5t52.5 -301t-52.5 -301t-146 -236t-224 -154t-286.5 -55t-286 55t-223.5 154t-146 236t-52.5 301zM793 1927l250 -301h-162l-363 301h275z" />
<glyph unicode="&#xd3;" horiz-adv-x="1642" d="M113 0zM317 717q0 -130 36.5 -236t103 -181t159.5 -116t205 -41t205 41t159.5 116t103 181t36.5 236t-36.5 235.5t-103 180.5t-159.5 116t-205 41t-205 -41t-159.5 -116t-103 -180.5t-36.5 -235.5zM113 717q0 164 52.5 301t146 235.5t223.5 153.5t286 55t286.5 -55 t224 -153.5t146 -235.5t52.5 -301t-52.5 -301t-146 -236t-224 -154t-286.5 -55t-286 55t-223.5 154t-146 236t-52.5 301zM1124 1927l-362 -301h-162l250 301h274z" />
<glyph unicode="&#xd4;" horiz-adv-x="1642" d="M113 0zM317 717q0 -130 36.5 -236t103 -181t159.5 -116t205 -41t205 41t159.5 116t103 181t36.5 236t-36.5 235.5t-103 180.5t-159.5 116t-205 41t-205 -41t-159.5 -116t-103 -180.5t-36.5 -235.5zM113 717q0 164 52.5 301t146 235.5t223.5 153.5t286 55t286.5 -55 t224 -153.5t146 -235.5t52.5 -301t-52.5 -301t-146 -236t-224 -154t-286.5 -55t-286 55t-223.5 154t-146 236t-52.5 301zM917 1927l250 -301h-182l-164 197l-164 -197h-182l250 301h192z" />
<glyph unicode="&#xd5;" horiz-adv-x="1642" d="M113 0zM317 717q0 -130 36.5 -236t103 -181t159.5 -116t205 -41t205 41t159.5 116t103 181t36.5 236t-36.5 235.5t-103 180.5t-159.5 116t-205 41t-205 -41t-159.5 -116t-103 -180.5t-36.5 -235.5zM113 717q0 164 52.5 301t146 235.5t223.5 153.5t286 55t286.5 -55 t224 -153.5t146 -235.5t52.5 -301t-52.5 -301t-146 -236t-224 -154t-286.5 -55t-286 55t-223.5 154t-146 236t-52.5 301zM1196 1915q0 -55 -13 -107t-41 -92.5t-72.5 -65t-106.5 -24.5q-41 0 -71 11t-54 28t-43.5 36t-38.5 36t-40.5 28t-49.5 11q-30 0 -48 -14.5 t-27.5 -36.5t-13.5 -48.5t-5 -50.5h-125q0 53 13 104.5t40.5 92.5t71 66.5t104.5 25.5q39 0 69.5 -11t54.5 -28t44 -36t40 -36t41 -28t48 -11q30 0 48.5 16.5t29 39.5t15 49t6.5 45h124z" />
<glyph unicode="&#xd6;" horiz-adv-x="1642" d="M113 0zM317 717q0 -130 36.5 -236t103 -181t159.5 -116t205 -41t205 41t159.5 116t103 181t36.5 236t-36.5 235.5t-103 180.5t-159.5 116t-205 41t-205 -41t-159.5 -116t-103 -180.5t-36.5 -235.5zM113 717q0 164 52.5 301t146 235.5t223.5 153.5t286 55t286.5 -55 t224 -153.5t146 -235.5t52.5 -301t-52.5 -301t-146 -236t-224 -154t-286.5 -55t-286 55t-223.5 154t-146 236t-52.5 301zM514 1737q0 48 31 79t79 31q24 0 44.5 -8.5t35 -23t23 -34.5t8.5 -44q0 -48 -31.5 -79.5t-79.5 -31.5q-24 0 -44 8.5t-34.5 23t-23 35t-8.5 44.5z M905 1737q0 24 8.5 44t23 34.5t35 23t44.5 8.5q48 0 79 -31t31 -79q0 -24 -8.5 -44.5t-23 -35t-34.5 -23t-44 -8.5q-48 0 -79.5 31.5t-31.5 79.5z" />
<glyph unicode="&#xd7;" horiz-adv-x="1331" d="M233 1133l433 -433l432 435l110 -111l-432 -434l432 -432l-110 -111l-432 434l-433 -432l-110 111l432 430l-432 432z" />
<glyph unicode="&#xd8;" horiz-adv-x="1642" d="M113 717q0 164 52.5 301t146 235.5t223.5 153.5t286 55q121 0 226 -33.5t192 -95.5l107 129h184l-184 -223q88 -99 136 -231t48 -291q0 -164 -52.5 -301t-146 -236t-224 -154t-286.5 -55q-122 0 -226.5 32.5t-191.5 94.5l-106 -127h-184l184 224q-88 99 -136 231t-48 291 zM317 717q0 -113 27 -207t78 -166l700 848q-62 48 -137.5 73t-163.5 25q-112 0 -205 -41t-159.5 -116t-103 -180.5t-36.5 -235.5zM1325 717q0 111 -27.5 204.5t-76.5 165.5l-701 -845q62 -48 137.5 -73.5t163.5 -25.5q112 0 205 41t159.5 116t103 181t36.5 236z" />
<glyph unicode="&#xd9;" horiz-adv-x="1495" d="M195 0zM195 1434h192v-936q0 -97 25 -165t71.5 -111t113.5 -63t151 -20t150.5 20t113 63t71.5 111t25 165v936h192v-934q0 -135 -40.5 -235t-113 -165t-174 -97t-224.5 -32t-225 32t-174.5 97t-113 165t-40.5 235v934zM658 1898l250 -301h-162l-363 301h275z" />
<glyph unicode="&#xda;" horiz-adv-x="1495" d="M195 0zM195 1434h192v-936q0 -97 25 -165t71.5 -111t113.5 -63t151 -20t150.5 20t113 63t71.5 111t25 165v936h192v-934q0 -135 -40.5 -235t-113 -165t-174 -97t-224.5 -32t-225 32t-174.5 97t-113 165t-40.5 235v934zM1091 1898l-362 -301h-162l250 301h274z" />
<glyph unicode="&#xdb;" horiz-adv-x="1495" d="M195 0zM195 1434h192v-936q0 -97 25 -165t71.5 -111t113.5 -63t151 -20t150.5 20t113 63t71.5 111t25 165v936h192v-934q0 -135 -40.5 -235t-113 -165t-174 -97t-224.5 -32t-225 32t-174.5 97t-113 165t-40.5 235v934zM844 1898l250 -301h-182l-164 197l-164 -197h-182 l250 301h192z" />
<glyph unicode="&#xdc;" horiz-adv-x="1495" d="M195 0zM195 1434h192v-936q0 -97 25 -165t71.5 -111t113.5 -63t151 -20t150.5 20t113 63t71.5 111t25 165v936h192v-934q0 -135 -40.5 -235t-113 -165t-174 -97t-224.5 -32t-225 32t-174.5 97t-113 165t-40.5 235v934zM440 1727q0 48 31 79t79 31q24 0 44.5 -8.5t35 -23 t23 -34.5t8.5 -44q0 -48 -31.5 -79.5t-79.5 -31.5q-24 0 -44 8.5t-34.5 23t-23 35t-8.5 44.5zM831 1727q0 24 8.5 44t23 34.5t35 23t44.5 8.5q48 0 79 -31t31 -79q0 -24 -8.5 -44.5t-23 -35t-34.5 -23t-44 -8.5q-48 0 -79.5 31.5t-31.5 79.5z" />
<glyph unicode="&#xdd;" horiz-adv-x="1094" d="M2 0zM643 588v-588h-192v588l-449 846h213l332 -656l332 656h213zM932 1898l-362 -301h-162l250 301h274z" />
<glyph unicode="&#xde;" horiz-adv-x="1221" d="M205 1434h192v-250h195q130 0 230 -31.5t168.5 -88.5t104 -137t35.5 -177t-35.5 -177t-104 -137.5t-168.5 -89t-230 -31.5h-195v-315h-192v1434zM926 750q0 131 -83.5 200.5t-250.5 69.5h-195v-541h195q167 0 250.5 69.5t83.5 201.5z" />
<glyph unicode="&#xdf;" horiz-adv-x="1260" d="M737 782q0 -48 33.5 -80t83.5 -59t108.5 -54.5t108.5 -66t83.5 -94.5t33.5 -139q0 -73 -27 -132t-75 -100t-114.5 -63.5t-146.5 -22.5q-51 0 -98.5 8t-87.5 20t-71 26t-50 26v172q25 -17 62 -33.5t78.5 -30t85 -22t83.5 -8.5q42 0 74.5 12t55.5 33t35 49.5t12 61.5 q0 41 -19.5 70.5t-52 52.5t-73.5 42t-84.5 39t-84.5 44t-73.5 55.5t-52 74.5t-19.5 101t20.5 97t51.5 67.5t67 51t67 48t51.5 57.5t20.5 80q0 42 -17.5 74t-47 54.5t-69 34t-83.5 11.5q-41 0 -84 -14t-78 -43.5t-57 -75.5t-22 -110v-1096h-181v1094q0 90 29.5 164t85 126.5 t136 81.5t183.5 29q94 0 168 -25t125 -67t78 -97t27 -116q0 -67 -20.5 -113.5t-51.5 -80t-67.5 -58.5t-67.5 -48t-51.5 -48t-20.5 -60z" />
<glyph unicode="&#xe0;" horiz-adv-x="1096" d="M92 0zM170 1024q77 32 160.5 51t183.5 19q190 0 288.5 -90.5t98.5 -258.5v-487q0 -68 24.5 -95.5t75.5 -27.5q16 0 29 5q7 2 14 5v-133q-24 -12 -54.5 -17t-65.5 -5q-41 0 -74.5 12.5t-58 33.5t-40.5 49t-22 60h-4q-15 -26 -41 -56.5t-64 -56.5t-88 -43.5t-112 -17.5 q-77 0 -138 23.5t-103 66.5t-64.5 103t-22.5 133q0 75 30.5 137.5t87 108t137 71t181.5 25.5q33 0 63.5 -3t56 -7t44.5 -8t29 -7v91q0 54 -12.5 97t-41.5 72t-76 44.5t-116 15.5q-41 0 -83 -7t-81.5 -19t-75.5 -27t-65 -31v174zM471 137q46 0 85.5 12.5t71.5 34t55.5 51 t37.5 64.5v178q-20 8 -67 20.5t-109 12.5q-53 0 -101 -14t-84 -40.5t-57.5 -64.5t-21.5 -86q0 -37 11.5 -67.5t35 -53t59.5 -35t84 -12.5zM508 1556l250 -301h-162l-363 301h275z" />
<glyph unicode="&#xe1;" horiz-adv-x="1096" d="M92 0zM170 1024q77 32 160.5 51t183.5 19q190 0 288.5 -90.5t98.5 -258.5v-487q0 -68 24.5 -95.5t75.5 -27.5q16 0 29 5q7 2 14 5v-133q-24 -12 -54.5 -17t-65.5 -5q-41 0 -74.5 12.5t-58 33.5t-40.5 49t-22 60h-4q-15 -26 -41 -56.5t-64 -56.5t-88 -43.5t-112 -17.5 q-77 0 -138 23.5t-103 66.5t-64.5 103t-22.5 133q0 75 30.5 137.5t87 108t137 71t181.5 25.5q33 0 63.5 -3t56 -7t44.5 -8t29 -7v91q0 54 -12.5 97t-41.5 72t-76 44.5t-116 15.5q-41 0 -83 -7t-81.5 -19t-75.5 -27t-65 -31v174zM471 137q46 0 85.5 12.5t71.5 34t55.5 51 t37.5 64.5v178q-20 8 -67 20.5t-109 12.5q-53 0 -101 -14t-84 -40.5t-57.5 -64.5t-21.5 -86q0 -37 11.5 -67.5t35 -53t59.5 -35t84 -12.5zM840 1556l-362 -301h-162l250 301h274z" />
<glyph unicode="&#xe2;" horiz-adv-x="1096" d="M92 0zM170 1024q77 32 160.5 51t183.5 19q190 0 288.5 -90.5t98.5 -258.5v-487q0 -68 24.5 -95.5t75.5 -27.5q16 0 29 5q7 2 14 5v-133q-24 -12 -54.5 -17t-65.5 -5q-41 0 -74.5 12.5t-58 33.5t-40.5 49t-22 60h-4q-15 -26 -41 -56.5t-64 -56.5t-88 -43.5t-112 -17.5 q-77 0 -138 23.5t-103 66.5t-64.5 103t-22.5 133q0 75 30.5 137.5t87 108t137 71t181.5 25.5q33 0 63.5 -3t56 -7t44.5 -8t29 -7v91q0 54 -12.5 97t-41.5 72t-76 44.5t-116 15.5q-41 0 -83 -7t-81.5 -19t-75.5 -27t-65 -31v174zM471 137q46 0 85.5 12.5t71.5 34t55.5 51 t37.5 64.5v178q-20 8 -67 20.5t-109 12.5q-53 0 -101 -14t-84 -40.5t-57.5 -64.5t-21.5 -86q0 -37 11.5 -67.5t35 -53t59.5 -35t84 -12.5zM633 1556l250 -301h-182l-164 197l-164 -197h-182l250 301h192z" />
<glyph unicode="&#xe3;" horiz-adv-x="1096" d="M92 0zM170 1024q77 32 160.5 51t183.5 19q190 0 288.5 -90.5t98.5 -258.5v-487q0 -68 24.5 -95.5t75.5 -27.5q16 0 29 5q7 2 14 5v-133q-24 -12 -54.5 -17t-65.5 -5q-41 0 -74.5 12.5t-58 33.5t-40.5 49t-22 60h-4q-15 -26 -41 -56.5t-64 -56.5t-88 -43.5t-112 -17.5 q-77 0 -138 23.5t-103 66.5t-64.5 103t-22.5 133q0 75 30.5 137.5t87 108t137 71t181.5 25.5q33 0 63.5 -3t56 -7t44.5 -8t29 -7v91q0 54 -12.5 97t-41.5 72t-76 44.5t-116 15.5q-41 0 -83 -7t-81.5 -19t-75.5 -27t-65 -31v174zM471 137q46 0 85.5 12.5t71.5 34t55.5 51 t37.5 64.5v178q-20 8 -67 20.5t-109 12.5q-53 0 -101 -14t-84 -40.5t-57.5 -64.5t-21.5 -86q0 -37 11.5 -67.5t35 -53t59.5 -35t84 -12.5zM890 1571q0 -55 -13 -107t-41 -92.5t-72.5 -65t-106.5 -24.5q-41 0 -71 11t-54 28t-43.5 36t-38.5 36t-40.5 28t-49.5 11 q-30 0 -48 -14.5t-27.5 -36.5t-13.5 -48.5t-5 -50.5h-125q0 53 13 104.5t40.5 92.5t71 66.5t104.5 25.5q39 0 69.5 -11t54.5 -28t44 -36t40 -36t41 -28t48 -11q30 0 48.5 16.5t29 39.5t15 49t6.5 45h124z" />
<glyph unicode="&#xe4;" horiz-adv-x="1096" d="M92 0zM170 1024q77 32 160.5 51t183.5 19q190 0 288.5 -90.5t98.5 -258.5v-487q0 -68 24.5 -95.5t75.5 -27.5q16 0 29 5q7 2 14 5v-133q-24 -12 -54.5 -17t-65.5 -5q-41 0 -74.5 12.5t-58 33.5t-40.5 49t-22 60h-4q-15 -26 -41 -56.5t-64 -56.5t-88 -43.5t-112 -17.5 q-77 0 -138 23.5t-103 66.5t-64.5 103t-22.5 133q0 75 30.5 137.5t87 108t137 71t181.5 25.5q33 0 63.5 -3t56 -7t44.5 -8t29 -7v91q0 54 -12.5 97t-41.5 72t-76 44.5t-116 15.5q-41 0 -83 -7t-81.5 -19t-75.5 -27t-65 -31v174zM471 137q46 0 85.5 12.5t71.5 34t55.5 51 t37.5 64.5v178q-20 8 -67 20.5t-109 12.5q-53 0 -101 -14t-84 -40.5t-57.5 -64.5t-21.5 -86q0 -37 11.5 -67.5t35 -53t59.5 -35t84 -12.5zM232 1372q0 48 31 79t79 31q24 0 44.5 -8.5t35 -23t23 -34.5t8.5 -44q0 -48 -31.5 -79.5t-79.5 -31.5q-24 0 -44 8.5t-34.5 23t-23 35 t-8.5 44.5zM623 1372q0 24 8.5 44t23 34.5t35 23t44.5 8.5q48 0 79 -31t31 -79q0 -24 -8.5 -44.5t-23 -35t-34.5 -23t-44 -8.5q-48 0 -79.5 31.5t-31.5 79.5z" />
<glyph unicode="&#xe5;" horiz-adv-x="1096" d="M92 0zM170 1024q77 32 160.5 51t183.5 19q190 0 288.5 -90.5t98.5 -258.5v-487q0 -68 24.5 -95.5t75.5 -27.5q16 0 29 5q7 2 14 5v-133q-24 -12 -54.5 -17t-65.5 -5q-41 0 -74.5 12.5t-58 33.5t-40.5 49t-22 60h-4q-15 -26 -41 -56.5t-64 -56.5t-88 -43.5t-112 -17.5 q-77 0 -138 23.5t-103 66.5t-64.5 103t-22.5 133q0 75 30.5 137.5t87 108t137 71t181.5 25.5q33 0 63.5 -3t56 -7t44.5 -8t29 -7v91q0 54 -12.5 97t-41.5 72t-76 44.5t-116 15.5q-41 0 -83 -7t-81.5 -19t-75.5 -27t-65 -31v174zM471 137q46 0 85.5 12.5t71.5 34t55.5 51 t37.5 64.5v178q-20 8 -67 20.5t-109 12.5q-53 0 -101 -14t-84 -40.5t-57.5 -64.5t-21.5 -86q0 -37 11.5 -67.5t35 -53t59.5 -35t84 -12.5zM404 1432q0 -57 30.5 -90t81.5 -33t82 33t31 90q0 55 -31 87.5t-82 32.5t-81.5 -32.5t-30.5 -87.5zM281 1432q0 52 17 95.5t48 74.5 t74.5 48t95.5 17t95.5 -17t75 -48t48.5 -74.5t17 -95.5q0 -53 -17 -97t-48.5 -75.5t-75 -48.5t-95.5 -17t-95.5 17t-74.5 48.5t-48 75.5t-17 97z" />
<glyph unicode="&#xe6;" horiz-adv-x="1837" d="M1260 1094q104 0 189.5 -34t146.5 -97.5t94.5 -154t33.5 -202.5q0 -19 -0.5 -37.5t-1.5 -33.5q-1 -18 -2 -35h-776q3 -86 27 -154.5t69 -116t111.5 -73t155.5 -25.5q54 0 105 9t97.5 24.5t88 35t77.5 40.5v-172q-35 -20 -78 -38t-91.5 -31t-101.5 -20.5t-108 -7.5 q-142 0 -252.5 52t-181.5 145q-48 -56 -96 -94t-97.5 -61t-103.5 -32.5t-114 -9.5q-77 0 -138 23.5t-103 66.5t-64.5 103t-22.5 133q0 75 30.5 137.5t87 108t137 71t181.5 25.5q33 0 63.5 -3t56 -7t44.5 -8t29 -7v91q0 54 -12.5 97t-41.5 72t-76 44.5t-116 15.5 q-42 0 -83.5 -7t-81 -19t-75.5 -27t-65 -31v174q77 32 160.5 51t183.5 19q128 0 214 -42t130 -122q68 78 162 121t209 43zM502 137q46 0 85.5 12.5t71.5 34t55.5 51t37.5 64.5v178q-20 8 -67.5 20.5t-109.5 12.5q-53 0 -101 -14t-84 -40.5t-57.5 -64.5t-21.5 -86 q0 -37 11.5 -67.5t35.5 -53t60 -35t84 -12.5zM1257 934q-60 0 -109.5 -19.5t-88.5 -56t-65.5 -89t-39.5 -118.5h574q0 75 -22 129t-59 88t-86 50t-104 16z" />
<glyph unicode="&#xe7;" horiz-adv-x="1044" d="M113 0zM113 532q0 124 41 227t115 177.5t176.5 116t226.5 41.5q69 0 136 -14t124 -40v-172q-51 26 -118 46t-142 20q-84 0 -151.5 -28t-115.5 -80.5t-74 -127t-26 -166.5t26 -166t74 -126.5t115.5 -80.5t151.5 -28q75 0 142 20t118 46v-172q-57 -26 -124 -40t-136 -14 q-124 0 -226.5 41.5t-176.5 115.5t-115 177.5t-41 226.5zM361 -367q18 -10 40 -17q18 -7 42.5 -12t50.5 -5q51 0 80 22.5t29 61.5q0 48 -47.5 77t-149.5 29l119 211h139l-84 -133q38 -8 71 -23.5t57 -38.5t38 -53.5t14 -68.5q0 -50 -22 -87.5t-58.5 -62.5t-83.5 -38t-96 -13 q-29 0 -54 3.5t-44 8.5q-22 5 -41 12v127z" />
<glyph unicode="&#xe8;" horiz-adv-x="1198" d="M113 0zM621 1094q104 0 189.5 -34t146.5 -97.5t94.5 -154t33.5 -202.5q0 -19 -0.5 -37.5t-1.5 -33.5q-1 -18 -2 -35h-776q3 -86 27 -154.5t69 -116t111.5 -73t155.5 -25.5q54 0 105 9t97.5 24.5t88 35t77.5 40.5v-172q-35 -20 -78 -38t-91.5 -31t-101.5 -20.5t-108 -7.5 q-124 0 -224.5 40.5t-171.5 114t-109.5 176.5t-38.5 228q0 124 38 228t105.5 178.5t160.5 116t204 41.5zM618 934q-60 0 -109.5 -19.5t-88.5 -56t-65.5 -89t-39.5 -118.5h574q0 75 -22 129t-59 88t-86 50t-104 16zM570 1556l250 -301h-162l-363 301h275z" />
<glyph unicode="&#xe9;" horiz-adv-x="1198" d="M113 0zM621 1094q104 0 189.5 -34t146.5 -97.5t94.5 -154t33.5 -202.5q0 -19 -0.5 -37.5t-1.5 -33.5q-1 -18 -2 -35h-776q3 -86 27 -154.5t69 -116t111.5 -73t155.5 -25.5q54 0 105 9t97.5 24.5t88 35t77.5 40.5v-172q-35 -20 -78 -38t-91.5 -31t-101.5 -20.5t-108 -7.5 q-124 0 -224.5 40.5t-171.5 114t-109.5 176.5t-38.5 228q0 124 38 228t105.5 178.5t160.5 116t204 41.5zM618 934q-60 0 -109.5 -19.5t-88.5 -56t-65.5 -89t-39.5 -118.5h574q0 75 -22 129t-59 88t-86 50t-104 16zM921 1556l-362 -301h-162l250 301h274z" />
<glyph unicode="&#xea;" horiz-adv-x="1198" d="M113 0zM621 1094q104 0 189.5 -34t146.5 -97.5t94.5 -154t33.5 -202.5q0 -19 -0.5 -37.5t-1.5 -33.5q-1 -18 -2 -35h-776q3 -86 27 -154.5t69 -116t111.5 -73t155.5 -25.5q54 0 105 9t97.5 24.5t88 35t77.5 40.5v-172q-35 -20 -78 -38t-91.5 -31t-101.5 -20.5t-108 -7.5 q-124 0 -224.5 40.5t-171.5 114t-109.5 176.5t-38.5 228q0 124 38 228t105.5 178.5t160.5 116t204 41.5zM618 934q-60 0 -109.5 -19.5t-88.5 -56t-65.5 -89t-39.5 -118.5h574q0 75 -22 129t-59 88t-86 50t-104 16zM715 1556l250 -301h-182l-164 197l-164 -197h-182l250 301 h192z" />
<glyph unicode="&#xeb;" horiz-adv-x="1198" d="M113 0zM621 1094q104 0 189.5 -34t146.5 -97.5t94.5 -154t33.5 -202.5q0 -19 -0.5 -37.5t-1.5 -33.5q-1 -18 -2 -35h-776q3 -86 27 -154.5t69 -116t111.5 -73t155.5 -25.5q54 0 105 9t97.5 24.5t88 35t77.5 40.5v-172q-35 -20 -78 -38t-91.5 -31t-101.5 -20.5t-108 -7.5 q-124 0 -224.5 40.5t-171.5 114t-109.5 176.5t-38.5 228q0 124 38 228t105.5 178.5t160.5 116t204 41.5zM618 934q-60 0 -109.5 -19.5t-88.5 -56t-65.5 -89t-39.5 -118.5h574q0 75 -22 129t-59 88t-86 50t-104 16zM313 1372q0 48 31 79t79 31q24 0 44.5 -8.5t35 -23 t23 -34.5t8.5 -44q0 -48 -31.5 -79.5t-79.5 -31.5q-24 0 -44 8.5t-34.5 23t-23 35t-8.5 44.5zM704 1372q0 24 8.5 44t23 34.5t35 23t44.5 8.5q48 0 79 -31t31 -79q0 -24 -8.5 -44.5t-23 -35t-34.5 -23t-44 -8.5q-48 0 -79.5 31.5t-31.5 79.5z" />
<glyph unicode="&#xec;" horiz-adv-x="549" d="M0 0zM184 1065h181v-1065h-181v1065zM247 1556l250 -301h-162l-363 301h275z" />
<glyph unicode="&#xed;" horiz-adv-x="549" d="M54 0zM184 1065h181v-1065h-181v1065zM578 1556l-362 -301h-162l250 301h274z" />
<glyph unicode="&#xee;" horiz-adv-x="549" d="M0 0zM184 1065h181v-1065h-181v1065zM371 1556l250 -301h-182l-164 197l-164 -197h-182l250 301h192z" />
<glyph unicode="&#xef;" horiz-adv-x="549" d="M0 0zM184 1065h181v-1065h-181v1065zM-30 1372q0 48 31 79t79 31q24 0 44.5 -8.5t35 -23t23 -34.5t8.5 -44q0 -48 -31.5 -79.5t-79.5 -31.5q-24 0 -44 8.5t-34.5 23t-23 35t-8.5 44.5zM361 1372q0 24 8.5 44t23 34.5t35 23t44.5 8.5q48 0 79 -31t31 -79q0 -24 -8.5 -44.5 t-23 -35t-34.5 -23t-44 -8.5q-48 0 -79.5 31.5t-31.5 79.5z" />
<glyph unicode="&#xf0;" horiz-adv-x="1262" d="M1079 1364l-209 -96q65 -77 117 -164t88 -179.5t55 -189t19 -192.5q0 -142 -38 -249t-106.5 -179t-164 -108t-209.5 -36t-209.5 38.5t-164 107t-106.5 163.5t-38 209q0 115 38.5 211.5t106.5 165.5t161.5 107.5t203.5 38.5q61 0 110 -16t84 -36q40 -23 72 -51 q-17 65 -60 143t-100 152l-244 -112l-45 98l217 98q-31 31 -62.5 58t-62.5 49l82 100q50 -31 94.5 -67t86.5 -76l239 108zM305 492q0 -83 23 -150t65.5 -114t102.5 -72t135 -25q74 0 134 25t102.5 72t65.5 114t23 150t-23 149.5t-65.5 113.5t-102.5 72t-134 25 q-75 0 -135 -25t-102.5 -72t-65.5 -113.5t-23 -149.5z" />
<glyph unicode="&#xf1;" d="M170 0zM365 0h-181v795q0 59 -2.5 108.5t-4.5 85.5q-4 42 -7 76h160q4 -16 8 -36q4 -17 8 -41.5t8 -53.5q22 23 56.5 51t79 52t99.5 40.5t120 16.5q104 0 173.5 -36t111.5 -93.5t59.5 -129t17.5 -141.5v-694h-180v684q0 58 -17 104.5t-48 79t-75 49.5t-98 17 q-51 0 -96.5 -16.5t-83 -40t-65.5 -47.5t-43 -39v-791zM999 1571q0 -55 -13 -107t-41 -92.5t-72.5 -65t-106.5 -24.5q-41 0 -71 11t-54 28t-43.5 36t-38.5 36t-40.5 28t-49.5 11q-30 0 -48 -14.5t-27.5 -36.5t-13.5 -48.5t-5 -50.5h-125q0 53 13 104.5t40.5 92.5t71 66.5 t104.5 25.5q39 0 69.5 -11t54.5 -28t44 -36t40 -36t41 -28t48 -11q30 0 48.5 16.5t29 39.5t15 49t6.5 45h124z" />
<glyph unicode="&#xf2;" horiz-adv-x="1262" d="M113 0zM305 532q0 -92 23 -166t65.5 -126.5t102.5 -80.5t135 -28q74 0 134 28t102.5 80.5t65.5 126.5t23 166t-23 166.5t-65.5 127t-102.5 80.5t-134 28q-75 0 -135 -28t-102.5 -80.5t-65.5 -127t-23 -166.5zM113 532q0 124 38 227t106.5 177.5t164 116t209.5 41.5 t209.5 -41.5t164 -116t106.5 -177.5t38 -227q0 -123 -38 -226.5t-106.5 -177.5t-164 -115.5t-209.5 -41.5t-209.5 41.5t-164 115.5t-106.5 177.5t-38 226.5zM602 1556l250 -301h-162l-363 301h275z" />
<glyph unicode="&#xf3;" horiz-adv-x="1262" d="M113 0zM305 532q0 -92 23 -166t65.5 -126.5t102.5 -80.5t135 -28q74 0 134 28t102.5 80.5t65.5 126.5t23 166t-23 166.5t-65.5 127t-102.5 80.5t-134 28q-75 0 -135 -28t-102.5 -80.5t-65.5 -127t-23 -166.5zM113 532q0 124 38 227t106.5 177.5t164 116t209.5 41.5 t209.5 -41.5t164 -116t106.5 -177.5t38 -227q0 -123 -38 -226.5t-106.5 -177.5t-164 -115.5t-209.5 -41.5t-209.5 41.5t-164 115.5t-106.5 177.5t-38 226.5zM934 1556l-362 -301h-162l250 301h274z" />
<glyph unicode="&#xf4;" horiz-adv-x="1262" d="M113 0zM305 532q0 -92 23 -166t65.5 -126.5t102.5 -80.5t135 -28q74 0 134 28t102.5 80.5t65.5 126.5t23 166t-23 166.5t-65.5 127t-102.5 80.5t-134 28q-75 0 -135 -28t-102.5 -80.5t-65.5 -127t-23 -166.5zM113 532q0 124 38 227t106.5 177.5t164 116t209.5 41.5 t209.5 -41.5t164 -116t106.5 -177.5t38 -227q0 -123 -38 -226.5t-106.5 -177.5t-164 -115.5t-209.5 -41.5t-209.5 41.5t-164 115.5t-106.5 177.5t-38 226.5zM727 1556l250 -301h-182l-164 197l-164 -197h-182l250 301h192z" />
<glyph unicode="&#xf5;" horiz-adv-x="1262" d="M113 0zM305 532q0 -92 23 -166t65.5 -126.5t102.5 -80.5t135 -28q74 0 134 28t102.5 80.5t65.5 126.5t23 166t-23 166.5t-65.5 127t-102.5 80.5t-134 28q-75 0 -135 -28t-102.5 -80.5t-65.5 -127t-23 -166.5zM113 532q0 124 38 227t106.5 177.5t164 116t209.5 41.5 t209.5 -41.5t164 -116t106.5 -177.5t38 -227q0 -123 -38 -226.5t-106.5 -177.5t-164 -115.5t-209.5 -41.5t-209.5 41.5t-164 115.5t-106.5 177.5t-38 226.5zM1005 1571q0 -55 -13 -107t-41 -92.5t-72.5 -65t-106.5 -24.5q-41 0 -71 11t-54 28t-43.5 36t-38.5 36t-40.5 28 t-49.5 11q-30 0 -48 -14.5t-27.5 -36.5t-13.5 -48.5t-5 -50.5h-125q0 53 13 104.5t40.5 92.5t71 66.5t104.5 25.5q39 0 69.5 -11t54.5 -28t44 -36t40 -36t41 -28t48 -11q30 0 48.5 16.5t29 39.5t15 49t6.5 45h124z" />
<glyph unicode="&#xf6;" horiz-adv-x="1262" d="M113 0zM305 532q0 -92 23 -166t65.5 -126.5t102.5 -80.5t135 -28q74 0 134 28t102.5 80.5t65.5 126.5t23 166t-23 166.5t-65.5 127t-102.5 80.5t-134 28q-75 0 -135 -28t-102.5 -80.5t-65.5 -127t-23 -166.5zM113 532q0 124 38 227t106.5 177.5t164 116t209.5 41.5 t209.5 -41.5t164 -116t106.5 -177.5t38 -227q0 -123 -38 -226.5t-106.5 -177.5t-164 -115.5t-209.5 -41.5t-209.5 41.5t-164 115.5t-106.5 177.5t-38 226.5zM324 1372q0 48 31 79t79 31q24 0 44.5 -8.5t35 -23t23 -34.5t8.5 -44q0 -48 -31.5 -79.5t-79.5 -31.5 q-24 0 -44 8.5t-34.5 23t-23 35t-8.5 44.5zM715 1372q0 24 8.5 44t23 34.5t35 23t44.5 8.5q48 0 79 -31t31 -79q0 -24 -8.5 -44.5t-23 -35t-34.5 -23t-44 -8.5q-48 0 -79.5 31.5t-31.5 79.5z" />
<glyph unicode="&#xf7;" horiz-adv-x="1225" d="M465 977q0 31 11 58t31 46t46.5 30t58.5 11q31 0 58 -11t46.5 -30t30.5 -46t11 -58q0 -32 -11 -59t-30.5 -46.5t-46.5 -31t-58 -11.5q-32 0 -58.5 11.5t-46.5 31t-31 46.5t-11 59zM1102 670v-156h-979v156h979zM465 209q0 31 11 58t31 46t46.5 30t58.5 11q31 0 58 -11 t46.5 -30t30.5 -46t11 -58q0 -32 -11 -59t-30.5 -46.5t-46.5 -31t-58 -11.5q-32 0 -58.5 11.5t-46.5 31t-31 46.5t-11 59z" />
<glyph unicode="&#xf8;" horiz-adv-x="1262" d="M113 532q0 124 38 227t106.5 177.5t164 116t209.5 41.5q83 0 155 -22t134 -62l65 84h164l-133 -170q63 -75 98 -174t35 -218q0 -123 -38 -226.5t-106.5 -177.5t-164 -115.5t-209.5 -41.5q-167 0 -289 84l-66 -84h-163l131 170q-63 75 -97 174t-34 217zM305 532 q0 -72 13.5 -133t39.5 -110l457 585q-75 60 -184 60q-75 0 -135 -28t-102.5 -80.5t-65.5 -127t-23 -166.5zM956 532q0 147 -55 244l-457 -588q39 -27 86 -42t101 -15q74 0 134 28t102.5 80.5t65.5 126.5t23 166z" />
<glyph unicode="&#xf9;" d="M176 0zM883 1065h180v-795q0 -60 2 -109t5 -85q3 -42 7 -76h-159q-6 15 -10 35q-9 34 -17 94q-23 -22 -56.5 -49.5t-77.5 -51.5t-99 -40.5t-119 -16.5q-105 0 -174.5 36t-111.5 93.5t-59.5 129t-17.5 141.5v694h180v-684q0 -59 17 -105t48.5 -78.5t75 -49.5t97.5 -17 q50 0 95.5 16.5t83.5 39t66.5 47t43.5 40.5v791zM551 1556l250 -301h-162l-363 301h275z" />
<glyph unicode="&#xfa;" d="M176 0zM883 1065h180v-795q0 -60 2 -109t5 -85q3 -42 7 -76h-159q-6 15 -10 35q-9 34 -17 94q-23 -22 -56.5 -49.5t-77.5 -51.5t-99 -40.5t-119 -16.5q-105 0 -174.5 36t-111.5 93.5t-59.5 129t-17.5 141.5v694h180v-684q0 -59 17 -105t48.5 -78.5t75 -49.5t97.5 -17 q50 0 95.5 16.5t83.5 39t66.5 47t43.5 40.5v791zM923 1556l-362 -301h-162l250 301h274z" />
<glyph unicode="&#xfb;" d="M176 0zM883 1065h180v-795q0 -60 2 -109t5 -85q3 -42 7 -76h-159q-6 15 -10 35q-9 34 -17 94q-23 -22 -56.5 -49.5t-77.5 -51.5t-99 -40.5t-119 -16.5q-105 0 -174.5 36t-111.5 93.5t-59.5 129t-17.5 141.5v694h180v-684q0 -59 17 -105t48.5 -78.5t75 -49.5t97.5 -17 q50 0 95.5 16.5t83.5 39t66.5 47t43.5 40.5v791zM717 1556l250 -301h-182l-164 197l-164 -197h-182l250 301h192z" />
<glyph unicode="&#xfc;" d="M176 0zM883 1065h180v-795q0 -60 2 -109t5 -85q3 -42 7 -76h-159q-6 15 -10 35q-9 34 -17 94q-23 -22 -56.5 -49.5t-77.5 -51.5t-99 -40.5t-119 -16.5q-105 0 -174.5 36t-111.5 93.5t-59.5 129t-17.5 141.5v694h180v-684q0 -59 17 -105t48.5 -78.5t75 -49.5t97.5 -17 q50 0 95.5 16.5t83.5 39t66.5 47t43.5 40.5v791zM316 1372q0 48 31 79t79 31q24 0 44.5 -8.5t35 -23t23 -34.5t8.5 -44q0 -48 -31.5 -79.5t-79.5 -31.5q-24 0 -44 8.5t-34.5 23t-23 35t-8.5 44.5zM707 1372q0 24 8.5 44t23 34.5t35 23t44.5 8.5q48 0 79 -31t31 -79 q0 -24 -8.5 -44.5t-23 -35t-34.5 -23t-44 -8.5q-48 0 -79.5 31.5t-31.5 79.5z" />
<glyph unicode="&#xfd;" horiz-adv-x="1012" d="M10 0zM10 -319q12 -6 25 -10q11 -4 26.5 -6.5t32.5 -2.5q46 0 89 16.5t83 56.5t77 107.5t71 169.5l14 43l-418 1010h201l305 -797l268 797h197l-379 -1053q-41 -116 -89.5 -212.5t-107 -165.5t-129 -107.5t-157.5 -38.5q-21 0 -41 3t-35 8q-18 5 -33 12v170v0zM844 1556 l-362 -301h-162l250 301h274z" />
<glyph unicode="&#xfe;" horiz-adv-x="1294" d="M1182 532q0 -122 -34 -225t-96.5 -177.5t-151.5 -116.5t-200 -42q-57 0 -107 11t-92 28t-76 37.5t-60 40.5v-600h-181v1946h183v-469q22 20 53.5 42.5t73 42t93 32t113.5 12.5q111 0 200 -42t151.5 -117t96.5 -178t34 -225zM664 131q76 0 136 28t102 80.5t64.5 126.5 t22.5 166t-22.5 166.5t-64.5 127t-102 80.5t-136 28q-59 0 -107.5 -15.5t-86.5 -37t-64.5 -45t-40.5 -39.5v-531q13 -15 39 -38t64 -44.5t87 -37t109 -15.5z" />
<glyph unicode="&#xff;" horiz-adv-x="1012" d="M10 0zM10 -319q12 -6 25 -10q11 -4 26.5 -6.5t32.5 -2.5q46 0 89 16.5t83 56.5t77 107.5t71 169.5l14 43l-418 1010h201l305 -797l268 797h197l-379 -1053q-41 -116 -89.5 -212.5t-107 -165.5t-129 -107.5t-157.5 -38.5q-21 0 -41 3t-35 8q-18 5 -33 12v170v0zM213 1352 q0 48 31 79t79 31q24 0 44.5 -8.5t35 -23t23 -34.5t8.5 -44q0 -48 -31.5 -79.5t-79.5 -31.5q-24 0 -44 8.5t-34.5 23t-23 35t-8.5 44.5zM604 1352q0 24 8.5 44t23 34.5t35 23t44.5 8.5q48 0 79 -31t31 -79q0 -24 -8.5 -44.5t-23 -35t-34.5 -23t-44 -8.5q-48 0 -79.5 31.5 t-31.5 79.5z" />
<glyph unicode="&#x100;" horiz-adv-x="1303" d="M2 0zM1300 0h-204l-125 305h-641l-123 -305h-205l612 1450h74zM397 469h506l-252 621zM943 1654h-582v146h582v-146z" />
<glyph unicode="&#x101;" horiz-adv-x="1096" d="M92 0zM170 1024q77 32 160.5 51t183.5 19q190 0 288.5 -90.5t98.5 -258.5v-487q0 -68 24.5 -95.5t75.5 -27.5q16 0 29 5q7 2 14 5v-133q-24 -12 -54.5 -17t-65.5 -5q-41 0 -74.5 12.5t-58 33.5t-40.5 49t-22 60h-4q-15 -26 -41 -56.5t-64 -56.5t-88 -43.5t-112 -17.5 q-77 0 -138 23.5t-103 66.5t-64.5 103t-22.5 133q0 75 30.5 137.5t87 108t137 71t181.5 25.5q33 0 63.5 -3t56 -7t44.5 -8t29 -7v91q0 54 -12.5 97t-41.5 72t-76 44.5t-116 15.5q-41 0 -83 -7t-81.5 -19t-75.5 -27t-65 -31v174zM471 137q46 0 85.5 12.5t71.5 34t55.5 51 t37.5 64.5v178q-20 8 -67 20.5t-109 12.5q-53 0 -101 -14t-84 -40.5t-57.5 -64.5t-21.5 -86q0 -37 11.5 -67.5t35 -53t59.5 -35t84 -12.5zM807 1316h-582v146h582v-146z" />
<glyph unicode="&#x102;" horiz-adv-x="1303" d="M2 0zM1300 0h-204l-125 305h-641l-123 -305h-205l612 1450h74zM397 469h506l-252 621zM651 1745q83 0 125 51t56 143h141q-4 -68 -25.5 -127.5t-61.5 -103.5t-98.5 -69t-136.5 -25q-77 0 -135.5 25t-98.5 69t-61.5 103.5t-25.5 127.5h141q7 -46 20.5 -82t35.5 -61 t52.5 -38t71.5 -13z" />
<glyph unicode="&#x103;" horiz-adv-x="1096" d="M92 0zM170 1024q77 32 160.5 51t183.5 19q190 0 288.5 -90.5t98.5 -258.5v-487q0 -68 24.5 -95.5t75.5 -27.5q16 0 29 5q7 2 14 5v-133q-24 -12 -54.5 -17t-65.5 -5q-41 0 -74.5 12.5t-58 33.5t-40.5 49t-22 60h-4q-15 -26 -41 -56.5t-64 -56.5t-88 -43.5t-112 -17.5 q-77 0 -138 23.5t-103 66.5t-64.5 103t-22.5 133q0 75 30.5 137.5t87 108t137 71t181.5 25.5q33 0 63.5 -3t56 -7t44.5 -8t29 -7v91q0 54 -12.5 97t-41.5 72t-76 44.5t-116 15.5q-41 0 -83 -7t-81.5 -19t-75.5 -27t-65 -31v174zM471 137q46 0 85.5 12.5t71.5 34t55.5 51 t37.5 64.5v178q-20 8 -67 20.5t-109 12.5q-53 0 -101 -14t-84 -40.5t-57.5 -64.5t-21.5 -86q0 -37 11.5 -67.5t35 -53t59.5 -35t84 -12.5zM516 1403q83 0 125 51t56 143h141q-4 -68 -25.5 -127.5t-61.5 -103.5t-98.5 -69t-136.5 -25q-77 0 -135.5 25t-98.5 69t-61.5 103.5 t-25.5 127.5h141q7 -46 20.5 -82t35.5 -61t52.5 -38t71.5 -13z" />
<glyph unicode="&#x104;" horiz-adv-x="1303" d="M2 0zM1300 0h-204l-125 305h-641l-123 -305h-205l612 1450h74zM397 469h506l-252 621zM1300 0q-38 -41 -67 -85q-25 -38 -45.5 -84t-20.5 -91q0 -35 14 -58.5t35 -37.5t46 -19.5t47 -5.5q23 0 43.5 4.5t35.5 10.5q18 7 33 16v-137q-16 -12 -42 -22q-22 -8 -54.5 -14.5 t-77.5 -6.5q-52 0 -96.5 12.5t-77.5 39t-51.5 67.5t-18.5 98q0 69 23.5 126t52.5 99q33 48 76 88h145z" />
<glyph unicode="&#x105;" horiz-adv-x="1096" d="M92 0zM170 1024q77 32 160.5 51t183.5 19q190 0 288.5 -90.5t98.5 -258.5v-487q0 -68 24.5 -95.5t75.5 -27.5q16 0 29 5q7 2 14 5v-133q-24 -12 -54.5 -17t-65.5 -5q-41 0 -74.5 12.5t-58 33.5t-40.5 49t-22 60h-4q-15 -26 -41 -56.5t-64 -56.5t-88 -43.5t-112 -17.5 q-77 0 -138 23.5t-103 66.5t-64.5 103t-22.5 133q0 75 30.5 137.5t87 108t137 71t181.5 25.5q33 0 63.5 -3t56 -7t44.5 -8t29 -7v91q0 54 -12.5 97t-41.5 72t-76 44.5t-116 15.5q-41 0 -83 -7t-81.5 -19t-75.5 -27t-65 -31v174zM471 137q46 0 85.5 12.5t71.5 34t55.5 51 t37.5 64.5v178q-20 8 -67 20.5t-109 12.5q-53 0 -101 -14t-84 -40.5t-57.5 -64.5t-21.5 -86q0 -37 11.5 -67.5t35 -53t59.5 -35t84 -12.5zM1044 12q-38 -41 -67 -85q-25 -38 -45.5 -84t-20.5 -91q0 -35 14 -58.5t35 -37.5t46 -19.5t47 -5.5q23 0 43.5 4.5t35.5 10.5 q18 7 33 16v-137q-16 -12 -42 -22q-22 -8 -54.5 -14.5t-77.5 -6.5q-52 0 -96.5 12.5t-77.5 39t-51.5 67.5t-18.5 98q0 69 23.5 126t52.5 99q33 48 76 88h145z" />
<glyph unicode="&#x106;" horiz-adv-x="1319" d="M113 0zM113 717q0 164 50 301t141.5 235.5t218.5 153.5t282 55q108 0 207.5 -24.5t183.5 -67.5v-205q-35 24 -77 46.5t-91 40t-104 28t-115 10.5q-111 0 -202 -40.5t-155.5 -115t-99.5 -180.5t-35 -237t35 -237t99.5 -181t155.5 -115.5t202 -40.5q60 0 115 10.5t104 28 t91 40t77 46.5v-205q-84 -43 -183.5 -67.5t-207.5 -24.5q-155 0 -282 55t-218.5 154t-141.5 236t-50 301zM1044 1927l-362 -301h-162l250 301h274z" />
<glyph unicode="&#x107;" horiz-adv-x="1044" d="M113 0zM113 532q0 124 41 227t115 177.5t176.5 116t226.5 41.5q69 0 136 -14t124 -40v-172q-51 26 -118 46t-142 20q-84 0 -151.5 -28t-115.5 -80.5t-74 -127t-26 -166.5t26 -166t74 -126.5t115.5 -80.5t151.5 -28q75 0 142 20t118 46v-172q-57 -26 -124 -40t-136 -14 q-124 0 -226.5 41.5t-176.5 115.5t-115 177.5t-41 226.5zM905 1556l-362 -301h-162l250 301h274z" />
<glyph unicode="&#x10c;" horiz-adv-x="1319" d="M113 0zM113 717q0 164 50 301t141.5 235.5t218.5 153.5t282 55q108 0 207.5 -24.5t183.5 -67.5v-205q-35 24 -77 46.5t-91 40t-104 28t-115 10.5q-111 0 -202 -40.5t-155.5 -115t-99.5 -180.5t-35 -237t35 -237t99.5 -181t155.5 -115.5t202 -40.5q60 0 115 10.5t104 28 t91 40t77 46.5v-205q-84 -43 -183.5 -67.5t-207.5 -24.5q-155 0 -282 55t-218.5 154t-141.5 236t-50 301zM645 1626l-250 301h182l164 -196l164 196h182l-250 -301h-192z" />
<glyph unicode="&#x10d;" horiz-adv-x="1044" d="M113 0zM113 532q0 124 41 227t115 177.5t176.5 116t226.5 41.5q69 0 136 -14t124 -40v-172q-51 26 -118 46t-142 20q-84 0 -151.5 -28t-115.5 -80.5t-74 -127t-26 -166.5t26 -166t74 -126.5t115.5 -80.5t151.5 -28q75 0 142 20t118 46v-172q-57 -26 -124 -40t-136 -14 q-124 0 -226.5 41.5t-176.5 115.5t-115 177.5t-41 226.5zM486 1255l-250 301h182l164 -196l164 196h182l-250 -301h-192z" />
<glyph unicode="&#x10e;" horiz-adv-x="1448" d="M205 0zM205 1434h340q203 0 352 -51.5t246.5 -145.5t144.5 -226.5t47 -293.5t-47 -293.5t-144.5 -226.5t-246.5 -145.5t-352 -51.5h-340v1434zM1130 717q0 131 -35.5 234t-108 174t-182.5 108t-259 37h-148v-1106h148q149 0 259 37t182.5 108t108 174t35.5 234zM566 1597 l-250 301h182l164 -196l164 196h182l-250 -301h-192z" />
<glyph unicode="&#x10f;" horiz-adv-x="1677" d="M113 0zM985 0q-5 17 -9 35l-9 36t-9 42q-26 -23 -62.5 -48t-83 -46t-101.5 -34.5t-117 -13.5q-111 0 -200 42t-151.5 116.5t-96 177.5t-33.5 225t33.5 225t96 178t151.5 117t200 42q58 0 108 -11t92 -28t76 -38t60 -42v520h180v-1225q0 -60 2 -109t5 -85q3 -42 7 -76 h-139zM631 934q-76 0 -136.5 -28t-102.5 -80.5t-64.5 -127t-22.5 -166.5t22.5 -166t64.5 -126.5t102.5 -80.5t136.5 -28q58 0 106.5 15t86 36.5t64.5 44.5t42 39v531q-14 15 -40 38.5t-63.5 45.5t-86.5 37.5t-109 15.5zM1305 942q66 60 104.5 121t44.5 106q-32 1 -59.5 12.5 t-47.5 31t-32 46t-12 58.5q0 31 11 58t31 46t46.5 30t58.5 11t61 -12t50.5 -35.5t34 -58.5t12.5 -80q0 -53 -17.5 -107.5t-49 -107.5t-75.5 -101.5t-96 -89.5l-65 72v0z" />
<glyph unicode="&#x110;" horiz-adv-x="1468" d="M225 561h-184v150h184v723h340q204 0 353 -51.5t246.5 -145.5t144.5 -226.5t47 -293.5t-47 -293.5t-144.5 -226.5t-246.5 -145.5t-353 -51.5h-340v561zM713 561h-295v-397h147q149 0 259.5 37t183 108t108 174t35.5 234t-35.5 234t-108 174t-183 108t-259.5 37h-147v-559 h295v-150z" />
<glyph unicode="&#x111;" horiz-adv-x="1294" d="M113 532q0 122 33.5 225t96 178t151.5 117t200 42q58 0 108 -11t92 -28t76 -38t60 -42v219h-326v143h326v158h180v-158h166v-143h-166v-924q0 -60 2 -109t5 -85q3 -42 7 -76h-139q-5 17 -9 35l-9 36t-9 42q-26 -23 -62.5 -48t-83 -46t-101.5 -34.5t-117 -13.5 q-111 0 -200 42t-151.5 116.5t-96 177.5t-33.5 225zM305 532q0 -92 22.5 -166t64.5 -126.5t102.5 -80.5t136.5 -28q58 0 106.5 15t86 36.5t64.5 44.5t42 39v531q-14 15 -40 38.5t-63.5 45.5t-86.5 37.5t-109 15.5q-76 0 -136.5 -28t-102.5 -80.5t-64.5 -127t-22.5 -166.5z " />
<glyph unicode="&#x112;" horiz-adv-x="1147" d="M205 0zM397 164h607v-164h-799v1434h799v-164h-607v-420h545v-164h-545v-522zM900 1679h-582v146h582v-146z" />
<glyph unicode="&#x113;" horiz-adv-x="1198" d="M113 0zM621 1094q104 0 189.5 -34t146.5 -97.5t94.5 -154t33.5 -202.5q0 -19 -0.5 -37.5t-1.5 -33.5q-1 -18 -2 -35h-776q3 -86 27 -154.5t69 -116t111.5 -73t155.5 -25.5q54 0 105 9t97.5 24.5t88 35t77.5 40.5v-172q-35 -20 -78 -38t-91.5 -31t-101.5 -20.5t-108 -7.5 q-124 0 -224.5 40.5t-171.5 114t-109.5 176.5t-38.5 228q0 124 38 228t105.5 178.5t160.5 116t204 41.5zM618 934q-60 0 -109.5 -19.5t-88.5 -56t-65.5 -89t-39.5 -118.5h574q0 75 -22 129t-59 88t-86 50t-104 16zM918 1316h-582v146h582v-146z" />
<glyph unicode="&#x116;" horiz-adv-x="1147" d="M205 0zM397 164h607v-164h-799v1434h799v-164h-607v-420h545v-164h-545v-522zM467 1744q0 31 11 58t31 46.5t46.5 30.5t58.5 11q31 0 58 -11t46.5 -30.5t30.5 -46.5t11 -58q0 -32 -11 -58.5t-30.5 -46.5t-46.5 -31t-58 -11q-32 0 -58.5 11t-46.5 31t-31 46.5t-11 58.5z " />
<glyph unicode="&#x117;" horiz-adv-x="1198" d="M113 0zM621 1094q104 0 189.5 -34t146.5 -97.5t94.5 -154t33.5 -202.5q0 -19 -0.5 -37.5t-1.5 -33.5q-1 -18 -2 -35h-776q3 -86 27 -154.5t69 -116t111.5 -73t155.5 -25.5q54 0 105 9t97.5 24.5t88 35t77.5 40.5v-172q-35 -20 -78 -38t-91.5 -31t-101.5 -20.5t-108 -7.5 q-124 0 -224.5 40.5t-171.5 114t-109.5 176.5t-38.5 228q0 124 38 228t105.5 178.5t160.5 116t204 41.5zM618 934q-60 0 -109.5 -19.5t-88.5 -56t-65.5 -89t-39.5 -118.5h574q0 75 -22 129t-59 88t-86 50t-104 16zM473 1382q0 31 11 58t31 46.5t46.5 30.5t58.5 11 q31 0 58 -11t46.5 -30.5t30.5 -46.5t11 -58q0 -32 -11 -58.5t-30.5 -46.5t-46.5 -31t-58 -11q-32 0 -58.5 11t-46.5 31t-31 46.5t-11 58.5z" />
<glyph unicode="&#x118;" horiz-adv-x="1147" d="M205 0zM397 164h607v-164h-799v1434h799v-164h-607v-420h545v-164h-545v-522zM1003 0q-38 -41 -67 -85q-25 -38 -45.5 -84t-20.5 -91q0 -35 14 -58.5t35 -37.5t46 -19.5t47 -5.5q23 0 43.5 4.5t35.5 10.5q18 7 33 16v-137q-16 -12 -42 -22q-22 -8 -54.5 -14.5t-77.5 -6.5 q-52 0 -96.5 12.5t-77.5 39t-51.5 67.5t-18.5 98q0 69 23.5 126t52.5 99q33 48 76 88h145z" />
<glyph unicode="&#x119;" horiz-adv-x="1198" d="M113 0zM621 1094q104 0 189.5 -34t146.5 -97.5t94.5 -154t33.5 -202.5q0 -19 -0.5 -37.5t-1.5 -33.5q-1 -18 -2 -35h-776q3 -86 27 -154.5t69 -116t111.5 -73t155.5 -25.5q54 0 105 9t97.5 24.5t88 35t77.5 40.5v-172q-35 -20 -78 -38t-91.5 -31t-101.5 -20.5t-108 -7.5 q-124 0 -224.5 40.5t-171.5 114t-109.5 176.5t-38.5 228q0 124 38 228t105.5 178.5t160.5 116t204 41.5zM618 934q-60 0 -109.5 -19.5t-88.5 -56t-65.5 -89t-39.5 -118.5h574q0 75 -22 129t-59 88t-86 50t-104 16zM868 0q-38 -41 -67 -85q-25 -38 -45.5 -84t-20.5 -91 q0 -35 14 -58.5t35 -37.5t46 -19.5t47 -5.5q23 0 43.5 4.5t35.5 10.5q18 7 33 16v-137q-16 -12 -42 -22q-22 -8 -54.5 -14.5t-77.5 -6.5q-52 0 -96.5 12.5t-77.5 39t-51.5 67.5t-18.5 98q0 69 23.5 126t52.5 99q33 48 76 88h145z" />
<glyph unicode="&#x11a;" horiz-adv-x="1147" d="M205 0zM397 164h607v-164h-799v1434h799v-164h-607v-420h545v-164h-545v-522zM510 1597l-250 301h182l164 -196l164 196h182l-250 -301h-192z" />
<glyph unicode="&#x11b;" horiz-adv-x="1198" d="M113 0zM621 1094q104 0 189.5 -34t146.5 -97.5t94.5 -154t33.5 -202.5q0 -19 -0.5 -37.5t-1.5 -33.5q-1 -18 -2 -35h-776q3 -86 27 -154.5t69 -116t111.5 -73t155.5 -25.5q54 0 105 9t97.5 24.5t88 35t77.5 40.5v-172q-35 -20 -78 -38t-91.5 -31t-101.5 -20.5t-108 -7.5 q-124 0 -224.5 40.5t-171.5 114t-109.5 176.5t-38.5 228q0 124 38 228t105.5 178.5t160.5 116t204 41.5zM618 934q-60 0 -109.5 -19.5t-88.5 -56t-65.5 -89t-39.5 -118.5h574q0 75 -22 129t-59 88t-86 50t-104 16zM523 1255l-250 301h182l164 -196l164 196h182l-250 -301 h-192z" />
<glyph unicode="&#x11e;" horiz-adv-x="1454" d="M113 0zM113 717q0 164 51.5 301t145.5 235.5t225 153.5t290 55q121 0 230.5 -24.5t201.5 -67.5v-205q-38 24 -84.5 46.5t-100.5 40t-115.5 28t-127.5 10.5q-117 0 -211.5 -40.5t-161 -115t-103 -180.5t-36.5 -237t38 -237t108.5 -181t170 -115.5t222.5 -40.5 q65 0 125.5 10t116.5 27v338h-273v164h465v-619q-93 -43 -205 -67.5t-233 -24.5q-164 0 -299.5 55t-233.5 154t-152 236t-54 301zM778 1778q83 0 125 51t56 143h141q-4 -68 -25.5 -127.5t-61.5 -103.5t-98.5 -69t-136.5 -25q-77 0 -135.5 25t-98.5 69t-61.5 103.5 t-25.5 127.5h141q7 -46 20.5 -82t35.5 -61t52.5 -38t71.5 -13z" />
<glyph unicode="&#x11f;" horiz-adv-x="1294" d="M113 0zM584 -352q86 0 150.5 25t108 70.5t65.5 110.5t22 146v109q-26 -21 -60.5 -42t-76.5 -37.5t-91.5 -27t-107.5 -10.5q-111 0 -200.5 41t-151.5 114t-95.5 174t-33.5 222t33.5 222.5t96 174.5t151.5 113.5t200 40.5q70 0 128 -15.5t103.5 -38t79.5 -47.5t56 -43 q3 23 7 44t8 37q4 18 9 34h139q-4 -34 -7 -76q-3 -36 -5 -85.5t-2 -108.5v-795q0 -117 -36 -211.5t-103.5 -161t-164.5 -103t-218 -36.5q-70 0 -130.5 11.5t-109.5 28t-86 36t-61 35.5v174q20 -14 56 -35t85.5 -41t111 -34.5t130.5 -14.5zM305 543q0 -92 22.5 -165 t64.5 -123t102 -76.5t135 -26.5q59 0 107.5 15t86.5 36.5t65 44.5t42 39v512q-15 15 -41 38t-63.5 44.5t-86.5 37t-110 15.5q-75 0 -135 -26.5t-102 -77t-64.5 -123t-22.5 -164.5zM667 1403q83 0 125 51t56 143h141q-4 -68 -25.5 -127.5t-61.5 -103.5t-98.5 -69t-136.5 -25 q-77 0 -135.5 25t-98.5 69t-61.5 103.5t-25.5 127.5h141q7 -46 20.5 -82t35.5 -61t52.5 -38t71.5 -13z" />
<glyph unicode="&#x122;" horiz-adv-x="1454" d="M113 0zM113 717q0 164 51.5 301t145.5 235.5t225 153.5t290 55q121 0 230.5 -24.5t201.5 -67.5v-205q-38 24 -84.5 46.5t-100.5 40t-115.5 28t-127.5 10.5q-117 0 -211.5 -40.5t-161 -115t-103 -180.5t-36.5 -237t38 -237t108.5 -181t170 -115.5t222.5 -40.5 q65 0 125.5 10t116.5 27v338h-273v164h465v-619q-93 -43 -205 -67.5t-233 -24.5q-164 0 -299.5 55t-233.5 154t-152 236t-54 301zM707 -335q0 31 11 58t31 46t46.5 30t58.5 11t61 -12t50.5 -35.5t34 -58.5t12.5 -80q0 -53 -17.5 -108t-49 -107.5t-75.5 -101t-96 -89.5 l-65 72q66 60 104.5 121t44.5 106q-32 1 -59.5 12.5t-47.5 31t-32 46t-12 58.5z" />
<glyph unicode="&#x123;" horiz-adv-x="1294" d="M113 0zM584 -352q86 0 150.5 25t108 70.5t65.5 110.5t22 146v109q-26 -21 -60.5 -42t-76.5 -37.5t-91.5 -27t-107.5 -10.5q-111 0 -200.5 41t-151.5 114t-95.5 174t-33.5 222t33.5 222.5t96 174.5t151.5 113.5t200 40.5q70 0 128 -15.5t103.5 -38t79.5 -47.5t56 -43 q3 23 7 44t8 37q4 18 9 34h139q-4 -34 -7 -76q-3 -36 -5 -85.5t-2 -108.5v-795q0 -117 -36 -211.5t-103.5 -161t-164.5 -103t-218 -36.5q-70 0 -130.5 11.5t-109.5 28t-86 36t-61 35.5v174q20 -14 56 -35t85.5 -41t111 -34.5t130.5 -14.5zM305 543q0 -92 22.5 -165 t64.5 -123t102 -76.5t135 -26.5q59 0 107.5 15t86.5 36.5t65 44.5t42 39v512q-15 15 -41 38t-63.5 44.5t-86.5 37t-110 15.5q-75 0 -135 -26.5t-102 -77t-64.5 -123t-22.5 -164.5zM799 1426q0 -32 -11 -58.5t-31 -46t-47 -30.5t-58 -11q-32 0 -61 12t-50.5 36t-34 59 t-12.5 80q0 53 17.5 107.5t49 107t75 101t96.5 89.5l65 -71q-66 -60 -104.5 -121.5t-44.5 -106.5q31 -1 59 -12t48 -30.5t32 -46.5t12 -58z" />
<glyph unicode="&#x12a;" horiz-adv-x="602" d="M11 0zM205 1434h192v-1434h-192v1434zM593 1679h-582v146h582v-146z" />
<glyph unicode="&#x12b;" horiz-adv-x="549" d="M0 0zM184 1065h181v-1065h-181v1065zM567 1316h-582v146h582v-146z" />
<glyph unicode="&#x12e;" horiz-adv-x="602" d="M101 0zM205 1434h192v-1434h-192v1434zM398 0q-38 -41 -67 -85q-25 -38 -45.5 -84t-20.5 -91q0 -35 14 -58.5t35 -37.5t46 -19.5t47 -5.5q23 0 43.5 4.5t35.5 10.5q18 7 33 16v-137q-16 -12 -42 -22q-22 -8 -54.5 -14.5t-77.5 -6.5q-52 0 -96.5 12.5t-77.5 39t-51.5 67.5 t-18.5 98q0 69 23.5 126t52.5 99q33 48 76 88h145z" />
<glyph unicode="&#x12f;" horiz-adv-x="549" d="M68 0zM184 1065h181v-1065h-181v1065zM164 1352q0 48 31 79t79 31q24 0 44.5 -8.5t35 -23t23 -34.5t8.5 -44q0 -48 -31.5 -79.5t-79.5 -31.5q-24 0 -44 8.5t-34.5 23t-23 35t-8.5 44.5zM365 0q-38 -41 -67 -85q-25 -38 -45.5 -84t-20.5 -91q0 -35 14 -58.5t35 -37.5 t46 -19.5t47 -5.5q23 0 43.5 4.5t35.5 10.5q18 7 33 16v-137q-16 -12 -42 -22q-22 -8 -54.5 -14.5t-77.5 -6.5q-52 0 -96.5 12.5t-77.5 39t-51.5 67.5t-18.5 98q0 69 23.5 126t52.5 99q33 48 76 88h145z" />
<glyph unicode="&#x130;" horiz-adv-x="602" d="M154 0zM205 1434h192v-1434h-192v1434zM154 1765q0 31 11 58t31 46.5t46.5 30.5t58.5 11q31 0 58 -11t46.5 -30.5t30.5 -46.5t11 -58q0 -32 -11 -58.5t-30.5 -46.5t-46.5 -31t-58 -11q-32 0 -58.5 11t-46.5 31t-31 46.5t-11 58.5z" />
<glyph unicode="&#x131;" horiz-adv-x="549" d="M184 1065h181v-1065h-181v1065z" />
<glyph unicode="&#x136;" horiz-adv-x="1280" d="M205 0zM205 1434h192v-754l607 754h245l-538 -654l567 -780h-248l-438 637l-195 -176v-461h-192v1434zM537 -268q0 31 11 58t31 46t46.5 30t58.5 11t61 -12t50.5 -35.5t34 -58.5t12.5 -80q0 -53 -17.5 -108t-49 -107.5t-75.5 -101t-96 -89.5l-65 72q66 60 104.5 121 t44.5 106q-32 1 -59.5 12.5t-47.5 31t-32 46t-12 58.5z" />
<glyph unicode="&#x137;" horiz-adv-x="1096" d="M184 0zM184 1495h181v-987l450 557h232l-385 -449l423 -616h-217l-315 492l-188 -181v-311h-181v1495zM440 -268q0 31 11 58t31 46t46.5 30t58.5 11t61 -12t50.5 -35.5t34 -58.5t12.5 -80q0 -53 -17.5 -108t-49 -107.5t-75.5 -101t-96 -89.5l-65 72q66 60 104.5 121 t44.5 106q-32 1 -59.5 12.5t-47.5 31t-32 46t-12 58.5z" />
<glyph unicode="&#x139;" horiz-adv-x="1024" d="M205 0zM205 1434h192v-1270h607v-164h-799v1434zM770 1898l-362 -301h-162l250 301h274z" />
<glyph unicode="&#x13a;" horiz-adv-x="653" d="M118 0zM184 1495h181v-1219q0 -44 9 -72.5t26 -44.5t42.5 -22t57.5 -6q24 0 44 2.5t34 6.5q17 4 30 10v-156q-20 -7 -45 -12q-21 -5 -48.5 -8t-59.5 -3q-74 0 -125.5 20t-84 60t-47 99.5t-14.5 138.5v1206zM642 1959l-362 -301h-162l250 301h274z" />
<glyph unicode="&#x13b;" horiz-adv-x="1024" d="M205 0zM205 1434h192v-1270h607v-164h-799v1434zM457 -349q0 31 11 58t31 46t46.5 30t58.5 11t61 -12t50.5 -35.5t34 -58.5t12.5 -80q0 -53 -17.5 -108t-49 -107.5t-75.5 -101t-96 -89.5l-65 72q66 60 104.5 121t44.5 106q-32 1 -59.5 12.5t-47.5 31t-32 46t-12 58.5z " />
<glyph unicode="&#x13c;" horiz-adv-x="653" d="M184 0zM184 1495h181v-1219q0 -44 9 -72.5t26 -44.5t42.5 -22t57.5 -6q24 0 44 2.5t34 6.5q17 4 30 10v-156q-20 -7 -45 -12q-21 -5 -48.5 -8t-59.5 -3q-74 0 -125.5 20t-84 60t-47 99.5t-14.5 138.5v1206zM242 -337q0 31 11 58t31 46t46.5 30t58.5 11t61 -12t50.5 -35.5 t34 -58.5t12.5 -80q0 -53 -17.5 -108t-49 -107.5t-75.5 -101t-96 -89.5l-65 72q66 60 104.5 121t44.5 106q-32 1 -59.5 12.5t-47.5 31t-32 46t-12 58.5z" />
<glyph unicode="&#x13d;" horiz-adv-x="1024" d="M205 0zM205 1434h192v-1270h607v-164h-799v1434zM604 942q66 60 104.5 121t44.5 106q-32 1 -59.5 12.5t-47.5 31t-32 46t-12 58.5q0 31 11 58t31 46t46.5 30t58.5 11t61 -12t50.5 -35.5t34 -58.5t12.5 -80q0 -53 -17.5 -107.5t-49 -107.5t-75.5 -101.5t-96 -89.5l-65 72 v0z" />
<glyph unicode="&#x13e;" horiz-adv-x="915" d="M184 0zM184 1495h181v-1219q0 -44 9 -72.5t26 -44.5t42.5 -22t57.5 -6q24 0 44 2.5t34 6.5q17 4 30 10v-156q-20 -7 -45 -12q-21 -5 -48.5 -8t-59.5 -3q-74 0 -125.5 20t-84 60t-47 99.5t-14.5 138.5v1206zM571 942q66 60 104.5 121t44.5 106q-32 1 -59.5 12.5t-47.5 31 t-32 46t-12 58.5q0 31 11 58t31 46t46.5 30t58.5 11t61 -12t50.5 -35.5t34 -58.5t12.5 -80q0 -53 -17.5 -107.5t-49 -107.5t-75.5 -101.5t-96 -89.5l-65 72v0z" />
<glyph unicode="&#x141;" horiz-adv-x="1044" d="M41 629l184 90v715h193v-619l274 137v-170l-274 -137v-481h606v-164h-799v549l-184 -90v170z" />
<glyph unicode="&#x142;" horiz-adv-x="653" d="M0 629l184 92v774h181v-684l243 121v-170l-243 -121v-365q0 -44 9 -72.5t26 -44.5t42.5 -22t57.5 -6q24 0 44 2.5t34 6.5q17 4 30 10v-156q-20 -7 -45 -12q-21 -5 -48.5 -8t-59.5 -3q-74 0 -125.5 20t-84 60t-47 99.5t-14.5 138.5v262l-184 -92v170z" />
<glyph unicode="&#x143;" horiz-adv-x="1610" d="M205 0zM1343 -16l-946 1048v-1032h-192v1450h61l946 -1051v1035h193v-1450h-62zM1149 1873l-362 -301h-162l250 301h274z" />
<glyph unicode="&#x144;" d="M170 0zM365 0h-181v795q0 59 -2.5 108.5t-4.5 85.5q-4 42 -7 76h160q4 -16 8 -36q4 -17 8 -41.5t8 -53.5q22 23 56.5 51t79 52t99.5 40.5t120 16.5q104 0 173.5 -36t111.5 -93.5t59.5 -129t17.5 -141.5v-694h-180v684q0 58 -17 104.5t-48 79t-75 49.5t-98 17 q-51 0 -96.5 -16.5t-83 -40t-65.5 -47.5t-43 -39v-791zM948 1556l-362 -301h-162l250 301h274z" />
<glyph unicode="&#x145;" horiz-adv-x="1610" d="M205 0zM1343 -16l-946 1048v-1032h-192v1450h61l946 -1051v1035h193v-1450h-62zM672 -308q0 31 11 58t31 46t46.5 30t58.5 11t61 -12t50.5 -35.5t34 -58.5t12.5 -80q0 -53 -17.5 -108t-49 -107.5t-75.5 -101t-96 -89.5l-65 72q66 60 104.5 121t44.5 106q-32 1 -59.5 12.5 t-47.5 31t-32 46t-12 58.5z" />
<glyph unicode="&#x146;" d="M170 0zM365 0h-181v795q0 59 -2.5 108.5t-4.5 85.5q-4 42 -7 76h160q4 -16 8 -36q4 -17 8 -41.5t8 -53.5q22 23 56.5 51t79 52t99.5 40.5t120 16.5q104 0 173.5 -36t111.5 -93.5t59.5 -129t17.5 -141.5v-694h-180v684q0 58 -17 104.5t-48 79t-75 49.5t-98 17 q-51 0 -96.5 -16.5t-83 -40t-65.5 -47.5t-43 -39v-791zM490 -308q0 31 11 58t31 46t46.5 30t58.5 11t61 -12t50.5 -35.5t34 -58.5t12.5 -80q0 -53 -17.5 -108t-49 -107.5t-75.5 -101t-96 -89.5l-65 72q66 60 104.5 121t44.5 106q-32 1 -59.5 12.5t-47.5 31t-32 46t-12 58.5z " />
<glyph unicode="&#x147;" horiz-adv-x="1610" d="M205 0zM1343 -16l-946 1048v-1032h-192v1450h61l946 -1051v1035h193v-1450h-62zM709 1597l-250 301h182l164 -196l164 196h182l-250 -301h-192z" />
<glyph unicode="&#x148;" d="M170 0zM365 0h-181v795q0 59 -2.5 108.5t-4.5 85.5q-4 42 -7 76h160q4 -16 8 -36q4 -17 8 -41.5t8 -53.5q22 23 56.5 51t79 52t99.5 40.5t120 16.5q104 0 173.5 -36t111.5 -93.5t59.5 -129t17.5 -141.5v-694h-180v684q0 58 -17 104.5t-48 79t-75 49.5t-98 17 q-51 0 -96.5 -16.5t-83 -40t-65.5 -47.5t-43 -39v-791zM529 1255l-250 301h182l164 -196l164 196h182l-250 -301h-192z" />
<glyph unicode="&#x14c;" horiz-adv-x="1642" d="M113 0zM317 717q0 -130 36.5 -236t103 -181t159.5 -116t205 -41t205 41t159.5 116t103 181t36.5 236t-36.5 235.5t-103 180.5t-159.5 116t-205 41t-205 -41t-159.5 -116t-103 -180.5t-36.5 -235.5zM113 717q0 164 52.5 301t146 235.5t223.5 153.5t286 55t286.5 -55 t224 -153.5t146 -235.5t52.5 -301t-52.5 -301t-146 -236t-224 -154t-286.5 -55t-286 55t-223.5 154t-146 236t-52.5 301zM1113 1687h-582v146h582v-146z" />
<glyph unicode="&#x14d;" horiz-adv-x="1262" d="M113 0zM305 532q0 -92 23 -166t65.5 -126.5t102.5 -80.5t135 -28q74 0 134 28t102.5 80.5t65.5 126.5t23 166t-23 166.5t-65.5 127t-102.5 80.5t-134 28q-75 0 -135 -28t-102.5 -80.5t-65.5 -127t-23 -166.5zM113 532q0 124 38 227t106.5 177.5t164 116t209.5 41.5 t209.5 -41.5t164 -116t106.5 -177.5t38 -227q0 -123 -38 -226.5t-106.5 -177.5t-164 -115.5t-209.5 -41.5t-209.5 41.5t-164 115.5t-106.5 177.5t-38 226.5zM922 1316h-582v146h582v-146z" />
<glyph unicode="&#x150;" horiz-adv-x="1642" d="M113 0zM317 717q0 -130 36.5 -236t103 -181t159.5 -116t205 -41t205 41t159.5 116t103 181t36.5 236t-36.5 235.5t-103 180.5t-159.5 116t-205 41t-205 -41t-159.5 -116t-103 -180.5t-36.5 -235.5zM113 717q0 164 52.5 301t146 235.5t223.5 153.5t286 55t286.5 -55 t224 -153.5t146 -235.5t52.5 -301t-52.5 -301t-146 -236t-224 -154t-286.5 -55t-286 55t-223.5 154t-146 236t-52.5 301zM938 1927l-362 -301h-162l250 301h274zM1356 1927l-363 -301h-161l250 301h274z" />
<glyph unicode="&#x151;" horiz-adv-x="1262" d="M113 0zM305 532q0 -92 23 -166t65.5 -126.5t102.5 -80.5t135 -28q74 0 134 28t102.5 80.5t65.5 126.5t23 166t-23 166.5t-65.5 127t-102.5 80.5t-134 28q-75 0 -135 -28t-102.5 -80.5t-65.5 -127t-23 -166.5zM113 532q0 124 38 227t106.5 177.5t164 116t209.5 41.5 t209.5 -41.5t164 -116t106.5 -177.5t38 -227q0 -123 -38 -226.5t-106.5 -177.5t-164 -115.5t-209.5 -41.5t-209.5 41.5t-164 115.5t-106.5 177.5t-38 226.5zM766 1556l-362 -301h-162l250 301h274zM1184 1556l-363 -301h-161l250 301h274z" />
<glyph unicode="&#x152;" horiz-adv-x="1942" d="M1223 164h606v-164h-797q-49 -14 -102 -21.5t-109 -7.5q-156 0 -286 55t-223.5 154t-146 236t-52.5 301t52.5 301t146 235.5t223.5 153.5t286 55q56 0 108 -7t101 -21h799v-164h-606v-420h544v-164h-544v-522zM821 143q57 0 110 10.5t99 30.5v1063q-93 43 -209 43 q-112 0 -205 -41t-159.5 -116t-103 -180.5t-36.5 -235.5t36.5 -236t103 -181t159.5 -116t205 -41z" />
<glyph unicode="&#x153;" horiz-adv-x="2044" d="M1466 1094q105 0 190.5 -34t146.5 -97.5t94.5 -154t33.5 -202.5q0 -19 -0.5 -37.5t-1.5 -33.5q-1 -18 -2 -35h-776q3 -86 27 -154.5t69 -116t111.5 -73t154.5 -25.5q55 0 106 9t97.5 24.5t88 35t77.5 40.5v-172q-35 -20 -78 -38t-91.5 -31t-101.5 -20.5t-108 -7.5 q-151 0 -265 58t-185 161q-68 -103 -176.5 -161t-245.5 -58q-114 0 -209.5 41.5t-164 115.5t-106.5 177.5t-38 226.5q0 124 38 227t106.5 177.5t164 116t209.5 41.5q137 0 245.5 -59t176.5 -163q68 104 174 163t239 59zM305 532q0 -92 23 -166t65.5 -126.5t102.5 -80.5 t135 -28q74 0 134 28t102.5 80.5t65.5 126.5t23 166t-23 166.5t-65.5 127t-102.5 80.5t-134 28q-75 0 -135 -28t-102.5 -80.5t-65.5 -127t-23 -166.5zM1464 934q-60 0 -109.5 -19.5t-88.5 -56t-65.5 -89t-39.5 -118.5h574q0 75 -22 129t-59 88t-86 50t-104 16z" />
<glyph unicode="&#x154;" horiz-adv-x="1276" d="M205 0zM205 1434h381q123 0 220.5 -31t165 -87.5t103 -135.5t35.5 -176q0 -141 -73 -242.5t-208 -149.5l445 -612h-240l-395 575h-242v-575h-192v1434zM905 1004q0 133 -80.5 199.5t-238.5 66.5h-189v-533h189q158 0 238.5 66.5t80.5 200.5zM940 1898l-362 -301h-162 l250 301h274z" />
<glyph unicode="&#x155;" horiz-adv-x="797" d="M170 0zM184 795q0 59 -2.5 108.5t-4.5 85.5q-4 42 -7 76h158q5 -18 10 -39q5 -19 9.5 -44t8.5 -56h4q31 47 67 79t74 52t77.5 28.5t78.5 8.5q28 0 49.5 -4t37.5 -9q18 -5 32 -12v-184q-20 8 -44 14q-21 5 -49 9.5t-60 4.5q-61 0 -109 -20t-81 -44q-39 -28 -68 -63v-786 h-181v795zM815 1556l-362 -301h-162l250 301h274z" />
<glyph unicode="&#x156;" horiz-adv-x="1276" d="M205 0zM205 1434h381q123 0 220.5 -31t165 -87.5t103 -135.5t35.5 -176q0 -141 -73 -242.5t-208 -149.5l445 -612h-240l-395 575h-242v-575h-192v1434zM905 1004q0 133 -80.5 199.5t-238.5 66.5h-189v-533h189q158 0 238.5 66.5t80.5 200.5zM526 -308q0 31 11 58t31 46 t46.5 30t58.5 11t61 -12t50.5 -35.5t34 -58.5t12.5 -80q0 -53 -17.5 -108t-49 -107.5t-75.5 -101t-96 -89.5l-65 72q66 60 104.5 121t44.5 106q-32 1 -59.5 12.5t-47.5 31t-32 46t-12 58.5z" />
<glyph unicode="&#x157;" horiz-adv-x="797" d="M170 0zM184 795q0 59 -2.5 108.5t-4.5 85.5q-4 42 -7 76h158q5 -18 10 -39q5 -19 9.5 -44t8.5 -56h4q31 47 67 79t74 52t77.5 28.5t78.5 8.5q28 0 49.5 -4t37.5 -9q18 -5 32 -12v-184q-20 8 -44 14q-21 5 -49 9.5t-60 4.5q-61 0 -109 -20t-81 -44q-39 -28 -68 -63v-786 h-181v795zM277 -308q0 31 11 58t31 46t46.5 30t58.5 11t61 -12t50.5 -35.5t34 -58.5t12.5 -80q0 -53 -17.5 -108t-49 -107.5t-75.5 -101t-96 -89.5l-65 72q66 60 104.5 121t44.5 106q-32 1 -59.5 12.5t-47.5 31t-32 46t-12 58.5z" />
<glyph unicode="&#x158;" horiz-adv-x="1276" d="M205 0zM205 1434h381q123 0 220.5 -31t165 -87.5t103 -135.5t35.5 -176q0 -141 -73 -242.5t-208 -149.5l445 -612h-240l-395 575h-242v-575h-192v1434zM905 1004q0 133 -80.5 199.5t-238.5 66.5h-189v-533h189q158 0 238.5 66.5t80.5 200.5zM500 1597l-250 301h182 l164 -196l164 196h182l-250 -301h-192z" />
<glyph unicode="&#x159;" horiz-adv-x="797" d="M85 0zM184 795q0 59 -2.5 108.5t-4.5 85.5q-4 42 -7 76h158q5 -18 10 -39q5 -19 9.5 -44t8.5 -56h4q31 47 67 79t74 52t77.5 28.5t78.5 8.5q28 0 49.5 -4t37.5 -9q18 -5 32 -12v-184q-20 8 -44 14q-21 5 -49 9.5t-60 4.5q-61 0 -109 -20t-81 -44q-39 -28 -68 -63v-786 h-181v795zM335 1255l-250 301h182l164 -196l164 196h182l-250 -301h-192z" />
<glyph unicode="&#x15a;" horiz-adv-x="1067" d="M123 0zM754 379q0 58 -26.5 101.5t-70.5 78.5t-99.5 65t-114 61.5t-114 67t-99.5 82t-70.5 106.5t-26.5 140q0 91 32.5 161.5t90.5 119.5t137.5 74.5t173.5 25.5q53 0 102 -7.5t91 -19.5t75 -26t56 -27v-215q-23 21 -56.5 43t-75.5 40.5t-90 30t-100 11.5 q-55 0 -98.5 -15t-74 -41t-46.5 -62t-16 -78q0 -55 26.5 -96.5t70 -76t99.5 -65t114 -63t114 -70t99.5 -85.5t70 -110.5t26.5 -144.5q0 -95 -37 -171.5t-102 -130.5t-152.5 -83t-187.5 -29q-57 0 -111.5 9.5t-100.5 23.5t-82.5 30t-57.5 29v211q25 -24 62.5 -47.5t83 -42.5 t97 -31t105.5 -12q61 0 113 17.5t90 49t59 75.5t21 96zM858 1927l-362 -301h-162l250 301h274z" />
<glyph unicode="&#x15b;" horiz-adv-x="926" d="M123 0zM631 285q0 41 -21.5 70.5t-56 53t-79.5 43t-91.5 40.5t-91 46t-79 59t-56 79.5t-21.5 107.5q0 69 26 126.5t72.5 98t111.5 63t142 22.5q47 0 89 -7t77 -18t63 -24.5t46 -26.5v-184q-53 43 -124 71.5t-146 30.5q-45 1 -77.5 -10t-54.5 -30t-32.5 -43t-10.5 -50 q0 -38 21.5 -66t56 -50.5t79 -42.5t91 -42t91.5 -49t79.5 -63.5t56 -85.5t21.5 -115q0 -73 -28 -132t-79 -100t-121.5 -63.5t-154.5 -22.5q-51 0 -98.5 9t-87.5 22.5t-71 30t-50 30.5v179q30 -26 67 -46.5t77 -35.5t82 -23t83 -8q46 0 83 12t62.5 33t39.5 49.5t14 61.5z M786 1556l-362 -301h-162l250 301h274z" />
<glyph unicode="&#x15e;" horiz-adv-x="1067" d="M123 0zM754 379q0 58 -26.5 101.5t-70.5 78.5t-99.5 65t-114 61.5t-114 67t-99.5 82t-70.5 106.5t-26.5 140q0 91 32.5 161.5t90.5 119.5t137.5 74.5t173.5 25.5q53 0 102 -7.5t91 -19.5t75 -26t56 -27v-215q-23 21 -56.5 43t-75.5 40.5t-90 30t-100 11.5 q-55 0 -98.5 -15t-74 -41t-46.5 -62t-16 -78q0 -55 26.5 -96.5t70 -76t99.5 -65t114 -63t114 -70t99.5 -85.5t70 -110.5t26.5 -144.5q0 -95 -37 -171.5t-102 -130.5t-152.5 -83t-187.5 -29q-57 0 -111.5 9.5t-100.5 23.5t-82.5 30t-57.5 29v211q25 -24 62.5 -47.5t83 -42.5 t97 -31t105.5 -12q61 0 113 17.5t90 49t59 75.5t21 96zM334 -367q18 -10 40 -17q18 -7 42.5 -12t50.5 -5q51 0 80 22.5t29 61.5q0 48 -47.5 77t-149.5 29l119 211h139l-84 -133q38 -8 71 -23.5t57 -38.5t38 -53.5t14 -68.5q0 -50 -22 -87.5t-58.5 -62.5t-83.5 -38t-96 -13 q-29 0 -54 3.5t-44 8.5q-22 5 -41 12v127z" />
<glyph unicode="&#x15f;" horiz-adv-x="926" d="M123 0zM631 285q0 41 -21.5 70.5t-56 53t-79.5 43t-91.5 40.5t-91 46t-79 59t-56 79.5t-21.5 107.5q0 69 26 126.5t72.5 98t111.5 63t142 22.5q47 0 89 -7t77 -18t63 -24.5t46 -26.5v-184q-53 43 -124 71.5t-146 30.5q-45 1 -77.5 -10t-54.5 -30t-32.5 -43t-10.5 -50 q0 -38 21.5 -66t56 -50.5t79 -42.5t91 -42t91.5 -49t79.5 -63.5t56 -85.5t21.5 -115q0 -73 -28 -132t-79 -100t-121.5 -63.5t-154.5 -22.5q-51 0 -98.5 9t-87.5 22.5t-71 30t-50 30.5v179q30 -26 67 -46.5t77 -35.5t82 -23t83 -8q46 0 83 12t62.5 33t39.5 49.5t14 61.5z M281 -367q18 -10 40 -17q18 -7 42.5 -12t50.5 -5q51 0 80 22.5t29 61.5q0 48 -47.5 77t-149.5 29l119 211h139l-84 -133q38 -8 71 -23.5t57 -38.5t38 -53.5t14 -68.5q0 -50 -22 -87.5t-58.5 -62.5t-83.5 -38t-96 -13q-29 0 -54 3.5t-44 8.5q-22 5 -41 12v127z" />
<glyph unicode="&#x160;" horiz-adv-x="1067" d="M123 0zM754 379q0 58 -26.5 101.5t-70.5 78.5t-99.5 65t-114 61.5t-114 67t-99.5 82t-70.5 106.5t-26.5 140q0 91 32.5 161.5t90.5 119.5t137.5 74.5t173.5 25.5q53 0 102 -7.5t91 -19.5t75 -26t56 -27v-215q-23 21 -56.5 43t-75.5 40.5t-90 30t-100 11.5 q-55 0 -98.5 -15t-74 -41t-46.5 -62t-16 -78q0 -55 26.5 -96.5t70 -76t99.5 -65t114 -63t114 -70t99.5 -85.5t70 -110.5t26.5 -144.5q0 -95 -37 -171.5t-102 -130.5t-152.5 -83t-187.5 -29q-57 0 -111.5 9.5t-100.5 23.5t-82.5 30t-57.5 29v211q25 -24 62.5 -47.5t83 -42.5 t97 -31t105.5 -12q61 0 113 17.5t90 49t59 75.5t21 96zM439 1626l-250 301h182l164 -196l164 196h182l-250 -301h-192z" />
<glyph unicode="&#x161;" horiz-adv-x="930" d="M123 0zM635 285q0 41 -21.5 70.5t-56 53t-79.5 43t-91.5 40.5t-91 46t-79 59t-56 79.5t-21.5 107.5q0 69 26 126.5t72.5 98t111.5 63t142 22.5q47 0 89 -7t77 -18t63 -24.5t46 -26.5v-184q-53 43 -124 71.5t-146 30.5q-45 1 -77.5 -10t-54.5 -30t-32.5 -43t-10.5 -50 q0 -38 21.5 -66t56 -50.5t79 -42.5t91 -42t91.5 -49t79.5 -63.5t56 -85.5t21.5 -115q0 -73 -28 -132t-79 -100t-121.5 -63.5t-154.5 -22.5q-51 0 -98.5 9t-87.5 22.5t-71 30t-50 30.5v179q30 -26 67 -46.5t77 -35.5t82 -23t83 -8q46 0 83 12t62.5 33t39.5 49.5t14 61.5z M373 1255l-250 301h182l164 -196l164 196h182l-250 -301h-192z" />
<glyph unicode="&#x162;" horiz-adv-x="1094" d="M8 0zM643 0h-192v1270h-443v164h1077v-164h-442v-1270zM340 -367q18 -10 40 -17q18 -7 42.5 -12t50.5 -5q51 0 80 22.5t29 61.5q0 48 -47.5 77t-149.5 29l119 211h139l-84 -133q38 -8 71 -23.5t57 -38.5t38 -53.5t14 -68.5q0 -50 -22 -87.5t-58.5 -62.5t-83.5 -38 t-96 -13q-29 0 -54 3.5t-44 8.5q-22 5 -41 12v127z" />
<glyph unicode="&#x163;" horiz-adv-x="733" d="M51 0zM225 1065v235l181 41v-276h256v-152h-256v-634q0 -85 34 -118.5t99 -33.5q25 0 49 3t43 7q22 4 41 10v-155q-24 -7 -50 -11q-23 -4 -51.5 -7t-60.5 -3q-141 0 -213 82.5t-72 227.5v632h-174v152h174zM369 -374q18 -10 40 -17q18 -7 42.5 -12t50.5 -5q51 0 80 22.5 t29 61.5q0 48 -47.5 77t-149.5 29l119 211h139l-84 -133q38 -8 71 -23.5t57 -38.5t38 -53.5t14 -68.5q0 -50 -22 -87.5t-58.5 -62.5t-83.5 -38t-96 -13q-29 0 -54 3.5t-44 8.5q-22 5 -41 12v127z" />
<glyph unicode="&#x164;" horiz-adv-x="1094" d="M8 0zM643 0h-192v1270h-443v164h1077v-164h-442v-1270zM451 1597l-250 301h182l164 -196l164 196h182l-250 -301h-192z" />
<glyph unicode="&#x165;" horiz-adv-x="860" d="M51 0zM225 1065v235l181 41v-276h256v-152h-256v-634q0 -85 34 -118.5t99 -33.5q25 0 49 3t43 7q22 4 41 10v-155q-24 -7 -50 -11q-23 -4 -51.5 -7t-60.5 -3q-141 0 -213 82.5t-72 227.5v632h-174v152h174zM557 1313q66 60 104.5 121t44.5 106q-32 1 -59.5 12.5t-47.5 31 t-32 46t-12 58.5q0 31 11 58t31 46t46.5 30t58.5 11t61 -12t50.5 -35.5t34 -58.5t12.5 -80q0 -53 -17.5 -107.5t-49 -107.5t-75.5 -101.5t-96 -89.5l-65 72v0z" />
<glyph unicode="&#x16a;" horiz-adv-x="1495" d="M195 0zM195 1434h192v-936q0 -97 25 -165t71.5 -111t113.5 -63t151 -20t150.5 20t113 63t71.5 111t25 165v936h192v-934q0 -135 -40.5 -235t-113 -165t-174 -97t-224.5 -32t-225 32t-174.5 97t-113 165t-40.5 235v934zM1039 1679h-582v146h582v-146z" />
<glyph unicode="&#x16b;" d="M176 0zM883 1065h180v-795q0 -60 2 -109t5 -85q3 -42 7 -76h-159q-6 15 -10 35q-9 34 -17 94q-23 -22 -56.5 -49.5t-77.5 -51.5t-99 -40.5t-119 -16.5q-105 0 -174.5 36t-111.5 93.5t-59.5 129t-17.5 141.5v694h180v-684q0 -59 17 -105t48.5 -78.5t75 -49.5t97.5 -17 q50 0 95.5 16.5t83.5 39t66.5 47t43.5 40.5v791zM912 1316h-582v146h582v-146z" />
<glyph unicode="&#x16e;" horiz-adv-x="1495" d="M195 0zM195 1434h192v-936q0 -97 25 -165t71.5 -111t113.5 -63t151 -20t150.5 20t113 63t71.5 111t25 165v936h192v-934q0 -135 -40.5 -235t-113 -165t-174 -97t-224.5 -32t-225 32t-174.5 97t-113 165t-40.5 235v934zM635 1794q0 -57 30.5 -90t81.5 -33t82 33t31 90 q0 55 -31 87.5t-82 32.5t-81.5 -32.5t-30.5 -87.5zM512 1794q0 52 17 95.5t48 74.5t74.5 48t95.5 17t95.5 -17t75 -48t48.5 -74.5t17 -95.5q0 -53 -17 -97t-48.5 -75.5t-75 -48.5t-95.5 -17t-95.5 17t-74.5 48.5t-48 75.5t-17 97z" />
<glyph unicode="&#x16f;" d="M176 0zM883 1065h180v-795q0 -60 2 -109t5 -85q3 -42 7 -76h-159q-6 15 -10 35q-9 34 -17 94q-23 -22 -56.5 -49.5t-77.5 -51.5t-99 -40.5t-119 -16.5q-105 0 -174.5 36t-111.5 93.5t-59.5 129t-17.5 141.5v694h180v-684q0 -59 17 -105t48.5 -78.5t75 -49.5t97.5 -17 q50 0 95.5 16.5t83.5 39t66.5 47t43.5 40.5v791zM508 1432q0 -57 30.5 -90t81.5 -33t82 33t31 90q0 55 -31 87.5t-82 32.5t-81.5 -32.5t-30.5 -87.5zM385 1432q0 52 17 95.5t48 74.5t74.5 48t95.5 17t95.5 -17t75 -48t48.5 -74.5t17 -95.5q0 -53 -17 -97t-48.5 -75.5 t-75 -48.5t-95.5 -17t-95.5 17t-74.5 48.5t-48 75.5t-17 97z" />
<glyph unicode="&#x170;" horiz-adv-x="1495" d="M195 0zM195 1434h192v-936q0 -97 25 -165t71.5 -111t113.5 -63t151 -20t150.5 20t113 63t71.5 111t25 165v936h192v-934q0 -135 -40.5 -235t-113 -165t-174 -97t-224.5 -32t-225 32t-174.5 97t-113 165t-40.5 235v934zM883 1898l-362 -301h-162l250 301h274zM1301 1898 l-363 -301h-161l250 301h274z" />
<glyph unicode="&#x171;" d="M176 0zM883 1065h180v-795q0 -60 2 -109t5 -85q3 -42 7 -76h-159q-6 15 -10 35q-9 34 -17 94q-23 -22 -56.5 -49.5t-77.5 -51.5t-99 -40.5t-119 -16.5q-105 0 -174.5 36t-111.5 93.5t-59.5 129t-17.5 141.5v694h180v-684q0 -59 17 -105t48.5 -78.5t75 -49.5t97.5 -17 q50 0 95.5 16.5t83.5 39t66.5 47t43.5 40.5v791zM735 1556l-362 -301h-162l250 301h274zM1153 1556l-363 -301h-161l250 301h274z" />
<glyph unicode="&#x172;" horiz-adv-x="1495" d="M195 0zM195 1434h192v-936q0 -97 25 -165t71.5 -111t113.5 -63t151 -20t150.5 20t113 63t71.5 111t25 165v936h192v-934q0 -135 -40.5 -235t-113 -165t-174 -97t-224.5 -32t-225 32t-174.5 97t-113 165t-40.5 235v934zM956 0q-38 -41 -67 -85q-25 -38 -45.5 -84 t-20.5 -91q0 -35 14 -58.5t35 -37.5t46 -19.5t47 -5.5q23 0 43.5 4.5t35.5 10.5q18 7 33 16v-137q-16 -12 -42 -22q-22 -8 -54.5 -14.5t-77.5 -6.5q-52 0 -96.5 12.5t-77.5 39t-51.5 67.5t-18.5 98q0 69 23.5 126t52.5 99q33 48 76 88h145z" />
<glyph unicode="&#x173;" d="M176 0zM883 1065h180v-795q0 -60 2 -109t5 -85q3 -42 7 -76h-159q-6 15 -10 35q-9 34 -17 94q-23 -22 -56.5 -49.5t-77.5 -51.5t-99 -40.5t-119 -16.5q-105 0 -174.5 36t-111.5 93.5t-59.5 129t-17.5 141.5v694h180v-684q0 -59 17 -105t48.5 -78.5t75 -49.5t97.5 -17 q50 0 95.5 16.5t83.5 39t66.5 47t43.5 40.5v791zM1063 0q-38 -41 -67 -85q-25 -38 -45.5 -84t-20.5 -91q0 -35 14 -58.5t35 -37.5t46 -19.5t47 -5.5q23 0 43.5 4.5t35.5 10.5q18 7 33 16v-137q-16 -12 -42 -22q-22 -8 -54.5 -14.5t-77.5 -6.5q-52 0 -96.5 12.5t-77.5 39 t-51.5 67.5t-18.5 98q0 69 23.5 126t52.5 99q33 48 76 88h145z" />
<glyph unicode="&#x178;" horiz-adv-x="1094" d="M2 0zM643 588v-588h-192v588l-449 846h213l332 -656l332 656h213zM240 1708q0 48 31 79t79 31q24 0 44.5 -8.5t35 -23t23 -34.5t8.5 -44q0 -48 -31.5 -79.5t-79.5 -31.5q-24 0 -44 8.5t-34.5 23t-23 35t-8.5 44.5zM631 1708q0 24 8.5 44t23 34.5t35 23t44.5 8.5 q48 0 79 -31t31 -79q0 -24 -8.5 -44.5t-23 -35t-34.5 -23t-44 -8.5q-48 0 -79.5 31.5t-31.5 79.5z" />
<glyph unicode="&#x179;" horiz-adv-x="1143" d="M90 0zM1022 1434v-62l-666 -1208h697v-164h-963v61l664 1209h-643v164h911zM915 1898l-362 -301h-162l250 301h274z" />
<glyph unicode="&#x17a;" horiz-adv-x="942" d="M61 0zM594 913h-512v152h768v-61l-533 -852h553v-152h-809v61zM809 1556l-362 -301h-162l250 301h274z" />
<glyph unicode="&#x17b;" horiz-adv-x="1143" d="M90 0zM1022 1434v-62l-666 -1208h697v-164h-963v61l664 1209h-643v164h911zM404 1744q0 31 11 58t31 46.5t46.5 30.5t58.5 11q31 0 58 -11t46.5 -30.5t30.5 -46.5t11 -58q0 -32 -11 -58.5t-30.5 -46.5t-46.5 -31t-58 -11q-32 0 -58.5 11t-46.5 31t-31 46.5t-11 58.5z" />
<glyph unicode="&#x17c;" horiz-adv-x="942" d="M61 0zM594 913h-512v152h768v-61l-533 -852h553v-152h-809v61zM320 1382q0 31 11 58t31 46.5t46.5 30.5t58.5 11q31 0 58 -11t46.5 -30.5t30.5 -46.5t11 -58q0 -32 -11 -58.5t-30.5 -46.5t-46.5 -31t-58 -11q-32 0 -58.5 11t-46.5 31t-31 46.5t-11 58.5z" />
<glyph unicode="&#x17d;" horiz-adv-x="1143" d="M90 0zM1022 1434v-62l-666 -1208h697v-164h-963v61l664 1209h-643v164h911zM475 1603l-250 301h182l164 -196l164 196h182l-250 -301h-192z" />
<glyph unicode="&#x17e;" horiz-adv-x="942" d="M61 0zM594 913h-512v152h768v-61l-533 -852h553v-152h-809v61zM370 1255l-250 301h182l164 -196l164 196h182l-250 -301h-192z" />
<glyph unicode="&#x192;" horiz-adv-x="905" d="M233 942h191l39 264q18 135 95 212t208 77q28 0 52.5 -3t44.5 -7q22 -4 42 -10l-22 -156q-15 6 -33 10q-15 4 -35 7t-41 3q-56 0 -89 -28.5t-42 -102.5l-39 -266h225l-20 -151h-225l-144 -1014q-18 -135 -95.5 -212t-207.5 -77q-27 0 -51.5 3t-43.5 7q-22 4 -42 10 l23 156q14 -6 32 -10q15 -4 34 -7t40 -3q55 0 87.5 28.5t43.5 102.5l143 1016h-190z" />
<glyph unicode="&#x218;" horiz-adv-x="1067" d="M123 0zM754 379q0 58 -26.5 101.5t-70.5 78.5t-99.5 65t-114 61.5t-114 67t-99.5 82t-70.5 106.5t-26.5 140q0 91 32.5 161.5t90.5 119.5t137.5 74.5t173.5 25.5q53 0 102 -7.5t91 -19.5t75 -26t56 -27v-215q-23 21 -56.5 43t-75.5 40.5t-90 30t-100 11.5 q-55 0 -98.5 -15t-74 -41t-46.5 -62t-16 -78q0 -55 26.5 -96.5t70 -76t99.5 -65t114 -63t114 -70t99.5 -85.5t70 -110.5t26.5 -144.5q0 -95 -37 -171.5t-102 -130.5t-152.5 -83t-187.5 -29q-57 0 -111.5 9.5t-100.5 23.5t-82.5 30t-57.5 29v211q25 -24 62.5 -47.5t83 -42.5 t97 -31t105.5 -12q61 0 113 17.5t90 49t59 75.5t21 96zM381 -365q0 31 11 58t31 46t46.5 30t58.5 11t61 -12t50.5 -35.5t34 -58.5t12.5 -80q0 -53 -17.5 -108t-49 -107.5t-75.5 -101t-96 -89.5l-65 72q66 60 104.5 121t44.5 106q-32 1 -59.5 12.5t-47.5 31t-32 46t-12 58.5z " />
<glyph unicode="&#x219;" horiz-adv-x="926" d="M123 0zM631 285q0 41 -21.5 70.5t-56 53t-79.5 43t-91.5 40.5t-91 46t-79 59t-56 79.5t-21.5 107.5q0 69 26 126.5t72.5 98t111.5 63t142 22.5q47 0 89 -7t77 -18t63 -24.5t46 -26.5v-184q-53 43 -124 71.5t-146 30.5q-45 1 -77.5 -10t-54.5 -30t-32.5 -43t-10.5 -50 q0 -38 21.5 -66t56 -50.5t79 -42.5t91 -42t91.5 -49t79.5 -63.5t56 -85.5t21.5 -115q0 -73 -28 -132t-79 -100t-121.5 -63.5t-154.5 -22.5q-51 0 -98.5 9t-87.5 22.5t-71 30t-50 30.5v179q30 -26 67 -46.5t77 -35.5t82 -23t83 -8q46 0 83 12t62.5 33t39.5 49.5t14 61.5z M311 -337q0 31 11 58t31 46t46.5 30t58.5 11t61 -12t50.5 -35.5t34 -58.5t12.5 -80q0 -53 -17.5 -108t-49 -107.5t-75.5 -101t-96 -89.5l-65 72q66 60 104.5 121t44.5 106q-32 1 -59.5 12.5t-47.5 31t-32 46t-12 58.5z" />
<glyph unicode="&#x21a;" horiz-adv-x="1094" d="M8 0zM643 0h-192v1270h-443v164h1077v-164h-442v-1270zM391 -337q0 31 11 58t31 46t46.5 30t58.5 11t61 -12t50.5 -35.5t34 -58.5t12.5 -80q0 -53 -17.5 -108t-49 -107.5t-75.5 -101t-96 -89.5l-65 72q66 60 104.5 121t44.5 106q-32 1 -59.5 12.5t-47.5 31t-32 46 t-12 58.5z" />
<glyph unicode="&#x21b;" horiz-adv-x="743" d="M51 0zM225 1065v235l181 41v-276h256v-152h-256v-634q0 -85 34 -118.5t99 -33.5q25 0 49 3t43 7q22 4 41 10v-155q-24 -7 -50 -11q-23 -4 -51.5 -7t-60.5 -3q-141 0 -213 82.5t-72 227.5v632h-174v152h174zM250 -337q0 31 11 58t31 46t46.5 30t58.5 11t61 -12t50.5 -35.5 t34 -58.5t12.5 -80q0 -53 -17.5 -108t-49 -107.5t-75.5 -101t-96 -89.5l-65 72q66 60 104.5 121t44.5 106q-32 1 -59.5 12.5t-47.5 31t-32 46t-12 58.5z" />
<glyph unicode="&#x2c6;" horiz-adv-x="938" d="M565 1556l250 -301h-182l-164 197l-164 -197h-182l250 301h192z" />
<glyph unicode="&#x2c7;" horiz-adv-x="938" d="M373 1255l-250 301h182l164 -196l164 196h182l-250 -301h-192z" />
<glyph unicode="&#x2d8;" horiz-adv-x="889" d="M444 1362q83 0 125 51t56 143h141q-4 -68 -25.5 -127.5t-61.5 -103.5t-98.5 -69t-136.5 -25q-77 0 -135.5 25t-98.5 69t-61.5 103.5t-25.5 127.5h141q7 -46 20.5 -82t35.5 -61t52.5 -38t71.5 -13z" />
<glyph unicode="&#x2d9;" horiz-adv-x="539" d="M123 1382q0 31 11 58t31 46.5t46.5 30.5t58.5 11q31 0 58 -11t46.5 -30.5t30.5 -46.5t11 -58q0 -32 -11 -58.5t-30.5 -46.5t-46.5 -31t-58 -11q-32 0 -58.5 11t-46.5 31t-31 46.5t-11 58.5z" />
<glyph unicode="&#x2da;" horiz-adv-x="717" d="M246 1432q0 -57 30.5 -90t81.5 -33t82 33t31 90q0 55 -31 87.5t-82 32.5t-81.5 -32.5t-30.5 -87.5zM123 1432q0 52 17 95.5t48 74.5t74.5 48t95.5 17t95.5 -17t75 -48t48.5 -74.5t17 -95.5q0 -53 -17 -97t-48.5 -75.5t-75 -48.5t-95.5 -17t-95.5 17t-74.5 48.5t-48 75.5 t-17 97z" />
<glyph unicode="&#x2db;" horiz-adv-x="623" d="M399 0q-38 -41 -67 -85q-25 -38 -45.5 -84t-20.5 -91q0 -35 14 -58.5t35 -37.5t46 -19.5t47 -5.5q23 0 43.5 4.5t35.5 10.5q18 7 33 16v-137q-16 -12 -42 -22q-22 -8 -54.5 -14.5t-77.5 -6.5q-52 0 -96.5 12.5t-77.5 39t-51.5 67.5t-18.5 98q0 69 23.5 126t52.5 99 q33 48 76 88h145z" />
<glyph unicode="&#x2dc;" horiz-adv-x="995" d="M872 1571q0 -55 -13 -107t-41 -92.5t-72.5 -65t-106.5 -24.5q-41 0 -71 11t-54 28t-43.5 36t-38.5 36t-40.5 28t-49.5 11q-30 0 -48 -14.5t-27.5 -36.5t-13.5 -48.5t-5 -50.5h-125q0 53 13 104.5t40.5 92.5t71 66.5t104.5 25.5q39 0 69.5 -11t54.5 -28t44 -36t40 -36 t41 -28t48 -11q30 0 48.5 16.5t29 39.5t15 49t6.5 45h124z" />
<glyph unicode="&#x2dd;" horiz-adv-x="1188" d="M647 1556l-362 -301h-162l250 301h274zM1065 1556l-363 -301h-161l250 301h274z" />
<glyph unicode="&#x3c0;" horiz-adv-x="1440" d="M909 913h-379v-913h-180v913h-186v152h1112v-152h-186v-637q0 -72 30 -99t82 -27q17 0 30.5 2t22.5 4q11 3 19 6v-152q-23 -9 -57 -14.5t-60 -5.5q-56 0 -101.5 17t-78 50t-50.5 82.5t-18 114.5v659z" />
<glyph unicode="&#x2013;" horiz-adv-x="1327" d="M123 694h1081v-151h-1081v151z" />
<glyph unicode="&#x2014;" horiz-adv-x="2304" d="M123 694h2058v-151h-2058v151z" />
<glyph unicode="&#x2018;" horiz-adv-x="430" d="M307 1016q0 -32 -11 -58.5t-31 -46t-47 -30.5t-58 -11q-32 0 -61 12t-50.5 36t-34 59t-12.5 80q0 53 17.5 107.5t49 107t75 101t96.5 89.5l65 -71q-66 -60 -104.5 -121.5t-44.5 -106.5q31 -1 59 -12t48 -30.5t32 -46.5t12 -58z" />
<glyph unicode="&#x2019;" horiz-adv-x="518" d="M125 942q66 60 104.5 121t44.5 106q-32 1 -59.5 12.5t-47.5 31t-32 46t-12 58.5q0 31 11 58t31 46t46.5 30t58.5 11t61 -12t50.5 -35.5t34 -58.5t12.5 -80q0 -53 -17.5 -107.5t-49 -107.5t-75.5 -101.5t-96 -89.5l-65 72v0z" />
<glyph unicode="&#x201a;" horiz-adv-x="485" d="M90 119q0 31 11.5 58t31 46t46.5 30t59 11t60.5 -12t50 -35.5t34 -58.5t12.5 -80q0 -53 -17.5 -107.5t-49 -107.5t-75 -101.5t-95.5 -89.5l-66 72q66 60 104.5 121t45.5 106q-32 1 -59.5 12.5t-48 31t-32.5 46t-12 58.5z" />
<glyph unicode="&#x201c;" horiz-adv-x="891" d="M768 1016q0 -32 -11 -58.5t-31 -46t-47 -30.5t-58 -11q-32 0 -61 12t-50.5 36t-34 59t-12.5 80q0 53 17.5 107.5t49 107t75 101t95.5 89.5l66 -71q-66 -60 -104.5 -121.5t-45.5 -106.5q31 -1 59 -12t48.5 -30.5t32.5 -46.5t12 -58zM395 1016q0 -32 -11 -58.5t-31 -46 t-47 -30.5t-58 -11q-32 0 -61 12t-50.5 36t-34 59t-12.5 80q0 53 17.5 107.5t49 107t75 101t96.5 89.5l65 -71q-66 -60 -104.5 -121.5t-44.5 -106.5q31 -1 59 -12t48 -30.5t32 -46.5t12 -58z" />
<glyph unicode="&#x201d;" horiz-adv-x="891" d="M125 942q66 60 104.5 121t44.5 106q-32 1 -59.5 12.5t-47.5 31t-32 46t-12 58.5q0 31 11 58t31 46t46.5 30t58.5 11t61 -12t50.5 -35.5t34 -58.5t12.5 -80q0 -53 -17.5 -107.5t-49 -107.5t-75.5 -101.5t-96 -89.5zM498 942q66 60 104.5 121t44.5 106q-32 1 -59.5 12.5 t-47.5 31t-32 46t-12 58.5q0 31 11 58t31 46t46.5 30t58.5 11t61 -12t50.5 -35.5t34 -58.5t12.5 -80q0 -53 -17.5 -107.5t-49 -107.5t-75.5 -101.5t-96 -89.5z" />
<glyph unicode="&#x201e;" horiz-adv-x="858" d="M92 -256q66 60 104.5 121t45.5 106q-32 1 -59.5 12.5t-48 31t-32.5 46t-12 58.5q0 31 11.5 58t31 46t46.5 30t59 11t60.5 -12t50 -35.5t34 -58.5t12.5 -80q0 -53 -17.5 -107.5t-49 -107.5t-75 -101.5t-95.5 -89.5zM465 -256q66 60 104.5 121t44.5 106q-32 1 -59.5 12.5 t-47.5 31t-32 46t-12 58.5q0 31 11 58t31 46t46.5 30t58.5 11t61 -12t50.5 -35.5t34 -58.5t12.5 -80q0 -53 -17.5 -107.5t-49 -107.5t-75.5 -101.5t-96 -89.5z" />
<glyph unicode="&#x2020;" horiz-adv-x="1192" d="M692 -309h-192l14 1155l-391 -12v163l391 -18l-14 483h192l-14 -483l391 18v-163l-391 12z" />
<glyph unicode="&#x2021;" horiz-adv-x="1274" d="M1110 319v-163l-391 18l14 -483h-192l14 483l-391 -18v163l391 -12l-8 275l8 264l-391 -12v163l391 -18l-14 483h192l-14 -483l391 18v-163l-391 12l8 -264l-8 -275z" />
<glyph unicode="&#x2022;" horiz-adv-x="752" d="M164 670q0 44 16 83t44.5 68t67 45.5t83.5 16.5t83.5 -16.5t67.5 -45.5t45.5 -68t16.5 -83q0 -45 -16.5 -83.5t-45.5 -67t-67.5 -44.5t-83.5 -16t-83.5 16t-67 44.5t-44.5 67t-16 83.5z" />
<glyph unicode="&#x2026;" horiz-adv-x="1468" d="M90 119q0 31 11.5 58t31 46t46.5 30t59 11q31 0 58 -11t46 -30t30 -46t11 -58q0 -32 -11 -59t-30 -46.5t-46 -31t-58 -11.5q-32 0 -59 11.5t-46.5 31t-31 46.5t-11.5 59zM588 119q0 31 11 58t31 46t46.5 30t58.5 11q31 0 58 -11t46.5 -30t30.5 -46t11 -58q0 -32 -11 -59 t-30.5 -46.5t-46.5 -31t-58 -11.5q-32 0 -58.5 11.5t-46.5 31t-31 46.5t-11 59zM1085 119q0 31 11.5 58t31 46t46.5 30t59 11q31 0 58 -11t46 -30t30 -46t11 -58q0 -32 -11 -59t-30 -46.5t-46 -31t-58 -11.5q-32 0 -59 11.5t-46.5 31t-31 46.5t-11.5 59z" />
<glyph unicode="&#x2030;" horiz-adv-x="2548" d="M457 1434q74 0 135.5 -28.5t105.5 -81t68.5 -126t24.5 -164.5q0 -90 -24.5 -163.5t-68.5 -126t-105.5 -81t-135.5 -28.5q-75 0 -136.5 28.5t-105.5 81t-68 126t-24 163.5q0 91 24 164.5t68 126t105.5 81t136.5 28.5zM457 1292q-42 0 -75.5 -18.5t-57.5 -52t-37 -81.5 t-13 -106t13 -105.5t37 -81.5t57.5 -52.5t75.5 -18.5q41 0 74.5 18.5t57.5 52.5t37 81.5t13 105.5t-13 106t-37 81.5t-57.5 52t-74.5 18.5zM596 -29h-172l768 1491h172zM1331 799q75 0 136.5 -29t105.5 -81.5t68 -126t24 -163.5t-24 -164t-68 -126t-105.5 -80.5 t-136.5 -28.5q-74 0 -135.5 28.5t-105.5 80.5t-68.5 126t-24.5 164t24.5 163.5t68.5 126t105.5 81.5t135.5 29zM1331 657q-41 0 -74.5 -18.5t-57.5 -52t-37 -81.5t-13 -106t13 -105.5t37 -81.5t57.5 -52.5t74.5 -18.5q42 0 75.5 18.5t57 52.5t36.5 81.5t13 105.5t-13 106 t-36.5 81.5t-57 52t-75.5 18.5zM2091 799q75 0 136.5 -29t105.5 -81.5t68 -126t24 -163.5t-24 -164t-68 -126t-105.5 -80.5t-136.5 -28.5t-136.5 28.5t-105.5 80.5t-68 126t-24 164t24 163.5t68 126t105.5 81.5t136.5 29zM2091 657q-42 0 -75.5 -18.5t-57 -52t-36.5 -81.5 t-13 -106t13 -105.5t36.5 -81.5t57 -52.5t75.5 -18.5t75.5 18.5t57 52.5t36.5 81.5t13 105.5t-13 106t-36.5 81.5t-57 52t-75.5 18.5z" />
<glyph unicode="&#x2039;" horiz-adv-x="764" d="M559 215v-174l-467 410v157l467 410v-174l-291 -314z" />
<glyph unicode="&#x203a;" horiz-adv-x="764" d="M205 844v174l467 -410v-157l-467 -410v174l291 315z" />
<glyph unicode="&#x2044;" horiz-adv-x="930" d="M182 -29h-141l707 1491h141z" />
<glyph unicode="&#x20ac;" horiz-adv-x="1513" d="M1309 1214q-63 32 -140 54t-165 22q-86 0 -159 -23.5t-132 -68t-102 -109t-68 -145.5h626l-73 -143h-580q-3 -20 -3.5 -41.5t-0.5 -42.5q0 -22 1 -42t3 -40h492l-74 -143h-391q25 -83 68 -147.5t102 -109.5t132 -68.5t159 -23.5q88 0 165 22t140 54l82 -156 q-84 -43 -183.5 -67.5t-208.5 -24.5q-126 0 -234.5 37t-194 105t-146 164t-90.5 215h-211v143h188q-2 20 -3 40t-1 42q0 21 1 41.5t3 42.5h-188v143h211q30 117 90.5 213t146.5 163.5t194 104.5t234 37q109 0 208.5 -24.5t183.5 -67.5z" />
<glyph unicode="&#x2113;" horiz-adv-x="918" d="M627 1495q39 0 70 -16t53 -43.5t33.5 -65t11.5 -80.5q0 -71 -20 -143t-54 -142t-79.5 -136t-96.5 -124.5t-104.5 -107.5t-104.5 -86q-3 -32 -5.5 -68.5t-2.5 -76.5q0 -60 7.5 -119.5t28 -107.5t57 -77.5t95.5 -29.5q43 0 81 15t67 33q33 21 61 48l33 -39q-25 -26 -59 -54 t-76 -51t-91.5 -38t-105.5 -15q-62 0 -109 19t-80.5 52t-55.5 77.5t-35 95.5t-18 106t-5 109q0 121 16.5 247t48 244.5t76 223t100.5 182.5t122.5 123t140.5 45zM342 643q61 54 121.5 126t108 154t77 169t29.5 170q0 35 -13.5 60.5t-39.5 25.5q-35 0 -67.5 -35.5 t-61.5 -93.5t-54 -132.5t-45 -153t-34 -154.5t-21 -136z" />
<glyph unicode="&#x2117;" horiz-adv-x="1778" d="M143 717q0 103 26.5 198t75 178t117 151t151 116.5t178 75t198.5 26.5t198 -26.5t178 -75t151 -116.5t116.5 -151t75 -178t26.5 -198t-26.5 -198.5t-75 -178t-116.5 -151t-151 -117t-178 -75t-198 -26.5q-155 0 -290.5 58.5t-237 160t-160 237t-58.5 290.5zM301 717 q0 -126 46.5 -236t126 -192t186.5 -129t229 -47q121 0 228 47t187 129t126.5 192t46.5 236t-46.5 236t-126.5 192t-187 129t-228 47q-122 0 -229 -47t-186.5 -129t-126 -192t-46.5 -236zM1057 862q0 59 -38.5 90t-111.5 31h-82v-244h82q73 0 111.5 31.5t38.5 91.5zM825 616 v-307h-141v799h223q69 0 124.5 -17.5t93.5 -50t58.5 -78t20.5 -100.5t-20.5 -100.5t-58.5 -77.5t-93.5 -50t-124.5 -18h-82z" />
<glyph unicode="&#x2120;" horiz-adv-x="1831" d="M455 848q0 38 -25 64t-62.5 48.5t-81.5 44.5t-81.5 51.5t-62.5 70t-25 100.5q0 52 19 93t53 69t80 42.5t100 14.5q29 0 56.5 -5t52 -12t44.5 -16t35 -16v-156q-15 15 -37 30t-46.5 27.5t-51.5 20.5t-53 8q-54 0 -83.5 -27t-29.5 -65q0 -36 25 -61.5t62 -47.5t81 -44 t81 -52.5t62 -73t25 -104.5q0 -54 -21.5 -98t-58.5 -75t-87 -48t-108 -17q-32 0 -62.5 6t-57.5 14.5t-48.5 18.5t-35.5 19v151q18 -16 41.5 -32t50 -29t55 -21t55.5 -8q30 0 55.5 8.5t44.5 23.5t29.5 36t10.5 47zM1171 766l-280 367v-504h-135v817h39l397 -520l395 520h39 v-817h-133v504l-279 -367h-43z" />
<glyph unicode="&#x2122;" horiz-adv-x="1999" d="M82 1434h715v-115h-291v-690h-135v690h-289v115zM1339 766l-280 367v-504h-135v817h39l397 -520l395 520h39v-817h-133v504l-279 -367h-43z" />
<glyph unicode="&#x2126;" horiz-adv-x="1815" d="M907 1296q-119 0 -222 -41t-179.5 -115t-120 -176.5t-43.5 -226.5q0 -107 34.5 -198.5t94.5 -163t140.5 -121.5t172.5 -72v-182h-620v158h301q-72 43 -131 101.5t-101.5 131.5t-66 159.5t-23.5 186.5q0 104 26.5 198.5t76 175t118.5 145.5t154 111t183 70.5t206 24.5 t206 -24.5t183 -70.5t154 -111t118.5 -145.5t76 -175t26.5 -198.5q0 -100 -23.5 -186.5t-66 -159.5t-102 -131.5t-131.5 -101.5h303v-158h-621v182q92 22 173 72t141 121.5t94.5 163t34.5 198.5q0 124 -43.5 226.5t-120 176.5t-180 115t-222.5 41z" />
<glyph unicode="&#x212e;" horiz-adv-x="1409" d="M1286 512h-909v-344q63 -56 145.5 -85.5t182.5 -29.5q114 0 209 44t161 122h121q-38 -57 -89 -103t-114 -78.5t-135.5 -49.5t-152.5 -17q-126 0 -232.5 42t-184.5 117t-121.5 178t-43.5 224t43.5 224t121.5 178t184.5 117.5t232.5 42.5t232.5 -42.5t184 -117.5t121 -178 t43.5 -224v-20zM705 1012q-100 0 -182.5 -30.5t-145.5 -84.5v-283h655v283q-65 54 -147.5 84.5t-179.5 30.5z" />
<glyph unicode="&#x2202;" horiz-adv-x="1321" d="M635 879q70 0 125.5 -18t98 -48t74 -69t54.5 -80q9 48 14 98t5 104q0 105 -19 186.5t-53.5 137t-83.5 84.5t-109 29q-88 0 -158.5 -58t-127.5 -170h-205q42 91 96 162.5t119.5 121.5t141 76.5t159.5 26.5q102 0 182 -39.5t135.5 -115t85 -186t29.5 -251.5 q0 -129 -24 -246t-67 -217t-103.5 -180.5t-133.5 -137.5t-156 -87.5t-171 -30.5q-95 0 -172 33.5t-132.5 90.5t-85.5 133t-30 161q0 101 42 190.5t112.5 156t163.5 105t194 38.5zM553 145q58 0 113.5 25t105.5 70.5t92 110t74 143.5q-21 43 -51.5 83t-69.5 71t-86.5 49 t-103.5 18t-111.5 -19.5t-99.5 -58t-71.5 -95.5t-27.5 -132q0 -60 18 -109t49.5 -83.5t74.5 -53.5t94 -19z" />
<glyph unicode="&#x2206;" horiz-adv-x="1421" d="M698 1450h25l674 -1450h-1372zM295 164h829l-413 911z" />
<glyph unicode="&#x220f;" horiz-adv-x="1589" d="M1280 0h-186v1276h-598v-1276h-187v1276h-186v158h1343v-158h-186v-1276z" />
<glyph unicode="&#x2211;" horiz-adv-x="1401" d="M932 707l-481 -549h786v-158h-1073v82l559 635l-559 635v82h1073v-158h-786l481 -549v-20z" />
<glyph unicode="&#x2212;" horiz-adv-x="1235" d="M1112 670v-156h-989v156h989z" />
<glyph unicode="&#x221a;" horiz-adv-x="1452" d="M113 854h333l197 -506l504 1284h192l-667 -1648h-58l-295 712h-206v158z" />
<glyph unicode="&#x221e;" horiz-adv-x="1620" d="M1186 340q-96 0 -188.5 54t-188.5 145q-42 -39 -85 -75t-89 -63.5t-96 -44t-105 -16.5q-65 0 -121.5 23.5t-98.5 64.5t-66.5 97.5t-24.5 121.5q0 64 24 119.5t66 96.5t99 64t122 23q94 0 187.5 -51.5t187.5 -144.5q93 91 188 143.5t189 52.5q65 0 122 -23t99 -64 t66 -96.5t24 -119.5q0 -65 -24.5 -121.5t-66.5 -97.5t-99 -64.5t-121 -23.5zM276 647q0 -32 12.5 -59t33.5 -47t50 -31.5t62 -11.5q34 0 66.5 11.5t65 32t65 47.5t65.5 58q-33 30 -65.5 56.5t-65 46.5t-65 31.5t-66.5 11.5q-33 0 -62 -11.5t-50 -31t-33.5 -46t-12.5 -57.5z M922 647q33 -31 65.5 -58t65.5 -47.5t66 -32t67 -11.5q33 0 61.5 11.5t50 31.5t33.5 47t12 59q0 31 -12 57.5t-33.5 46t-50 31t-61.5 11.5q-34 0 -67.5 -12t-66.5 -32t-65.5 -46.5t-64.5 -55.5z" />
<glyph unicode="&#x222b;" horiz-adv-x="905" d="M463 1206q18 135 95 212t208 77q28 0 52.5 -3t44.5 -7q22 -4 42 -10l-22 -156q-15 6 -33 10q-15 4 -35 7t-41 3q-56 0 -88.5 -28.5t-42.5 -102.5l-203 -1431q-18 -135 -95.5 -212t-207.5 -77q-27 0 -51.5 3t-43.5 7q-22 4 -42 10l23 156q14 -6 32 -10q15 -4 34 -7t40 -3 q55 0 87.5 28.5t43.5 102.5z" />
<glyph unicode="&#x2248;" horiz-adv-x="1481" d="M969 643q-48 0 -90.5 13.5t-81.5 33.5t-75 44t-71 44t-70.5 33.5t-72.5 13.5q-71 0 -113.5 -43.5t-42.5 -117.5h-147q0 70 21 128.5t60.5 101t95.5 66t126 23.5q51 0 94.5 -13.5t82.5 -33.5t74 -44t69.5 -44t70 -33.5t74.5 -13.5q71 0 113 43.5t42 118.5h148 q0 -69 -22 -128t-62 -101.5t-96.5 -66.5t-126.5 -24zM969 219q-48 0 -90.5 13.5t-81.5 33.5t-75 44t-71 44t-70.5 33.5t-72.5 13.5q-71 0 -113.5 -43.5t-42.5 -117.5h-147q0 70 21 128.5t60.5 101t95.5 66t126 23.5q51 0 94.5 -13.5t82.5 -33.5t74 -44t69.5 -44t70 -33.5 t74.5 -13.5q71 0 113 43.5t42 118.5h148q0 -69 -22 -128t-62 -101.5t-96.5 -66.5t-126.5 -24z" />
<glyph unicode="&#x2260;" horiz-adv-x="1542" d="M1112 903h225v-155h-352l-254 -314h606v-155h-731l-225 -279h-176l225 279h-225v155h350l254 314h-604v155h731l225 279h176z" />
<glyph unicode="&#x2264;" horiz-adv-x="1450" d="M1245 410v-164l-1040 389v158l1040 389v-164l-833 -303zM205 156h1038v-156h-1038v156z" />
<glyph unicode="&#x2265;" horiz-adv-x="1450" d="M205 1018v164l1040 -389v-158l-1040 -389v164l833 305zM207 156h1038v-156h-1038v156z" />
<glyph unicode="&#x250c;" horiz-adv-x="1450" d="M1475 709v-172h-664v-1162h-172v1334h836z" />
<glyph unicode="&#x2510;" horiz-adv-x="1450" d="M639 537h-662v172h834v-1334h-172v1162z" />
<glyph unicode="&#x2514;" horiz-adv-x="1450" d="M639 535v1333h172v-1161h664v-172h-836z" />
<glyph unicode="&#x2518;" horiz-adv-x="1450" d="M811 535h-834v172h662v1161h172v-1333z" />
<glyph unicode="&#x2588;" horiz-adv-x="1450" d="M-23 -621v2485h1496v-2485h-1496z" />
<glyph unicode="&#x25ca;" horiz-adv-x="1286" d="M1163 717l-512 -733h-16l-512 733l512 733h16zM961 717l-318 452l-317 -452l317 -453z" />
<glyph unicode="&#x266a;" horiz-adv-x="1081" d="M1036 922h-102v45q0 54 -22 99t-61.5 77t-94 49.5t-119.5 17.5h-21v-977q0 -58 -23 -106.5t-63 -83t-94.5 -53.5t-116.5 -19q-57 0 -107 19t-87 51t-58.5 75.5t-21.5 92.5q0 51 21.5 95.5t58.5 77.5t87 52t107 19q56 0 105.5 -15t89.5 -41v1037h96q91 0 169 -26 t135 -72.5t89.5 -109.5t32.5 -136v-168z" />
<glyph unicode="&#x266b;" horiz-adv-x="1536" d="M616 1044v-911q0 -59 -23 -107t-63 -82.5t-94.5 -53.5t-116.5 -19q-57 0 -107 18.5t-87 51t-58.5 75.5t-21.5 93q0 51 21.5 95t58.5 77t87 52t107 19q56 0 105.5 -14.5t89.5 -40.5v973l817 254v-1186q0 -59 -23 -107t-63 -82.5t-94.5 -53.5t-116.5 -19q-57 0 -107 18.5 t-87 51t-58.5 75.5t-21.5 92q0 51 21.5 95.5t58.5 77.5t87 52t107 19q56 0 105.5 -14.5t89.5 -40.5v737z" />
<glyph unicode="&#xe000;" horiz-adv-x="1065" d="M0 1065h1065v-1065h-1065v1065z" />
<glyph unicode="&#xf6c3;" horiz-adv-x="551" d="M123 -268q0 31 11 58t31 46t46.5 30t58.5 11t61 -12t50.5 -35.5t34 -58.5t12.5 -80q0 -53 -17.5 -108t-49 -107.5t-75.5 -101t-96 -89.5l-65 72q66 60 104.5 121t44.5 106q-32 1 -59.5 12.5t-47.5 31t-32 46t-12 58.5z" />
<glyph unicode="&#xfb01;" horiz-adv-x="1251" d="M51 0zM51 1065h174v121q0 144 72 226.5t213 82.5q32 0 60.5 -3t51.5 -7q26 -4 50 -10v-156q-19 6 -41 10q-19 4 -43 7t-49 3q-65 0 -99 -33.5t-34 -117.5v-123h256v-152h-256v-913h-181v913h-174v152zM886 1065h181v-1065h-181v1065zM866 1352q0 48 31 79t79 31 q24 0 44.5 -8.5t35 -23t23 -34.5t8.5 -44q0 -48 -31.5 -79.5t-79.5 -31.5q-24 0 -44 8.5t-34.5 23t-23 35t-8.5 44.5z" />
<glyph unicode="&#xfb02;" horiz-adv-x="1356" d="M51 0zM51 1065h174v121q0 144 72 226.5t213 82.5q32 0 60.5 -3t51.5 -7q26 -4 50 -10v-156q-19 6 -41 10q-19 4 -43 7t-49 3q-65 0 -99 -33.5t-34 -117.5v-123h256v-152h-256v-913h-181v913h-174v152zM886 1495h181v-1219q0 -44 9 -72.5t26 -44.5t42.5 -22t57.5 -6 q24 0 44 2.5t34 6.5q17 4 30 10v-156q-20 -7 -45 -12q-21 -5 -48.5 -8t-59.5 -3q-74 0 -125.5 20t-84 60t-47 99.5t-14.5 138.5v1206z" />
<glyph horiz-adv-x="1356" d="M0 0z" />
</font>
</defs>
</svg>
