<?xml version="1.0" standalone="no"?>
<!DOCTYPE svg PUBLIC "-//W3C//DTD SVG 1.1//EN" "http://www.w3.org/Graphics/SVG/1.1/DTD/svg11.dtd" >
<svg xmlns="http://www.w3.org/2000/svg">
<metadata></metadata>
<defs>
<font id="barmenoregular" horiz-adv-x="1067" >
<font-face units-per-em="2048" ascent="1638" descent="-410" />
<missing-glyph horiz-adv-x="512" />
<glyph horiz-adv-x="2048" />
<glyph horiz-adv-x="2048" />
<glyph unicode="&#xd;" horiz-adv-x="2048" />
<glyph unicode=" "  horiz-adv-x="512" />
<glyph unicode="&#x09;" horiz-adv-x="512" />
<glyph unicode="&#xa0;" horiz-adv-x="512" />
<glyph unicode="!" horiz-adv-x="598" d="M211 115q0 50 36.5 89.5t92.5 39.5q57 0 95.5 -39.5t35.5 -95.5q-3 -53 -41.5 -87t-89.5 -34q-59 0 -94 40.5t-35 86.5zM233 1403q-3 30 6.5 36.5t36.5 6.5h127q20 0 28 -1.5t13.5 -11t4.5 -30.5l-56 -909q-1 -23 -9 -29t-30 -6q-46 0 -56 5t-11 32z" />
<glyph unicode="&#x22;" horiz-adv-x="811" d="M123 1440q0 49 29 71.5t65 22.5q86 0 86 -100l-72 -523h-38l-68 496q0 6 -1 17t-1 16zM508 1440q0 49 28 71.5t64 22.5q86 0 86 -100l-72 -523h-39l-65 496q-2 12 -2 33z" />
<glyph unicode="#" horiz-adv-x="1193" d="M2 528v113h356l29 199h-342v116h358l66 490h123l-68 -490h205l66 490h123l-66 -490h342v-116h-358l-27 -199h344v-113h-358l-70 -528h-125l74 528h-207l-78 -528h-117l72 528h-342zM481 641h207l27 199h-207z" />
<glyph unicode="$" horiz-adv-x="1024" d="M57 272q0 38 24.5 61t55.5 23q20 0 35 -6.5t27.5 -22.5t19.5 -29t19 -38q16 -33 29.5 -54.5t40 -48t68 -43.5t97.5 -24v580q-46 22 -72.5 35t-66.5 34.5t-63 37t-54 39t-49 44.5t-38 49t-30 57t-17 64.5t-7 75.5q0 158 102 260q99 97 295 111v139q0 20 7 23t42 3 q20 0 23.5 -4t3.5 -24v-137q82 -6 151 -32.5t111.5 -62.5t66 -74t23.5 -71q0 -35 -22.5 -57.5t-53.5 -22.5q-33 0 -51.5 19.5t-56.5 83.5q-58 93 -168 108v-543q162 -79 194 -98q224 -133 224 -354q0 -162 -113 -279q-36 -35 -76.5 -59.5t-85.5 -37.5t-72.5 -18t-70.5 -10 v-141q0 -15 -3 -19t-18 -4q-38 0 -46.5 3.5t-8.5 21.5v139q-43 3 -69.5 7.5t-77 17t-96 40t-85.5 68.5q-37 38 -62.5 86t-25.5 84zM238 1135q0 -45 14.5 -83.5t34 -64t55.5 -51.5t61 -40t70 -36v510q-89 -10 -137 -43q-98 -67 -98 -192zM549 90q64 5 111.5 25.5t73 46.5 t41 59.5t20 59t4.5 51.5q0 39 -10.5 75t-25 61.5t-39 50.5t-43.5 40.5t-49 32t-44 23.5t-39 18v-543z" />
<glyph unicode="%" horiz-adv-x="1622" d="M68 991q0 216 73.5 345.5t202.5 129.5q123 0 195.5 -126.5t74.5 -335.5q1 -132 -28 -238.5t-92.5 -174t-153.5 -67.5q-119 0 -195.5 122.5t-76.5 344.5zM195 1008q0 -66 6 -127.5t20 -128t45 -106.5t74 -40q39 0 67.5 32t43.5 75.5t23.5 104t10.5 101t2 82.5 q0 71 -6 132.5t-21 123.5t-45.5 98t-74.5 36t-75 -39.5t-45 -104.5t-19.5 -122.5t-5.5 -116.5zM393 18q0 9 13 35l720 1358q12 24 21 30.5t29 6.5q33 0 43 -2.5t10 -15.5q0 -7 -17 -37l-716 -1358q-12 -24 -20.5 -29.5t-29.5 -5.5q-37 0 -45 2.5t-8 15.5zM1006 449 q0 216 73.5 345.5t202.5 129.5q123 0 195.5 -127t74.5 -336q1 -131 -27.5 -237t-92.5 -174t-154 -68q-120 0 -196 122.5t-76 344.5zM1133 467q0 -67 6 -129t20 -128.5t45 -106.5t74 -40q48 0 80 44.5t45 116.5t17.5 125.5t4.5 109.5q0 71 -6 132.5t-21 123t-45.5 97.5 t-74.5 36t-75 -39.5t-45 -104t-19.5 -121.5t-5.5 -116z" />
<glyph unicode="&#x26;" horiz-adv-x="1280" d="M45 322q0 140 98 258q46 56 105 97t192 118q-97 132 -131.5 208.5t-34.5 155.5q0 142 97 230t276 88q162 0 248 -81.5t86 -199.5q0 -42 -12 -82t-29 -70.5t-48 -63t-54.5 -53t-64 -47.5t-61.5 -39.5t-61 -35.5l213 -273q66 102 149 173t171 71q47 0 68.5 -24t21.5 -54 q0 -75 -103 -82q-44 -3 -67 -7t-56.5 -23t-64.5 -56q-42 -53 -57 -75l303 -387q22 -34 22 -43q0 -25 -39 -25h-102q-37 0 -47.5 6t-38.5 41l-195 248q-33 -56 -54.5 -89t-64 -84t-82.5 -80t-99.5 -51t-125.5 -22q-157 0 -257.5 105.5t-100.5 247.5zM223 381 q0 -97 65.5 -175.5t172.5 -78.5q45 0 86 16.5t68.5 37t59 60t48 65t43.5 71.5l-266 340q-51 -31 -80 -50t-72 -53.5t-66 -65.5t-41 -75t-18 -92zM442 1180q0 -70 30.5 -125.5t119.5 -171.5q35 21 57 35t60 45t60 59t40 69.5t18 84.5q0 83 -54 138.5t-136 55.5 q-71 0 -133 -48t-62 -142z" />
<glyph unicode="'" horiz-adv-x="425" d="M123 1440q0 49 29 71.5t65 22.5q86 0 86 -100l-72 -523h-38l-68 496q0 6 -1 17t-1 16z" />
<glyph unicode="(" horiz-adv-x="598" d="M100 739q0 426 217 740q12 19 51 69t97.5 111t83.5 61q13 0 23 -9t10 -25q0 -21 -19 -44q-53 -65 -110.5 -174.5t-96.5 -257.5q-59 -227 -59 -485q0 -555 262 -911q29 -36 29 -54q0 -14 -10 -24t-23 -10q-10 0 -25 9.5t-31.5 24t-35 34.5t-35.5 39.5t-34 40.5t-28 36 t-20 27l-10 12q-236 334 -236 790z" />
<glyph unicode=")" horiz-adv-x="598" d="M10 1686q0 15 9.5 24.5t23.5 9.5q25 0 79.5 -56t91.5 -103t48 -64q236 -334 236 -788q0 -429 -217 -740q-13 -19 -51.5 -69.5t-97 -112t-83.5 -61.5q-13 0 -23 10t-10 26q0 17 19 41q79 102 135 230q131 293 131 690q0 556 -262 909q-29 38 -29 54z" />
<glyph unicode="*" horiz-adv-x="641" d="M41 1540q0 34 15 52t34 18q16 0 25.5 -8.5t34.5 -43.5q6 -9 10 -14q56 -76 106 -76q27 0 27 45q0 28 -8 86q-17 85 -17 101q0 31 13 51.5t38 20.5q7 0 14 -2.5t16 -9t14.5 -22.5t5.5 -40q0 -13 -9.5 -89t-9.5 -91q0 -50 29 -50q44 0 100 72q36 47 47 57.5t27 10.5 q23 0 34 -18t11 -44q0 -44 -21 -59.5t-83 -30.5q-95 -26 -95 -65q0 -18 21 -32.5t76 -31.5q23 -6 32 -8.5t24 -8.5t21 -11.5t13 -15t9.5 -21.5t2.5 -29q0 -32 -13 -45.5t-28 -13.5q-17 0 -29 10.5t-49 56.5q-60 72 -100 72q-31 0 -31 -60q0 -12 11.5 -83t11.5 -85 q0 -33 -13.5 -53t-38.5 -20q-22 0 -36.5 19.5t-14.5 55.5q0 11 15 101q8 44 8 69q0 54 -29 54q-41 0 -98 -72q-4 -5 -11 -13.5t-10 -12.5t-8 -10.5t-7.5 -9t-6.5 -7t-6.5 -6t-6 -4t-6.5 -3.5t-6.5 -1.5t-7.5 -0.5q-23 0 -34 21.5t-11 50.5q0 24 6.5 39.5t21.5 23t23 9.5 t25 4q123 22 123 70q0 18 -22.5 33t-46.5 22.5t-46 11.5q-23 5 -34 8.5t-25.5 12t-20.5 24t-6 39.5z" />
<glyph unicode="+" horiz-adv-x="1024" d="M61 537v122h390v383h122v-383h388v-122h-388v-390h-122v390h-390z" />
<glyph unicode="," horiz-adv-x="512" d="M125 141q0 44 34 71.5t79 27.5q64 0 105.5 -50t41.5 -135q0 -60 -27 -119t-64.5 -98t-73.5 -63.5t-56 -24.5q-18 0 -27.5 9.5t-9.5 23.5q0 12 7 22.5t38 44.5q61 81 61 125q0 35 -45 70q-22 16 -31.5 24.5t-20.5 28t-11 43.5z" />
<glyph unicode="-" horiz-adv-x="641" d="M117 535q0 82 2 88q4 20 33 20h333q21 0 29 -6t8 -25v-92q-1 -13 -8 -17.5t-25 -4.5h-337q-20 0 -27.5 7.5t-7.5 29.5z" />
<glyph unicode="." horiz-adv-x="512" d="M127 115q0 59 40 92t87 33q54 0 91 -37.5t36 -93.5q-1 -53 -38.5 -87t-88.5 -34q-52 0 -89.5 35.5t-37.5 91.5z" />
<glyph unicode="/" horiz-adv-x="894" d="M23 -229q0 10 4 22l718 1897q6 20 11 27t14 7q12 0 74 -24q18 -6 24 -11t6 -14q0 -4 -6 -22l-721 -1909q-8 -25 -22 -25q-6 0 -21 5q-18 7 -31.5 12.5t-19 7.5t-9.5 3.5t-7 2.5q-14 8 -14 21z" />
<glyph unicode="0" horiz-adv-x="1110" d="M119 717q0 346 117.5 553t322.5 207q131 0 228.5 -95.5t148.5 -262t53 -384.5q2 -157 -25 -294t-80 -243t-138.5 -167.5t-192.5 -61.5q-191 0 -312.5 197t-121.5 551zM311 743q0 -277 56 -456q65 -197 186 -197q46 0 84 27t62.5 68.5t43 101.5t28 116.5t15.5 124t7.5 113 t1.5 92.5q1 75 -3 148.5t-19 165t-40 159t-71.5 114t-108.5 46.5q-60 0 -105.5 -46t-70.5 -113t-40.5 -157t-20.5 -162.5t-5 -144.5z" />
<glyph unicode="1" horiz-adv-x="1110" d="M92 1108q0 29 19.5 40t83.5 28q84 21 154 52t118.5 67t72.5 57.5t50 50.5q24 26 33 35t21 15.5t26 6.5q43 0 43 -55v-1374q0 -20 -8 -25.5t-29 -5.5h-103q-22 0 -29 6.5t-7 26.5v1145q-96 -46 -191.5 -75.5t-137.5 -36.5t-56 -7q-20 0 -34 6.5t-18.5 16.5t-6 15.5 t-1.5 10.5z" />
<glyph unicode="2" horiz-adv-x="1110" d="M111 31q0 17 22 45l430 563q99 131 147 228t48 192q0 111 -64.5 185.5t-167.5 74.5q-83 0 -152 -56.5t-95 -168.5q-6 -33 -11 -49.5t-19 -31t-36 -14.5q-4 0 -8.5 0.5t-14.5 4.5t-17 11t-13 22t-6 36q0 54 16 110t50 109t81.5 94t116 66t147.5 25q168 0 273.5 -107.5 t105.5 -263.5q0 -65 -17 -127t-53 -125t-61 -99t-72 -98l-389 -487h566q26 0 34.5 -6.5t8.5 -30.5q0 -101 -3 -110q-1 -13 -9 -18t-27 -5h-766q-45 0 -45 31z" />
<glyph unicode="3" horiz-adv-x="1110" d="M98 258q0 40 26.5 67t61.5 27q47 0 84 -63q16 -32 27 -52t35.5 -51t49.5 -49.5t64 -32.5t84 -14q116 0 185 84t69 195q0 14 -0.5 26t-7 42.5t-18 56.5t-36 61t-58 62.5t-87.5 55t-122 44.5q-53 13 -66.5 20.5t-13.5 28.5t12 30.5t39 18.5q29 11 44.5 17t49.5 22.5t55 31 t49.5 39t44.5 50.5t28 62.5t12 76.5q0 52 -22 99.5t-71.5 81.5t-117.5 34q-46 0 -84.5 -14.5t-61.5 -33.5t-42.5 -47.5t-27.5 -46.5t-16 -42q-22 -54 -34 -65q-13 -13 -33 -13q-52 0 -52 68q0 59 28 119.5t77 111t125 82t164 31.5q149 0 249.5 -91t100.5 -227 q0 -197 -227 -330q77 -35 135 -82t89 -90t50 -93t24 -84.5t5 -69.5q0 -43 -9.5 -88.5t-29 -97t-56 -96.5t-84.5 -81.5t-120 -58t-158 -21.5q-98 0 -180 31.5t-130.5 77.5t-75 94t-26.5 86z" />
<glyph unicode="4" horiz-adv-x="1110" d="M74 373q0 3 0.5 6t1 5t1.5 5.5t2 5.5t4 7t4.5 8t5.5 10t7 12l566 987q7 11 9 14t10.5 12.5t18.5 13t23 3.5q17 0 29.5 -5.5t18.5 -12.5t9 -20.5t3.5 -21.5t0.5 -22v-929h127q28 0 33.5 -12.5t5.5 -69.5q0 -23 -7.5 -28t-31.5 -5h-127v-313q0 -23 -6 -29t-28 -6h-105 q-16 1 -22 3t-9.5 8.5t-3.5 20.5v316h-493q-47 0 -47 37zM240 451h374v706z" />
<glyph unicode="5" horiz-adv-x="1110" d="M129 252q0 47 26.5 68.5t57.5 21.5q22 0 40 -13t26.5 -25.5t21.5 -37.5q92 -174 242 -174q115 0 190.5 80.5t75.5 212.5q0 139 -89.5 238.5t-230.5 99.5q-97 0 -202 -45q-68 -29 -74 -29q-16 0 -24 10.5t-8 26t1 33.5l49 680q3 29 14 39t42 10h577q25 0 36 -8t11 -31 v-102q-2 -17 -10.5 -24t-34.5 -7h-516l-35 -463q157 57 256 57q179 0 299.5 -121.5t120.5 -322.5q0 -203 -127 -330t-329 -127q-174 0 -290 90t-116 193z" />
<glyph unicode="6" horiz-adv-x="1110" d="M123 528q0 190 63.5 365.5t186.5 310.5q59 65 129.5 116.5t128.5 80t113.5 46.5t87 24t47.5 6q53 0 53 -43q0 -34 -55 -52q-62 -22 -87.5 -32.5t-65 -32t-79.5 -51.5q-63 -47 -114 -101t-84.5 -110.5t-56.5 -104t-38 -103.5t-21.5 -86.5t-13.5 -74.5q31 23 53.5 37.5 t65.5 37t93 34.5t104 12q154 0 258 -107.5t104 -296.5q0 -120 -47.5 -217t-143.5 -157t-226 -60q-209 0 -332 149t-123 410zM307 582q-3 -114 13.5 -203t44 -142.5t66 -88.5t76 -47.5t77.5 -12.5q110 0 172.5 80.5t62.5 198.5q0 48 -13 97.5t-41.5 99.5t-84.5 82t-131 32 q-55 0 -107 -18.5t-76.5 -34.5t-58.5 -43z" />
<glyph unicode="7" horiz-adv-x="1110" d="M154 1317q0 102 2 106q1 13 8.5 18t25.5 5h758q16 0 25.5 -1t20 -9.5t10.5 -24.5q0 -11 -15 -49q-11 -28 -37 -92t-30 -74q-133 -320 -242.5 -630t-153.5 -486q-14 -57 -23.5 -69t-43.5 -11h-129q-39 0 -39 25q0 11 16 51l518 1202h-635q-23 0 -29.5 7t-6.5 32z" />
<glyph unicode="8" horiz-adv-x="1110" d="M119 342q0 59 18 111.5t43 91.5t70.5 80t82 68t95.5 65q-31 21 -43.5 30t-44.5 35.5t-49 45t-42 51t-38 63t-23 71.5t-10 85q0 141 90 231q103 109 299 109q170 0 267 -86q96 -85 96 -226q0 -56 -18 -106.5t-41 -85t-65 -72t-69 -56t-73 -48.5q54 -35 82.5 -54.5t74 -55 t70 -65.5t51 -71t38 -88.5t11.5 -102.5q0 -168 -127.5 -280.5t-324.5 -112.5t-308.5 107t-111.5 266zM289 377q0 -54 16.5 -103.5t48.5 -91t85 -66t120 -24.5q114 0 184 69t70 171q0 74 -38 141t-130 135q-9 7 -66 45.5t-63 42.5q-56 -42 -82.5 -63.5t-61 -54.5t-48.5 -59 t-24.5 -62.5t-10.5 -79.5zM342 1167q0 -173 238 -307q192 115 192 281q0 93 -60.5 159t-158.5 66q-88 0 -149.5 -54t-61.5 -145z" />
<glyph unicode="9" horiz-adv-x="1110" d="M117 1053q0 186 112 305t303 119q212 0 329.5 -151.5t117.5 -416.5q0 -145 -33.5 -273.5t-87.5 -221.5t-124 -170.5t-142.5 -127t-144 -84t-126.5 -49t-92 -14.5q-51 0 -51 41q0 23 15.5 33t72.5 29q116 40 212 115.5t159 169.5t100 199t45 212q-42 -31 -64 -45.5 t-63.5 -37t-84.5 -32.5t-91 -10q-54 0 -106 15.5t-98.5 48.5t-81.5 80t-55.5 115.5t-20.5 150.5zM295 1083q0 -77 27 -145.5t87.5 -116t143.5 -47.5q44 0 83.5 10t73 30t46.5 29t35 27q3 58 -2 119.5t-22.5 130t-46.5 121.5t-79 88t-115 35q-102 0 -166.5 -78.5 t-64.5 -202.5z" />
<glyph unicode=":" horiz-adv-x="598" d="M211 115q0 59 41 92t90 33q53 0 91 -37.5t38 -93.5q-1 -53 -39 -87t-92 -34q-52 0 -90.5 35.5t-38.5 91.5zM211 649q0 60 41 93.5t90 33.5q53 0 91 -38t38 -93q-1 -54 -39.5 -88.5t-91.5 -34.5q-50 0 -89.5 35.5t-39.5 91.5z" />
<glyph unicode=";" horiz-adv-x="598" d="M211 141q0 44 33.5 71.5t77.5 27.5q62 0 102.5 -50.5t40.5 -134.5q0 -60 -26.5 -119t-63 -99t-72 -64.5t-55.5 -24.5q-16 0 -25.5 10t-9.5 23t6 22.5t37 46.5q61 72 61 125q0 35 -45 70q-21 15 -31 24.5t-20 28.5t-10 43zM213 649q0 61 40.5 94t88.5 33q54 0 92 -38 t37 -93t-40 -89t-89 -34q-52 0 -90.5 35t-38.5 92z" />
<glyph unicode="&#x3c;" horiz-adv-x="1024" d="M0 653v144l1024 510v-131l-889 -451l889 -455v-131z" />
<glyph unicode="=" horiz-adv-x="1024" d="M0 354v121h1024v-121h-1024zM0 715v121h1024v-121h-1024z" />
<glyph unicode="&#x3e;" horiz-adv-x="1024" d="M0 139v131l889 455l-889 451v131l1024 -510v-144z" />
<glyph unicode="?" horiz-adv-x="854" d="M70 1206q0 48 22.5 95t65.5 87t115 64.5t161 24.5q83 0 150 -24.5t109 -65t64.5 -90.5t22.5 -105q0 -45 -12 -84t-38.5 -74t-43.5 -52.5t-51 -49.5q-100 -96 -128.5 -167t-31.5 -235q0 -46 -6 -57.5t-35 -11.5q-39 0 -47.5 5t-11.5 34l-25 301q-1 38 7 53t44 43 q41 29 60.5 43.5t50.5 43t45 51.5t25.5 58t11.5 74q0 45 -16 87.5t-58 75t-102 32.5q-36 0 -65 -12.5t-45.5 -27.5t-30 -39.5t-17.5 -37.5t-10 -33q-7 -25 -12 -38.5t-15 -31.5t-26.5 -26t-38.5 -8q-31 0 -59.5 24t-28.5 74zM297 115q0 50 36 89.5t91 39.5q56 0 94 -40 t35 -95q-3 -53 -41 -87t-90 -34q-56 0 -90.5 40.5t-34.5 86.5z" />
<glyph unicode="@" horiz-adv-x="1835" d="M139 479q0 149 45 294t130 268t199 217t261.5 147t308.5 53q279 0 445 -158t166 -430q0 -182 -66.5 -350t-176 -270.5t-228.5 -102.5q-39 0 -69 11.5t-46 30t-24 31.5t-11 24q-10 33 -10 94q-25 -32 -40.5 -50.5t-47.5 -48.5t-61 -46.5t-72 -29.5t-90 -13 q-30 0 -61.5 7.5t-68 30t-64 57.5t-46 95t-18.5 137q0 148 60 282.5t159.5 215t208.5 80.5q170 0 243 -195l35 148h121l-68 -299q-59 -273 -59 -357q0 -33 9 -56.5t22.5 -33t23.5 -13t19 -3.5q35 0 79 30.5t88 89t81 133t60 173t23 198.5q0 225 -139 361.5t-385 136.5 q-136 0 -265 -46.5t-232 -130.5t-181.5 -194.5t-121 -246t-42.5 -277.5q0 -193 90 -338.5t247.5 -222t357.5 -76.5q226 0 452 121q53 29 98 60.5t70.5 54t69.5 63.5l55 -65q-84 -79 -102 -93q-114 -92 -281.5 -161.5t-363.5 -69.5q-113 0 -222 25.5t-212.5 83t-181 140.5 t-124.5 208t-47 276zM633 485q0 -57 14 -99.5t34 -66t46.5 -37.5t46.5 -18t39 -4q79 0 149 62t113.5 166t46.5 223q1 64 -16 112t-46 73.5t-58.5 37.5t-59.5 12q-72 0 -132.5 -45.5t-98 -115.5t-58 -149t-20.5 -151z" />
<glyph unicode="A" horiz-adv-x="1236" d="M0 18q0 1 5 16t5 17l531 1364q7 20 14.5 25.5t24.5 5.5h88q11 -2 16 -6t12 -21l533 -1368q8 -24 8 -33q0 -12 -7 -15t-22 -3h-141q-27 0 -34.5 4t-16.5 27l-203 538h-440l-199 -536q-9 -23 -16 -28t-29 -5h-96q-33 0 -33 18zM416 686h354l-176 490z" />
<glyph unicode="B" horiz-adv-x="1193" d="M135 82v1294q0 27 6.5 38.5t26.5 17.5q33 11 132 18.5t179 7.5q252 0 383 -80q148 -96 148 -266q0 -61 -20.5 -114t-55.5 -91.5t-71 -65t-77 -46.5q-17 -10 -47 -21q8 -2 23.5 -5t23.5 -5q155 -37 236.5 -139t81.5 -242q0 -64 -17.5 -117.5t-44 -91.5t-69.5 -68.5 t-82.5 -49.5t-94 -33t-93 -20.5t-92 -10t-78 -4t-62.5 -0.5q-99 0 -187 8t-116 18q-21 6 -27 18.5t-6 49.5zM334 119q97 -10 170 -10q176 0 281.5 68t105.5 212q0 126 -74 205q-33 38 -76 62t-93 34.5t-89 13.5t-92 3q-11 0 -133 -5v-583zM334 811q36 -1 70 -1q55 0 102 3 q75 6 132 28.5t87 51t49 65.5t24 64t5 53q0 54 -15 97.5t-37 70.5t-55.5 46.5t-60.5 29t-63.5 14.5t-53 5.5t-39.5 0.5q-73 0 -145 -10v-518z" />
<glyph unicode="C" horiz-adv-x="1236" d="M72 733q0 89 16 176t48.5 171.5t87 155.5t125 125.5t168 85t212.5 30.5q108 0 201 -29.5t151 -74.5t90.5 -93.5t32.5 -89.5t-28 -67.5t-66 -26.5q-56 0 -90 53q-17 29 -28.5 46t-41.5 50.5t-60 53.5t-78 36.5t-101 16.5q-182 0 -304 -158t-122 -416q0 -188 62 -338.5 t175.5 -236.5t257.5 -86t287 94q50 33 70 33q19 0 32 -14t13 -35q0 -28 -33 -66t-88 -74t-141.5 -61t-180.5 -25q-130 0 -240 41t-188 112.5t-132.5 168.5t-80.5 208.5t-26 233.5z" />
<glyph unicode="D" horiz-adv-x="1366" d="M135 53v1315q0 31 6.5 41.5t24.5 15.5q39 14 137 24.5t189 10.5q173 0 312.5 -45t229 -118.5t149 -171.5t84.5 -198.5t25 -205.5t-22 -197t-59.5 -158t-70.5 -107.5t-69 -74.5q-221 -198 -629 -198q-193 0 -274 20q-20 6 -26.5 16.5t-6.5 30.5zM338 121q41 -6 106 -6 q160 0 282 43.5t197.5 125t113.5 192.5t38 251q0 269 -143 430q-159 178 -465 178q-67 0 -129 -10v-1204z" />
<glyph unicode="E" horiz-adv-x="980" d="M135 37v1360q0 28 8 38.5t33 10.5h713q20 0 29.5 -5.5t9.5 -25.5q0 -72 -2 -78q-1 -13 -8.5 -17.5t-28.5 -4.5h-553v-494h467q15 0 21 -1t12 -7.5t6 -21.5q0 -74 -2 -80q-3 -12 -11 -15.5t-26 -3.5h-467v-561h553q16 0 22.5 -1t11.5 -8.5t5 -23.5v-65q0 -15 -5 -22.5 t-12 -9t-22 -1.5h-713q-25 0 -33 6t-8 31z" />
<glyph unicode="F" horiz-adv-x="937" d="M135 37v1364q0 26 7.5 35.5t29.5 11.5h707q18 -1 24 -2.5t10.5 -7.5t4.5 -19q0 -66 -3 -78q0 -9 -1.5 -14t-10 -9t-24.5 -3h-543v-494h457q23 0 30.5 -6t7.5 -29q0 -65 -2 -71q-1 -14 -8.5 -18.5t-27.5 -4.5h-457v-653q0 -19 -5 -27.5t-12 -10t-24 -1.5h-117 q-27 0 -35 5.5t-8 31.5z" />
<glyph unicode="G" horiz-adv-x="1366" d="M74 723q0 219 84.5 390.5t239.5 267.5t356 96q97 0 183.5 -22.5t145 -57t102 -76.5t63.5 -81.5t20 -70.5q0 -43 -29 -69.5t-65 -26.5t-59.5 22.5t-61.5 80.5q-18 26 -30 42t-41.5 44t-59 44.5t-76 30t-98.5 13.5q-88 0 -168 -36.5t-145 -107t-103.5 -187t-38.5 -263.5 q0 -185 58 -331.5t175 -234.5t275 -88q135 0 211 52q36 24 45.5 54.5t9.5 88.5v301h-279q-25 0 -31.5 6t-6.5 33v63q4 19 38 19h439q18 1 26 -4.5t9.5 -13t1.5 -25.5v-430q-2 -56 -5.5 -72.5t-21.5 -40.5q-55 -71 -174.5 -117.5t-278.5 -46.5q-180 0 -319 61.5t-223 167.5 t-126 239t-42 286z" />
<glyph unicode="H" horiz-adv-x="1280" d="M137 39v1372q0 20 7.5 27.5t29.5 7.5h125h10q15 0 21 -4q8 -6 8 -31v-590h606v584q0 26 6 34q5 7 25 7h6h125q25 0 32 -5t7 -30v-1378q0 -23 -8 -28t-31 -5h-125q-24 0 -30.5 7t-6.5 32v653h-606v-653q0 -26 -7.5 -32.5t-31.5 -6.5h-125q-22 0 -29.5 7t-7.5 32z" />
<glyph unicode="I" horiz-adv-x="468" d="M133 41v1364q0 25 8 33q7 8 26 8h5h123q23 0 32 -7t9 -30v-1368q0 -27 -8 -34t-33 -7h-123q-21 0 -30 7.5t-9 33.5z" />
<glyph unicode="J" horiz-adv-x="468" d="M-227 -436q0 13 9 23.5t16 14t22 9.5q39 18 55 26t41.5 25t48.5 39q45 42 77 94.5t48 95.5t25.5 102t11.5 89t4 82v1245q0 22 6.5 29.5t26.5 7.5h131q24 0 31.5 -7t7.5 -34v-1184q-1 -50 -2.5 -80t-9.5 -89.5t-22 -106t-42 -106.5t-68 -113q-49 -64 -109 -110.5 t-110.5 -67t-83 -29t-47.5 -8.5q-29 0 -48 14t-19 39z" />
<glyph unicode="K" horiz-adv-x="1110" d="M135 41v1364q0 26 7.5 33.5t31.5 7.5h119h6q20 0 26 -6q7 -7 7 -33v-608l485 606q17 23 26.5 30.5t24.5 10.5h113q31 0 31 -23q0 -9 -21 -39l-454 -577l555 -756q12 -16 12 -28q0 -23 -27 -23h-162q-29 0 -37.5 4t-25.5 25l-520 731v-729q0 -20 -9 -25.5t-30 -5.5h-117 q-25 0 -33 7t-8 34z" />
<glyph unicode="L" horiz-adv-x="937" d="M135 35v1376q0 16 4 24t10 10t21 3h131q22 0 28.5 -7t8.5 -30v-1276h539q22 0 28 -7.5t6 -29.5v-80q-3 -12 -11.5 -15t-25.5 -3h-704q-22 0 -28.5 8t-6.5 27z" />
<glyph unicode="M" horiz-adv-x="1622" d="M135 39v1368q0 24 7 31.5t30 7.5h139q23 0 31.5 -6.5t17.5 -32.5l455 -1063l434 1061q12 28 20 34.5t34 6.5h141q17 0 24 -1.5t12 -9t5 -24.5v-1376q-1 -23 -8.5 -29t-32.5 -6h-115q-25 0 -31 6.5t-6 32.5v1106l-452 -1106q-14 -33 -20 -40t-23 -7q-18 0 -25 8.5 t-20 38.5l-459 1106v-1108q0 -24 -8 -30.5t-29 -6.5h-100q-13 3 -17 10.5t-4 28.5z" />
<glyph unicode="N" horiz-adv-x="1409" d="M137 39v1368q0 25 7 32t32 7h119q21 0 27.5 -4t21.5 -27l770 -1067v1059q0 20 4.5 28t16.5 11h106q20 0 25.5 -7.5t5.5 -29.5v-1372q0 -25 -6.5 -31t-28.5 -6h-78q-15 2 -23.5 7t-21.5 22l-817 1134v-1124q0 -35 -18 -37q-4 -2 -107 -2q-21 0 -28 8.5t-7 30.5z" />
<glyph unicode="O" horiz-adv-x="1449" d="M72 723q0 112 24.5 219t77 205t128.5 171.5t186.5 117t242.5 43.5q151 0 274 -61t201 -163t122 -227t50 -262q1 -24 1 -48q0 -192 -72 -355q-81 -183 -233.5 -288.5t-344.5 -105.5q-186 0 -335.5 94.5t-235.5 267.5t-86 392zM285 735q0 -121 20 -215q40 -196 158.5 -305 t263.5 -109q94 0 184.5 49.5t153.5 147.5q100 158 100 431v26q-3 138 -36 246.5t-80 172.5t-107.5 105.5t-114 56.5t-104.5 15q-100 0 -188 -51q-250 -148 -250 -570z" />
<glyph unicode="P" d="M135 37v1337q0 33 8 43q14 18 127.5 30.5t227.5 12.5q279 0 413 -117q123 -113 123 -294q0 -174 -116 -285q-153 -150 -467 -150q-47 0 -115 7v-584q0 -24 -7.5 -30.5t-29.5 -6.5h-125q-24 0 -31.5 7t-7.5 30zM336 739q62 -8 98 -8q389 0 389 316q0 61 -16.5 109.5 t-40 79t-60 53t-67.5 33t-71 16.5t-61 7t-48 1q-47 0 -123 -13v-594z" />
<glyph unicode="Q" horiz-adv-x="1492" d="M74 715q0 343 185 552.5t484 209.5q155 0 282.5 -58t212.5 -159.5t131 -239t46 -295.5q0 -283 -137.5 -478t-362.5 -255v-2q9 -37 20 -65t44 -72t84 -84q143 -111 352 -160q45 -10 58.5 -17.5t13.5 -29.5q0 -41 -51 -41q-29 0 -115 15.5t-162 39.5q-69 23 -133 54.5 t-131.5 78.5t-125 115.5t-95.5 150.5q-190 20 -327 123t-205 261.5t-68 355.5zM285 731q0 -157 39.5 -282t105 -201t146.5 -115t169 -39q104 0 197.5 53t157.5 150q102 158 102 408v32q-7 282 -123 439q-65 92 -154.5 137t-179.5 45q-100 0 -193.5 -51.5t-154.5 -141.5 q-112 -161 -112 -434z" />
<glyph unicode="R" horiz-adv-x="1110" d="M137 35v1333q0 32 6.5 44t26.5 20q32 11 132 19.5t185 8.5q54 0 96 -3t99.5 -12t109 -31t91.5 -56q10 -8 20.5 -18t30.5 -36.5t34.5 -56t26 -76.5t11.5 -98q0 -146 -94 -248t-265 -145l416 -623q14 -24 14 -37q0 -20 -33 -20h-147q-29 0 -36.5 4t-22.5 29l-342 547 q-47 75 -107 75q-16 0 -27.5 -6t-16.5 -12.5t-8 -19.5t-3 -18v-17v-539q0 -26 -8 -34.5t-31 -8.5h-119q-24 0 -31.5 6t-7.5 29zM334 748q65 -1 106 -1t58 1q139 12 222 89.5t83 211.5q0 61 -15 109.5t-36 79t-55 52.5t-61 32.5t-66 16.5t-58 6.5t-47 0.5q-56 0 -131 -11 v-587z" />
<glyph unicode="S" d="M80 279q0 47 29 73.5t67 26.5q28 0 49.5 -14.5t32 -30t25.5 -43.5q14 -28 23.5 -45t34 -49t50 -50.5t67.5 -33.5t91 -15q111 0 179.5 69t68.5 171q0 43 -10 79t-33.5 66t-45.5 51.5t-63.5 45.5t-68.5 37.5t-78 37.5l-111 54q-25 12 -42.5 21t-50.5 29.5t-56 40 t-51.5 51.5t-46 65.5t-30 79.5t-12.5 96q0 167 116 276t308 109q87 0 165.5 -24.5t129.5 -61.5t81 -80t30 -82q0 -40 -25 -67t-63 -27q-34 0 -56 18t-43 53q-21 33 -36 51.5t-43.5 45.5t-66 40t-83.5 13q-99 0 -163 -65.5t-64 -157.5q0 -33 8.5 -62t19.5 -51t35 -44 t41.5 -36t54.5 -33.5t57.5 -29.5t65.5 -31l107 -49q32 -16 50.5 -26t55.5 -33t61 -44.5t54.5 -55.5t48 -70t30.5 -84.5t13 -102.5q0 -182 -126.5 -297t-325.5 -115q-94 0 -173.5 24t-130 60t-86 79t-50.5 80.5t-15 66.5z" />
<glyph unicode="T" horiz-adv-x="1024" d="M16 1354q0 64 5 78t32 14h920q27 0 32 -14t5 -80q0 -22 -7 -29.5t-30 -7.5h-361v-1276q-1 -17 -3 -24t-10 -11t-24 -4h-118q-27 0 -35.5 6.5t-9.5 34.5v1274h-359q-23 0 -30 7.5t-7 31.5z" />
<glyph unicode="U" horiz-adv-x="1193" d="M117 459v952q0 24 7 30.5t30 6.5h129q26 0 32.5 -6t6.5 -31v-917q0 -31 1 -52.5t6.5 -63.5t16.5 -72.5t33 -67.5t52.5 -60.5t79.5 -40t110 -16.5q79 0 146 30.5t107 90.5q21 33 31.5 70t12.5 64t2 77v956q0 23 6 31t26 8q99 0 105 -2q12 -2 17 -9.5t5 -27.5v-979 q-1 -60 -3 -88.5t-16 -79.5t-40 -94q-119 -199 -418 -199q-85 0 -156.5 17t-115 40t-79.5 55.5t-51 54t-28 44.5q-55 99 -55 279z" />
<glyph unicode="V" horiz-adv-x="1150" d="M0 1423q0 23 35 23h135q26 0 33 -5t16 -32l385 -1075l375 1075q8 23 15 30t26 7h113q18 -5 18 -23q0 -6 -6 -30l-498 -1362q-9 -21 -15.5 -26t-27.5 -5q-50 0 -62.5 4.5t-19.5 26.5l-514 1362q-2 9 -4.5 16t-3 9t-0.5 5z" />
<glyph unicode="W" horiz-adv-x="1748" d="M0 1419q0 27 35 27h129h6q20 0 27 -6q8 -7 14 -35l281 -1043l339 1037q10 32 15.5 39.5t17.5 7.5h47q9 0 13 -6.5t12 -30.5l352 -1047l289 1045q6 24 14 31.5t29 7.5h106q23 -5 23 -23q0 -10 -8 -39l-398 -1351q-6 -21 -11.5 -27t-22.5 -6h-60q-11 2 -16.5 8t-11.5 23 l-357 1016l-332 -1014q-5 -15 -6 -19t-6 -9t-10 -5h-18q-51 0 -64 4.5t-22 28.5l-398 1351q-8 27 -8 35z" />
<glyph unicode="X" horiz-adv-x="1110" d="M0 23q0 9 14 30l441 707l-371 629q-14 21 -14 32q0 25 25 25h7h129q28 0 36 -4.5t20 -26.5l282 -469l293 469q14 22 21 27q8 4 121 4q26 0 26 -21q0 -13 -10 -26l-369 -600l445 -746q14 -22 14 -33q0 -20 -29 -20h-137q-26 0 -33.5 4.5t-21.5 28.5l-350 581l-357 -573 q-18 -29 -25.5 -35t-25.5 -6h-100q-31 0 -31 23z" />
<glyph unicode="Y" horiz-adv-x="1110" d="M0 1425q0 21 31 21h147q23 0 31.5 -5t17.5 -24l353 -602l350 598q13 21 19 26t20 7h114q25 0 25 -21q0 -12 -12 -34l-443 -740v-618q0 -23 -8 -28t-33 -5h-133q-20 0 -26.5 7t-6.5 26v629l-432 729q-14 25 -14 34z" />
<glyph unicode="Z" horiz-adv-x="1024" d="M35 20q0 6 16 39l668 1256h-592q-23 0 -29 8q-4 4 -5 16t-1 70q0 24 6.5 30.5t30.5 6.5h807q19 0 27.5 -1t16 -6t7.5 -16q0 -17 -10 -37l-670 -1255h637q22 0 28.5 -5t6.5 -26q0 -82 -2 -86q-2 -14 -29 -14h-866q-16 0 -24 0.5t-15.5 5.5t-7.5 14z" />
<glyph unicode="[" horiz-adv-x="555" d="M135 -221v1890q0 23 8 30t33 7h322q21 0 27.5 -5t6.5 -26q0 -44 -4.5 -53.5t-27.5 -9.5h-205v-1778h207q20 0 25 -7t5 -28q0 -39 -5 -48t-29 -9h-324q-25 0 -32 7t-7 30z" />
<glyph unicode="\" horiz-adv-x="894" d="M20 1675q0 13 31 25q66 24 74 24q9 0 14 -7t11 -27l718 -1897q6 -18 6 -22q0 -11 -14 -21q-3 -1 -8 -3t-21.5 -8.5t-39.5 -14.5q-15 -5 -21 -5q-11 0 -22 25l-721 1909q-7 21 -7 22z" />
<glyph unicode="]" horiz-adv-x="555" d="M20 -227q0 44 4.5 53.5t28.5 9.5h205v1778h-207q-20 0 -25.5 7t-5.5 28q0 40 5 48.5t30 8.5h324q25 0 32 -7t7 -30v-1890q0 -23 -8 -30t-33 -7h-322q-22 0 -28.5 5t-6.5 26z" />
<glyph unicode="^" horiz-adv-x="1492" d="M319 717l369 729h129l357 -729h-156l-268 559l-275 -559h-156z" />
<glyph unicode="_" horiz-adv-x="1024" d="M-20 -154h1064v-102h-1064v102z" />
<glyph unicode="`" horiz-adv-x="512" d="M100 1403q0 30 17 52t41 22q22 0 53 -31l178 -182q21 -21 21 -45q0 -23 -11.5 -35.5t-25.5 -12.5q-10 0 -35 15l-199 141q-39 29 -39 76z" />
<glyph unicode="a" horiz-adv-x="894" d="M55 254q0 50 15.5 92t36 73t66.5 61.5t80.5 49t106.5 44t116 39t136 40.5v105q0 25 -0.5 38t-3 39.5t-8 42.5t-16.5 37t-27 33t-41 20.5t-57 8.5q-34 0 -62 -10.5t-45 -24t-32 -35t-20.5 -33.5t-12.5 -30q-7 -21 -12 -31.5t-15.5 -26t-26.5 -23t-38 -7.5q-29 0 -55.5 21 t-26.5 65q0 96 106.5 169.5t265.5 73.5q49 0 90 -8t70 -20t52.5 -33t38.5 -39t25.5 -46t16 -47t8.5 -49t4 -44.5t1 -40.5v-543q-2 -76 -18.5 -115.5t-70.5 -68.5q-107 -56 -288 -56q-21 0 -38 0.5t-56.5 6t-70.5 15t-69.5 30.5t-64 49.5t-43 74.5t-17.5 103zM242 281 q0 -13 1.5 -27.5t12.5 -47.5t31 -57t62.5 -43.5t101.5 -19.5q46 0 78 11t48 25t24.5 38t9.5 38.5t1 37.5v321h-1l-1 -1h-1h-1l-1 -1h-1q-184 -59 -246 -94q-104 -58 -116 -151q-2 -14 -2 -29z" />
<glyph unicode="b" d="M113 276v1250q0 26 7 33.5t32 7.5h100q30 0 37.5 -7t7.5 -34v-574q147 133 319 133q168 0 275.5 -131.5t107.5 -371.5q0 -125 -28.5 -227.5t-77.5 -172t-116.5 -117t-143.5 -69t-160 -21.5q-186 0 -297 95q-42 37 -52.5 74t-10.5 132zM297 303q0 -205 197 -205 q138 0 231.5 109.5t93.5 318.5q0 83 -16 156t-48 134t-88.5 96.5t-131.5 35.5q-123 0 -238 -112v-533z" />
<glyph unicode="c" horiz-adv-x="937" d="M66 520q0 252 120.5 408.5t335.5 156.5q83 0 153.5 -29t111 -71.5t63 -85t22.5 -74.5q0 -44 -27 -65t-57 -21q-56 0 -86 62q-18 36 -26.5 51t-28.5 43t-38 40.5t-47 23t-64 10.5q-111 0 -189 -103.5t-78 -279.5q0 -109 26 -196t70 -141t98.5 -82t113.5 -28q41 0 77.5 13 t60 28.5t47.5 43t33.5 41t24.5 38.5q17 26 23 35t15.5 15.5t21.5 6.5q5 0 10.5 -1.5t13.5 -6t13.5 -15t5.5 -26.5q0 -29 -12.5 -69t-42.5 -87.5t-73 -87t-111 -66t-148 -26.5q-199 0 -315.5 153.5t-116.5 391.5z" />
<glyph unicode="d" d="M66 498q0 108 31.5 211t89.5 187.5t152 136.5t208 52q71 0 122 -18t101 -49v504q0 26 7 35.5t32 9.5h104q25 1 33 -7q8 -7 8 -29v-5v-1309q0 -27 -0.5 -40t-7 -35t-20.5 -40q-32 -45 -105.5 -75.5t-142 -41t-131.5 -10.5q-222 0 -351.5 136.5t-129.5 386.5zM250 547 q0 -209 93.5 -327t244.5 -118q51 0 87 12t53.5 27t27.5 41.5t11.5 41t2.5 40.5v639q-26 22 -46.5 35.5t-62 27t-88.5 13.5q-141 0 -232 -122.5t-91 -309.5z" />
<glyph unicode="e" horiz-adv-x="980" d="M66 528q0 202 69 330q11 21 24 41t47 56.5t72.5 62.5t101.5 46.5t134 20.5q77 0 141 -21t105 -55t71.5 -74t46 -82.5t22.5 -75t7 -56.5q0 -20 -5 -33.5t-15.5 -20t-18 -8.5t-20.5 -4l-627 -92q6 -104 34.5 -186t72.5 -132t97.5 -76t113.5 -26q171 0 282 181 q23 39 32.5 49t27.5 10q8 0 16 -3t16.5 -14.5t8.5 -31.5t-11.5 -58t-41.5 -91t-74 -99t-118.5 -78.5t-164.5 -32.5q-50 0 -99.5 11.5t-102 36.5t-99.5 74t-80 116q-65 125 -65 315zM221 664l490 75q-9 99 -70.5 164.5t-148.5 65.5q-120 0 -187.5 -82.5t-83.5 -222.5z" />
<glyph unicode="f" horiz-adv-x="555" d="M18 997q0 45 5 54.5t32 9.5h117q15 223 64 330q39 83 107 137.5t149 54.5q41 0 66.5 -21.5t25.5 -58.5q0 -31 -18 -49.5t-44 -21.5q-4 -1 -17 -1t-28.5 0.5t-17.5 0.5q-133 0 -133 -215q0 -93 26 -156h170q30 1 35.5 -9t5.5 -57q0 -13 -5.5 -19t-12 -6.5t-23.5 -0.5h-166 v-926q0 -26 -9.5 -34.5t-31.5 -8.5h-106q-24 0 -30.5 9t-6.5 36v924h-115q-18 0 -24 1t-10.5 7t-4.5 20z" />
<glyph unicode="g" horiz-adv-x="980" d="M37 -246q0 144 215 281q-25 6 -38.5 10t-40 16t-41 25t-26.5 35.5t-12 50.5q0 25 15 55t31.5 53t48 54t45.5 43.5t42 36.5q-28 17 -45 28.5t-45 43.5t-49 73q-41 81 -41 176q0 155 103 252.5t266 97.5q74 0 160 -28q76 -29 123 -29q18 0 108 14.5t94 14.5q15 0 21 -24.5 t6 -39.5q0 -10 -4.5 -13.5t-18.5 -6.5l-174 -41q21 -30 32.5 -49t24.5 -66t13 -104q0 -89 -34.5 -159t-90 -109.5t-118 -59.5t-126.5 -20q-47 0 -125 16q-82 -75 -82 -129q0 -16 6.5 -28t22 -20t30.5 -13.5t43.5 -8.5t49 -4.5t57.5 -3.5l219 -12q27 -2 47 -4t57 -9t63.5 -17 t59 -29t53 -43.5t34.5 -62t14 -83.5q0 -45 -18.5 -95t-63.5 -104.5t-111 -98t-172 -71.5t-235 -28q-106 0 -188 22q-96 26 -150.5 83.5t-54.5 131.5zM215 -178q0 -46 25.5 -81.5t68 -56t93.5 -30.5t108 -10q81 0 161 27t135.5 80t55.5 116q0 125 -203 137q-9 0 -85 3 t-142.5 6t-89.5 5q-34 -30 -49.5 -45t-37.5 -42t-31 -53t-9 -56zM264 760q0 -130 68 -205.5t155 -75.5q78 0 134.5 53.5t56.5 167.5q0 36 -6 74q-4 21 -10 41t-12 34.5t-13.5 28.5t-13.5 23t-13.5 18.5t-11.5 13t-10 9.5l-6 6q-49 39 -115 39q-37 0 -71 -12t-64.5 -36.5 t-49 -71t-18.5 -107.5z" />
<glyph unicode="h" d="M121 43v1487q0 19 8 27.5t29 9.5h108q24 0 31.5 -7t7.5 -30v-574q24 23 41.5 36.5t59 39.5t96.5 39.5t119 13.5q51 0 95 -10t74.5 -25t56 -39.5t41 -46t27 -53t17 -52.5t9 -51.5t4 -43.5t1.5 -35v-680q0 -30 -6.5 -39.5t-32.5 -9.5h-102q-28 2 -35.5 7.5t-7.5 33.5v664 q0 98 -27 147q-25 48 -73.5 76t-108.5 28q-121 0 -248 -114v-793q0 -29 -7.5 -39t-31.5 -10h-108q-22 0 -29.5 9.5t-7.5 33.5z" />
<glyph unicode="i" horiz-adv-x="425" d="M102 1350q0 47 32 77.5t81 30.5q43 0 74.5 -28.5t34.5 -73.5q0 -45 -30.5 -79t-80.5 -34q-51 0 -81 31t-30 76zM121 37v985q0 13 0.5 18t4 11t10.5 8t20 2h106q25 0 33 -7.5t8 -31.5v-985q0 -25 -8 -31t-33 -6h-110q-22 0 -26.5 6.5t-4.5 30.5z" />
<glyph unicode="j" horiz-adv-x="425" d="M-141 -449q0 27 28 46q37 24 67.5 53t53 57t40 67t29.5 69.5t21 79.5t13.5 81t8 89.5t4.5 90.5t3 97v737q0 26 8 34.5t33 8.5h108q23 0 30 -8.5t7 -32.5v-707q-2 -153 -15.5 -259.5t-55.5 -209.5q-30 -73 -71.5 -133t-80.5 -95.5t-78.5 -60t-65.5 -33.5t-40 -9 q-47 0 -47 38zM111 1350q0 47 31.5 77.5t78.5 30.5q48 0 77.5 -29.5t31.5 -72.5v-5q0 -41 -28 -73q-30 -35 -81 -35q-52 0 -81 31t-29 76z" />
<glyph unicode="k" horiz-adv-x="937" d="M121 33v1501q0 20 8 26.5t27 6.5h108q15 0 21.5 -1t12 -7.5t5.5 -20.5v-954l402 440q24 26 34 31.5t37 5.5q90 0 106.5 -3t16.5 -20q0 -12 -22 -37l-375 -417l434 -531q16 -22 16 -33q0 -20 -26 -20h-140q-25 0 -33.5 4.5t-27.5 26.5l-422 522v-522q0 -22 -7.5 -26.5 t-31.5 -4.5h-108q-22 0 -28.5 6t-6.5 27z" />
<glyph unicode="l" horiz-adv-x="425" d="M123 37v1497q0 22 9 27.5t32 5.5h102q25 0 32 -5.5t7 -27.5v-1497q0 -23 -8.5 -30t-30.5 -7h-104q-26 0 -32.5 6t-6.5 31z" />
<glyph unicode="m" horiz-adv-x="1579" d="M119 39v823q0 60 8.5 88t42.5 54q50 36 142.5 58.5t183.5 22.5q73 0 130 -12.5t92.5 -35.5t51.5 -37.5t33 -36.5q24 25 42 40t57 37.5t95.5 33.5t130.5 11q54 0 99 -8t77 -20t57.5 -32.5t41.5 -39t27.5 -46.5t17 -47t8.5 -49t3.5 -44.5t0.5 -40.5v-2v-717 q0 -22 -7.5 -29.5t-29.5 -9.5h-108q-22 0 -29.5 7t-7.5 32v668q-1 33 -1.5 50t-4.5 49.5t-11.5 51t-22 43t-35 38t-52.5 23t-72 9.5q-82 0 -141 -47q-27 -24 -40 -54.5t-15 -51.5t-2 -62v-717q0 -23 -6.5 -31t-28.5 -8h-107q-24 0 -32.5 6t-8.5 31v688q0 23 -0.5 38t-4.5 44 t-11 49t-21.5 44.5t-34.5 40t-52 26t-72 10.5q-56 0 -96 -17t-60 -39.5t-31 -57.5t-12.5 -56t-1.5 -51v-717q0 -24 -8 -31.5t-33 -7.5h-104q-21 0 -29 7.5t-8 31.5z" />
<glyph unicode="n" d="M121 39v825q0 62 16 93.5t66 56.5q135 71 352 71q63 0 115.5 -8t90.5 -20t68 -33t49 -39.5t33 -46.5t20.5 -48.5t10 -51t4 -47t0.5 -43.5v-707q0 -37 -24 -41h-113q-26 0 -35.5 7.5t-9.5 33.5v688q0 22 -0.5 34t-2.5 35.5t-6 38t-12 35.5t-20 34.5t-30.5 28.5t-41.5 23.5 t-55.5 14.5t-71.5 6q-62 0 -106.5 -15t-66 -33.5t-33.5 -48t-13.5 -46t-1.5 -39.5v-756q0 -26 -9.5 -33.5t-33.5 -7.5h-100h-9q-16 0 -22 6q-8 8 -8 33z" />
<glyph unicode="o" d="M66 528q0 108 32 208t90.5 178t148.5 124.5t198 46.5q93 0 171 -34.5t130.5 -90t90 -128t55 -147t19.5 -148.5v-9q1 -78 -17 -154q-18 -80 -57.5 -152.5t-94 -127.5t-131 -87t-164.5 -32q-90 0 -167.5 31t-132.5 84.5t-94 124.5t-58 150.5t-19 162.5zM256 557 q0 -206 86 -331.5t203 -125.5q119 0 195 122q67 109 68 286q0 21 -1 43q-9 201 -91.5 310.5t-193.5 109.5q-121 0 -193.5 -115t-72.5 -299z" />
<glyph unicode="p" d="M121 -442v1237q2 105 10 129q5 16 14 30q34 52 143 91.5t236 39.5q109 0 194.5 -32t137.5 -82.5t86 -119t46.5 -134.5t12.5 -137q0 -80 -17 -162t-55 -161.5t-92 -141.5t-135.5 -100t-177.5 -38q-55 0 -103 14t-68 25.5t-50 32.5v-493q0 -19 -7.5 -28t-27.5 -9h-102 q-25 0 -35 7.5t-10 31.5zM303 168q112 -68 205 -68q130 0 217.5 118.5t87.5 326.5q0 190 -88 309t-244 119q-51 0 -86.5 -13t-53 -29t-27 -46t-10.5 -47.5t-1 -49.5v-620z" />
<glyph unicode="q" d="M68 475q0 83 18 166.5t59 164t99.5 142t147 99.5t194.5 38q101 0 178 -28t117 -60q30 -25 44.5 -56.5t17 -54.5t3.5 -75v-1257q0 -22 -8.5 -28.5t-32.5 -6.5h-102q-26 0 -33.5 5t-7.5 30v546q-30 -26 -51 -41.5t-59.5 -38t-84 -34t-96.5 -11.5q-127 0 -220.5 71.5 t-138 183.5t-44.5 245zM250 520q0 -168 76.5 -285.5t208.5 -117.5q126 0 227 106v535q0 94 -14 127q-13 30 -38 50t-53.5 27.5t-46 10t-32.5 2.5q-102 0 -178.5 -65.5t-113 -167t-36.5 -222.5z" />
<glyph unicode="r" horiz-adv-x="681" d="M123 35v856q0 55 10 79t43 44q48 29 139 50t187 21q211 0 211 -118q0 -36 -23.5 -62t-60.5 -26q-26 0 -41 11t-45 44q-25 25 -49 38t-64 13q-35 0 -59.5 -10.5t-36.5 -23.5t-19 -36.5t-8 -36.5t-2 -36v-807q-1 -23 -8.5 -29t-28.5 -6h-104q-24 0 -32.5 6t-8.5 29z" />
<glyph unicode="s" horiz-adv-x="854" d="M76 207q0 40 25.5 64t58.5 24q47 0 82 -53q11 -19 26 -47q19 -29 36 -48t54.5 -37t85.5 -18q76 0 117 46.5t41 109.5q0 30 -7.5 56t-24.5 47t-31.5 35.5t-42.5 31t-43 24.5t-47 23q-47 22 -71 34t-63 34t-59.5 39t-46.5 43t-38.5 51.5t-22 60.5t-9.5 74q0 118 84 201 t242 83q82 0 147 -22.5t100.5 -56t53.5 -67t18 -60.5q0 -36 -21.5 -57t-53.5 -21q-36 0 -55 17.5t-36 51.5q-33 55 -57 76q-41 35 -100 35q-75 0 -114.5 -48t-39.5 -102q0 -33 11.5 -61.5t26.5 -46t42.5 -36t44.5 -26.5t47 -22l88 -41l37 -18.5t37 -20t38.5 -24t35 -27 t34 -32.5t27 -37t23 -44.5t13 -51.5t5.5 -60q0 -65 -25.5 -126t-70.5 -102q-91 -80 -248 -80q-78 0 -141.5 18.5t-102 46t-64.5 60.5t-36 60t-10 47z" />
<glyph unicode="t" horiz-adv-x="555" d="M10 1001q0 41 4 50t27 10h109v123q0 27 5.5 39.5t24.5 31.5l94 84q26 23 35 23q23 0 23 -51v-250h178q20 0 26.5 -5t6.5 -24q0 -43 -4 -52t-27 -9h-180v-666q2 -93 10 -116q5 -15 14 -31q39 -72 123 -72q4 0 26.5 1t26.5 1q41 0 41 -41q0 -24 -31.5 -40.5t-65 -21.5 t-62.5 -5q-142 0 -215 94q-22 29 -33.5 65.5t-13.5 62.5t-2 66v703h-109q-21 0 -26 4.5t-5 25.5z" />
<glyph unicode="u" horiz-adv-x="1024" d="M109 299v725q0 21 7 29t29 8h107q24 0 32.5 -7t8.5 -32v-680q0 -23 0.5 -34.5t3 -35t6.5 -37t12 -34.5t19.5 -33.5t29 -27.5t39.5 -23t52 -13.5t67 -5.5q44 0 78 7.5t56 18t37.5 30.5t23 35t11.5 42t4.5 42.5t0.5 43.5v701q0 37 25 41q6 2 112 2q25 0 34.5 -8t10.5 -31 v-768q-2 -87 -17 -130.5t-69 -76.5q-139 -72 -335 -72q-190 0 -291 80q-54 45 -74 103t-20 141z" />
<glyph unicode="v" horiz-adv-x="894" d="M0 1036q0 25 29 25h125q22 0 29 -5t16 -28l276 -776l266 780q8 27 25 29h102q27 0 27 -21q0 -7 -8 -32l-359 -977q-9 -22 -14.5 -26.5t-24.5 -4.5h-79q-12 1 -17.5 7.5t-13.5 25.5l-371 975q-8 20 -8 28z" />
<glyph unicode="w" horiz-adv-x="1323" d="M0 1036q0 25 31 25h112q25 0 33.5 -7t16.5 -32l225 -756l221 756q1 2 3 8t4 13.5t3 9.5q4 8 45 8q12 0 16.5 -5.5t10.5 -27.5l233 -770l215 764q6 25 13.5 32t29.5 7q77 0 94 -3t17 -20q0 -3 -10 -37l-303 -970q-5 -18 -11 -24.5t-20 -6.5h-86q-11 0 -17 6.5t-12 24.5 l-202 659l-203 -659q-7 -21 -13.5 -26t-27.5 -5h-72q-10 0 -15.5 6.5t-11.5 24.5l-311 970q-8 31 -8 35z" />
<glyph unicode="x" horiz-adv-x="854" d="M0 18q0 1 3.5 7.5t7.5 14.5t5 9l322 481l-287 474q-16 29 -16 34q0 23 31 23h122q22 0 30.5 -5.5t19.5 -25.5l211 -340l217 338q17 25 22 27q10 6 109 6q30 0 30 -19q0 -10 -16 -34l-285 -443l314 -512q16 -29 16 -37q0 -16 -27 -16h-127q-27 0 -35.5 4t-23.5 27 l-223 372l-250 -372q-14 -21 -22 -26t-33 -5h-99l-3 1q-3 1 -4.5 2t-4 3t-3.5 5t-1 7z" />
<glyph unicode="y" horiz-adv-x="937" d="M0 -393q0 37 24 62.5t64 25.5q8 0 55 -9.5t56 -9.5q68 0 118.5 69t108.5 255l-397 1001q-13 33 -13 35q0 25 37 25h121q24 0 31 -5.5t16 -31.5l289 -788l266 788q7 22 13.5 28.5t19.5 8.5h100q29 0 29 -23q0 -10 -10 -37l-418 -1146q-20 -54 -39 -95.5t-51.5 -91 t-69 -81.5t-90.5 -54t-117 -22q-18 0 -34 2t-45 9.5t-46.5 29.5t-17.5 55z" />
<glyph unicode="z" horiz-adv-x="811" d="M43 20q0 10 14 37l473 889h-415q-27 0 -31 6q-8 6 -8 78q0 14 5 20.5t11 8t23 2.5h608q39 0 39 -25q0 -8 -14 -37l-467 -886h450q31 0 31 -27v-59q0 -13 -5.5 -19t-11 -7t-18.5 -1h-651h-5h-6.5t-6 0.5t-6.5 2t-4.5 3.5t-3.5 5.5t-1 8.5z" />
<glyph unicode="{" horiz-adv-x="724" d="M127 705q0 40 2.5 49t17.5 10q30 2 53.5 14t39 27t26 43t16 50t8 60t3 61t0.5 64v199q0 136 12 205.5t60 124.5q38 44 101.5 71t145.5 27q29 0 37 -4t8 -18q0 -35 -4.5 -43t-29.5 -11q-35 -5 -61 -16t-44 -24t-30 -36.5t-18.5 -43t-10 -55.5t-4 -62.5t-0.5 -73.5v-133 q-1 -224 -14 -294q-19 -101 -85 -142q-28 -16 -69 -27v-8q28 -7 49.5 -17.5t38 -22.5t29 -33t21 -39t14 -50t8.5 -57t5 -70t2.5 -78t0.5 -91v-5v-133q0 -47 1 -74.5t4 -63t10 -55.5t19 -43t30 -36t44 -23.5t60 -15.5q22 -3 28 -7t6 -18q0 -35 -6 -42t-37 -7q-33 0 -67 4 t-90.5 27t-91.5 63q-48 56 -60 126t-12 206v198q0 51 -1.5 84t-6 72.5t-14 64t-25.5 47.5t-41 35t-58 15q-13 1 -16.5 6.5t-3.5 18.5z" />
<glyph unicode="|" horiz-adv-x="468" d="M174 -512v2048h121v-2048h-121z" />
<glyph unicode="}" horiz-adv-x="724" d="M70 -213q0 14 6 18t28 7q34 5 60 15.5t44 23.5t30 36t19 43t10 55.5t4 63t1 74.5v133q2 222 15 292q19 106 89 146q27 16 64 25v8q-28 7 -49.5 18t-38 22.5t-29 32t-21 37.5t-14 49.5t-8.5 56.5t-5 70t-2.5 79t-0.5 94v4v133q0 47 -0.5 73.5t-4 62.5t-10 55.5t-18.5 43 t-30 36.5t-44 24t-61 16q-25 3 -29.5 11t-4.5 43q0 14 8 18t37 4q83 0 151 -29q35 -15 61.5 -36.5t44 -41.5t29.5 -53.5t18 -56t9.5 -67t4 -68t1.5 -76.5v-199q0 -41 0.5 -64t3 -61t8 -60t16 -50t26 -43t39 -27t53.5 -14q8 -1 11.5 -2.5t6 -5.5t2.5 -13q0 -43 -2.5 -52.5 t-17.5 -10.5q-34 -3 -59 -15t-40.5 -35t-25.5 -47.5t-14.5 -64.5t-5.5 -72t-1 -84v-198q0 -136 -12 -206t-60 -126q-35 -40 -91.5 -63t-90.5 -27t-67 -4q-31 0 -37 7t-6 42z" />
<glyph unicode="~" horiz-adv-x="1492" d="M274 580q20 30 36 49t48.5 50t75.5 47.5t92 16.5q38 0 80.5 -11.5t72 -23.5t79.5 -36q77 -35 100.5 -45.5t49.5 -18.5t48 -8q105 0 199 129l64 -113q-124 -157 -263 -157q-42 0 -81 13.5t-115 49.5q-102 49 -144 64.5t-88 15.5q-24 0 -43.5 -6t-33 -12t-34.5 -28 t-32.5 -35.5t-42.5 -51.5z" />
<glyph unicode="&#xa1;" horiz-adv-x="598" d="M127 1339q3 52 41.5 85.5t89.5 33.5q57 0 92 -40t35 -87q0 -50 -36.5 -88.5t-92.5 -38.5t-94 39t-35 96zM147 45l56 907q1 23 9 29t32 6q45 0 55.5 -5t11.5 -32l51 -905q3 -30 -6.5 -37.5t-36.5 -7.5h-126q-19 0 -27 1.5t-14 11.5t-5 32z" />
<glyph unicode="&#xa2;" horiz-adv-x="937" d="M66 520q0 148 48 271t139.5 202.5t211.5 93.5v142q0 16 3.5 20t20.5 4h26t13.5 -3t8 -7.5t0.5 -15.5v-140q80 -1 149.5 -31t110.5 -71.5t64.5 -83.5t23.5 -72q0 -37 -24 -57t-54 -20q-34 0 -49.5 18.5t-38.5 73.5q-30 63 -67 94.5t-115 42.5v-856q97 3 151 46t92 116 q26 56 35 68t27 12q14 0 27.5 -12t13.5 -38q0 -38 -25.5 -97.5t-62.5 -106.5q-33 -43 -70.5 -72t-75 -42t-60.5 -17.5t-52 -6.5v-133q0 -21 -7.5 -24.5t-40.5 -3.5q-9 0 -14 1t-7.5 6t-2.5 8.5v14.5v131q-191 23 -295 173t-104 372zM223 590q0 -146 49 -262 q65 -156 193 -191v842q-76 -21 -125 -64q-117 -109 -117 -325z" />
<glyph unicode="&#xa3;" horiz-adv-x="1193" d="M47 215q0 125 80 211t207 86q34 0 65.5 -7t45 -13t40.5 -19q-4 104 -73 277h-242q-26 1 -30.5 9.5t-4.5 47.5q0 20 7.5 25.5t29.5 5.5h199q-84 151 -84 290q0 157 109.5 253t283.5 96q98 0 174.5 -30t117.5 -71t67.5 -90.5t34 -81.5t7.5 -51q0 -48 -26 -71t-60 -23 q-21 0 -37 7.5t-24.5 16t-17 29t-11.5 31.5t-10 39q-21 88 -76.5 138t-140.5 50q-92 0 -145.5 -60.5t-53.5 -158.5q0 -53 9.5 -100.5t41.5 -171.5q7 -26 11 -41h313q23 0 30 -4.5t7 -26.5q0 -39 -5 -47.5t-34 -9.5h-293q39 -127 39 -258q0 -34 -4 -80q42 -30 90 -78 q51 -49 75 -70.5t67.5 -56.5t78 -49.5t66.5 -14.5q28 0 52 11.5t33.5 22t24.5 28.5q26 37 52 37q7 0 14 -1.5t17 -13t10 -30.5q0 -48 -24.5 -98.5t-80.5 -90t-131 -39.5q-122 0 -238 111q-14 11 -76 77.5t-65 69.5q-18 -69 -49 -121q-39 -62 -98.5 -99.5t-132.5 -37.5 q-105 0 -168.5 73.5t-63.5 172.5zM166 248q0 -69 42 -107.5t93 -38.5q126 0 180 207q-31 29 -50.5 44t-52.5 28.5t-69 13.5q-69 0 -106 -42.5t-37 -104.5z" />
<glyph unicode="&#xa4;" horiz-adv-x="1366" d="M119 223l151 150q-31 47 -43 67.5t-32.5 63.5t-28.5 89t-8 103q0 78 22 148.5t41.5 102t48.5 69.5l-149 149l92 92l149 -149q38 27 60 40.5t64.5 34t91.5 29.5t108 9t107.5 -9t92 -30.5t62.5 -33t58 -38.5l149 150l94 -95l-151 -149q23 -30 36.5 -51.5t33.5 -63t30 -94 t10 -115.5q0 -60 -11 -113t-31.5 -94t-34.5 -62.5t-35 -49.5l151 -154l-94 -92l-149 154q-42 -29 -63.5 -42t-63.5 -33t-89 -28t-106 -8q-75 0 -137.5 17.5t-95.5 36.5t-87 57l-151 -150zM283 694q0 -169 115.5 -286t287.5 -117q167 0 282 114.5t115 290.5q0 179 -118 291.5 t-277 112.5q-108 0 -200 -48.5t-148.5 -142.5t-56.5 -215z" />
<glyph unicode="&#xa5;" horiz-adv-x="1110" d="M0 1423q0 23 31 23h147q23 0 31.5 -5t17.5 -24l353 -604l350 600q14 21 20 26.5t19 6.5h114q25 0 25 -23q0 -10 -12 -32l-326 -543h193q21 0 27.5 -5.5t6.5 -25.5q0 -55 -4 -66.5t-28 -11.5h-260l-52 -88v-67h310q21 0 27.5 -5.5t6.5 -25.5q0 -55 -4 -66.5t-28 -11.5 h-312v-440q0 -24 -8 -29.5t-33 -5.5h-133q-20 0 -26.5 6.5t-6.5 28.5v440h-319q-20 0 -27.5 7.5t-7.5 29.5q0 50 5 61t30 11h319v78l-45 77h-274q-20 0 -27.5 7.5t-7.5 29.5q0 50 5 61t30 11h209l-322 543q-14 23 -14 32z" />
<glyph unicode="&#xa6;" horiz-adv-x="468" d="M174 -358v716h123v-716h-123zM174 666v716h123v-716h-123z" />
<glyph unicode="&#xa7;" horiz-adv-x="937" d="M63 629q0 48 16.5 93.5t37 76t54 62t52 45.5t45.5 32q-25 26 -38 42t-34.5 48t-31.5 70.5t-10 83.5q0 127 84.5 211t236.5 84q83 0 150.5 -25.5t106.5 -64.5t60 -80t21 -78q0 -48 -25.5 -69t-54.5 -21q-57 0 -92 82q-14 31 -23.5 48.5t-30 44.5t-50 40.5t-66.5 13.5 q-71 0 -111.5 -47.5t-40.5 -112.5q0 -30 8 -57t18 -46.5t33.5 -40t40 -33t52 -30.5t54.5 -27t63 -28q32 -14 50 -22.5t52 -27.5t55.5 -35t48.5 -42t42.5 -52.5t26.5 -62.5t11 -75q0 -88 -49.5 -163t-138.5 -149q26 -21 36.5 -30t37.5 -38t40.5 -54.5t25.5 -66.5t12 -87 q0 -135 -90.5 -231.5t-247.5 -96.5q-76 0 -141 20.5t-108.5 52.5t-74.5 71.5t-45 77t-14 69.5q0 46 27 72t63 26q19 0 33.5 -6.5t23.5 -13t21 -29t17.5 -35t21.5 -51.5q15 -37 38.5 -64.5t44.5 -40t46 -19.5t35 -8t20 -1q62 0 110 42t48 126q0 34 -8 63t-28 54t-36.5 42 t-50.5 37.5t-51.5 30t-57.5 29.5l-92 41q-42 20 -69.5 34t-71.5 45t-70.5 63t-47 81.5t-20.5 106.5zM219 670q0 -33 11.5 -62.5t27.5 -49.5t42 -39.5t46 -31t49 -26.5q5 -3 8 -4q26 -11 197 -88q125 106 125 217q0 36 -14.5 66.5t-34 51.5t-55.5 42.5t-62.5 34t-71.5 30.5 q-92 41 -147 74q-121 -104 -121 -215z" />
<glyph unicode="&#xa8;" horiz-adv-x="512" d="M-37 1358q0 50 34 81t81 31t78.5 -30.5t31.5 -79.5q0 -50 -30.5 -82.5t-79.5 -32.5q-48 0 -81.5 32t-33.5 81zM326 1358q0 51 33 81.5t79 30.5q48 0 80.5 -30.5t32.5 -79.5q0 -50 -32 -82.5t-81 -32.5q-48 0 -80 32t-32 81z" />
<glyph unicode="&#xa9;" horiz-adv-x="1705" d="M125 723q0 152 57.5 287.5t155.5 232t232.5 153t283.5 56.5q154 0 290.5 -58.5t232 -157.5t150.5 -233.5t54 -283.5q-1 -198 -96.5 -364.5t-263 -263.5t-369.5 -97q-143 0 -275.5 54.5t-232.5 149.5t-159.5 232t-59.5 293zM190 725q0 -140 53.5 -264.5t143.5 -212 t212 -138.5t255 -51q140 0 264 53.5t210.5 143.5t137 211.5t50.5 253.5q0 182 -85.5 334.5t-237.5 241.5t-337 89q-138 0 -262.5 -53t-212.5 -142.5t-139.5 -211.5t-51.5 -254zM395 721q0 140 65 250.5t172 169.5t234 59q62 0 119 -15t94 -33.5t75.5 -49t54 -47t38.5 -43.5 l-86 -80q-26 31 -46.5 50.5t-57.5 47t-84 41.5t-101 14q-150 0 -254 -101t-104 -259q0 -148 102 -252t254 -104q57 0 105 14t85 41t56 45.5t45 48.5l86 -72q-23 -33 -49 -59q-56 -58 -145.5 -95.5t-192.5 -37.5q-196 0 -330.5 134t-134.5 333z" />
<glyph unicode="&#xaa;" horiz-adv-x="555" d="M31 944q0 25 5.5 46.5t14 39t25.5 33.5t31.5 28t42 25t47 21.5t55.5 20.5t59 19t66 19q0 85 -1.5 109.5t-10.5 42.5q-22 43 -80 43q-25 0 -44.5 -8.5t-32 -24t-17.5 -24t-11 -23.5q-6 -18 -10 -27.5t-17 -20t-32 -10.5q-20 0 -36.5 14.5t-16.5 43.5q0 61 66 107t167 46 q40 0 71.5 -8.5t51.5 -21t34 -33t21 -37t10.5 -40.5t4 -36t0.5 -31v-337q-2 -47 -13 -72.5t-45 -44.5q-60 -35 -180 -35q-15 0 -28.5 1t-43.5 5.5t-53.5 16t-48 29.5t-38 50t-13.5 74zM154 961q0 -15 4 -31t15 -37.5t38.5 -35t67.5 -13.5q34 0 55.5 8t30 23.5t10.5 27 t2 29.5v196q-40 -13 -57 -18.5t-47.5 -17t-42.5 -19t-31 -20.5t-26 -25.5t-13 -29.5t-6 -37z" />
<glyph unicode="&#xab;" horiz-adv-x="768" d="M55 600q0 12 5 19t28 28q96 85 191 221q38 54 47 64t22 10q12 0 23.5 -9.5t11.5 -25.5t-10 -33l-109 -202q-26 -46 -26 -74q0 -26 28 -80l109 -205q10 -17 10 -34q0 -15 -9.5 -25t-23.5 -10q-20 0 -43 35q-44 67 -67 99.5t-57.5 74.5t-73.5 79q-38 33 -47 44.5t-9 23.5z M362 598q0 13 5.5 20.5t29.5 28.5q102 95 189 221q36 51 46.5 62.5t22.5 11.5t23.5 -9.5t11.5 -25.5t-10 -33l-109 -202q-26 -46 -26 -74q0 -9 3 -20.5t6 -18t10 -22t9 -19.5l109 -205q12 -24 12 -34q0 -15 -10 -25t-22 -10q-20 0 -46 35q-49 74 -69 103t-55.5 72t-73.5 78 q-37 33 -46.5 44t-9.5 22z" />
<glyph unicode="&#xac;" horiz-adv-x="1366" d="M0 537v120h1243h123v-657h-123v537h-1243z" />
<glyph unicode="&#xad;" horiz-adv-x="641" d="M117 535q0 82 2 88q4 20 33 20h333q21 0 29 -6t8 -25v-92q-1 -13 -8 -17.5t-25 -4.5h-337q-20 0 -27.5 7.5t-7.5 29.5z" />
<glyph unicode="&#xae;" horiz-adv-x="1705" d="M125 723q0 154 59 290.5t157.5 232t232 151t278.5 55.5q155 0 292 -58.5t233 -158t151.5 -234t54.5 -282.5q-1 -149 -57.5 -283t-153.5 -231t-232.5 -154t-287.5 -57q-141 0 -273 54t-232.5 148t-161 231.5t-60.5 295.5zM190 723q0 -183 89.5 -336t241.5 -240.5 t331 -87.5q184 0 337 88t240.5 240t88.5 334q1 135 -49.5 257.5t-138 212t-211.5 142.5t-263 53q-138 0 -262 -52.5t-212 -141.5t-140 -211.5t-52 -257.5zM561 270v912h281q88 0 129.5 -4t81.5 -19q67 -25 103 -81.5t36 -123.5q0 -91 -57.5 -148.5t-145.5 -70.5 q70 -26 101 -69.5t45 -130.5q13 -84 18 -114t17 -70t32 -81h-153q-31 67 -50 199q-6 42 -11.5 70.5t-15 53.5t-19 40t-28 27.5t-36.5 18t-50.5 9.5t-63.5 5t-81 1v-424h-133zM696 801h152h32t36.5 3t41 7.5t36.5 15t33 25.5t21 38.5t9 53.5q0 63 -43 100q-27 24 -64 29.5 t-131 5.5h-123v-278z" />
<glyph unicode="&#xaf;" horiz-adv-x="512" d="M-23 1386q0 15 5.5 22.5t12.5 9t19 1.5h480q27 0 35 -5.5t8 -31.5v-69q-2 -14 -9.5 -18.5t-27.5 -4.5h-480q-22 0 -29.5 3.5t-10.5 17.5q-3 6 -3 75z" />
<glyph unicode="&#xb0;" horiz-adv-x="724" d="M61 1231q0 126 88 213.5t213 87.5q126 0 214 -88t88 -213t-88 -213t-214 -88q-124 0 -212.5 88t-88.5 213zM184 1231q0 -74 51.5 -126t126.5 -52q74 0 126.5 52.5t52.5 125.5t-52.5 125.5t-126.5 52.5q-75 0 -126.5 -52t-51.5 -126z" />
<glyph unicode="&#xb1;" horiz-adv-x="1024" d="M63 0v121h898v-121h-898zM63 700v121h392v389h120v-389h386v-121h-386v-389h-120v389h-392z" />
<glyph unicode="&#xb2;" horiz-adv-x="681" d="M63 565q0 9 15 31l268 348q57 76 88 136.5t31 121.5q0 67 -38.5 112.5t-100.5 45.5q-10 0 -19.5 -1t-30.5 -8t-37.5 -20t-34.5 -41t-28 -67q-5 -23 -8.5 -32.5t-12.5 -19.5t-24 -10q-10 0 -17 1.5t-15.5 14t-8.5 35.5q0 60 28.5 117t89 97t140.5 40q106 0 173 -68 t67 -165q0 -41 -10.5 -79.5t-34 -78.5t-38 -61t-44.5 -60l-236 -299h342q19 0 25 -6q6 -4 6 -76q0 -20 -6 -25t-25 -5h-473q-31 0 -31 22z" />
<glyph unicode="&#xb3;" horiz-adv-x="681" d="M55 707q0 27 17 44t41 17q13 0 25 -8t16 -14t12 -19q15 -28 24 -41.5t29 -36t46.5 -33t60.5 -10.5q70 0 111.5 51t41.5 117q0 161 -215 217q-13 3 -19.5 5t-13 8.5t-6.5 17.5q0 18 23 29q32 12 48 18.5t46.5 24t46.5 35t29.5 46t13.5 62.5q0 49 -33 89t-94 40 q-28 0 -51 -9t-36.5 -19.5t-26 -29t-16.5 -28t-11 -25.5q-6 -18 -10 -27t-12.5 -16.5t-20.5 -7.5q-37 0 -37 45q0 77 68.5 147t179.5 70q95 0 158 -56.5t63 -143.5q0 -126 -137 -203q89 -41 136.5 -109t47.5 -151q0 -44 -15 -89t-46 -89.5t-89.5 -72.5t-136.5 -28 q-116 0 -187 62.5t-71 120.5z" />
<glyph unicode="&#xb4;" horiz-adv-x="512" d="M100 1219q0 24 21 45l180 182q31 31 53 31q24 0 40 -22t16 -52q0 -48 -37 -76l-199 -141q-25 -15 -35 -15q-14 0 -26.5 12.5t-12.5 35.5z" />
<glyph unicode="&#xb6;" horiz-adv-x="1366" d="M184 1049q0 143 80 245q32 41 72.5 70.5t75.5 44.5t81 23.5t74 10.5t68 3h452v-90h-67v-1698h-94v1698h-322v-1698h-94v1018q-50 9 -75.5 15t-71.5 30.5t-82 64.5q-48 51 -72.5 121.5t-24.5 141.5z" />
<glyph unicode="&#xb7;" horiz-adv-x="512" d="M127 561q0 59 40 92t87 33q54 0 91 -37.5t36 -93.5q-1 -53 -38.5 -87t-88.5 -34q-52 0 -89.5 34.5t-37.5 92.5z" />
<glyph unicode="&#xb8;" horiz-adv-x="512" d="M53 -381q0 10 7.5 20.5t25.5 10.5q2 0 41 -10q63 -11 90 -11q50 0 84.5 23t34.5 67q0 67 -103 74q-19 1 -27 3t-13 11t-3 27l21 166h94l-33 -141q88 6 136.5 -37.5t48.5 -102.5q0 -69 -61.5 -120.5t-159.5 -51.5q-53 0 -118 19.5t-65 52.5z" />
<glyph unicode="&#xb9;" horiz-adv-x="681" d="M51 1233q0 20 12 27.5t52 17.5q92 26 143 57t100 82q23 24 32 31.5t22 7.5q30 0 30 -37v-850q0 -17 -6 -21.5t-22 -4.5h-8q-56 0 -68 3.5t-12 22.5v701q-53 -25 -109.5 -42.5t-87 -23.5t-39.5 -6q-39 0 -39 35z" />
<glyph unicode="&#xba;" horiz-adv-x="681" d="M49 1114q0 144 80.5 247t212.5 103q72 0 130 -32.5t91.5 -85t51.5 -110.5t20 -116q2 -88 -30.5 -167.5t-101 -132t-159.5 -52.5q-93 0 -162 51.5t-101 128.5t-32 166zM174 1133q0 -126 52 -203.5t122 -77.5q73 0 119.5 75t40.5 201q-6 123 -56 190.5t-116 67.5 q-73 0 -117.5 -70t-44.5 -183z" />
<glyph unicode="&#xbb;" horiz-adv-x="768" d="M74 907q0 15 10 25t22 10q20 0 46 -35q61 -95 101.5 -148t96.5 -104q39 -38 47.5 -47.5t8.5 -19.5q0 -13 -5.5 -20.5t-29.5 -28.5q-101 -95 -189 -222q-36 -50 -46.5 -61.5t-22.5 -11.5q-13 0 -24 9.5t-11 25.5q0 15 10 32l109 203q26 46 26 74q0 22 -30 80l-107 204 q-12 24 -12 35zM381 907q0 15 10.5 25t22.5 10q22 0 45 -35q5 -8 25 -37.5t25.5 -37t22 -31t23.5 -32.5t22 -28t25.5 -30.5t25 -26.5t29.5 -29q40 -37 48 -46.5t8 -22.5q0 -12 -5.5 -19t-29.5 -28q-99 -93 -189 -222q-36 -50 -46.5 -61.5t-22.5 -11.5t-23.5 9.5t-11.5 25.5 q0 15 10 32l109 203q26 46 26 74q0 9 -3 20.5t-6 18t-10 22t-9 19.5l-109 204q-12 20 -12 35z" />
<glyph unicode="&#xbc;" horiz-adv-x="1622" d="M51 1233q0 14 7.5 22.5t17.5 12t39 12.5q93 26 144 56.5t99 80.5q23 24 32 31.5t22 7.5q30 0 30 -37v-850q0 -17 -6 -21.5t-22 -4.5h-8q-56 0 -68 3.5t-12 22.5v701q-53 -25 -110 -42t-86.5 -22.5t-39.5 -5.5q-17 0 -27 8.5t-11 14t-1 10.5zM373 18q0 11 12 35l723 1356 q12 24 20.5 30.5t28.5 6.5q37 0 45 -2t8 -14q0 -8 -16 -39l-717 -1354q-13 -26 -21 -31.5t-30 -5.5q-34 0 -43.5 2.5t-9.5 15.5zM979 236q0 7 16 36l348 613q14 28 43 28q44 0 44 -53v-573h86q16 -3 16 -29q0 -41 -6 -45q-4 -4 -96 -4v-189q0 -14 -3.5 -19t-13.5 -7h-74 q-16 0 -20 6t-4 20v189h-303q-33 0 -33 27zM1092 287h223v420z" />
<glyph unicode="&#xbd;" horiz-adv-x="1622" d="M51 1233q0 14 7.5 22.5t17.5 12t39 12.5q92 24 143 55t100 82q23 24 32 31.5t22 7.5q30 0 30 -37v-852q0 -16 -6 -20t-22 -4q-63 0 -75.5 3t-12.5 21v703q-53 -25 -109.5 -42.5t-87 -23.5t-39.5 -6q-39 0 -39 35zM375 18q0 11 12 35l723 1356q11 24 19.5 30.5t29.5 6.5 q36 0 43.5 -2t7.5 -14q0 -8 -14 -39l-719 -1356q-13 -25 -20.5 -30t-30.5 -5q-33 0 -42 2.5t-9 15.5zM1001 23q0 7 15 30l268 348q57 76 88 136.5t31 121.5q0 68 -39 113t-102 45q-10 0 -19 -1t-30 -8t-37.5 -20t-34.5 -41t-27 -67q-5 -23 -8.5 -32.5t-13.5 -19.5t-25 -10 q-39 0 -39 52q0 60 28.5 117t89 97t140.5 40q106 0 173 -68.5t67 -165.5q0 -41 -10.5 -79.5t-34 -78.5t-37.5 -60t-45 -60l-236 -299h342q18 0 25 -7q6 -4 6 -75q0 -20 -6 -25.5t-25 -5.5h-473q-31 0 -31 23z" />
<glyph unicode="&#xbe;" horiz-adv-x="1622" d="M55 707q0 27 17 44t41 17q13 0 25 -8t16 -14t12 -19q15 -28 24 -41.5t29 -36t46.5 -33t60.5 -10.5q70 0 111.5 51t41.5 117q0 161 -215 217q-13 3 -19.5 5t-13 8.5t-6.5 17.5q0 18 23 29q32 12 48 18.5t46.5 24t46.5 35t29.5 46t13.5 62.5q0 49 -33 89t-94 40 q-28 0 -51 -9t-36.5 -19.5t-26 -29t-16.5 -28t-11 -25.5q-6 -18 -10 -27t-12.5 -16.5t-20.5 -7.5q-37 0 -37 45q0 77 68.5 147t179.5 70q95 0 158 -56.5t63 -143.5q0 -126 -137 -203q89 -41 136.5 -109t47.5 -151q0 -44 -15 -89t-46 -89.5t-89.5 -72.5t-136.5 -28 q-116 0 -187 62.5t-71 120.5zM418 18q0 5 12 35l723 1356q10 23 19.5 30t29.5 7q18 0 25.5 -0.5t15.5 -1.5t10 -4.5t2 -9.5q0 -8 -16 -39l-719 -1354q-13 -26 -20.5 -31.5t-28.5 -5.5q-37 0 -45 2.5t-8 15.5zM979 236q0 7 16 36l348 613q14 28 43 28q44 0 44 -53v-573h86 q16 -3 16 -29q0 -41 -6 -45q-4 -4 -96 -4v-189q0 -14 -3.5 -19t-13.5 -7h-74q-16 0 -20 6t-4 20v189h-303q-33 0 -33 27zM1092 287h223v420z" />
<glyph unicode="&#xbf;" horiz-adv-x="854" d="M72 254q0 45 12 84t38.5 74t43.5 52.5t51 49.5q101 96 130 166.5t32 234.5q0 46 6 58t35 12q38 0 47 -5.5t12 -33.5l25 -301q1 -38 -7 -53t-44 -43q-43 -30 -61 -43.5t-50 -42.5t-46 -52t-26 -58t-12 -74q0 -33 10 -65.5t29.5 -62.5t55.5 -48.5t83 -18.5q36 0 65 12 t45.5 27t30 39.5t17.5 37.5t10 33q7 26 12 39t15 31.5t26.5 26.5t38.5 8q31 0 59.5 -24t28.5 -74q0 -48 -22.5 -95t-65.5 -87t-115 -64.5t-161 -24.5q-164 0 -256 84.5t-92 200.5zM301 1339q3 53 40.5 86t88.5 33q56 0 90.5 -40t34.5 -87q0 -50 -35.5 -88.5t-91.5 -38.5 q-55 0 -92.5 39.5t-34.5 95.5z" />
<glyph unicode="&#xc0;" horiz-adv-x="1236" d="M0 18q0 1 5 16t5 17l531 1364q7 20 14.5 25.5t24.5 5.5h88q11 -2 16 -6t12 -21l533 -1368q8 -24 8 -33q0 -12 -7 -15t-22 -3h-141q-27 0 -34.5 4t-16.5 27l-203 538h-440l-199 -536q-9 -23 -16 -28t-29 -5h-96q-33 0 -33 18zM322 1812q0 35 19 57.5t44 22.5t53 -28 l193 -199q24 -24 24 -53q0 -22 -11.5 -36.5t-27.5 -14.5t-36 16l-218 154q-12 11 -19 18.5t-14 24.5t-7 38zM416 686h354l-176 490z" />
<glyph unicode="&#xc1;" horiz-adv-x="1236" d="M0 18q0 1 5 16t5 17l531 1364q7 20 14.5 25.5t24.5 5.5h88q11 -2 16 -6t12 -21l533 -1368q8 -24 8 -33q0 -12 -7 -15t-22 -3h-141q-27 0 -34.5 4t-16.5 27l-203 538h-440l-199 -536q-9 -23 -16 -28t-29 -5h-96q-33 0 -33 18zM416 686h354l-176 490zM580 1612q0 29 24 53 l193 199q28 28 53 28t44 -22.5t19 -57.5q0 -45 -41 -81l-217 -154q-20 -16 -37 -16q-16 0 -27 14t-11 37z" />
<glyph unicode="&#xc2;" horiz-adv-x="1236" d="M0 18q0 1 5 16t5 17l531 1364q7 20 14.5 25.5t24.5 5.5h88q11 -2 16 -6t12 -21l533 -1368q8 -24 8 -33q0 -12 -7 -15t-22 -3h-141q-27 0 -34.5 4t-16.5 27l-203 538h-440l-199 -536q-9 -23 -16 -28t-29 -5h-96q-33 0 -33 18zM317 1591q0 11 6 21.5t10 15t19 19.5 q88 78 114 103t71 75q43 43 55 48q7 3 14 3q13 0 23.5 -8t32.5 -31q83 -91 184 -170q34 -25 45.5 -39t11.5 -33q0 -17 -8.5 -26.5t-20.5 -9.5q-6 0 -34 14l-170 113q-5 3 -17 10t-17 9.5t-13.5 5.5t-14.5 3q-16 0 -61 -33l-168 -108q-19 -19 -35 -19q-9 0 -18 12t-9 25z M416 686h354l-176 490z" />
<glyph unicode="&#xc3;" horiz-adv-x="1236" d="M0 18q0 1 5 16t5 17l531 1364q7 20 14.5 25.5t24.5 5.5h88q11 -2 16 -6t12 -21l533 -1368q8 -24 8 -33q0 -12 -7 -15t-22 -3h-141q-27 0 -34.5 4t-16.5 27l-203 538h-440l-199 -536q-9 -23 -16 -28t-29 -5h-96q-33 0 -33 18zM287 1622q0 19 10.5 48t31.5 61.5t62.5 55.5 t93.5 23q42 0 73 -13.5t73 -43.5q48 -32 74.5 -44.5t60.5 -12.5q24 0 42 7.5t26.5 15.5t21.5 24q28 39 35.5 47t19.5 8q16 0 24.5 -11.5t8.5 -27.5q0 -24 -10 -54t-31 -62t-60.5 -54t-90.5 -22q-31 0 -59.5 9t-45 18.5t-53.5 33.5q-51 35 -72.5 45t-50.5 10q-33 0 -51.5 -10 t-36.5 -31q-31 -44 -41 -53.5t-23 -9.5q-32 0 -32 43zM416 686h354l-176 490z" />
<glyph unicode="&#xc4;" horiz-adv-x="1236" d="M0 18q0 1 5 16t5 17l531 1364q7 20 14.5 25.5t24.5 5.5h88q11 -2 16 -6t12 -21l533 -1368q8 -24 8 -33q0 -12 -7 -15t-22 -3h-141q-27 0 -34.5 4t-16.5 27l-203 538h-440l-199 -536q-9 -23 -16 -28t-29 -5h-96q-33 0 -33 18zM309 1718q0 53 37 85t84 32q45 0 80 -30.5 t35 -82.5q0 -47 -30 -82.5t-87 -35.5q-48 0 -83.5 30t-35.5 84zM416 686h354l-176 490zM684 1718q0 53 37 85t84 32q45 0 80 -30.5t35 -82.5q0 -46 -30.5 -82t-86.5 -36q-48 0 -83.5 30t-35.5 84z" />
<glyph unicode="&#xc5;" horiz-adv-x="1236" d="M0 18q0 1 5 16t5 17l531 1364q7 20 14.5 25.5t24.5 5.5h88q11 -2 16 -6t12 -21l533 -1368q8 -24 8 -33q0 -12 -7 -15t-22 -3h-141q-27 0 -34.5 4t-16.5 27l-203 538h-440l-199 -536q-9 -23 -16 -28t-29 -5h-96q-33 0 -33 18zM416 686h354l-176 490zM444 1714 q0 70 51.5 121t125.5 51q71 0 116.5 -48t50.5 -116q5 -75 -42.5 -128.5t-124.5 -53.5q-75 0 -126 51t-51 123zM532 1714q0 -37 23.5 -61.5t60.5 -24.5q39 0 62.5 26t21.5 62q-2 32 -23 57t-59 25q-37 0 -61.5 -23.5t-24.5 -60.5z" />
<glyph unicode="&#xc6;" horiz-adv-x="1662" d="M0 27q0 9 12 36l582 1342q13 27 22 34t37 7h752q21 0 27 -5.5t6 -19.5q2 -8 2 -82q0 -21 -6.5 -26.5t-28.5 -5.5h-571l102 -484h469q19 0 25 -4t8 -14q2 -8 2 -82q0 -17 -8.5 -22t-26.5 -5h-444l112 -563h492q21 0 26.5 -7t5.5 -28q0 -70 -4.5 -84t-31.5 -14h-625 q-26 0 -34.5 4.5t-14.5 26.5l-101 522h-395l-215 -520q-9 -22 -17 -27.5t-28 -5.5h-96q-35 0 -35 27zM440 670h324l-105 542z" />
<glyph unicode="&#xc7;" horiz-adv-x="1236" d="M72 733q0 108 22.5 211t73.5 201t125.5 171t187.5 117t250 44q87 0 165 -19.5t133 -51t95.5 -70t60 -76t19.5 -70.5q0 -42 -27.5 -68t-66.5 -26q-26 0 -46 11.5t-29.5 24.5t-22.5 35q-15 24 -25 38t-39.5 45.5t-58.5 50.5t-76.5 35t-99.5 16q-183 0 -305.5 -158 t-122.5 -416q0 -188 62.5 -338.5t176 -236.5t256.5 -86q146 0 289 94q50 33 70 33q18 0 31.5 -14t13.5 -35q0 -26 -30 -62.5t-84 -74t-145 -63.5t-196 -26l-24 -108q88 6 136 -38t48 -102q0 -70 -61.5 -122t-159.5 -52q-53 0 -118 19.5t-65 52.5q0 10 6.5 20.5t24.5 10.5 q2 0 41 -10q63 -11 92 -11q49 0 84 23.5t35 66.5q0 68 -106 74q-24 2 -33 10t-6 31l16 141q-126 18 -226 75t-162.5 133.5t-104 173t-58 189t-16.5 187.5z" />
<glyph unicode="&#xc8;" horiz-adv-x="980" d="M135 37v1360q0 28 8 38.5t33 10.5h713q20 0 29.5 -5.5t9.5 -25.5q0 -72 -2 -78q-1 -13 -8.5 -17.5t-28.5 -4.5h-553v-494h467q15 0 21 -1t12 -7.5t6 -21.5q0 -74 -2 -80q-3 -12 -11 -15.5t-26 -3.5h-467v-561h553q16 0 22.5 -1t11.5 -8.5t5 -23.5v-65q0 -15 -5 -22.5 t-12 -9t-22 -1.5h-713q-25 0 -33 6t-8 31zM215 1812q0 35 19.5 57.5t44.5 22.5t53 -28l192 -199q25 -25 25 -53q0 -22 -11.5 -36.5t-27.5 -14.5q-17 0 -37 16l-217 154q-41 36 -41 81z" />
<glyph unicode="&#xc9;" horiz-adv-x="980" d="M135 37v1360q0 28 8 38.5t33 10.5h713q20 0 29.5 -5.5t9.5 -25.5q0 -72 -2 -78q-1 -13 -8.5 -17.5t-28.5 -4.5h-553v-494h467q15 0 21 -1t12 -7.5t6 -21.5q0 -74 -2 -80q-3 -12 -11 -15.5t-26 -3.5h-467v-561h553q16 0 22.5 -1t11.5 -8.5t5 -23.5v-65q0 -15 -5 -22.5 t-12 -9t-22 -1.5h-713q-25 0 -33 6t-8 31zM473 1612q0 28 25 53l192 199q28 28 53 28t44.5 -22.5t19.5 -57.5q0 -45 -41 -81l-217 -154q-20 -16 -37 -16q-16 0 -27.5 14.5t-11.5 36.5z" />
<glyph unicode="&#xca;" horiz-adv-x="980" d="M135 37v1360q0 28 8 38.5t33 10.5h713q20 0 29.5 -5.5t9.5 -25.5q0 -72 -2 -78q-1 -13 -8.5 -17.5t-28.5 -4.5h-553v-494h467q15 0 21 -1t12 -7.5t6 -21.5q0 -74 -2 -80q-3 -12 -11 -15.5t-26 -3.5h-467v-561h553q16 0 22.5 -1t11.5 -8.5t5 -23.5v-65q0 -15 -5 -22.5 t-12 -9t-22 -1.5h-713q-25 0 -33 6t-8 31zM211 1591q0 11 6 21.5t10 15t19 19.5q85 76 111.5 101.5t72.5 76.5l30.5 30.5t18.5 14t21 6.5q13 0 23 -7.5t32 -31.5q83 -91 184 -170q34 -26 46 -39.5t12 -32.5q0 -17 -8.5 -26.5t-20.5 -9.5q-7 0 -35 14l-170 113q-6 3 -17 10 t-16.5 9.5t-13.5 5.5t-14 3q-17 0 -62 -33l-168 -108q-19 -19 -34 -19q-9 0 -18 12t-9 25z" />
<glyph unicode="&#xcb;" horiz-adv-x="980" d="M135 37v1360q0 28 8 38.5t33 10.5h713q20 0 29.5 -5.5t9.5 -25.5q0 -72 -2 -78q-1 -13 -8.5 -17.5t-28.5 -4.5h-553v-494h467q15 0 21 -1t12 -7.5t6 -21.5q0 -74 -2 -80q-3 -12 -11 -15.5t-26 -3.5h-467v-561h553q16 0 22.5 -1t11.5 -8.5t5 -23.5v-65q0 -15 -5 -22.5 t-12 -9t-22 -1.5h-713q-25 0 -33 6t-8 31zM205 1718q0 53 37 85t84 32q45 0 79.5 -30.5t34.5 -82.5q0 -47 -29.5 -82.5t-86.5 -35.5q-48 0 -83.5 30t-35.5 84zM580 1718q0 53 36.5 85t83.5 32q45 0 80 -30.5t35 -82.5q0 -46 -30.5 -82t-86.5 -36q-48 0 -83 30t-35 84z" />
<glyph unicode="&#xcc;" horiz-adv-x="468" d="M-61 1812q0 35 19 57.5t44 22.5t53 -28l193 -199q24 -24 24 -53q0 -22 -11.5 -36.5t-27.5 -14.5t-36 16l-217 154q-41 36 -41 81zM133 41v1364q0 25 8 33.5t31 7.5h123q23 0 32 -7t9 -30v-1368q0 -27 -8 -34t-33 -7h-123q-21 0 -30 7.5t-9 33.5z" />
<glyph unicode="&#xcd;" horiz-adv-x="468" d="M133 41v1364q0 25 8 33.5t31 7.5h123q23 0 32 -7t9 -30v-1368q0 -27 -8 -34t-33 -7h-123q-21 0 -30 7.5t-9 33.5zM197 1612q0 29 24 53l193 199q28 28 53 28t44 -22.5t19 -57.5q0 -45 -41 -81l-217 -154q-20 -16 -36 -16t-27.5 14.5t-11.5 36.5z" />
<glyph unicode="&#xce;" horiz-adv-x="468" d="M-66 1591q0 11 6 21.5t10 15t19 19.5q88 78 114 103t71 75q43 43 55 48q7 3 14 3q13 0 23.5 -8t32.5 -31q83 -91 184 -170q34 -25 45.5 -39t11.5 -33q0 -18 -8 -27t-20 -9q-7 0 -35 14l-170 113q-5 3 -17 10t-17 9.5t-13.5 5.5t-14.5 3q-16 0 -61 -33l-168 -108 q-19 -19 -35 -19q-9 0 -18 12t-9 25zM133 41v1364q0 25 8 33.5t31 7.5h123q23 0 32 -7t9 -30v-1368q0 -27 -8 -34t-33 -7h-123q-21 0 -30 7.5t-9 33.5z" />
<glyph unicode="&#xcf;" horiz-adv-x="468" d="M-72 1718q0 53 37 85t84 32q45 0 80 -30.5t35 -82.5q0 -47 -30 -82.5t-87 -35.5q-48 0 -83.5 30t-35.5 84zM133 41v1364q0 25 8 33.5t31 7.5h123q23 0 32 -7t9 -30v-1368q0 -27 -8 -34t-33 -7h-123q-21 0 -30 7.5t-9 33.5zM303 1718q0 53 37 85t84 32q45 0 80 -30.5 t35 -82.5q0 -46 -30.5 -82t-86.5 -36q-48 0 -83.5 30t-35.5 84z" />
<glyph unicode="&#xd0;" horiz-adv-x="1366" d="M0 748v86q0 21 6 25.5t27 4.5h102v504q0 30 6 40.5t25 16.5q39 14 137 24.5t189 10.5q173 0 312.5 -45t229 -118.5t149 -171.5t84.5 -198.5t25 -205.5t-22 -197t-59.5 -158t-70.5 -107.5t-69 -74.5q-221 -198 -629 -198q-193 0 -274 20q-20 6 -26.5 16.5t-6.5 30.5v678 h-102q-20 0 -25 2.5t-8 14.5zM338 121q41 -6 106 -6q160 0 282 43.5t197.5 125t113.5 192.5t38 251q0 269 -143 430q-159 178 -465 178q-67 0 -129 -10v-461h397q21 0 27 -6q4 -4 4 -88q0 -21 -5.5 -27t-27.5 -6h-395v-616z" />
<glyph unicode="&#xd1;" horiz-adv-x="1409" d="M137 39v1368q0 25 7 32t32 7h119q21 0 27.5 -4t21.5 -27l770 -1067v1059q0 20 4.5 28t16.5 11h106q20 0 25.5 -7.5t5.5 -29.5v-1372q0 -25 -6.5 -31t-28.5 -6h-78q-15 2 -23.5 7t-21.5 22l-817 1134v-1124q0 -35 -18 -37q-4 -2 -107 -2q-21 0 -28 8.5t-7 30.5zM393 1622 q0 19 10.5 48t32 61.5t63 55.5t93.5 23q42 0 72 -13.5t73 -43.5q48 -32 74.5 -44.5t60.5 -12.5q24 0 42 7.5t27.5 15.5t21.5 24q28 39 35.5 47t19.5 8q16 0 24.5 -11.5t8.5 -27.5q0 -24 -10.5 -54t-31 -62t-60.5 -54t-91 -22q-31 0 -59.5 9t-45 18.5t-53.5 33.5 q-51 35 -72 45t-50 10q-33 0 -52 -10t-37 -31q-32 -45 -41 -54t-22 -9q-14 0 -23.5 11t-9.5 32z" />
<glyph unicode="&#xd2;" horiz-adv-x="1449" d="M72 723q0 112 24.5 219t77 205t128.5 171.5t186.5 117t242.5 43.5q151 0 274 -61t201 -163t122 -227t50 -262q10 -220 -71 -403t-233.5 -288.5t-344.5 -105.5q-186 0 -335.5 94.5t-235.5 267.5t-86 392zM285 735q0 -121 20 -215q40 -196 158.5 -305t263.5 -109 q94 0 184.5 49.5t153.5 147.5q105 165 100 457q-3 138 -36 246.5t-80 172.5t-107.5 105.5t-114 56.5t-104.5 15q-100 0 -188 -51q-250 -148 -250 -570zM428 1812q0 35 19.5 57.5t44.5 22.5t53 -28l192 -199q25 -25 25 -53q0 -22 -11.5 -36.5t-27.5 -14.5q-17 0 -37 16 l-217 154q-41 36 -41 81z" />
<glyph unicode="&#xd3;" horiz-adv-x="1449" d="M72 723q0 112 24.5 219t77 205t128.5 171.5t186.5 117t242.5 43.5q151 0 274 -61t201 -163t122 -227t50 -262q10 -220 -71 -403t-233.5 -288.5t-344.5 -105.5q-186 0 -335.5 94.5t-235.5 267.5t-86 392zM285 735q0 -121 20 -215q40 -196 158.5 -305t263.5 -109 q94 0 184.5 49.5t153.5 147.5q105 165 100 457q-3 138 -36 246.5t-80 172.5t-107.5 105.5t-114 56.5t-104.5 15q-100 0 -188 -51q-250 -148 -250 -570zM686 1612q0 28 25 53l192 199q28 28 53 28t44.5 -22.5t19.5 -57.5q0 -45 -41 -81l-217 -154q-20 -16 -37 -16 q-16 0 -27.5 14.5t-11.5 36.5z" />
<glyph unicode="&#xd4;" horiz-adv-x="1449" d="M72 723q0 112 24.5 219t77 205t128.5 171.5t186.5 117t242.5 43.5q151 0 274 -61t201 -163t122 -227t50 -262q10 -220 -71 -403t-233.5 -288.5t-344.5 -105.5q-186 0 -335.5 94.5t-235.5 267.5t-86 392zM285 735q0 -121 20 -215q40 -196 158.5 -305t263.5 -109 q94 0 184.5 49.5t153.5 147.5q105 165 100 457q-3 138 -36 246.5t-80 172.5t-107.5 105.5t-114 56.5t-104.5 15q-100 0 -188 -51q-250 -148 -250 -570zM424 1591q0 11 6 21.5t10 15t19 19.5q85 76 111.5 101.5t72.5 76.5l30.5 30.5t18.5 14t21 6.5q13 0 23 -7.5t32 -31.5 q83 -91 184 -170q34 -26 46 -39.5t12 -32.5q0 -17 -8.5 -26.5t-20.5 -9.5q-7 0 -35 14l-170 113q-6 3 -17 10t-16.5 9.5t-13.5 5.5t-14 3q-17 0 -62 -33l-168 -108q-19 -19 -34 -19q-9 0 -18 12t-9 25z" />
<glyph unicode="&#xd5;" horiz-adv-x="1449" d="M72 723q0 112 24.5 219t77 205t128.5 171.5t186.5 117t242.5 43.5q151 0 274 -61t201 -163t122 -227t50 -262q10 -220 -71 -403t-233.5 -288.5t-344.5 -105.5q-186 0 -335.5 94.5t-235.5 267.5t-86 392zM285 735q0 -121 20 -215q40 -196 158.5 -305t263.5 -109 q94 0 184.5 49.5t153.5 147.5q105 165 100 457q-3 138 -36 246.5t-80 172.5t-107.5 105.5t-114 56.5t-104.5 15q-100 0 -188 -51q-250 -148 -250 -570zM393 1622q0 19 10.5 48t32 61.5t63 55.5t93.5 23q42 0 72 -13.5t73 -43.5q48 -32 74.5 -44.5t60.5 -12.5q24 0 42 7.5 t27.5 15.5t21.5 24q28 39 35.5 47t19.5 8q16 0 24.5 -11.5t8.5 -27.5q0 -24 -10.5 -54t-31 -62t-60.5 -54t-91 -22q-31 0 -59.5 9t-45 18.5t-53.5 33.5q-51 35 -72 45t-50 10q-33 0 -52 -10t-37 -31q-32 -45 -41 -54t-22 -9q-14 0 -23.5 11t-9.5 32z" />
<glyph unicode="&#xd6;" horiz-adv-x="1449" d="M72 723q0 112 24.5 219t77 205t128.5 171.5t186.5 117t242.5 43.5q151 0 274 -61t201 -163t122 -227t50 -262q10 -220 -71 -403t-233.5 -288.5t-344.5 -105.5q-186 0 -335.5 94.5t-235.5 267.5t-86 392zM285 735q0 -121 20 -215q40 -196 158.5 -305t263.5 -109 q94 0 184.5 49.5t153.5 147.5q105 165 100 457q-3 138 -36 246.5t-80 172.5t-107.5 105.5t-114 56.5t-104.5 15q-100 0 -188 -51q-250 -148 -250 -570zM426 1718q0 53 37 85t84 32q45 0 80 -30.5t35 -82.5q0 -47 -30 -82.5t-87 -35.5q-48 0 -83.5 30t-35.5 84zM801 1718 q0 53 37 85t84 32q45 0 79.5 -30.5t34.5 -82.5q0 -46 -30 -82t-86 -36q-48 0 -83.5 30t-35.5 84z" />
<glyph unicode="&#xd7;" horiz-adv-x="1024" d="M123 293l303 303l-303 303l86 86l303 -303l303 303l86 -86l-303 -303l303 -303l-86 -86l-303 303l-303 -303z" />
<glyph unicode="&#xd8;" horiz-adv-x="1449" d="M72 713q0 151 45.5 288.5t127.5 243.5t207.5 169t274.5 63q73 0 135.5 -11.5t110.5 -34t72 -37t57 -38.5l147 213q17 20 21 20h4q7 0 34.5 -17.5t28.5 -29.5q-1 -3 -12 -20l-158 -226q211 -233 211 -559q0 -164 -51 -307t-138.5 -244t-209 -159t-258.5 -58 q-201 0 -369 127l-149 -221q-12 -14 -21 -14q-8 0 -34.5 19.5t-26.5 27.5q0 7 10 20l156 226q-109 105 -162 250t-53 309zM272 715q0 -229 115 -416l629 930q-27 26 -44 39.5t-54.5 38.5t-83.5 37t-99 12q-200 0 -331.5 -176.5t-131.5 -464.5zM444 227q121 -121 273 -121 q201 0 331 174.5t130 467.5q0 227 -107 405z" />
<glyph unicode="&#xd9;" horiz-adv-x="1193" d="M117 459v952q0 24 7 30.5t30 6.5h129q26 0 32.5 -6t6.5 -31v-917q0 -31 1 -52.5t6.5 -63.5t16.5 -72.5t33 -67.5t52.5 -60.5t79.5 -40t110 -16.5q79 0 146 30.5t107 90.5q21 33 31.5 70t12.5 64t2 77v956q0 23 6 31t26 8q99 0 105 -2q12 -2 17 -9.5t5 -27.5v-979 q-1 -60 -3 -88.5t-16 -79.5t-40 -94q-119 -199 -418 -199q-85 0 -156.5 17t-115 40t-79.5 55.5t-51 54t-28 44.5q-55 99 -55 279zM301 1812q0 35 19.5 57.5t44.5 22.5t53 -28l192 -199q25 -25 25 -53q0 -22 -11.5 -36.5t-27.5 -14.5q-17 0 -37 16l-217 154q-41 36 -41 81z " />
<glyph unicode="&#xda;" horiz-adv-x="1193" d="M117 459v952q0 24 7 30.5t30 6.5h129q26 0 32.5 -6t6.5 -31v-917q0 -31 1 -52.5t6.5 -63.5t16.5 -72.5t33 -67.5t52.5 -60.5t79.5 -40t110 -16.5q79 0 146 30.5t107 90.5q21 33 31.5 70t12.5 64t2 77v956q0 23 6 31t26 8q99 0 105 -2q12 -2 17 -9.5t5 -27.5v-979 q-1 -60 -3 -88.5t-16 -79.5t-40 -94q-119 -199 -418 -199q-85 0 -156.5 17t-115 40t-79.5 55.5t-51 54t-28 44.5q-55 99 -55 279zM559 1612q0 28 25 53l192 199q28 28 53 28t44.5 -22.5t19.5 -57.5q0 -45 -41 -81l-217 -154q-20 -16 -37 -16q-16 0 -27.5 14.5t-11.5 36.5z " />
<glyph unicode="&#xdb;" horiz-adv-x="1193" d="M117 459v952q0 24 7 30.5t30 6.5h129q26 0 32.5 -6t6.5 -31v-917q0 -31 1 -52.5t6.5 -63.5t16.5 -72.5t33 -67.5t52.5 -60.5t79.5 -40t110 -16.5q79 0 146 30.5t107 90.5q21 33 31.5 70t12.5 64t2 77v956q0 23 6 31t26 8q99 0 105 -2q12 -2 17 -9.5t5 -27.5v-979 q-1 -60 -3 -88.5t-16 -79.5t-40 -94q-119 -199 -418 -199q-85 0 -156.5 17t-115 40t-79.5 55.5t-51 54t-28 44.5q-55 99 -55 279zM297 1591q0 11 6 21.5t10 15t19 19.5q85 76 111.5 101.5t72.5 76.5l30.5 30.5t18.5 14t21 6.5q13 0 23 -7.5t32 -31.5q83 -91 184 -170 q34 -26 46 -39.5t12 -32.5q0 -17 -8.5 -26.5t-20.5 -9.5q-7 0 -35 14l-170 113q-6 3 -17 10t-16.5 9.5t-13.5 5.5t-14 3q-17 0 -62 -33l-168 -108q-19 -19 -34 -19q-9 0 -18 12t-9 25z" />
<glyph unicode="&#xdc;" horiz-adv-x="1193" d="M117 459v952q0 24 7 30.5t30 6.5h129q26 0 32.5 -6t6.5 -31v-917q0 -31 1 -52.5t6.5 -63.5t16.5 -72.5t33 -67.5t52.5 -60.5t79.5 -40t110 -16.5q79 0 146 30.5t107 90.5q21 33 31.5 70t12.5 64t2 77v956q0 23 6 31t26 8q99 0 105 -2q12 -2 17 -9.5t5 -27.5v-979 q-1 -60 -3 -88.5t-16 -79.5t-40 -94q-119 -199 -418 -199q-85 0 -156.5 17t-115 40t-79.5 55.5t-51 54t-28 44.5q-55 99 -55 279zM293 1718q0 53 37 85t84 32q45 0 79.5 -30.5t34.5 -82.5q0 -47 -29.5 -82.5t-86.5 -35.5q-48 0 -83.5 30t-35.5 84zM668 1718q0 53 36.5 85 t83.5 32q45 0 80 -30.5t35 -82.5q0 -46 -30.5 -82t-86.5 -36q-48 0 -83 30t-35 84z" />
<glyph unicode="&#xdd;" horiz-adv-x="1110" d="M0 1425q0 21 31 21h147q23 0 31.5 -5t17.5 -24l353 -602l350 598q13 21 19 26t20 7h114q25 0 25 -21q0 -12 -12 -34l-443 -740v-618q0 -23 -8 -28t-33 -5h-133q-20 0 -26.5 7t-6.5 26v629l-432 729q-14 25 -14 34zM516 1612q0 28 25 53l192 199q28 28 53 28t44.5 -22.5 t19.5 -57.5q0 -45 -41 -81l-217 -154q-20 -16 -37 -16q-16 0 -27.5 14.5t-11.5 36.5z" />
<glyph unicode="&#xde;" d="M135 35v1374q0 23 7.5 30t31.5 7h125q22 0 29.5 -6t7.5 -31v-272q122 37 233 37q114 0 204 -33t146.5 -90.5t85.5 -132t29 -160.5q0 -172 -116 -285q-152 -149 -467 -149q-57 0 -115 6v-295q0 -23 -7.5 -29t-29.5 -6h-125q-23 0 -31 6t-8 29zM336 449q70 -9 98 -9 q50 0 93.5 5t89.5 17.5t81.5 36.5t64.5 58.5t44.5 86.5t15.5 118q0 128 -55 199q-76 102 -248 102q-99 0 -184 -23v-591z" />
<glyph unicode="&#xdf;" horiz-adv-x="1024" d="M123 35v1003q1 48 2.5 81t11 94t25.5 107t47.5 98.5t75.5 90.5q97 82 237 82q136 0 224 -76.5t88 -197.5q0 -40 -9.5 -78t-30 -75.5t-36.5 -62t-45 -63.5q-70 -97 -85.5 -125.5t-15.5 -62.5q0 -48 32 -85.5t124 -111.5q52 -40 87 -73t70.5 -78.5t53.5 -99t18 -115.5 q0 -143 -94 -227.5t-248 -84.5q-114 0 -175.5 43t-61.5 97q0 33 22 54t52 21q31 0 67 -36q20 -19 34 -29.5t42.5 -22.5t58.5 -12q59 0 103.5 42.5t44.5 117.5q0 49 -23.5 93.5t-48 68.5t-70.5 63l-114 100q-33 28 -51 45.5t-39.5 44.5t-31 57t-9.5 66q0 39 15.5 80t31 65.5 t49.5 72.5q53 74 73 104.5t38 76.5t18 91q0 82 -51 141.5t-135 59.5q-38 0 -68 -12.5t-49 -30.5t-33 -47.5t-21 -53.5t-11.5 -60t-5 -55t-1.5 -49v-1132q1 -15 -0.5 -22.5t-7 -11.5t-11 -4.5t-18.5 -0.5h-102q-21 1 -28 3t-11 8.5t-4 23.5z" />
<glyph unicode="&#xe0;" horiz-adv-x="894" d="M55 254q0 50 15.5 92t36 73t66.5 61.5t80.5 49t106.5 44t116 39t136 40.5v105q0 25 -0.5 38t-3 39.5t-8 42.5t-16.5 37t-27 33t-41 20.5t-57 8.5q-34 0 -62 -10.5t-45 -24t-32 -35t-20.5 -33.5t-12.5 -30q-7 -21 -12 -31.5t-15.5 -26t-26.5 -23t-38 -7.5q-29 0 -55.5 21 t-26.5 65q0 96 106.5 169.5t265.5 73.5q49 0 90 -8t70 -20t52.5 -33t38.5 -39t25.5 -46t16 -47t8.5 -49t4 -44.5t1 -40.5v-543q-2 -76 -18.5 -115.5t-70.5 -68.5q-107 -56 -288 -56q-21 0 -38 0.5t-56.5 6t-70.5 15t-69.5 30.5t-64 49.5t-43 74.5t-17.5 103zM199 1403 q0 30 16.5 52t40.5 22q22 0 53 -31l178 -182q21 -21 21 -45q0 -23 -11.5 -35.5t-25.5 -12.5q-10 0 -35 15l-198 141q-39 29 -39 76zM242 281q0 -13 1.5 -27.5t12.5 -47.5t31 -57t62.5 -43.5t101.5 -19.5q46 0 78 11t48 25t24.5 38t9.5 38.5t1 37.5v321h-1l-1 -1h-1h-1l-1 -1 h-1q-184 -59 -246 -94q-104 -58 -116 -151q-2 -14 -2 -29z" />
<glyph unicode="&#xe1;" horiz-adv-x="894" d="M55 254q0 50 15.5 92t36 73t66.5 61.5t80.5 49t106.5 44t116 39t136 40.5v105q0 25 -0.5 38t-3 39.5t-8 42.5t-16.5 37t-27 33t-41 20.5t-57 8.5q-34 0 -62 -10.5t-45 -24t-32 -35t-20.5 -33.5t-12.5 -30q-7 -21 -12 -31.5t-15.5 -26t-26.5 -23t-38 -7.5q-29 0 -55.5 21 t-26.5 65q0 96 106.5 169.5t265.5 73.5q49 0 90 -8t70 -20t52.5 -33t38.5 -39t25.5 -46t16 -47t8.5 -49t4 -44.5t1 -40.5v-543q-2 -76 -18.5 -115.5t-70.5 -68.5q-107 -56 -288 -56q-21 0 -38 0.5t-56.5 6t-70.5 15t-69.5 30.5t-64 49.5t-43 74.5t-17.5 103zM242 281 q0 -13 1.5 -27.5t12.5 -47.5t31 -57t62.5 -43.5t101.5 -19.5q46 0 78 11t48 25t24.5 38t9.5 38.5t1 37.5v321h-1l-1 -1h-1h-1l-1 -1h-1q-184 -59 -246 -94q-104 -58 -116 -151q-2 -14 -2 -29zM428 1219q0 24 21 45l180 182q31 31 53 31q24 0 39.5 -22t15.5 -52 q0 -48 -37 -76l-198 -141q-25 -15 -35 -15q-14 0 -26.5 12.5t-12.5 35.5z" />
<glyph unicode="&#xe2;" horiz-adv-x="894" d="M55 254q0 50 15.5 92t36 73t66.5 61.5t80.5 49t106.5 44t116 39t136 40.5v105q0 25 -0.5 38t-3 39.5t-8 42.5t-16.5 37t-27 33t-41 20.5t-57 8.5q-34 0 -62 -10.5t-45 -24t-32 -35t-20.5 -33.5t-12.5 -30q-7 -21 -12 -31.5t-15.5 -26t-26.5 -23t-38 -7.5q-29 0 -55.5 21 t-26.5 65q0 96 106.5 169.5t265.5 73.5q49 0 90 -8t70 -20t52.5 -33t38.5 -39t25.5 -46t16 -47t8.5 -49t4 -44.5t1 -40.5v-543q-2 -76 -18.5 -115.5t-70.5 -68.5q-107 -56 -288 -56q-21 0 -38 0.5t-56.5 6t-70.5 15t-69.5 30.5t-64 49.5t-43 74.5t-17.5 103zM186 1192 q0 3 0.5 6.5t0.5 5.5t1.5 5l2.5 5t3.5 5t3.5 4l4.5 4.5l5 5t6.5 6t7 6.5q129 112 182 178q16 24 26 32.5t24 8.5q22 0 43 -26q4 -4 22 -23t24.5 -26t24.5 -24.5t32 -30t35.5 -31t45.5 -37.5q38 -32 46.5 -42.5t8.5 -25.5q0 -13 -8.5 -24t-19.5 -11q-8 0 -33 15l-166 106 q-38 21 -53 21q-21 0 -56 -25l-149 -102q-23 -19 -35 -19q-11 0 -20 9.5t-9 23.5zM242 281q0 -13 1.5 -27.5t12.5 -47.5t31 -57t62.5 -43.5t101.5 -19.5q46 0 78 11t48 25t24.5 38t9.5 38.5t1 37.5v321h-1l-1 -1h-1h-1l-1 -1h-1q-184 -59 -246 -94q-104 -58 -116 -151 q-2 -14 -2 -29z" />
<glyph unicode="&#xe3;" horiz-adv-x="894" d="M55 254q0 50 15.5 92t36 73t66.5 61.5t80.5 49t106.5 44t116 39t136 40.5v105q0 25 -0.5 38t-3 39.5t-8 42.5t-16.5 37t-27 33t-41 20.5t-57 8.5q-34 0 -62 -10.5t-45 -24t-32 -35t-20.5 -33.5t-12.5 -30q-7 -21 -12 -31.5t-15.5 -26t-26.5 -23t-38 -7.5q-29 0 -55.5 21 t-26.5 65q0 96 106.5 169.5t265.5 73.5q49 0 90 -8t70 -20t52.5 -33t38.5 -39t25.5 -46t16 -47t8.5 -49t4 -44.5t1 -40.5v-543q-2 -76 -18.5 -115.5t-70.5 -68.5q-107 -56 -288 -56q-21 0 -38 0.5t-56.5 6t-70.5 15t-69.5 30.5t-64 49.5t-43 74.5t-17.5 103zM162 1260 q0 20 11.5 49t32.5 59.5t59 52t83 21.5q35 0 62.5 -12.5t66.5 -38.5q54 -39 78 -50.5t57 -11.5q37 0 59.5 17.5t41.5 48.5q13 20 19.5 26t19.5 6q11 0 19.5 -10t8.5 -31q0 -22 -10.5 -51t-30.5 -59.5t-56 -51t-81 -20.5q-66 0 -115 39q-46 34 -61.5 44.5t-38 20t-45.5 9.5 q-30 0 -53 -12t-31 -21.5t-20 -28.5q-11 -20 -20 -28t-23 -8q-13 0 -23 10t-10 31zM242 281q0 -13 1.5 -27.5t12.5 -47.5t31 -57t62.5 -43.5t101.5 -19.5q46 0 78 11t48 25t24.5 38t9.5 38.5t1 37.5v321h-1l-1 -1h-1h-1l-1 -1h-1q-184 -59 -246 -94q-104 -58 -116 -151 q-2 -14 -2 -29z" />
<glyph unicode="&#xe4;" horiz-adv-x="894" d="M55 254q0 50 15.5 92t36 73t66.5 61.5t80.5 49t106.5 44t116 39t136 40.5v105q0 25 -0.5 38t-3 39.5t-8 42.5t-16.5 37t-27 33t-41 20.5t-57 8.5q-34 0 -62 -10.5t-45 -24t-32 -35t-20.5 -33.5t-12.5 -30q-7 -21 -12 -31.5t-15.5 -26t-26.5 -23t-38 -7.5q-29 0 -55.5 21 t-26.5 65q0 96 106.5 169.5t265.5 73.5q49 0 90 -8t70 -20t52.5 -33t38.5 -39t25.5 -46t16 -47t8.5 -49t4 -44.5t1 -40.5v-543q-2 -76 -18.5 -115.5t-70.5 -68.5q-107 -56 -288 -56q-21 0 -38 0.5t-56.5 6t-70.5 15t-69.5 30.5t-64 49.5t-43 74.5t-17.5 103zM170 1358 q0 50 34 81t81 31t78.5 -30.5t31.5 -79.5q0 -50 -30.5 -82.5t-79.5 -32.5q-48 0 -81.5 32t-33.5 81zM242 281q0 -13 1.5 -27.5t12.5 -47.5t31 -57t62.5 -43.5t101.5 -19.5q46 0 78 11t48 25t24.5 38t9.5 38.5t1 37.5v321h-1l-1 -1h-1h-1l-1 -1h-1q-184 -59 -246 -94 q-104 -58 -116 -151q-2 -14 -2 -29zM532 1358q0 51 33.5 81.5t79.5 30.5q48 0 80.5 -30.5t32.5 -79.5q0 -50 -32 -82.5t-81 -32.5q-48 0 -80.5 32t-32.5 81z" />
<glyph unicode="&#xe5;" horiz-adv-x="894" d="M55 254q0 50 15.5 92t36 73t66.5 61.5t80.5 49t106.5 44t116 39t136 40.5v105q0 25 -0.5 38t-3 39.5t-8 42.5t-16.5 37t-27 33t-41 20.5t-57 8.5q-34 0 -62 -10.5t-45 -24t-32 -35t-20.5 -33.5t-12.5 -30q-7 -21 -12 -31.5t-15.5 -26t-26.5 -23t-38 -7.5q-29 0 -55.5 21 t-26.5 65q0 96 106.5 169.5t265.5 73.5q49 0 90 -8t70 -20t52.5 -33t38.5 -39t25.5 -46t16 -47t8.5 -49t4 -44.5t1 -40.5v-543q-2 -76 -18.5 -115.5t-70.5 -68.5q-107 -56 -288 -56q-21 0 -38 0.5t-56.5 6t-70.5 15t-69.5 30.5t-64 49.5t-43 74.5t-17.5 103zM242 281 q0 -13 1.5 -27.5t12.5 -47.5t31 -57t62.5 -43.5t101.5 -19.5q46 0 78 11t48 25t24.5 38t9.5 38.5t1 37.5v321h-1l-1 -1h-1h-1l-1 -1h-1q-184 -59 -246 -94q-104 -58 -116 -151q-2 -14 -2 -29zM315 1323q0 67 44.5 110.5t109.5 43.5q64 0 110 -42t46 -112q-1 -68 -46.5 -112 t-109.5 -44q-63 0 -108.5 43.5t-45.5 112.5zM389 1325q0 -36 24.5 -59t57.5 -23q32 0 56.5 23t23.5 61q-2 33 -23 54.5t-57 21.5q-37 0 -59.5 -24t-22.5 -54z" />
<glyph unicode="&#xe6;" horiz-adv-x="1492" d="M53 266q0 58 21.5 106t63.5 83.5t93 62t122 46.5t137 33.5t151 25.5q-14 162 -29 217q-42 137 -157 137q-35 0 -63 -9.5t-44 -22t-30.5 -34t-20.5 -34.5t-14 -35q-18 -51 -38 -76t-59 -25q-33 0 -57.5 22.5t-24.5 65.5q0 25 12 56t40.5 67t70 65t108.5 48.5t148 19.5 q42 0 79 -8t62 -18t48 -29.5t35 -32.5t26 -37t18 -32t13 -29q15 24 25.5 40t39.5 46.5t58.5 49.5t78 34.5t103.5 15.5q68 0 124.5 -21t93 -53t64.5 -73.5t43 -79.5t24 -74.5t11.5 -54t2.5 -22.5q0 -22 -6.5 -37t-20.5 -22.5t-24 -10.5t-29 -6l-549 -84q4 -90 22 -162 q35 -124 108.5 -184t149.5 -60q49 0 99 22t84 56q33 33 75 119q10 20 15 28.5t14 15.5t21 7q16 0 29.5 -12t13.5 -41q0 -35 -13 -79.5t-42.5 -94.5t-71 -91.5t-105.5 -68.5t-139 -27q-67 0 -127 25q-69 27 -116.5 75t-84.5 122q-12 -28 -21.5 -47t-38 -55.5t-62 -59.5 t-92 -41.5t-128.5 -18.5q-82 0 -148.5 26.5t-107 69t-62.5 93t-22 102.5zM240 285q0 -77 52.5 -135t139.5 -58q55 0 102 27t76 71q45 73 45 220q0 15 -6 114q-53 -8 -89.5 -14t-83 -17t-77.5 -22.5t-63.5 -29.5t-52 -39.5t-31.5 -51t-12 -65.5zM803 645l438 68 q-11 132 -67.5 193t-131.5 61q-99 0 -168.5 -86t-70.5 -236z" />
<glyph unicode="&#xe7;" horiz-adv-x="937" d="M66 520q0 252 120.5 408.5t335.5 156.5q83 0 153.5 -29t111 -71.5t63 -85t22.5 -74.5q0 -44 -28 -65t-58 -21q-52 0 -84 62q-18 36 -26.5 51t-28.5 43t-38 40.5t-47 23t-64 10.5q-111 0 -189 -103.5t-78 -279.5q0 -109 26 -196.5t70 -141t98 -81.5t112 -28q41 0 77.5 13 t60.5 28.5t48 42.5t34 41.5t25 38.5q17 26 23 35t15.5 15.5t21.5 6.5q5 0 10.5 -1.5t13 -6t12.5 -15t5 -26.5q0 -23 -9.5 -58.5t-36 -83t-66 -88.5t-106.5 -71t-149 -35l-27 -116q88 6 136.5 -37.5t48.5 -102.5q0 -69 -61.5 -120.5t-159.5 -51.5q-53 0 -117 19.5t-64 52.5 q0 10 6.5 20.5t24.5 10.5q2 0 41 -10q63 -11 90 -11q50 0 84.5 23t34.5 67q0 22 -10 37t-30 22.5t-32 10t-32 4.5q-26 2 -35 9t-6 32l16 146q-163 28 -260.5 173.5t-97.5 366.5z" />
<glyph unicode="&#xe8;" horiz-adv-x="980" d="M66 528q0 202 69 330q11 21 24 41t47 56.5t72.5 62.5t101.5 46.5t134 20.5q77 0 141 -21t105 -55t71.5 -74t46 -82.5t22.5 -75t7 -56.5q0 -20 -5 -33.5t-15.5 -20t-18 -8.5t-20.5 -4l-627 -92q6 -104 34.5 -186t72.5 -132t97.5 -76t113.5 -26q171 0 282 181 q23 39 32.5 49t27.5 10q8 0 16 -3t16.5 -14.5t8.5 -31.5t-11.5 -58t-41.5 -91t-74 -99t-118.5 -78.5t-164.5 -32.5q-50 0 -99.5 11.5t-102 36.5t-99.5 74t-80 116q-65 125 -65 315zM221 664l490 75q-9 99 -70.5 164.5t-148.5 65.5q-120 0 -187.5 -82.5t-83.5 -222.5z M242 1403q0 30 16.5 52t40.5 22q22 0 53 -31l178 -182q21 -21 21 -45q0 -23 -11.5 -35.5t-25.5 -12.5q-10 0 -35 15l-198 141q-39 29 -39 76z" />
<glyph unicode="&#xe9;" horiz-adv-x="980" d="M66 528q0 202 69 330q11 21 24 41t47 56.5t72.5 62.5t101.5 46.5t134 20.5q77 0 141 -21t105 -55t71.5 -74t46 -82.5t22.5 -75t7 -56.5q0 -20 -5 -33.5t-15.5 -20t-18 -8.5t-20.5 -4l-627 -92q6 -104 34.5 -186t72.5 -132t97.5 -76t113.5 -26q171 0 282 181 q23 39 32.5 49t27.5 10q8 0 16 -3t16.5 -14.5t8.5 -31.5t-11.5 -58t-41.5 -91t-74 -99t-118.5 -78.5t-164.5 -32.5q-50 0 -99.5 11.5t-102 36.5t-99.5 74t-80 116q-65 125 -65 315zM221 664l490 75q-9 99 -70.5 164.5t-148.5 65.5q-120 0 -187.5 -82.5t-83.5 -222.5z M471 1219q0 24 21 45l180 182q31 31 53 31q24 0 39.5 -22t15.5 -52q0 -48 -37 -76l-198 -141q-25 -15 -35 -15q-14 0 -26.5 12.5t-12.5 35.5z" />
<glyph unicode="&#xea;" horiz-adv-x="980" d="M66 528q0 202 69 330q11 21 24 41t47 56.5t72.5 62.5t101.5 46.5t134 20.5q77 0 141 -21t105 -55t71.5 -74t46 -82.5t22.5 -75t7 -56.5q0 -20 -5 -33.5t-15.5 -20t-18 -8.5t-20.5 -4l-627 -92q6 -104 34.5 -186t72.5 -132t97.5 -76t113.5 -26q171 0 282 181 q23 39 32.5 49t27.5 10q8 0 16 -3t16.5 -14.5t8.5 -31.5t-11.5 -58t-41.5 -91t-74 -99t-118.5 -78.5t-164.5 -32.5q-50 0 -99.5 11.5t-102 36.5t-99.5 74t-80 116q-65 125 -65 315zM221 664l490 75q-9 99 -70.5 164.5t-148.5 65.5q-120 0 -187.5 -82.5t-83.5 -222.5z M229 1192q0 3 0.5 6.5t0.5 5.5t1.5 5l2.5 5t3.5 5t3.5 4l4.5 4.5l5 5t6.5 6t7 6.5q129 112 182 178q16 24 26 32.5t24 8.5q22 0 43 -26q4 -4 22 -23t24.5 -26t24.5 -24.5t32 -30t35.5 -31t45.5 -37.5q38 -32 46.5 -42.5t8.5 -25.5q0 -13 -8.5 -24t-19.5 -11q-8 0 -33 15 l-166 106q-38 21 -53 21q-21 0 -56 -25l-149 -102q-23 -19 -35 -19q-11 0 -20 9.5t-9 23.5z" />
<glyph unicode="&#xeb;" horiz-adv-x="980" d="M66 528q0 202 69 330q11 21 24 41t47 56.5t72.5 62.5t101.5 46.5t134 20.5q77 0 141 -21t105 -55t71.5 -74t46 -82.5t22.5 -75t7 -56.5q0 -20 -5 -33.5t-15.5 -20t-18 -8.5t-20.5 -4l-627 -92q6 -104 34.5 -186t72.5 -132t97.5 -76t113.5 -26q171 0 282 181 q23 39 32.5 49t27.5 10q8 0 16 -3t16.5 -14.5t8.5 -31.5t-11.5 -58t-41.5 -91t-74 -99t-118.5 -78.5t-164.5 -32.5q-50 0 -99.5 11.5t-102 36.5t-99.5 74t-80 116q-65 125 -65 315zM215 1358q0 50 34 81t81 31t78.5 -30.5t31.5 -79.5q0 -50 -30.5 -82.5t-79.5 -32.5 q-48 0 -81.5 32t-33.5 81zM221 664l490 75q-9 99 -70.5 164.5t-148.5 65.5q-120 0 -187.5 -82.5t-83.5 -222.5zM578 1358q0 51 33 81.5t79 30.5q48 0 80.5 -30.5t32.5 -79.5q0 -50 -32 -82.5t-81 -32.5q-48 0 -80 32t-32 81z" />
<glyph unicode="&#xec;" horiz-adv-x="425" d="M-59 1403q0 30 16.5 52t40.5 22q22 0 53 -31l178 -182q21 -21 21 -45q0 -23 -11.5 -35.5t-25.5 -12.5q-10 0 -35 15l-198 141q-39 29 -39 76zM121 39v983q0 13 0.5 18t4 11t10.5 8t20 2h106q25 0 33 -7.5t8 -31.5v-983q0 -26 -8 -32.5t-33 -6.5h-110q-22 0 -26.5 7 t-4.5 32z" />
<glyph unicode="&#xed;" horiz-adv-x="425" d="M121 39v983q0 13 0.5 18t4 11t10.5 8t20 2h106q25 0 33 -7.5t8 -31.5v-983q0 -26 -8 -32.5t-33 -6.5h-110q-22 0 -26.5 7t-4.5 32zM170 1219q0 25 20 45l181 182q31 31 53 31q24 0 39.5 -22t15.5 -52q0 -48 -37 -76l-198 -141q-25 -15 -35 -15q-14 0 -26.5 12.5 t-12.5 35.5z" />
<glyph unicode="&#xee;" horiz-adv-x="425" d="M-72 1192q0 3 0.5 6.5t0.5 5.5t1.5 5l2.5 5t3.5 5t3.5 4l4.5 4.5l5 5t6.5 6t7 6.5q129 112 182 178q16 24 26 32.5t24 8.5q22 0 43 -26q4 -4 22 -23t24.5 -26t24.5 -24.5t32 -30t35.5 -31t45.5 -37.5q38 -32 46.5 -42.5t8.5 -25.5q0 -13 -8.5 -24t-19.5 -11q-8 0 -33 15 l-166 106q-38 21 -53 21q-21 0 -56 -25l-149 -102q-23 -19 -35 -19q-11 0 -20 9.5t-9 23.5zM121 39v983q0 13 0.5 18t4 11t10.5 8t20 2h106q25 0 33 -7.5t8 -31.5v-983q0 -26 -8 -32.5t-33 -6.5h-110q-22 0 -26.5 7t-4.5 32z" />
<glyph unicode="&#xef;" horiz-adv-x="425" d="M-86 1358q0 50 34 81t81 31t78.5 -30.5t31.5 -79.5q0 -50 -30.5 -82.5t-79.5 -32.5q-48 0 -81.5 32t-33.5 81zM121 39v983q0 13 0.5 18t4 11t10.5 8t20 2h106q25 0 33 -7.5t8 -31.5v-983q0 -26 -8 -32.5t-33 -6.5h-110q-22 0 -26.5 7t-4.5 32zM276 1358q0 51 33.5 81.5 t79.5 30.5q48 0 80.5 -30.5t32.5 -79.5q0 -50 -32 -82.5t-81 -32.5q-48 0 -80.5 32t-32.5 81z" />
<glyph unicode="&#xf0;" d="M66 526q0 161 60.5 290.5t163 200t224.5 70.5q181 0 272 -155q-45 198 -172 364l-262 -88q-2 0 -12.5 -3t-15.5 -3q-12 0 -30 36t-18 44q0 13 29 23l244 77q-67 81 -119 123q-24 19 -24 31q0 9 10.5 14t75.5 29q1 0 22 6t23 6q20 0 73 -49t101 -106l137 45q12 4 18 4 q13 0 31 -38t18 -44q0 -13 -22 -19l-115 -36q94 -116 160 -301t66 -422q0 -299 -124.5 -474.5t-342.5 -175.5q-113 0 -205 48t-148.5 127.5t-87 176t-30.5 199.5zM256 559q0 -203 84 -331t209 -128q123 0 193 122t65 308q-5 189 -82.5 316t-204.5 127q-117 0 -190.5 -113.5 t-73.5 -300.5z" />
<glyph unicode="&#xf1;" d="M121 39v825q0 62 16 93.5t66 56.5q135 71 352 71q63 0 115.5 -8t90.5 -20t68 -33t49 -39.5t33 -46.5t20.5 -48.5t10 -51t4 -47t0.5 -43.5v-707q0 -37 -24 -41h-113q-26 0 -35.5 7.5t-9.5 33.5v688q0 22 -0.5 34t-2.5 35.5t-6 38t-12 35.5t-20 34.5t-30.5 28.5t-41.5 23.5 t-55.5 14.5t-71.5 6q-62 0 -106.5 -15t-66 -33.5t-33.5 -48t-13.5 -46t-1.5 -39.5v-756q0 -26 -9.5 -33.5t-33.5 -7.5h-100q-23 -2 -31 6t-8 33zM225 1260q0 20 11.5 49t33 59.5t59.5 52t83 21.5q35 0 62.5 -12.5t66.5 -38.5q54 -39 78 -50.5t57 -11.5q37 0 59 17.5t41 48.5 q13 20 19.5 26t19.5 6q11 0 20 -10t9 -31q0 -22 -10.5 -51t-30.5 -59.5t-56 -51t-81 -20.5q-66 0 -115 39q-46 34 -61.5 44.5t-38 20t-45.5 9.5q-30 0 -53 -11.5t-31.5 -22t-20.5 -28.5q-11 -20 -20 -28t-23 -8q-13 0 -23 10t-10 31z" />
<glyph unicode="&#xf2;" d="M66 528q0 108 32 208t90.5 178t148.5 124.5t198 46.5q93 0 171 -34.5t130.5 -90t90 -128t55 -147t19.5 -148.5q1 -83 -17.5 -163.5t-57.5 -152.5t-93.5 -127t-131 -87t-164.5 -32q-90 0 -167.5 31t-132.5 84.5t-94 124.5t-58 150.5t-19 162.5zM256 557q0 -206 86 -331.5 t203 -125.5q120 0 195.5 122.5t66.5 328.5q-9 201 -91.5 310.5t-193.5 109.5q-121 0 -193.5 -115t-72.5 -299zM262 1403q0 30 16.5 52t40.5 22q23 0 54 -31l178 -182q20 -20 20 -45q0 -23 -11 -35.5t-25 -12.5q-10 0 -35 15l-199 141q-39 29 -39 76z" />
<glyph unicode="&#xf3;" d="M66 528q0 108 32 208t90.5 178t148.5 124.5t198 46.5q93 0 171 -34.5t130.5 -90t90 -128t55 -147t19.5 -148.5q1 -83 -17.5 -163.5t-57.5 -152.5t-93.5 -127t-131 -87t-164.5 -32q-90 0 -167.5 31t-132.5 84.5t-94 124.5t-58 150.5t-19 162.5zM256 557q0 -206 86 -331.5 t203 -125.5q120 0 195.5 122.5t66.5 328.5q-9 201 -91.5 310.5t-193.5 109.5q-121 0 -193.5 -115t-72.5 -299zM492 1219q0 25 20 45l180 182q31 31 53 31q24 0 40 -22t16 -52q0 -48 -37 -76l-199 -141q-25 -15 -35 -15q-14 0 -26 12.5t-12 35.5z" />
<glyph unicode="&#xf4;" d="M66 528q0 108 32 208t90.5 178t148.5 124.5t198 46.5q93 0 171 -34.5t130.5 -90t90 -128t55 -147t19.5 -148.5q1 -83 -17.5 -163.5t-57.5 -152.5t-93.5 -127t-131 -87t-164.5 -32q-90 0 -167.5 31t-132.5 84.5t-94 124.5t-58 150.5t-19 162.5zM250 1192q0 3 0.5 6.5 t0.5 5.5t1.5 5l2.5 5t3.5 5t3.5 4l4.5 4.5l5 5t6.5 6t7 6.5q129 112 182 178q17 24 26 32.5t23 8.5q22 0 43 -26q4 -4 22 -23t24.5 -26t24.5 -24.5t32 -30t35.5 -31t45.5 -37.5q39 -33 47.5 -43t8.5 -25q0 -13 -9 -24t-20 -11q-8 0 -33 15l-166 106q-38 21 -53 21 q-20 0 -55 -25l-150 -102q-23 -19 -34 -19t-20 9.5t-9 23.5zM256 557q0 -206 86 -331.5t203 -125.5q120 0 195.5 122.5t66.5 328.5q-9 201 -91.5 310.5t-193.5 109.5q-121 0 -193.5 -115t-72.5 -299z" />
<glyph unicode="&#xf5;" d="M66 528q0 108 32 208t90.5 178t148.5 124.5t198 46.5q93 0 171 -34.5t130.5 -90t90 -128t55 -147t19.5 -148.5q1 -83 -17.5 -163.5t-57.5 -152.5t-93.5 -127t-131 -87t-164.5 -32q-90 0 -167.5 31t-132.5 84.5t-94 124.5t-58 150.5t-19 162.5zM225 1260q0 20 11.5 49 t33 59.5t59.5 52t83 21.5q35 0 62.5 -12.5t66.5 -38.5q54 -39 78 -50.5t57 -11.5q37 0 59 17.5t41 48.5q13 20 19.5 26t19.5 6q11 0 20 -10t9 -31q0 -22 -10.5 -51t-30.5 -59.5t-56 -51t-81 -20.5q-66 0 -115 39q-46 34 -61.5 44.5t-38 20t-45.5 9.5q-30 0 -53 -11.5 t-31.5 -22t-20.5 -28.5q-11 -20 -20 -28t-23 -8q-13 0 -23 10t-10 31zM256 557q0 -206 86 -331.5t203 -125.5q120 0 195.5 122.5t66.5 328.5q-9 201 -91.5 310.5t-193.5 109.5q-121 0 -193.5 -115t-72.5 -299z" />
<glyph unicode="&#xf6;" d="M66 528q0 108 32 208t90.5 178t148.5 124.5t198 46.5q93 0 171 -34.5t130.5 -90t90 -128t55 -147t19.5 -148.5q1 -83 -17.5 -163.5t-57.5 -152.5t-93.5 -127t-131 -87t-164.5 -32q-90 0 -167.5 31t-132.5 84.5t-94 124.5t-58 150.5t-19 162.5zM238 1358q0 50 34 81t80 31 q47 0 79 -30.5t32 -79.5q0 -50 -31 -82.5t-80 -32.5q-48 0 -81 32t-33 81zM256 557q0 -206 86 -331.5t203 -125.5q120 0 195.5 122.5t66.5 328.5q-9 201 -91.5 310.5t-193.5 109.5q-121 0 -193.5 -115t-72.5 -299zM600 1358q0 51 33.5 81.5t79.5 30.5q48 0 80 -30.5 t32 -79.5q0 -50 -31.5 -82.5t-80.5 -32.5q-48 0 -80.5 32t-32.5 81z" />
<glyph unicode="&#xf7;" horiz-adv-x="1024" d="M0 535v120h1024v-120h-1024zM422 328q0 38 26.5 66t65.5 28q36 0 66 -24.5t30 -69.5q0 -44 -28 -68t-62 -24q-41 0 -69.5 25t-28.5 67zM422 860q0 44 29 69t63 25q36 0 66 -23.5t30 -70.5q0 -40 -27 -66t-67 -26q-38 0 -66 25.5t-28 66.5z" />
<glyph unicode="&#xf8;" d="M66 -55q0 5 14 26l119 164q-133 160 -133 393q0 109 32.5 209t92 177.5t150 124t198.5 46.5q71 0 130.5 -19.5t83 -35.5t54.5 -43l119 162q11 16 22 16q7 0 24 -14.5t17 -24.5q0 -12 -12 -24l-117 -168q139 -170 139 -408q0 -106 -33 -205t-92.5 -176t-149 -123.5 t-194.5 -46.5q-56 0 -104 11.5t-85 33t-53 33.5t-38 31l-117 -166q-11 -14 -18 -14t-28 15t-21 26zM240 561q0 -139 61 -280l424 593q-43 52 -87.5 80.5t-111.5 28.5t-122.5 -37t-90.5 -97.5t-54 -135t-19 -152.5zM340 209q26 -36 57.5 -61t61 -35t48 -13.5t34.5 -3.5 q125 0 204.5 124t79.5 298q0 159 -63 283z" />
<glyph unicode="&#xf9;" horiz-adv-x="1024" d="M109 299v725q0 21 7 29t29 8h107q24 0 32.5 -7t8.5 -32v-680q0 -23 0.5 -34.5t3 -35t6.5 -37t12 -34.5t19.5 -33.5t29 -27.5t39.5 -23t52 -13.5t67 -5.5q44 0 78 7.5t56 18t37.5 30.5t23 35t11.5 42t4.5 42.5t0.5 43.5v701q0 37 25 41q6 2 112 2q25 0 34.5 -8t10.5 -31 v-768q-2 -87 -17 -130.5t-69 -76.5q-139 -72 -335 -72q-190 0 -291 80q-54 45 -74 103t-20 141zM240 1403q0 30 16.5 52t40.5 22q22 0 53 -31l178 -182q21 -21 21 -45q0 -23 -11.5 -35.5t-25.5 -12.5q-10 0 -35 15l-198 141q-39 29 -39 76z" />
<glyph unicode="&#xfa;" horiz-adv-x="1024" d="M109 299v725q0 21 7 29t29 8h107q24 0 32.5 -7t8.5 -32v-680q0 -23 0.5 -34.5t3 -35t6.5 -37t12 -34.5t19.5 -33.5t29 -27.5t39.5 -23t52 -13.5t67 -5.5q44 0 78 7.5t56 18t37.5 30.5t23 35t11.5 42t4.5 42.5t0.5 43.5v701q0 37 25 41q6 2 112 2q25 0 34.5 -8t10.5 -31 v-768q-2 -87 -17 -130.5t-69 -76.5q-139 -72 -335 -72q-190 0 -291 80q-54 45 -74 103t-20 141zM469 1219q0 25 20 45l181 182q31 31 53 31q24 0 39.5 -22t15.5 -52q0 -48 -37 -76l-198 -141q-25 -15 -35 -15q-14 0 -26.5 12.5t-12.5 35.5z" />
<glyph unicode="&#xfb;" horiz-adv-x="1024" d="M109 299v725q0 21 7 29t29 8h107q24 0 32.5 -7t8.5 -32v-680q0 -23 0.5 -34.5t3 -35t6.5 -37t12 -34.5t19.5 -33.5t29 -27.5t39.5 -23t52 -13.5t67 -5.5q44 0 78 7.5t56 18t37.5 30.5t23 35t11.5 42t4.5 42.5t0.5 43.5v701q0 37 25 41q6 2 112 2q25 0 34.5 -8t10.5 -31 v-768q-2 -87 -17 -130.5t-69 -76.5q-139 -72 -335 -72q-190 0 -291 80q-54 45 -74 103t-20 141zM227 1192q0 3 0.5 6.5t0.5 5.5t1.5 5l2.5 5t3.5 5t3.5 4l4.5 4.5l5 5t6.5 6t7 6.5q129 112 182 178q16 24 26 32.5t24 8.5q22 0 43 -26q4 -4 22 -23t24.5 -26t24.5 -24.5 t32 -30t35.5 -31t45.5 -37.5q38 -32 46.5 -42.5t8.5 -25.5q0 -13 -8.5 -24t-19.5 -11q-8 0 -33 15l-166 106q-38 21 -53 21q-21 0 -56 -25l-149 -102q-23 -19 -35 -19q-11 0 -20 9.5t-9 23.5z" />
<glyph unicode="&#xfc;" horiz-adv-x="1024" d="M109 299v725q0 21 7 29t29 8h107q24 0 32.5 -7t8.5 -32v-680q0 -23 0.5 -34.5t3 -35t6.5 -37t12 -34.5t19.5 -33.5t29 -27.5t39.5 -23t52 -13.5t67 -5.5q44 0 78 7.5t56 18t37.5 30.5t23 35t11.5 42t4.5 42.5t0.5 43.5v701q0 37 25 41q6 2 112 2q25 0 34.5 -8t10.5 -31 v-768q-2 -87 -17 -130.5t-69 -76.5q-139 -72 -335 -72q-190 0 -291 80q-54 45 -74 103t-20 141zM207 1358q0 50 34 81t81 31t78.5 -30.5t31.5 -79.5q0 -50 -30.5 -82.5t-79.5 -32.5q-48 0 -81.5 32t-33.5 81zM569 1358q0 51 33.5 81.5t79.5 30.5q48 0 80.5 -30.5t32.5 -79.5 q0 -50 -32 -82.5t-81 -32.5q-48 0 -80.5 32t-32.5 81z" />
<glyph unicode="&#xfd;" horiz-adv-x="937" d="M0 -393q0 37 24 62.5t64 25.5q8 0 55 -9.5t56 -9.5q68 0 118.5 69t108.5 255l-397 1001q-13 33 -13 35q0 25 37 25h121q24 0 31 -5.5t16 -31.5l289 -788l266 788q7 22 13.5 28.5t19.5 8.5h100q29 0 29 -23q0 -10 -10 -37l-418 -1146q-20 -54 -39 -95.5t-51.5 -91 t-69 -81.5t-90.5 -54t-117 -22q-18 0 -34 2t-45 9.5t-46.5 29.5t-17.5 55zM446 1219q0 24 21 45l180 182q31 31 53 31q24 0 40 -22t16 -52q0 -48 -37 -76l-199 -141q-25 -15 -35 -15q-14 0 -26.5 12.5t-12.5 35.5z" />
<glyph unicode="&#xfe;" d="M121 -442v1968q0 25 7.5 33.5t31.5 9.5h98q29 0 37 -7.5t8 -35.5v-496q134 62 256 62q90 0 165 -29.5t125.5 -79t85 -116.5t50.5 -140.5t16 -151.5q0 -77 -16.5 -157t-54.5 -159.5t-91.5 -142t-135.5 -101t-179 -38.5q-55 0 -103 14t-68 25.5t-50 32.5v-493 q0 -19 -7.5 -28t-27.5 -9h-102q-25 0 -35 7.5t-10 31.5zM303 168q112 -68 205 -68q132 0 218.5 119t86.5 324q0 64 -9 123t-31 116.5t-55.5 99.5t-87 67.5t-120.5 25.5q-49 0 -100 -14t-74 -41q-15 -16 -23 -40.5t-9 -42.5t-1 -53v-616z" />
<glyph unicode="&#xff;" horiz-adv-x="937" d="M0 -393q0 37 24 62.5t64 25.5q8 0 55 -9.5t56 -9.5q68 0 118.5 69t108.5 255l-397 1001q-13 33 -13 35q0 25 37 25h121q24 0 31 -5.5t16 -31.5l289 -788l266 788q7 22 13.5 28.5t19.5 8.5h100q29 0 29 -23q0 -10 -10 -37l-418 -1146q-20 -54 -39 -95.5t-51.5 -91 t-69 -81.5t-90.5 -54t-117 -22q-18 0 -34 2t-45 9.5t-46.5 29.5t-17.5 55zM190 1358q0 50 34 81t81 31t79 -30.5t32 -79.5q0 -50 -31 -82.5t-80 -32.5q-48 0 -81.5 32t-33.5 81zM553 1358q0 51 33.5 81.5t79.5 30.5q48 0 80 -30.5t32 -79.5q0 -50 -31.5 -82.5t-80.5 -32.5 q-48 0 -80.5 32t-32.5 81z" />
<glyph unicode="&#x152;" horiz-adv-x="1921" d="M72 727q0 215 75.5 384.5t221 267.5t338.5 98q72 0 132 -13.5t104 -38.5t70.5 -46t55.5 -50q0 92 2 98q7 19 39 19h723q21 0 27 -7t6 -30q0 -80 -4 -86q-6 -8 -29 -8h-573v-490h499q24 0 30.5 -5.5t6.5 -28.5q0 -80 -6 -89q-8 -8 -29 -8h-501v-559h573q23 0 29 -8 q4 -6 4 -100q0 -27 -33 -27h-721q-15 0 -21.5 0.5t-12 5t-7.5 14.5q-2 6 -2 101q-137 -152 -369 -152q-191 0 -335.5 101.5t-218.5 272.5t-74 384zM279 739q0 -156 38 -281t102.5 -201.5t144.5 -116.5t169 -40q147 0 250 107q31 32 49.5 63t26 64t9 53.5t1.5 56.5v525 q0 91 -25 162.5t-62 113.5t-85.5 69t-90.5 36.5t-81 9.5q-86 0 -165 -40.5t-142 -115.5t-101 -196t-38 -269z" />
<glyph unicode="&#x153;" horiz-adv-x="1622" d="M66 535q0 108 28.5 205.5t82.5 175t140 123.5t193 46q65 0 120.5 -18t89.5 -40.5t66 -61t44.5 -61t31.5 -58.5q24 59 57.5 103.5t67 69.5t72.5 40.5t70 20.5t63 5q85 0 153.5 -32.5t107 -78.5t64.5 -102t35 -98t9 -72q0 -25 -10.5 -40t-23 -20t-32.5 -9l-567 -86 q16 -193 80 -287q79 -119 209 -119q43 0 81.5 15.5t61.5 33.5t47 49.5t32 46t21 40.5q21 40 31 51.5t29 11.5q41 0 41 -55q0 -36 -13 -81t-42.5 -94.5t-70.5 -90t-104 -67t-137 -26.5q-17 0 -31.5 1.5t-48.5 7t-65 21.5t-66.5 40.5t-68.5 68t-58 99.5q-15 -34 -27.5 -57 t-42 -61t-62.5 -61t-87 -41t-119 -18q-114 0 -203.5 47.5t-142 128t-79.5 178t-27 206.5zM248 553q0 -204 84 -328.5t198 -124.5q68 0 125 43q48 38 76 109.5t34.5 126.5t6.5 113q0 26 -4 88q-3 35 -10.5 73t-21 85t-35 88t-48.5 75.5t-66.5 55t-84.5 20.5q-66 0 -117 -39 t-79.5 -103t-43 -136t-14.5 -146zM928 645l442 68q-7 68 -27.5 119t-43.5 76t-52.5 40t-47 18t-34.5 3q-52 0 -99 -29t-77 -76q-50 -81 -61 -219z" />
<glyph unicode="&#x178;" horiz-adv-x="1110" d="M0 1425q0 21 31 21h147q23 0 31.5 -5t17.5 -24l353 -602l350 598q13 21 19 26t20 7h114q25 0 25 -21q0 -12 -12 -34l-443 -740v-618q0 -23 -8 -28t-33 -5h-133q-20 0 -26.5 7t-6.5 26v629l-432 729q-14 25 -14 34zM248 1718q0 53 37 85t84 32q45 0 79.5 -30.5t34.5 -82.5 q0 -47 -29.5 -82.5t-86.5 -35.5q-48 0 -83.5 30t-35.5 84zM623 1718q0 53 36.5 85t83.5 32q45 0 80 -30.5t35 -82.5q0 -46 -30.5 -82t-86.5 -36q-48 0 -83 30t-35 84z" />
<glyph unicode="&#x2c6;" horiz-adv-x="512" d="M-18 1192q0 16 6 24.5t28 28.5q132 115 183 178q17 24 26 32.5t23 8.5q22 0 43 -26q4 -4 22 -23t24.5 -26t24.5 -24.5t32 -30t35.5 -31t45.5 -37.5q38 -32 46.5 -42.5t8.5 -25.5q0 -13 -8.5 -24t-19.5 -11q-8 0 -33 15l-166 106q-38 21 -53 21q-20 0 -55 -25l-150 -102 q-23 -19 -35 -19q-11 0 -19.5 9.5t-8.5 23.5z" />
<glyph unicode="&#x2dc;" horiz-adv-x="512" d="M-53 1260q0 20 11.5 49t32.5 59.5t59 52t83 21.5q35 0 62.5 -12.5t66.5 -38.5q54 -39 78 -50.5t57 -11.5q37 0 59.5 17.5t41.5 48.5q13 20 19.5 26t19.5 6q11 0 19.5 -10t8.5 -31q0 -22 -10.5 -51t-30.5 -59.5t-56 -51t-81 -20.5q-66 0 -115 39q-46 34 -61.5 44.5t-38 20 t-45.5 9.5q-30 0 -53 -12t-31 -21.5t-20 -28.5q-11 -20 -20 -28t-23 -8q-13 0 -23 10t-10 31z" />
<glyph unicode="&#x2000;" horiz-adv-x="946" />
<glyph unicode="&#x2001;" horiz-adv-x="1892" />
<glyph unicode="&#x2002;" horiz-adv-x="946" />
<glyph unicode="&#x2003;" horiz-adv-x="1892" />
<glyph unicode="&#x2004;" horiz-adv-x="630" />
<glyph unicode="&#x2005;" horiz-adv-x="473" />
<glyph unicode="&#x2006;" horiz-adv-x="315" />
<glyph unicode="&#x2007;" horiz-adv-x="315" />
<glyph unicode="&#x2008;" horiz-adv-x="236" />
<glyph unicode="&#x2009;" horiz-adv-x="378" />
<glyph unicode="&#x200a;" horiz-adv-x="105" />
<glyph unicode="&#x2010;" horiz-adv-x="641" d="M117 535q0 82 2 88q4 20 33 20h333q21 0 29 -6t8 -25v-92q-1 -13 -8 -17.5t-25 -4.5h-337q-20 0 -27.5 7.5t-7.5 29.5z" />
<glyph unicode="&#x2011;" horiz-adv-x="641" d="M117 535q0 82 2 88q4 20 33 20h333q21 0 29 -6t8 -25v-92q-1 -13 -8 -17.5t-25 -4.5h-337q-20 0 -27.5 7.5t-7.5 29.5z" />
<glyph unicode="&#x2012;" horiz-adv-x="641" d="M117 535q0 82 2 88q4 20 33 20h333q21 0 29 -6t8 -25v-92q-1 -13 -8 -17.5t-25 -4.5h-337q-20 0 -27.5 7.5t-7.5 29.5z" />
<glyph unicode="&#x2013;" horiz-adv-x="1110" d="M119 545v65q0 22 9 27.5t32 5.5h788q26 0 34.5 -6t8.5 -31v-59q-3 -16 -11 -19.5t-32 -3.5h-786q-21 0 -30 4t-13 17z" />
<glyph unicode="&#x2014;" horiz-adv-x="1409" d="M119 586q0 40 4.5 48.5t28.5 8.5h1103q21 0 28 -5t7 -24q0 -44 -5 -53.5t-30 -9.5h-1099q-25 2 -31 6.5t-6 28.5z" />
<glyph unicode="&#x2018;" horiz-adv-x="512" d="M137 1221q0 66 25.5 125.5t60.5 95.5t67 57t48 21q17 0 27 -10.5t10 -24.5q0 -17 -23 -43q-76 -76 -76 -129q0 -35 39 -74q17 -19 24 -27.5t15 -26t8 -36.5q0 -38 -28 -65t-68 -27q-49 0 -89 40.5t-40 123.5z" />
<glyph unicode="&#x2019;" horiz-adv-x="512" d="M137 1092q0 18 23 41q76 76 76 131q0 34 -39 73q-16 16 -24 25.5t-15.5 26.5t-7.5 36q0 40 28 67.5t68 27.5q49 0 89 -40.5t40 -123.5q0 -66 -25.5 -125.5t-61 -95.5t-67.5 -57t-49 -21q-15 0 -25 10t-10 25z" />
<glyph unicode="&#x201a;" horiz-adv-x="512" d="M137 -186q0 18 23 41q76 76 76 129q0 36 -39 75q-16 16 -24 25.5t-15.5 26.5t-7.5 36q0 39 28 66t68 27q50 0 89.5 -40t39.5 -124q0 -65 -25.5 -124t-61 -95t-67.5 -57t-49 -21q-15 0 -25 10t-10 25z" />
<glyph unicode="&#x201c;" horiz-adv-x="811" d="M137 1221q0 66 25.5 125.5t60 95.5t66 57t47.5 21q15 0 25 -10.5t10 -24.5q0 -17 -23 -43q-24 -25 -34.5 -37t-25 -40t-14.5 -52q0 -35 39 -74q15 -17 22.5 -26.5t15 -27t7.5 -36.5q0 -38 -27 -65t-67 -27q-50 0 -88.5 41t-38.5 123zM440 1221q0 66 25.5 125.5t60 95.5 t66 57t47.5 21q17 0 27 -10.5t10 -24.5q0 -5 -1 -9.5t-4.5 -9.5t-4.5 -7t-7.5 -9t-7.5 -8q-22 -24 -33 -36.5t-25.5 -40.5t-14.5 -52q0 -36 38 -74q16 -17 23 -26t15 -27t8 -37q0 -39 -27.5 -65.5t-67.5 -26.5q-49 0 -88 40.5t-39 123.5z" />
<glyph unicode="&#x201d;" horiz-adv-x="811" d="M135 1092q0 18 23 41q73 73 73 129q0 39 -36 75q-16 16 -23.5 24.5t-16 26.5t-8.5 37q0 40 28.5 67.5t68.5 27.5q48 0 87.5 -41t39.5 -125q0 -65 -25.5 -124t-60 -95t-66 -57t-47.5 -21q-17 0 -27 10.5t-10 24.5zM438 1092q0 19 25 41q22 23 33.5 37t26 41.5t14.5 50.5 q0 17 -7 32.5t-13 22.5t-19 20q-45 45 -45 88q0 39 27 67t67 28q49 0 88 -41.5t39 -122.5q0 -66 -25.5 -125.5t-60 -95.5t-66 -57t-47.5 -21q-15 0 -26 10t-11 25z" />
<glyph unicode="&#x201e;" horiz-adv-x="811" d="M135 -186q0 18 23 41q75 75 75 129q0 16 -7 31.5t-12 22t-19 21.5q-16 16 -23.5 24.5t-16 26.5t-8.5 37q0 39 28.5 66t68.5 27q49 0 88 -40t39 -124q0 -65 -25.5 -124t-60 -95t-66 -57t-47.5 -21q-17 0 -27 10t-10 25zM438 -186q0 16 25 41q22 23 33.5 37t26 41.5 t14.5 50.5q0 17 -7 32.5t-13 22.5t-19 20q-45 45 -45 88q0 39 27 67t67 28q49 0 88 -41.5t39 -122.5q0 -66 -25.5 -126t-60 -95.5t-66 -56.5t-47.5 -21q-15 0 -26 10t-11 25z" />
<glyph unicode="&#x2022;" horiz-adv-x="681" d="M96 723q0 94 68.5 169t179.5 75q106 0 175 -72.5t67 -171.5q-2 -102 -68.5 -173t-169.5 -71q-111 0 -181.5 72t-70.5 172z" />
<glyph unicode="&#x2026;" horiz-adv-x="2048" d="M213 115q0 59 40 92t87 33q54 0 91 -37.5t36 -93.5q-1 -53 -38.5 -87t-88.5 -34q-52 0 -89.5 35.5t-37.5 91.5zM895 115q0 59 40 92t87 33q54 0 91 -37.5t36 -93.5q-1 -53 -38.5 -87t-88.5 -34q-52 0 -89.5 35.5t-37.5 91.5zM1577 115q0 59 40 92t87 33q54 0 91 -37.5 t36 -93.5q-1 -53 -38.5 -87t-88.5 -34q-52 0 -89.5 35.5t-37.5 91.5z" />
<glyph unicode="&#x202f;" horiz-adv-x="378" />
<glyph unicode="&#x2039;" horiz-adv-x="468" d="M59 600q0 12 5.5 19t29.5 28q106 100 189 221q36 51 46.5 62.5t22.5 11.5t23.5 -9.5t11.5 -25.5t-10 -33l-109 -202q-26 -46 -26 -74q0 -9 3 -20.5t6 -18t10 -22t9 -19.5l109 -205q12 -20 12 -34q0 -15 -10.5 -25t-22.5 -10q-22 0 -45 35q-44 67 -67 99.5t-57.5 74.5 t-73.5 79q-38 33 -47 44.5t-9 23.5z" />
<glyph unicode="&#x203a;" horiz-adv-x="468" d="M78 907q0 15 10 25t23 10q22 0 45 -35q5 -8 25 -37.5t25.5 -37t22 -31t23.5 -32.5t22 -28t25.5 -30.5t25 -26.5t29.5 -29q40 -37 48 -46.5t8 -22.5q0 -12 -5.5 -19t-29.5 -28q-99 -93 -189 -222q-36 -50 -46.5 -61.5t-22.5 -11.5t-23.5 9.5t-11.5 25.5q0 15 10 32 l109 203q26 46 26 74q0 9 -3 20.5t-6 18t-10 22t-9 19.5l-109 204q-12 20 -12 35z" />
<glyph unicode="&#x205f;" horiz-adv-x="473" />
<glyph unicode="&#x2122;" horiz-adv-x="1406" d="M49 1362v86h537v-86h-217v-594h-97v594h-223zM643 768v680h137l178 -559l175 559h137v-680h-94v444l4 140l-35 -119l-148 -465h-86l-147 465l-35 117l6 -138v-444h-92z" />
<glyph unicode="&#xe000;" horiz-adv-x="1064" d="M0 0v1065h1065v-1065h-1065z" />
<glyph unicode="&#xfb01;" horiz-adv-x="980" d="M20 997q0 45 5 54.5t32 9.5h117q15 223 64 330q39 83 107 137.5t149 54.5q40 0 66 -21.5t26 -58.5q0 -30 -18.5 -49t-43.5 -22h-63q-133 0 -133 -215q0 -93 26 -156h170q30 1 35.5 -9t5.5 -57q0 -13 -6 -19t-12.5 -6.5t-22.5 -0.5h-166v-926q0 -26 -9.5 -34.5t-31.5 -8.5 h-106q-24 0 -30.5 9t-6.5 36v924h-115q-18 0 -24 1t-10.5 7t-4.5 20zM657 1350q0 47 31.5 77.5t79.5 30.5q45 0 76.5 -28.5t32.5 -73.5q2 -46 -28.5 -79.5t-82.5 -33.5q-50 0 -79.5 31t-29.5 76zM676 39v983q0 13 0.5 18t4 11t10.5 8t20 2h106q25 0 33 -7.5t8 -31.5v-983 q0 -25 -8 -32t-33 -7h-110q-22 0 -26.5 7.5t-4.5 31.5z" />
<glyph unicode="&#xfb02;" horiz-adv-x="980" d="M20 997q0 45 5 54.5t32 9.5h117q15 223 64 330q39 83 107 137.5t149 54.5q41 0 66.5 -21.5t25.5 -58.5q0 -31 -18 -49.5t-44 -21.5h-63q-133 0 -133 -215q0 -93 26 -156h170q30 1 35.5 -9t5.5 -57q0 -13 -5.5 -19t-12 -6.5t-23.5 -0.5h-166v-926q0 -26 -9.5 -34.5 t-31.5 -8.5h-106q-24 0 -30.5 9t-6.5 36v924h-115q-18 0 -24 1t-10.5 7t-4.5 20zM678 37v1499q0 22 9 27.5t32 5.5h102q24 0 31.5 -6t7.5 -29v-1497q0 -23 -8.5 -30t-30.5 -7h-104q-25 0 -32 6.5t-7 30.5z" />
</font>
</defs>
</svg>
